M48
;DRILL file {KiCad (5.0.0)} date 08/26/18 19:27:43
;FORMAT={-:-/ absolute / metric / decimal}
FMAT,2
METRIC,TZ
T1C0.800
T2C0.890
T3C1.570
T4C0.762
T5C3.200
T6C3.250
%
G90
G05
M71
T1
X30.276Y18.723
X32.816Y18.723
X35.356Y18.723
X37.896Y18.723
T2
X21.336Y28.702
X22.356Y26.922
X23.376Y28.702
X24.396Y26.922
X25.416Y28.702
X26.436Y26.922
X27.456Y28.702
X28.476Y26.922
T3
X16.766Y27.812
X33.026Y27.812
T4
X12.892Y36.473
X12.892Y19.473
X55.142Y36.473
X55.142Y19.473
T5
X63.175Y3.434
X3.175Y43.434
X3.175Y3.434
X63.175Y43.434
T6
X18.546Y31.242
X31.246Y31.242
T0
M30
