M48
;DRILL file {KiCad (5.0.0)} date 08/26/18 22:00:47
;FORMAT={-:-/ absolute / metric / decimal}
FMAT,2
METRIC,TZ
T1C0.760
T2C0.800
T3C1.700
T4C3.200
%
G90
G05
M71
T1
X28.194Y31.115
X29.464Y28.575
X30.734Y31.115
X32.004Y28.575
X33.274Y31.115
X34.544Y28.575
X35.814Y31.115
X37.084Y28.575
T2
X28.779Y12.246
X31.319Y12.246
X33.859Y12.246
X36.399Y12.246
T3
X11.533Y29.996
X11.533Y12.996
X53.783Y29.996
X53.783Y12.996
T4
X63.175Y3.434
X3.175Y43.434
X3.175Y3.434
X63.175Y43.434
X26.924Y37.465
X38.354Y37.465
T0
M30
