G04 #@! TF.GenerationSoftware,KiCad,Pcbnew,(5.0.0)*
G04 #@! TF.CreationDate,2018-08-26T19:27:32+02:00*
G04 #@! TF.ProjectId,Sensor board,53656E736F7220626F6172642E6B6963,rev?*
G04 #@! TF.SameCoordinates,PX65faef0PY58e64d0*
G04 #@! TF.FileFunction,Copper,L1,Top,Signal*
G04 #@! TF.FilePolarity,Positive*
%FSLAX46Y46*%
G04 Gerber Fmt 4.6, Leading zero omitted, Abs format (unit mm)*
G04 Created by KiCad (PCBNEW (5.0.0)) date 08/26/18 19:27:32*
%MOMM*%
%LPD*%
G01*
G04 APERTURE LIST*
G04 #@! TA.AperFunction,Conductor*
%ADD10C,0.100000*%
G04 #@! TD*
G04 #@! TA.AperFunction,SMDPad,CuDef*
%ADD11C,1.150000*%
G04 #@! TD*
G04 #@! TA.AperFunction,SMDPad,CuDef*
%ADD12C,1.500000*%
G04 #@! TD*
G04 #@! TA.AperFunction,ComponentPad*
%ADD13R,1.500000X1.500000*%
G04 #@! TD*
G04 #@! TA.AperFunction,ComponentPad*
%ADD14C,1.500000*%
G04 #@! TD*
G04 #@! TA.AperFunction,ComponentPad*
%ADD15C,2.000000*%
G04 #@! TD*
G04 #@! TA.AperFunction,WasherPad*
%ADD16C,1.524000*%
G04 #@! TD*
G04 #@! TA.AperFunction,ComponentPad*
%ADD17C,1.524000*%
G04 #@! TD*
G04 #@! TA.AperFunction,SMDPad,CuDef*
%ADD18R,0.600000X1.550000*%
G04 #@! TD*
G04 #@! TA.AperFunction,SMDPad,CuDef*
%ADD19R,1.550000X0.600000*%
G04 #@! TD*
G04 #@! TA.AperFunction,SMDPad,CuDef*
%ADD20R,2.000000X3.800000*%
G04 #@! TD*
G04 #@! TA.AperFunction,SMDPad,CuDef*
%ADD21R,2.000000X1.500000*%
G04 #@! TD*
G04 #@! TA.AperFunction,Conductor*
%ADD22C,0.400000*%
G04 #@! TD*
G04 #@! TA.AperFunction,Conductor*
%ADD23C,0.254000*%
G04 #@! TD*
G04 APERTURE END LIST*
D10*
G04 #@! TO.N,VCC*
G04 #@! TO.C,C2*
G36*
X12804505Y14414796D02*
X12828773Y14411196D01*
X12852572Y14405235D01*
X12875671Y14396970D01*
X12897850Y14386480D01*
X12918893Y14373868D01*
X12938599Y14359253D01*
X12956777Y14342777D01*
X12973253Y14324599D01*
X12987868Y14304893D01*
X13000480Y14283850D01*
X13010970Y14261671D01*
X13019235Y14238572D01*
X13025196Y14214773D01*
X13028796Y14190505D01*
X13030000Y14166001D01*
X13030000Y13265999D01*
X13028796Y13241495D01*
X13025196Y13217227D01*
X13019235Y13193428D01*
X13010970Y13170329D01*
X13000480Y13148150D01*
X12987868Y13127107D01*
X12973253Y13107401D01*
X12956777Y13089223D01*
X12938599Y13072747D01*
X12918893Y13058132D01*
X12897850Y13045520D01*
X12875671Y13035030D01*
X12852572Y13026765D01*
X12828773Y13020804D01*
X12804505Y13017204D01*
X12780001Y13016000D01*
X12129999Y13016000D01*
X12105495Y13017204D01*
X12081227Y13020804D01*
X12057428Y13026765D01*
X12034329Y13035030D01*
X12012150Y13045520D01*
X11991107Y13058132D01*
X11971401Y13072747D01*
X11953223Y13089223D01*
X11936747Y13107401D01*
X11922132Y13127107D01*
X11909520Y13148150D01*
X11899030Y13170329D01*
X11890765Y13193428D01*
X11884804Y13217227D01*
X11881204Y13241495D01*
X11880000Y13265999D01*
X11880000Y14166001D01*
X11881204Y14190505D01*
X11884804Y14214773D01*
X11890765Y14238572D01*
X11899030Y14261671D01*
X11909520Y14283850D01*
X11922132Y14304893D01*
X11936747Y14324599D01*
X11953223Y14342777D01*
X11971401Y14359253D01*
X11991107Y14373868D01*
X12012150Y14386480D01*
X12034329Y14396970D01*
X12057428Y14405235D01*
X12081227Y14411196D01*
X12105495Y14414796D01*
X12129999Y14416000D01*
X12780001Y14416000D01*
X12804505Y14414796D01*
X12804505Y14414796D01*
G37*
D11*
G04 #@! TD*
G04 #@! TO.P,C2,1*
G04 #@! TO.N,VCC*
X12455000Y13716000D03*
D10*
G04 #@! TO.N,GND*
G04 #@! TO.C,C2*
G36*
X10754505Y14414796D02*
X10778773Y14411196D01*
X10802572Y14405235D01*
X10825671Y14396970D01*
X10847850Y14386480D01*
X10868893Y14373868D01*
X10888599Y14359253D01*
X10906777Y14342777D01*
X10923253Y14324599D01*
X10937868Y14304893D01*
X10950480Y14283850D01*
X10960970Y14261671D01*
X10969235Y14238572D01*
X10975196Y14214773D01*
X10978796Y14190505D01*
X10980000Y14166001D01*
X10980000Y13265999D01*
X10978796Y13241495D01*
X10975196Y13217227D01*
X10969235Y13193428D01*
X10960970Y13170329D01*
X10950480Y13148150D01*
X10937868Y13127107D01*
X10923253Y13107401D01*
X10906777Y13089223D01*
X10888599Y13072747D01*
X10868893Y13058132D01*
X10847850Y13045520D01*
X10825671Y13035030D01*
X10802572Y13026765D01*
X10778773Y13020804D01*
X10754505Y13017204D01*
X10730001Y13016000D01*
X10079999Y13016000D01*
X10055495Y13017204D01*
X10031227Y13020804D01*
X10007428Y13026765D01*
X9984329Y13035030D01*
X9962150Y13045520D01*
X9941107Y13058132D01*
X9921401Y13072747D01*
X9903223Y13089223D01*
X9886747Y13107401D01*
X9872132Y13127107D01*
X9859520Y13148150D01*
X9849030Y13170329D01*
X9840765Y13193428D01*
X9834804Y13217227D01*
X9831204Y13241495D01*
X9830000Y13265999D01*
X9830000Y14166001D01*
X9831204Y14190505D01*
X9834804Y14214773D01*
X9840765Y14238572D01*
X9849030Y14261671D01*
X9859520Y14283850D01*
X9872132Y14304893D01*
X9886747Y14324599D01*
X9903223Y14342777D01*
X9921401Y14359253D01*
X9941107Y14373868D01*
X9962150Y14386480D01*
X9984329Y14396970D01*
X10007428Y14405235D01*
X10031227Y14411196D01*
X10055495Y14414796D01*
X10079999Y14416000D01*
X10730001Y14416000D01*
X10754505Y14414796D01*
X10754505Y14414796D01*
G37*
D11*
G04 #@! TD*
G04 #@! TO.P,C2,2*
G04 #@! TO.N,GND*
X10405000Y13716000D03*
D10*
G04 #@! TO.N,GND*
G04 #@! TO.C,C3*
G36*
X27137505Y9588796D02*
X27161773Y9585196D01*
X27185572Y9579235D01*
X27208671Y9570970D01*
X27230850Y9560480D01*
X27251893Y9547868D01*
X27271599Y9533253D01*
X27289777Y9516777D01*
X27306253Y9498599D01*
X27320868Y9478893D01*
X27333480Y9457850D01*
X27343970Y9435671D01*
X27352235Y9412572D01*
X27358196Y9388773D01*
X27361796Y9364505D01*
X27363000Y9340001D01*
X27363000Y8439999D01*
X27361796Y8415495D01*
X27358196Y8391227D01*
X27352235Y8367428D01*
X27343970Y8344329D01*
X27333480Y8322150D01*
X27320868Y8301107D01*
X27306253Y8281401D01*
X27289777Y8263223D01*
X27271599Y8246747D01*
X27251893Y8232132D01*
X27230850Y8219520D01*
X27208671Y8209030D01*
X27185572Y8200765D01*
X27161773Y8194804D01*
X27137505Y8191204D01*
X27113001Y8190000D01*
X26462999Y8190000D01*
X26438495Y8191204D01*
X26414227Y8194804D01*
X26390428Y8200765D01*
X26367329Y8209030D01*
X26345150Y8219520D01*
X26324107Y8232132D01*
X26304401Y8246747D01*
X26286223Y8263223D01*
X26269747Y8281401D01*
X26255132Y8301107D01*
X26242520Y8322150D01*
X26232030Y8344329D01*
X26223765Y8367428D01*
X26217804Y8391227D01*
X26214204Y8415495D01*
X26213000Y8439999D01*
X26213000Y9340001D01*
X26214204Y9364505D01*
X26217804Y9388773D01*
X26223765Y9412572D01*
X26232030Y9435671D01*
X26242520Y9457850D01*
X26255132Y9478893D01*
X26269747Y9498599D01*
X26286223Y9516777D01*
X26304401Y9533253D01*
X26324107Y9547868D01*
X26345150Y9560480D01*
X26367329Y9570970D01*
X26390428Y9579235D01*
X26414227Y9585196D01*
X26438495Y9588796D01*
X26462999Y9590000D01*
X27113001Y9590000D01*
X27137505Y9588796D01*
X27137505Y9588796D01*
G37*
D11*
G04 #@! TD*
G04 #@! TO.P,C3,2*
G04 #@! TO.N,GND*
X26788000Y8890000D03*
D10*
G04 #@! TO.N,VCC*
G04 #@! TO.C,C3*
G36*
X29187505Y9588796D02*
X29211773Y9585196D01*
X29235572Y9579235D01*
X29258671Y9570970D01*
X29280850Y9560480D01*
X29301893Y9547868D01*
X29321599Y9533253D01*
X29339777Y9516777D01*
X29356253Y9498599D01*
X29370868Y9478893D01*
X29383480Y9457850D01*
X29393970Y9435671D01*
X29402235Y9412572D01*
X29408196Y9388773D01*
X29411796Y9364505D01*
X29413000Y9340001D01*
X29413000Y8439999D01*
X29411796Y8415495D01*
X29408196Y8391227D01*
X29402235Y8367428D01*
X29393970Y8344329D01*
X29383480Y8322150D01*
X29370868Y8301107D01*
X29356253Y8281401D01*
X29339777Y8263223D01*
X29321599Y8246747D01*
X29301893Y8232132D01*
X29280850Y8219520D01*
X29258671Y8209030D01*
X29235572Y8200765D01*
X29211773Y8194804D01*
X29187505Y8191204D01*
X29163001Y8190000D01*
X28512999Y8190000D01*
X28488495Y8191204D01*
X28464227Y8194804D01*
X28440428Y8200765D01*
X28417329Y8209030D01*
X28395150Y8219520D01*
X28374107Y8232132D01*
X28354401Y8246747D01*
X28336223Y8263223D01*
X28319747Y8281401D01*
X28305132Y8301107D01*
X28292520Y8322150D01*
X28282030Y8344329D01*
X28273765Y8367428D01*
X28267804Y8391227D01*
X28264204Y8415495D01*
X28263000Y8439999D01*
X28263000Y9340001D01*
X28264204Y9364505D01*
X28267804Y9388773D01*
X28273765Y9412572D01*
X28282030Y9435671D01*
X28292520Y9457850D01*
X28305132Y9478893D01*
X28319747Y9498599D01*
X28336223Y9516777D01*
X28354401Y9533253D01*
X28374107Y9547868D01*
X28395150Y9560480D01*
X28417329Y9570970D01*
X28440428Y9579235D01*
X28464227Y9585196D01*
X28488495Y9588796D01*
X28512999Y9590000D01*
X29163001Y9590000D01*
X29187505Y9588796D01*
X29187505Y9588796D01*
G37*
D11*
G04 #@! TD*
G04 #@! TO.P,C3,1*
G04 #@! TO.N,VCC*
X28838000Y8890000D03*
D10*
G04 #@! TO.N,VCC*
G04 #@! TO.C,C4*
G36*
X12795505Y16700796D02*
X12819773Y16697196D01*
X12843572Y16691235D01*
X12866671Y16682970D01*
X12888850Y16672480D01*
X12909893Y16659868D01*
X12929599Y16645253D01*
X12947777Y16628777D01*
X12964253Y16610599D01*
X12978868Y16590893D01*
X12991480Y16569850D01*
X13001970Y16547671D01*
X13010235Y16524572D01*
X13016196Y16500773D01*
X13019796Y16476505D01*
X13021000Y16452001D01*
X13021000Y15551999D01*
X13019796Y15527495D01*
X13016196Y15503227D01*
X13010235Y15479428D01*
X13001970Y15456329D01*
X12991480Y15434150D01*
X12978868Y15413107D01*
X12964253Y15393401D01*
X12947777Y15375223D01*
X12929599Y15358747D01*
X12909893Y15344132D01*
X12888850Y15331520D01*
X12866671Y15321030D01*
X12843572Y15312765D01*
X12819773Y15306804D01*
X12795505Y15303204D01*
X12771001Y15302000D01*
X12120999Y15302000D01*
X12096495Y15303204D01*
X12072227Y15306804D01*
X12048428Y15312765D01*
X12025329Y15321030D01*
X12003150Y15331520D01*
X11982107Y15344132D01*
X11962401Y15358747D01*
X11944223Y15375223D01*
X11927747Y15393401D01*
X11913132Y15413107D01*
X11900520Y15434150D01*
X11890030Y15456329D01*
X11881765Y15479428D01*
X11875804Y15503227D01*
X11872204Y15527495D01*
X11871000Y15551999D01*
X11871000Y16452001D01*
X11872204Y16476505D01*
X11875804Y16500773D01*
X11881765Y16524572D01*
X11890030Y16547671D01*
X11900520Y16569850D01*
X11913132Y16590893D01*
X11927747Y16610599D01*
X11944223Y16628777D01*
X11962401Y16645253D01*
X11982107Y16659868D01*
X12003150Y16672480D01*
X12025329Y16682970D01*
X12048428Y16691235D01*
X12072227Y16697196D01*
X12096495Y16700796D01*
X12120999Y16702000D01*
X12771001Y16702000D01*
X12795505Y16700796D01*
X12795505Y16700796D01*
G37*
D11*
G04 #@! TD*
G04 #@! TO.P,C4,1*
G04 #@! TO.N,VCC*
X12446000Y16002000D03*
D10*
G04 #@! TO.N,GND*
G04 #@! TO.C,C4*
G36*
X10745505Y16700796D02*
X10769773Y16697196D01*
X10793572Y16691235D01*
X10816671Y16682970D01*
X10838850Y16672480D01*
X10859893Y16659868D01*
X10879599Y16645253D01*
X10897777Y16628777D01*
X10914253Y16610599D01*
X10928868Y16590893D01*
X10941480Y16569850D01*
X10951970Y16547671D01*
X10960235Y16524572D01*
X10966196Y16500773D01*
X10969796Y16476505D01*
X10971000Y16452001D01*
X10971000Y15551999D01*
X10969796Y15527495D01*
X10966196Y15503227D01*
X10960235Y15479428D01*
X10951970Y15456329D01*
X10941480Y15434150D01*
X10928868Y15413107D01*
X10914253Y15393401D01*
X10897777Y15375223D01*
X10879599Y15358747D01*
X10859893Y15344132D01*
X10838850Y15331520D01*
X10816671Y15321030D01*
X10793572Y15312765D01*
X10769773Y15306804D01*
X10745505Y15303204D01*
X10721001Y15302000D01*
X10070999Y15302000D01*
X10046495Y15303204D01*
X10022227Y15306804D01*
X9998428Y15312765D01*
X9975329Y15321030D01*
X9953150Y15331520D01*
X9932107Y15344132D01*
X9912401Y15358747D01*
X9894223Y15375223D01*
X9877747Y15393401D01*
X9863132Y15413107D01*
X9850520Y15434150D01*
X9840030Y15456329D01*
X9831765Y15479428D01*
X9825804Y15503227D01*
X9822204Y15527495D01*
X9821000Y15551999D01*
X9821000Y16452001D01*
X9822204Y16476505D01*
X9825804Y16500773D01*
X9831765Y16524572D01*
X9840030Y16547671D01*
X9850520Y16569850D01*
X9863132Y16590893D01*
X9877747Y16610599D01*
X9894223Y16628777D01*
X9912401Y16645253D01*
X9932107Y16659868D01*
X9953150Y16672480D01*
X9975329Y16682970D01*
X9998428Y16691235D01*
X10022227Y16697196D01*
X10046495Y16700796D01*
X10070999Y16702000D01*
X10721001Y16702000D01*
X10745505Y16700796D01*
X10745505Y16700796D01*
G37*
D11*
G04 #@! TD*
G04 #@! TO.P,C4,2*
G04 #@! TO.N,GND*
X10396000Y16002000D03*
D10*
G04 #@! TO.N,GND*
G04 #@! TO.C,C5*
G36*
X33759505Y9588796D02*
X33783773Y9585196D01*
X33807572Y9579235D01*
X33830671Y9570970D01*
X33852850Y9560480D01*
X33873893Y9547868D01*
X33893599Y9533253D01*
X33911777Y9516777D01*
X33928253Y9498599D01*
X33942868Y9478893D01*
X33955480Y9457850D01*
X33965970Y9435671D01*
X33974235Y9412572D01*
X33980196Y9388773D01*
X33983796Y9364505D01*
X33985000Y9340001D01*
X33985000Y8439999D01*
X33983796Y8415495D01*
X33980196Y8391227D01*
X33974235Y8367428D01*
X33965970Y8344329D01*
X33955480Y8322150D01*
X33942868Y8301107D01*
X33928253Y8281401D01*
X33911777Y8263223D01*
X33893599Y8246747D01*
X33873893Y8232132D01*
X33852850Y8219520D01*
X33830671Y8209030D01*
X33807572Y8200765D01*
X33783773Y8194804D01*
X33759505Y8191204D01*
X33735001Y8190000D01*
X33084999Y8190000D01*
X33060495Y8191204D01*
X33036227Y8194804D01*
X33012428Y8200765D01*
X32989329Y8209030D01*
X32967150Y8219520D01*
X32946107Y8232132D01*
X32926401Y8246747D01*
X32908223Y8263223D01*
X32891747Y8281401D01*
X32877132Y8301107D01*
X32864520Y8322150D01*
X32854030Y8344329D01*
X32845765Y8367428D01*
X32839804Y8391227D01*
X32836204Y8415495D01*
X32835000Y8439999D01*
X32835000Y9340001D01*
X32836204Y9364505D01*
X32839804Y9388773D01*
X32845765Y9412572D01*
X32854030Y9435671D01*
X32864520Y9457850D01*
X32877132Y9478893D01*
X32891747Y9498599D01*
X32908223Y9516777D01*
X32926401Y9533253D01*
X32946107Y9547868D01*
X32967150Y9560480D01*
X32989329Y9570970D01*
X33012428Y9579235D01*
X33036227Y9585196D01*
X33060495Y9588796D01*
X33084999Y9590000D01*
X33735001Y9590000D01*
X33759505Y9588796D01*
X33759505Y9588796D01*
G37*
D11*
G04 #@! TD*
G04 #@! TO.P,C5,2*
G04 #@! TO.N,GND*
X33410000Y8890000D03*
D10*
G04 #@! TO.N,VCC*
G04 #@! TO.C,C5*
G36*
X31709505Y9588796D02*
X31733773Y9585196D01*
X31757572Y9579235D01*
X31780671Y9570970D01*
X31802850Y9560480D01*
X31823893Y9547868D01*
X31843599Y9533253D01*
X31861777Y9516777D01*
X31878253Y9498599D01*
X31892868Y9478893D01*
X31905480Y9457850D01*
X31915970Y9435671D01*
X31924235Y9412572D01*
X31930196Y9388773D01*
X31933796Y9364505D01*
X31935000Y9340001D01*
X31935000Y8439999D01*
X31933796Y8415495D01*
X31930196Y8391227D01*
X31924235Y8367428D01*
X31915970Y8344329D01*
X31905480Y8322150D01*
X31892868Y8301107D01*
X31878253Y8281401D01*
X31861777Y8263223D01*
X31843599Y8246747D01*
X31823893Y8232132D01*
X31802850Y8219520D01*
X31780671Y8209030D01*
X31757572Y8200765D01*
X31733773Y8194804D01*
X31709505Y8191204D01*
X31685001Y8190000D01*
X31034999Y8190000D01*
X31010495Y8191204D01*
X30986227Y8194804D01*
X30962428Y8200765D01*
X30939329Y8209030D01*
X30917150Y8219520D01*
X30896107Y8232132D01*
X30876401Y8246747D01*
X30858223Y8263223D01*
X30841747Y8281401D01*
X30827132Y8301107D01*
X30814520Y8322150D01*
X30804030Y8344329D01*
X30795765Y8367428D01*
X30789804Y8391227D01*
X30786204Y8415495D01*
X30785000Y8439999D01*
X30785000Y9340001D01*
X30786204Y9364505D01*
X30789804Y9388773D01*
X30795765Y9412572D01*
X30804030Y9435671D01*
X30814520Y9457850D01*
X30827132Y9478893D01*
X30841747Y9498599D01*
X30858223Y9516777D01*
X30876401Y9533253D01*
X30896107Y9547868D01*
X30917150Y9560480D01*
X30939329Y9570970D01*
X30962428Y9579235D01*
X30986227Y9585196D01*
X31010495Y9588796D01*
X31034999Y9590000D01*
X31685001Y9590000D01*
X31709505Y9588796D01*
X31709505Y9588796D01*
G37*
D11*
G04 #@! TD*
G04 #@! TO.P,C5,1*
G04 #@! TO.N,VCC*
X31360000Y8890000D03*
D10*
G04 #@! TO.N,+12V*
G04 #@! TO.C,C6*
G36*
X39844505Y31951796D02*
X39868773Y31948196D01*
X39892572Y31942235D01*
X39915671Y31933970D01*
X39937850Y31923480D01*
X39958893Y31910868D01*
X39978599Y31896253D01*
X39996777Y31879777D01*
X40013253Y31861599D01*
X40027868Y31841893D01*
X40040480Y31820850D01*
X40050970Y31798671D01*
X40059235Y31775572D01*
X40065196Y31751773D01*
X40068796Y31727505D01*
X40070000Y31703001D01*
X40070000Y31052999D01*
X40068796Y31028495D01*
X40065196Y31004227D01*
X40059235Y30980428D01*
X40050970Y30957329D01*
X40040480Y30935150D01*
X40027868Y30914107D01*
X40013253Y30894401D01*
X39996777Y30876223D01*
X39978599Y30859747D01*
X39958893Y30845132D01*
X39937850Y30832520D01*
X39915671Y30822030D01*
X39892572Y30813765D01*
X39868773Y30807804D01*
X39844505Y30804204D01*
X39820001Y30803000D01*
X38919999Y30803000D01*
X38895495Y30804204D01*
X38871227Y30807804D01*
X38847428Y30813765D01*
X38824329Y30822030D01*
X38802150Y30832520D01*
X38781107Y30845132D01*
X38761401Y30859747D01*
X38743223Y30876223D01*
X38726747Y30894401D01*
X38712132Y30914107D01*
X38699520Y30935150D01*
X38689030Y30957329D01*
X38680765Y30980428D01*
X38674804Y31004227D01*
X38671204Y31028495D01*
X38670000Y31052999D01*
X38670000Y31703001D01*
X38671204Y31727505D01*
X38674804Y31751773D01*
X38680765Y31775572D01*
X38689030Y31798671D01*
X38699520Y31820850D01*
X38712132Y31841893D01*
X38726747Y31861599D01*
X38743223Y31879777D01*
X38761401Y31896253D01*
X38781107Y31910868D01*
X38802150Y31923480D01*
X38824329Y31933970D01*
X38847428Y31942235D01*
X38871227Y31948196D01*
X38895495Y31951796D01*
X38919999Y31953000D01*
X39820001Y31953000D01*
X39844505Y31951796D01*
X39844505Y31951796D01*
G37*
D11*
G04 #@! TD*
G04 #@! TO.P,C6,1*
G04 #@! TO.N,+12V*
X39370000Y31378000D03*
D10*
G04 #@! TO.N,GND*
G04 #@! TO.C,C6*
G36*
X39844505Y29901796D02*
X39868773Y29898196D01*
X39892572Y29892235D01*
X39915671Y29883970D01*
X39937850Y29873480D01*
X39958893Y29860868D01*
X39978599Y29846253D01*
X39996777Y29829777D01*
X40013253Y29811599D01*
X40027868Y29791893D01*
X40040480Y29770850D01*
X40050970Y29748671D01*
X40059235Y29725572D01*
X40065196Y29701773D01*
X40068796Y29677505D01*
X40070000Y29653001D01*
X40070000Y29002999D01*
X40068796Y28978495D01*
X40065196Y28954227D01*
X40059235Y28930428D01*
X40050970Y28907329D01*
X40040480Y28885150D01*
X40027868Y28864107D01*
X40013253Y28844401D01*
X39996777Y28826223D01*
X39978599Y28809747D01*
X39958893Y28795132D01*
X39937850Y28782520D01*
X39915671Y28772030D01*
X39892572Y28763765D01*
X39868773Y28757804D01*
X39844505Y28754204D01*
X39820001Y28753000D01*
X38919999Y28753000D01*
X38895495Y28754204D01*
X38871227Y28757804D01*
X38847428Y28763765D01*
X38824329Y28772030D01*
X38802150Y28782520D01*
X38781107Y28795132D01*
X38761401Y28809747D01*
X38743223Y28826223D01*
X38726747Y28844401D01*
X38712132Y28864107D01*
X38699520Y28885150D01*
X38689030Y28907329D01*
X38680765Y28930428D01*
X38674804Y28954227D01*
X38671204Y28978495D01*
X38670000Y29002999D01*
X38670000Y29653001D01*
X38671204Y29677505D01*
X38674804Y29701773D01*
X38680765Y29725572D01*
X38689030Y29748671D01*
X38699520Y29770850D01*
X38712132Y29791893D01*
X38726747Y29811599D01*
X38743223Y29829777D01*
X38761401Y29846253D01*
X38781107Y29860868D01*
X38802150Y29873480D01*
X38824329Y29883970D01*
X38847428Y29892235D01*
X38871227Y29898196D01*
X38895495Y29901796D01*
X38919999Y29903000D01*
X39820001Y29903000D01*
X39844505Y29901796D01*
X39844505Y29901796D01*
G37*
D11*
G04 #@! TD*
G04 #@! TO.P,C6,2*
G04 #@! TO.N,GND*
X39370000Y29328000D03*
D10*
G04 #@! TO.N,GND*
G04 #@! TO.C,C7*
G36*
X39844505Y27760796D02*
X39868773Y27757196D01*
X39892572Y27751235D01*
X39915671Y27742970D01*
X39937850Y27732480D01*
X39958893Y27719868D01*
X39978599Y27705253D01*
X39996777Y27688777D01*
X40013253Y27670599D01*
X40027868Y27650893D01*
X40040480Y27629850D01*
X40050970Y27607671D01*
X40059235Y27584572D01*
X40065196Y27560773D01*
X40068796Y27536505D01*
X40070000Y27512001D01*
X40070000Y26861999D01*
X40068796Y26837495D01*
X40065196Y26813227D01*
X40059235Y26789428D01*
X40050970Y26766329D01*
X40040480Y26744150D01*
X40027868Y26723107D01*
X40013253Y26703401D01*
X39996777Y26685223D01*
X39978599Y26668747D01*
X39958893Y26654132D01*
X39937850Y26641520D01*
X39915671Y26631030D01*
X39892572Y26622765D01*
X39868773Y26616804D01*
X39844505Y26613204D01*
X39820001Y26612000D01*
X38919999Y26612000D01*
X38895495Y26613204D01*
X38871227Y26616804D01*
X38847428Y26622765D01*
X38824329Y26631030D01*
X38802150Y26641520D01*
X38781107Y26654132D01*
X38761401Y26668747D01*
X38743223Y26685223D01*
X38726747Y26703401D01*
X38712132Y26723107D01*
X38699520Y26744150D01*
X38689030Y26766329D01*
X38680765Y26789428D01*
X38674804Y26813227D01*
X38671204Y26837495D01*
X38670000Y26861999D01*
X38670000Y27512001D01*
X38671204Y27536505D01*
X38674804Y27560773D01*
X38680765Y27584572D01*
X38689030Y27607671D01*
X38699520Y27629850D01*
X38712132Y27650893D01*
X38726747Y27670599D01*
X38743223Y27688777D01*
X38761401Y27705253D01*
X38781107Y27719868D01*
X38802150Y27732480D01*
X38824329Y27742970D01*
X38847428Y27751235D01*
X38871227Y27757196D01*
X38895495Y27760796D01*
X38919999Y27762000D01*
X39820001Y27762000D01*
X39844505Y27760796D01*
X39844505Y27760796D01*
G37*
D11*
G04 #@! TD*
G04 #@! TO.P,C7,2*
G04 #@! TO.N,GND*
X39370000Y27187000D03*
D10*
G04 #@! TO.N,VCC*
G04 #@! TO.C,C7*
G36*
X39844505Y25710796D02*
X39868773Y25707196D01*
X39892572Y25701235D01*
X39915671Y25692970D01*
X39937850Y25682480D01*
X39958893Y25669868D01*
X39978599Y25655253D01*
X39996777Y25638777D01*
X40013253Y25620599D01*
X40027868Y25600893D01*
X40040480Y25579850D01*
X40050970Y25557671D01*
X40059235Y25534572D01*
X40065196Y25510773D01*
X40068796Y25486505D01*
X40070000Y25462001D01*
X40070000Y24811999D01*
X40068796Y24787495D01*
X40065196Y24763227D01*
X40059235Y24739428D01*
X40050970Y24716329D01*
X40040480Y24694150D01*
X40027868Y24673107D01*
X40013253Y24653401D01*
X39996777Y24635223D01*
X39978599Y24618747D01*
X39958893Y24604132D01*
X39937850Y24591520D01*
X39915671Y24581030D01*
X39892572Y24572765D01*
X39868773Y24566804D01*
X39844505Y24563204D01*
X39820001Y24562000D01*
X38919999Y24562000D01*
X38895495Y24563204D01*
X38871227Y24566804D01*
X38847428Y24572765D01*
X38824329Y24581030D01*
X38802150Y24591520D01*
X38781107Y24604132D01*
X38761401Y24618747D01*
X38743223Y24635223D01*
X38726747Y24653401D01*
X38712132Y24673107D01*
X38699520Y24694150D01*
X38689030Y24716329D01*
X38680765Y24739428D01*
X38674804Y24763227D01*
X38671204Y24787495D01*
X38670000Y24811999D01*
X38670000Y25462001D01*
X38671204Y25486505D01*
X38674804Y25510773D01*
X38680765Y25534572D01*
X38689030Y25557671D01*
X38699520Y25579850D01*
X38712132Y25600893D01*
X38726747Y25620599D01*
X38743223Y25638777D01*
X38761401Y25655253D01*
X38781107Y25669868D01*
X38802150Y25682480D01*
X38824329Y25692970D01*
X38847428Y25701235D01*
X38871227Y25707196D01*
X38895495Y25710796D01*
X38919999Y25712000D01*
X39820001Y25712000D01*
X39844505Y25710796D01*
X39844505Y25710796D01*
G37*
D11*
G04 #@! TD*
G04 #@! TO.P,C7,1*
G04 #@! TO.N,VCC*
X39370000Y25137000D03*
D10*
G04 #@! TO.N,VCC*
G04 #@! TO.C,C1*
G36*
X40726505Y19367796D02*
X40750773Y19364196D01*
X40774572Y19358235D01*
X40797671Y19349970D01*
X40819850Y19339480D01*
X40840893Y19326868D01*
X40860599Y19312253D01*
X40878777Y19295777D01*
X40895253Y19277599D01*
X40909868Y19257893D01*
X40922480Y19236850D01*
X40932970Y19214671D01*
X40941235Y19191572D01*
X40947196Y19167773D01*
X40950796Y19143505D01*
X40952000Y19119001D01*
X40952000Y18218999D01*
X40950796Y18194495D01*
X40947196Y18170227D01*
X40941235Y18146428D01*
X40932970Y18123329D01*
X40922480Y18101150D01*
X40909868Y18080107D01*
X40895253Y18060401D01*
X40878777Y18042223D01*
X40860599Y18025747D01*
X40840893Y18011132D01*
X40819850Y17998520D01*
X40797671Y17988030D01*
X40774572Y17979765D01*
X40750773Y17973804D01*
X40726505Y17970204D01*
X40702001Y17969000D01*
X40051999Y17969000D01*
X40027495Y17970204D01*
X40003227Y17973804D01*
X39979428Y17979765D01*
X39956329Y17988030D01*
X39934150Y17998520D01*
X39913107Y18011132D01*
X39893401Y18025747D01*
X39875223Y18042223D01*
X39858747Y18060401D01*
X39844132Y18080107D01*
X39831520Y18101150D01*
X39821030Y18123329D01*
X39812765Y18146428D01*
X39806804Y18170227D01*
X39803204Y18194495D01*
X39802000Y18218999D01*
X39802000Y19119001D01*
X39803204Y19143505D01*
X39806804Y19167773D01*
X39812765Y19191572D01*
X39821030Y19214671D01*
X39831520Y19236850D01*
X39844132Y19257893D01*
X39858747Y19277599D01*
X39875223Y19295777D01*
X39893401Y19312253D01*
X39913107Y19326868D01*
X39934150Y19339480D01*
X39956329Y19349970D01*
X39979428Y19358235D01*
X40003227Y19364196D01*
X40027495Y19367796D01*
X40051999Y19369000D01*
X40702001Y19369000D01*
X40726505Y19367796D01*
X40726505Y19367796D01*
G37*
D11*
G04 #@! TD*
G04 #@! TO.P,C1,1*
G04 #@! TO.N,VCC*
X40377000Y18669000D03*
D10*
G04 #@! TO.N,GND*
G04 #@! TO.C,C1*
G36*
X42776505Y19367796D02*
X42800773Y19364196D01*
X42824572Y19358235D01*
X42847671Y19349970D01*
X42869850Y19339480D01*
X42890893Y19326868D01*
X42910599Y19312253D01*
X42928777Y19295777D01*
X42945253Y19277599D01*
X42959868Y19257893D01*
X42972480Y19236850D01*
X42982970Y19214671D01*
X42991235Y19191572D01*
X42997196Y19167773D01*
X43000796Y19143505D01*
X43002000Y19119001D01*
X43002000Y18218999D01*
X43000796Y18194495D01*
X42997196Y18170227D01*
X42991235Y18146428D01*
X42982970Y18123329D01*
X42972480Y18101150D01*
X42959868Y18080107D01*
X42945253Y18060401D01*
X42928777Y18042223D01*
X42910599Y18025747D01*
X42890893Y18011132D01*
X42869850Y17998520D01*
X42847671Y17988030D01*
X42824572Y17979765D01*
X42800773Y17973804D01*
X42776505Y17970204D01*
X42752001Y17969000D01*
X42101999Y17969000D01*
X42077495Y17970204D01*
X42053227Y17973804D01*
X42029428Y17979765D01*
X42006329Y17988030D01*
X41984150Y17998520D01*
X41963107Y18011132D01*
X41943401Y18025747D01*
X41925223Y18042223D01*
X41908747Y18060401D01*
X41894132Y18080107D01*
X41881520Y18101150D01*
X41871030Y18123329D01*
X41862765Y18146428D01*
X41856804Y18170227D01*
X41853204Y18194495D01*
X41852000Y18218999D01*
X41852000Y19119001D01*
X41853204Y19143505D01*
X41856804Y19167773D01*
X41862765Y19191572D01*
X41871030Y19214671D01*
X41881520Y19236850D01*
X41894132Y19257893D01*
X41908747Y19277599D01*
X41925223Y19295777D01*
X41943401Y19312253D01*
X41963107Y19326868D01*
X41984150Y19339480D01*
X42006329Y19349970D01*
X42029428Y19358235D01*
X42053227Y19364196D01*
X42077495Y19367796D01*
X42101999Y19369000D01*
X42752001Y19369000D01*
X42776505Y19367796D01*
X42776505Y19367796D01*
G37*
D11*
G04 #@! TD*
G04 #@! TO.P,C1,2*
G04 #@! TO.N,GND*
X42427000Y18669000D03*
D10*
G04 #@! TO.N,GND*
G04 #@! TO.C,C8*
G36*
X47615504Y35971796D02*
X47639773Y35968196D01*
X47663571Y35962235D01*
X47686671Y35953970D01*
X47708849Y35943480D01*
X47729893Y35930867D01*
X47749598Y35916253D01*
X47767777Y35899777D01*
X47784253Y35881598D01*
X47798867Y35861893D01*
X47811480Y35840849D01*
X47821970Y35818671D01*
X47830235Y35795571D01*
X47836196Y35771773D01*
X47839796Y35747504D01*
X47841000Y35723000D01*
X47841000Y33873000D01*
X47839796Y33848496D01*
X47836196Y33824227D01*
X47830235Y33800429D01*
X47821970Y33777329D01*
X47811480Y33755151D01*
X47798867Y33734107D01*
X47784253Y33714402D01*
X47767777Y33696223D01*
X47749598Y33679747D01*
X47729893Y33665133D01*
X47708849Y33652520D01*
X47686671Y33642030D01*
X47663571Y33633765D01*
X47639773Y33627804D01*
X47615504Y33624204D01*
X47591000Y33623000D01*
X46591000Y33623000D01*
X46566496Y33624204D01*
X46542227Y33627804D01*
X46518429Y33633765D01*
X46495329Y33642030D01*
X46473151Y33652520D01*
X46452107Y33665133D01*
X46432402Y33679747D01*
X46414223Y33696223D01*
X46397747Y33714402D01*
X46383133Y33734107D01*
X46370520Y33755151D01*
X46360030Y33777329D01*
X46351765Y33800429D01*
X46345804Y33824227D01*
X46342204Y33848496D01*
X46341000Y33873000D01*
X46341000Y35723000D01*
X46342204Y35747504D01*
X46345804Y35771773D01*
X46351765Y35795571D01*
X46360030Y35818671D01*
X46370520Y35840849D01*
X46383133Y35861893D01*
X46397747Y35881598D01*
X46414223Y35899777D01*
X46432402Y35916253D01*
X46452107Y35930867D01*
X46473151Y35943480D01*
X46495329Y35953970D01*
X46518429Y35962235D01*
X46542227Y35968196D01*
X46566496Y35971796D01*
X46591000Y35973000D01*
X47591000Y35973000D01*
X47615504Y35971796D01*
X47615504Y35971796D01*
G37*
D12*
G04 #@! TD*
G04 #@! TO.P,C8,2*
G04 #@! TO.N,GND*
X47091000Y34798000D03*
D10*
G04 #@! TO.N,+12V*
G04 #@! TO.C,C8*
G36*
X44365504Y35971796D02*
X44389773Y35968196D01*
X44413571Y35962235D01*
X44436671Y35953970D01*
X44458849Y35943480D01*
X44479893Y35930867D01*
X44499598Y35916253D01*
X44517777Y35899777D01*
X44534253Y35881598D01*
X44548867Y35861893D01*
X44561480Y35840849D01*
X44571970Y35818671D01*
X44580235Y35795571D01*
X44586196Y35771773D01*
X44589796Y35747504D01*
X44591000Y35723000D01*
X44591000Y33873000D01*
X44589796Y33848496D01*
X44586196Y33824227D01*
X44580235Y33800429D01*
X44571970Y33777329D01*
X44561480Y33755151D01*
X44548867Y33734107D01*
X44534253Y33714402D01*
X44517777Y33696223D01*
X44499598Y33679747D01*
X44479893Y33665133D01*
X44458849Y33652520D01*
X44436671Y33642030D01*
X44413571Y33633765D01*
X44389773Y33627804D01*
X44365504Y33624204D01*
X44341000Y33623000D01*
X43341000Y33623000D01*
X43316496Y33624204D01*
X43292227Y33627804D01*
X43268429Y33633765D01*
X43245329Y33642030D01*
X43223151Y33652520D01*
X43202107Y33665133D01*
X43182402Y33679747D01*
X43164223Y33696223D01*
X43147747Y33714402D01*
X43133133Y33734107D01*
X43120520Y33755151D01*
X43110030Y33777329D01*
X43101765Y33800429D01*
X43095804Y33824227D01*
X43092204Y33848496D01*
X43091000Y33873000D01*
X43091000Y35723000D01*
X43092204Y35747504D01*
X43095804Y35771773D01*
X43101765Y35795571D01*
X43110030Y35818671D01*
X43120520Y35840849D01*
X43133133Y35861893D01*
X43147747Y35881598D01*
X43164223Y35899777D01*
X43182402Y35916253D01*
X43202107Y35930867D01*
X43223151Y35943480D01*
X43245329Y35953970D01*
X43268429Y35962235D01*
X43292227Y35968196D01*
X43316496Y35971796D01*
X43341000Y35973000D01*
X44341000Y35973000D01*
X44365504Y35971796D01*
X44365504Y35971796D01*
G37*
D12*
G04 #@! TD*
G04 #@! TO.P,C8,1*
G04 #@! TO.N,+12V*
X43841000Y34798000D03*
D10*
G04 #@! TO.N,VCC*
G04 #@! TO.C,C9*
G36*
X44746504Y22763796D02*
X44770773Y22760196D01*
X44794571Y22754235D01*
X44817671Y22745970D01*
X44839849Y22735480D01*
X44860893Y22722867D01*
X44880598Y22708253D01*
X44898777Y22691777D01*
X44915253Y22673598D01*
X44929867Y22653893D01*
X44942480Y22632849D01*
X44952970Y22610671D01*
X44961235Y22587571D01*
X44967196Y22563773D01*
X44970796Y22539504D01*
X44972000Y22515000D01*
X44972000Y20665000D01*
X44970796Y20640496D01*
X44967196Y20616227D01*
X44961235Y20592429D01*
X44952970Y20569329D01*
X44942480Y20547151D01*
X44929867Y20526107D01*
X44915253Y20506402D01*
X44898777Y20488223D01*
X44880598Y20471747D01*
X44860893Y20457133D01*
X44839849Y20444520D01*
X44817671Y20434030D01*
X44794571Y20425765D01*
X44770773Y20419804D01*
X44746504Y20416204D01*
X44722000Y20415000D01*
X43722000Y20415000D01*
X43697496Y20416204D01*
X43673227Y20419804D01*
X43649429Y20425765D01*
X43626329Y20434030D01*
X43604151Y20444520D01*
X43583107Y20457133D01*
X43563402Y20471747D01*
X43545223Y20488223D01*
X43528747Y20506402D01*
X43514133Y20526107D01*
X43501520Y20547151D01*
X43491030Y20569329D01*
X43482765Y20592429D01*
X43476804Y20616227D01*
X43473204Y20640496D01*
X43472000Y20665000D01*
X43472000Y22515000D01*
X43473204Y22539504D01*
X43476804Y22563773D01*
X43482765Y22587571D01*
X43491030Y22610671D01*
X43501520Y22632849D01*
X43514133Y22653893D01*
X43528747Y22673598D01*
X43545223Y22691777D01*
X43563402Y22708253D01*
X43583107Y22722867D01*
X43604151Y22735480D01*
X43626329Y22745970D01*
X43649429Y22754235D01*
X43673227Y22760196D01*
X43697496Y22763796D01*
X43722000Y22765000D01*
X44722000Y22765000D01*
X44746504Y22763796D01*
X44746504Y22763796D01*
G37*
D12*
G04 #@! TD*
G04 #@! TO.P,C9,1*
G04 #@! TO.N,VCC*
X44222000Y21590000D03*
D10*
G04 #@! TO.N,GND*
G04 #@! TO.C,C9*
G36*
X47996504Y22763796D02*
X48020773Y22760196D01*
X48044571Y22754235D01*
X48067671Y22745970D01*
X48089849Y22735480D01*
X48110893Y22722867D01*
X48130598Y22708253D01*
X48148777Y22691777D01*
X48165253Y22673598D01*
X48179867Y22653893D01*
X48192480Y22632849D01*
X48202970Y22610671D01*
X48211235Y22587571D01*
X48217196Y22563773D01*
X48220796Y22539504D01*
X48222000Y22515000D01*
X48222000Y20665000D01*
X48220796Y20640496D01*
X48217196Y20616227D01*
X48211235Y20592429D01*
X48202970Y20569329D01*
X48192480Y20547151D01*
X48179867Y20526107D01*
X48165253Y20506402D01*
X48148777Y20488223D01*
X48130598Y20471747D01*
X48110893Y20457133D01*
X48089849Y20444520D01*
X48067671Y20434030D01*
X48044571Y20425765D01*
X48020773Y20419804D01*
X47996504Y20416204D01*
X47972000Y20415000D01*
X46972000Y20415000D01*
X46947496Y20416204D01*
X46923227Y20419804D01*
X46899429Y20425765D01*
X46876329Y20434030D01*
X46854151Y20444520D01*
X46833107Y20457133D01*
X46813402Y20471747D01*
X46795223Y20488223D01*
X46778747Y20506402D01*
X46764133Y20526107D01*
X46751520Y20547151D01*
X46741030Y20569329D01*
X46732765Y20592429D01*
X46726804Y20616227D01*
X46723204Y20640496D01*
X46722000Y20665000D01*
X46722000Y22515000D01*
X46723204Y22539504D01*
X46726804Y22563773D01*
X46732765Y22587571D01*
X46741030Y22610671D01*
X46751520Y22632849D01*
X46764133Y22653893D01*
X46778747Y22673598D01*
X46795223Y22691777D01*
X46813402Y22708253D01*
X46833107Y22722867D01*
X46854151Y22735480D01*
X46876329Y22745970D01*
X46899429Y22754235D01*
X46923227Y22760196D01*
X46947496Y22763796D01*
X46972000Y22765000D01*
X47972000Y22765000D01*
X47996504Y22763796D01*
X47996504Y22763796D01*
G37*
D12*
G04 #@! TD*
G04 #@! TO.P,C9,2*
G04 #@! TO.N,GND*
X47472000Y21590000D03*
D13*
G04 #@! TO.P,J1,1*
G04 #@! TO.N,TRIG+*
X21336000Y28702000D03*
D14*
G04 #@! TO.P,J1,3*
G04 #@! TO.N,+12V*
X23376000Y28702000D03*
G04 #@! TO.P,J1,5*
X25416000Y28702000D03*
G04 #@! TO.P,J1,7*
G04 #@! TO.N,ECHO-*
X27456000Y28702000D03*
G04 #@! TO.P,J1,2*
G04 #@! TO.N,TRIG-*
X22356000Y26922000D03*
G04 #@! TO.P,J1,4*
G04 #@! TO.N,GND*
X24396000Y26922000D03*
G04 #@! TO.P,J1,6*
X26436000Y26922000D03*
G04 #@! TO.P,J1,8*
G04 #@! TO.N,ECHO+*
X28476000Y26922000D03*
D15*
G04 #@! TO.P,J1,SH*
G04 #@! TO.N,GND*
X33026000Y27812000D03*
X16766000Y27812000D03*
G04 #@! TD*
D16*
G04 #@! TO.P,U1,*
G04 #@! TO.N,*
X55142000Y36473000D03*
G04 #@! TO.P,U1,21*
X12892000Y36473000D03*
G04 #@! TO.P,U1,12*
X55142000Y19473000D03*
G04 #@! TO.P,U1,22*
X12892000Y19473000D03*
D17*
G04 #@! TO.P,U1,1*
G04 #@! TO.N,VCC*
X37896000Y18723000D03*
G04 #@! TO.P,U1,2*
G04 #@! TO.N,TRIG*
X35356000Y18723000D03*
G04 #@! TO.P,U1,3*
G04 #@! TO.N,ECHO*
X32816000Y18723000D03*
G04 #@! TO.P,U1,4*
G04 #@! TO.N,GND*
X30276000Y18723000D03*
G04 #@! TD*
D18*
G04 #@! TO.P,U2,8*
G04 #@! TO.N,VCC*
X14732000Y16289000D03*
G04 #@! TO.P,U2,7*
G04 #@! TO.N,TRIG+*
X16002000Y16289000D03*
G04 #@! TO.P,U2,6*
G04 #@! TO.N,TRIG-*
X17272000Y16289000D03*
G04 #@! TO.P,U2,5*
G04 #@! TO.N,GND*
X18542000Y16289000D03*
G04 #@! TO.P,U2,4*
X18542000Y10889000D03*
G04 #@! TO.P,U2,3*
G04 #@! TO.N,TRIG*
X17272000Y10889000D03*
G04 #@! TO.P,U2,2*
G04 #@! TO.N,Net-(U2-Pad2)*
X16002000Y10889000D03*
G04 #@! TO.P,U2,1*
G04 #@! TO.N,Net-(U2-Pad1)*
X14732000Y10889000D03*
G04 #@! TD*
D19*
G04 #@! TO.P,U3,1*
G04 #@! TO.N,VCC*
X30259000Y11811000D03*
G04 #@! TO.P,U3,2*
G04 #@! TO.N,ECHO*
X30259000Y13081000D03*
G04 #@! TO.P,U3,3*
G04 #@! TO.N,Net-(U3-Pad3)*
X30259000Y14351000D03*
G04 #@! TO.P,U3,4*
G04 #@! TO.N,GND*
X30259000Y15621000D03*
G04 #@! TO.P,U3,5*
G04 #@! TO.N,Net-(U3-Pad5)*
X24859000Y15621000D03*
G04 #@! TO.P,U3,6*
G04 #@! TO.N,ECHO-*
X24859000Y14351000D03*
G04 #@! TO.P,U3,7*
G04 #@! TO.N,ECHO+*
X24859000Y13081000D03*
G04 #@! TO.P,U3,8*
G04 #@! TO.N,VCC*
X24859000Y11811000D03*
G04 #@! TD*
D20*
G04 #@! TO.P,U4,2*
G04 #@! TO.N,GND*
X49124000Y28321000D03*
D21*
X42824000Y28321000D03*
G04 #@! TO.P,U4,3*
G04 #@! TO.N,VCC*
X42824000Y26021000D03*
G04 #@! TO.P,U4,1*
G04 #@! TO.N,+12V*
X42824000Y30621000D03*
G04 #@! TD*
D10*
G04 #@! TO.N,TRIG-*
G04 #@! TO.C,R3*
G36*
X21186505Y23812796D02*
X21210773Y23809196D01*
X21234572Y23803235D01*
X21257671Y23794970D01*
X21279850Y23784480D01*
X21300893Y23771868D01*
X21320599Y23757253D01*
X21338777Y23740777D01*
X21355253Y23722599D01*
X21369868Y23702893D01*
X21382480Y23681850D01*
X21392970Y23659671D01*
X21401235Y23636572D01*
X21407196Y23612773D01*
X21410796Y23588505D01*
X21412000Y23564001D01*
X21412000Y22663999D01*
X21410796Y22639495D01*
X21407196Y22615227D01*
X21401235Y22591428D01*
X21392970Y22568329D01*
X21382480Y22546150D01*
X21369868Y22525107D01*
X21355253Y22505401D01*
X21338777Y22487223D01*
X21320599Y22470747D01*
X21300893Y22456132D01*
X21279850Y22443520D01*
X21257671Y22433030D01*
X21234572Y22424765D01*
X21210773Y22418804D01*
X21186505Y22415204D01*
X21162001Y22414000D01*
X20511999Y22414000D01*
X20487495Y22415204D01*
X20463227Y22418804D01*
X20439428Y22424765D01*
X20416329Y22433030D01*
X20394150Y22443520D01*
X20373107Y22456132D01*
X20353401Y22470747D01*
X20335223Y22487223D01*
X20318747Y22505401D01*
X20304132Y22525107D01*
X20291520Y22546150D01*
X20281030Y22568329D01*
X20272765Y22591428D01*
X20266804Y22615227D01*
X20263204Y22639495D01*
X20262000Y22663999D01*
X20262000Y23564001D01*
X20263204Y23588505D01*
X20266804Y23612773D01*
X20272765Y23636572D01*
X20281030Y23659671D01*
X20291520Y23681850D01*
X20304132Y23702893D01*
X20318747Y23722599D01*
X20335223Y23740777D01*
X20353401Y23757253D01*
X20373107Y23771868D01*
X20394150Y23784480D01*
X20416329Y23794970D01*
X20439428Y23803235D01*
X20463227Y23809196D01*
X20487495Y23812796D01*
X20511999Y23814000D01*
X21162001Y23814000D01*
X21186505Y23812796D01*
X21186505Y23812796D01*
G37*
D11*
G04 #@! TD*
G04 #@! TO.P,R3,2*
G04 #@! TO.N,TRIG-*
X20837000Y23114000D03*
D10*
G04 #@! TO.N,TRIG+*
G04 #@! TO.C,R3*
G36*
X19136505Y23812796D02*
X19160773Y23809196D01*
X19184572Y23803235D01*
X19207671Y23794970D01*
X19229850Y23784480D01*
X19250893Y23771868D01*
X19270599Y23757253D01*
X19288777Y23740777D01*
X19305253Y23722599D01*
X19319868Y23702893D01*
X19332480Y23681850D01*
X19342970Y23659671D01*
X19351235Y23636572D01*
X19357196Y23612773D01*
X19360796Y23588505D01*
X19362000Y23564001D01*
X19362000Y22663999D01*
X19360796Y22639495D01*
X19357196Y22615227D01*
X19351235Y22591428D01*
X19342970Y22568329D01*
X19332480Y22546150D01*
X19319868Y22525107D01*
X19305253Y22505401D01*
X19288777Y22487223D01*
X19270599Y22470747D01*
X19250893Y22456132D01*
X19229850Y22443520D01*
X19207671Y22433030D01*
X19184572Y22424765D01*
X19160773Y22418804D01*
X19136505Y22415204D01*
X19112001Y22414000D01*
X18461999Y22414000D01*
X18437495Y22415204D01*
X18413227Y22418804D01*
X18389428Y22424765D01*
X18366329Y22433030D01*
X18344150Y22443520D01*
X18323107Y22456132D01*
X18303401Y22470747D01*
X18285223Y22487223D01*
X18268747Y22505401D01*
X18254132Y22525107D01*
X18241520Y22546150D01*
X18231030Y22568329D01*
X18222765Y22591428D01*
X18216804Y22615227D01*
X18213204Y22639495D01*
X18212000Y22663999D01*
X18212000Y23564001D01*
X18213204Y23588505D01*
X18216804Y23612773D01*
X18222765Y23636572D01*
X18231030Y23659671D01*
X18241520Y23681850D01*
X18254132Y23702893D01*
X18268747Y23722599D01*
X18285223Y23740777D01*
X18303401Y23757253D01*
X18323107Y23771868D01*
X18344150Y23784480D01*
X18366329Y23794970D01*
X18389428Y23803235D01*
X18413227Y23809196D01*
X18437495Y23812796D01*
X18461999Y23814000D01*
X19112001Y23814000D01*
X19136505Y23812796D01*
X19136505Y23812796D01*
G37*
D11*
G04 #@! TD*
G04 #@! TO.P,R3,1*
G04 #@! TO.N,TRIG+*
X18787000Y23114000D03*
D10*
G04 #@! TO.N,ECHO+*
G04 #@! TO.C,R4*
G36*
X28797505Y23812796D02*
X28821773Y23809196D01*
X28845572Y23803235D01*
X28868671Y23794970D01*
X28890850Y23784480D01*
X28911893Y23771868D01*
X28931599Y23757253D01*
X28949777Y23740777D01*
X28966253Y23722599D01*
X28980868Y23702893D01*
X28993480Y23681850D01*
X29003970Y23659671D01*
X29012235Y23636572D01*
X29018196Y23612773D01*
X29021796Y23588505D01*
X29023000Y23564001D01*
X29023000Y22663999D01*
X29021796Y22639495D01*
X29018196Y22615227D01*
X29012235Y22591428D01*
X29003970Y22568329D01*
X28993480Y22546150D01*
X28980868Y22525107D01*
X28966253Y22505401D01*
X28949777Y22487223D01*
X28931599Y22470747D01*
X28911893Y22456132D01*
X28890850Y22443520D01*
X28868671Y22433030D01*
X28845572Y22424765D01*
X28821773Y22418804D01*
X28797505Y22415204D01*
X28773001Y22414000D01*
X28122999Y22414000D01*
X28098495Y22415204D01*
X28074227Y22418804D01*
X28050428Y22424765D01*
X28027329Y22433030D01*
X28005150Y22443520D01*
X27984107Y22456132D01*
X27964401Y22470747D01*
X27946223Y22487223D01*
X27929747Y22505401D01*
X27915132Y22525107D01*
X27902520Y22546150D01*
X27892030Y22568329D01*
X27883765Y22591428D01*
X27877804Y22615227D01*
X27874204Y22639495D01*
X27873000Y22663999D01*
X27873000Y23564001D01*
X27874204Y23588505D01*
X27877804Y23612773D01*
X27883765Y23636572D01*
X27892030Y23659671D01*
X27902520Y23681850D01*
X27915132Y23702893D01*
X27929747Y23722599D01*
X27946223Y23740777D01*
X27964401Y23757253D01*
X27984107Y23771868D01*
X28005150Y23784480D01*
X28027329Y23794970D01*
X28050428Y23803235D01*
X28074227Y23809196D01*
X28098495Y23812796D01*
X28122999Y23814000D01*
X28773001Y23814000D01*
X28797505Y23812796D01*
X28797505Y23812796D01*
G37*
D11*
G04 #@! TD*
G04 #@! TO.P,R4,1*
G04 #@! TO.N,ECHO+*
X28448000Y23114000D03*
D10*
G04 #@! TO.N,ECHO-*
G04 #@! TO.C,R4*
G36*
X30847505Y23812796D02*
X30871773Y23809196D01*
X30895572Y23803235D01*
X30918671Y23794970D01*
X30940850Y23784480D01*
X30961893Y23771868D01*
X30981599Y23757253D01*
X30999777Y23740777D01*
X31016253Y23722599D01*
X31030868Y23702893D01*
X31043480Y23681850D01*
X31053970Y23659671D01*
X31062235Y23636572D01*
X31068196Y23612773D01*
X31071796Y23588505D01*
X31073000Y23564001D01*
X31073000Y22663999D01*
X31071796Y22639495D01*
X31068196Y22615227D01*
X31062235Y22591428D01*
X31053970Y22568329D01*
X31043480Y22546150D01*
X31030868Y22525107D01*
X31016253Y22505401D01*
X30999777Y22487223D01*
X30981599Y22470747D01*
X30961893Y22456132D01*
X30940850Y22443520D01*
X30918671Y22433030D01*
X30895572Y22424765D01*
X30871773Y22418804D01*
X30847505Y22415204D01*
X30823001Y22414000D01*
X30172999Y22414000D01*
X30148495Y22415204D01*
X30124227Y22418804D01*
X30100428Y22424765D01*
X30077329Y22433030D01*
X30055150Y22443520D01*
X30034107Y22456132D01*
X30014401Y22470747D01*
X29996223Y22487223D01*
X29979747Y22505401D01*
X29965132Y22525107D01*
X29952520Y22546150D01*
X29942030Y22568329D01*
X29933765Y22591428D01*
X29927804Y22615227D01*
X29924204Y22639495D01*
X29923000Y22663999D01*
X29923000Y23564001D01*
X29924204Y23588505D01*
X29927804Y23612773D01*
X29933765Y23636572D01*
X29942030Y23659671D01*
X29952520Y23681850D01*
X29965132Y23702893D01*
X29979747Y23722599D01*
X29996223Y23740777D01*
X30014401Y23757253D01*
X30034107Y23771868D01*
X30055150Y23784480D01*
X30077329Y23794970D01*
X30100428Y23803235D01*
X30124227Y23809196D01*
X30148495Y23812796D01*
X30172999Y23814000D01*
X30823001Y23814000D01*
X30847505Y23812796D01*
X30847505Y23812796D01*
G37*
D11*
G04 #@! TD*
G04 #@! TO.P,R4,2*
G04 #@! TO.N,ECHO-*
X30498000Y23114000D03*
D10*
G04 #@! TO.N,GND*
G04 #@! TO.C,R1*
G36*
X22701505Y9715796D02*
X22725773Y9712196D01*
X22749572Y9706235D01*
X22772671Y9697970D01*
X22794850Y9687480D01*
X22815893Y9674868D01*
X22835599Y9660253D01*
X22853777Y9643777D01*
X22870253Y9625599D01*
X22884868Y9605893D01*
X22897480Y9584850D01*
X22907970Y9562671D01*
X22916235Y9539572D01*
X22922196Y9515773D01*
X22925796Y9491505D01*
X22927000Y9467001D01*
X22927000Y8566999D01*
X22925796Y8542495D01*
X22922196Y8518227D01*
X22916235Y8494428D01*
X22907970Y8471329D01*
X22897480Y8449150D01*
X22884868Y8428107D01*
X22870253Y8408401D01*
X22853777Y8390223D01*
X22835599Y8373747D01*
X22815893Y8359132D01*
X22794850Y8346520D01*
X22772671Y8336030D01*
X22749572Y8327765D01*
X22725773Y8321804D01*
X22701505Y8318204D01*
X22677001Y8317000D01*
X22026999Y8317000D01*
X22002495Y8318204D01*
X21978227Y8321804D01*
X21954428Y8327765D01*
X21931329Y8336030D01*
X21909150Y8346520D01*
X21888107Y8359132D01*
X21868401Y8373747D01*
X21850223Y8390223D01*
X21833747Y8408401D01*
X21819132Y8428107D01*
X21806520Y8449150D01*
X21796030Y8471329D01*
X21787765Y8494428D01*
X21781804Y8518227D01*
X21778204Y8542495D01*
X21777000Y8566999D01*
X21777000Y9467001D01*
X21778204Y9491505D01*
X21781804Y9515773D01*
X21787765Y9539572D01*
X21796030Y9562671D01*
X21806520Y9584850D01*
X21819132Y9605893D01*
X21833747Y9625599D01*
X21850223Y9643777D01*
X21868401Y9660253D01*
X21888107Y9674868D01*
X21909150Y9687480D01*
X21931329Y9697970D01*
X21954428Y9706235D01*
X21978227Y9712196D01*
X22002495Y9715796D01*
X22026999Y9717000D01*
X22677001Y9717000D01*
X22701505Y9715796D01*
X22701505Y9715796D01*
G37*
D11*
G04 #@! TD*
G04 #@! TO.P,R1,2*
G04 #@! TO.N,GND*
X22352000Y9017000D03*
D10*
G04 #@! TO.N,TRIG*
G04 #@! TO.C,R1*
G36*
X20651505Y9715796D02*
X20675773Y9712196D01*
X20699572Y9706235D01*
X20722671Y9697970D01*
X20744850Y9687480D01*
X20765893Y9674868D01*
X20785599Y9660253D01*
X20803777Y9643777D01*
X20820253Y9625599D01*
X20834868Y9605893D01*
X20847480Y9584850D01*
X20857970Y9562671D01*
X20866235Y9539572D01*
X20872196Y9515773D01*
X20875796Y9491505D01*
X20877000Y9467001D01*
X20877000Y8566999D01*
X20875796Y8542495D01*
X20872196Y8518227D01*
X20866235Y8494428D01*
X20857970Y8471329D01*
X20847480Y8449150D01*
X20834868Y8428107D01*
X20820253Y8408401D01*
X20803777Y8390223D01*
X20785599Y8373747D01*
X20765893Y8359132D01*
X20744850Y8346520D01*
X20722671Y8336030D01*
X20699572Y8327765D01*
X20675773Y8321804D01*
X20651505Y8318204D01*
X20627001Y8317000D01*
X19976999Y8317000D01*
X19952495Y8318204D01*
X19928227Y8321804D01*
X19904428Y8327765D01*
X19881329Y8336030D01*
X19859150Y8346520D01*
X19838107Y8359132D01*
X19818401Y8373747D01*
X19800223Y8390223D01*
X19783747Y8408401D01*
X19769132Y8428107D01*
X19756520Y8449150D01*
X19746030Y8471329D01*
X19737765Y8494428D01*
X19731804Y8518227D01*
X19728204Y8542495D01*
X19727000Y8566999D01*
X19727000Y9467001D01*
X19728204Y9491505D01*
X19731804Y9515773D01*
X19737765Y9539572D01*
X19746030Y9562671D01*
X19756520Y9584850D01*
X19769132Y9605893D01*
X19783747Y9625599D01*
X19800223Y9643777D01*
X19818401Y9660253D01*
X19838107Y9674868D01*
X19859150Y9687480D01*
X19881329Y9697970D01*
X19904428Y9706235D01*
X19928227Y9712196D01*
X19952495Y9715796D01*
X19976999Y9717000D01*
X20627001Y9717000D01*
X20651505Y9715796D01*
X20651505Y9715796D01*
G37*
D11*
G04 #@! TD*
G04 #@! TO.P,R1,1*
G04 #@! TO.N,TRIG*
X20302000Y9017000D03*
D10*
G04 #@! TO.N,ECHO*
G04 #@! TO.C,R2*
G36*
X33748505Y13663796D02*
X33772773Y13660196D01*
X33796572Y13654235D01*
X33819671Y13645970D01*
X33841850Y13635480D01*
X33862893Y13622868D01*
X33882599Y13608253D01*
X33900777Y13591777D01*
X33917253Y13573599D01*
X33931868Y13553893D01*
X33944480Y13532850D01*
X33954970Y13510671D01*
X33963235Y13487572D01*
X33969196Y13463773D01*
X33972796Y13439505D01*
X33974000Y13415001D01*
X33974000Y12764999D01*
X33972796Y12740495D01*
X33969196Y12716227D01*
X33963235Y12692428D01*
X33954970Y12669329D01*
X33944480Y12647150D01*
X33931868Y12626107D01*
X33917253Y12606401D01*
X33900777Y12588223D01*
X33882599Y12571747D01*
X33862893Y12557132D01*
X33841850Y12544520D01*
X33819671Y12534030D01*
X33796572Y12525765D01*
X33772773Y12519804D01*
X33748505Y12516204D01*
X33724001Y12515000D01*
X32823999Y12515000D01*
X32799495Y12516204D01*
X32775227Y12519804D01*
X32751428Y12525765D01*
X32728329Y12534030D01*
X32706150Y12544520D01*
X32685107Y12557132D01*
X32665401Y12571747D01*
X32647223Y12588223D01*
X32630747Y12606401D01*
X32616132Y12626107D01*
X32603520Y12647150D01*
X32593030Y12669329D01*
X32584765Y12692428D01*
X32578804Y12716227D01*
X32575204Y12740495D01*
X32574000Y12764999D01*
X32574000Y13415001D01*
X32575204Y13439505D01*
X32578804Y13463773D01*
X32584765Y13487572D01*
X32593030Y13510671D01*
X32603520Y13532850D01*
X32616132Y13553893D01*
X32630747Y13573599D01*
X32647223Y13591777D01*
X32665401Y13608253D01*
X32685107Y13622868D01*
X32706150Y13635480D01*
X32728329Y13645970D01*
X32751428Y13654235D01*
X32775227Y13660196D01*
X32799495Y13663796D01*
X32823999Y13665000D01*
X33724001Y13665000D01*
X33748505Y13663796D01*
X33748505Y13663796D01*
G37*
D11*
G04 #@! TD*
G04 #@! TO.P,R2,1*
G04 #@! TO.N,ECHO*
X33274000Y13090000D03*
D10*
G04 #@! TO.N,GND*
G04 #@! TO.C,R2*
G36*
X33748505Y11613796D02*
X33772773Y11610196D01*
X33796572Y11604235D01*
X33819671Y11595970D01*
X33841850Y11585480D01*
X33862893Y11572868D01*
X33882599Y11558253D01*
X33900777Y11541777D01*
X33917253Y11523599D01*
X33931868Y11503893D01*
X33944480Y11482850D01*
X33954970Y11460671D01*
X33963235Y11437572D01*
X33969196Y11413773D01*
X33972796Y11389505D01*
X33974000Y11365001D01*
X33974000Y10714999D01*
X33972796Y10690495D01*
X33969196Y10666227D01*
X33963235Y10642428D01*
X33954970Y10619329D01*
X33944480Y10597150D01*
X33931868Y10576107D01*
X33917253Y10556401D01*
X33900777Y10538223D01*
X33882599Y10521747D01*
X33862893Y10507132D01*
X33841850Y10494520D01*
X33819671Y10484030D01*
X33796572Y10475765D01*
X33772773Y10469804D01*
X33748505Y10466204D01*
X33724001Y10465000D01*
X32823999Y10465000D01*
X32799495Y10466204D01*
X32775227Y10469804D01*
X32751428Y10475765D01*
X32728329Y10484030D01*
X32706150Y10494520D01*
X32685107Y10507132D01*
X32665401Y10521747D01*
X32647223Y10538223D01*
X32630747Y10556401D01*
X32616132Y10576107D01*
X32603520Y10597150D01*
X32593030Y10619329D01*
X32584765Y10642428D01*
X32578804Y10666227D01*
X32575204Y10690495D01*
X32574000Y10714999D01*
X32574000Y11365001D01*
X32575204Y11389505D01*
X32578804Y11413773D01*
X32584765Y11437572D01*
X32593030Y11460671D01*
X32603520Y11482850D01*
X32616132Y11503893D01*
X32630747Y11523599D01*
X32647223Y11541777D01*
X32665401Y11558253D01*
X32685107Y11572868D01*
X32706150Y11585480D01*
X32728329Y11595970D01*
X32751428Y11604235D01*
X32775227Y11610196D01*
X32799495Y11613796D01*
X32823999Y11615000D01*
X33724001Y11615000D01*
X33748505Y11613796D01*
X33748505Y11613796D01*
G37*
D11*
G04 #@! TD*
G04 #@! TO.P,R2,2*
G04 #@! TO.N,GND*
X33274000Y11040000D03*
D22*
G04 #@! TO.N,ECHO*
X32816000Y14463000D02*
X32816000Y18723000D01*
X30259000Y13081000D02*
X31434000Y13081000D01*
X30268000Y13090000D02*
X30259000Y13081000D01*
X33274000Y13090000D02*
X30268000Y13090000D01*
X32816000Y14223000D02*
X32816000Y14463000D01*
X33274000Y13765000D02*
X32816000Y14223000D01*
X33274000Y13090000D02*
X33274000Y13765000D01*
G04 #@! TO.N,GND*
X49911000Y34798000D02*
X47091000Y34798000D01*
X49124000Y30621000D02*
X49149000Y30646000D01*
X49124000Y28321000D02*
X49124000Y30621000D01*
X49149000Y30646000D02*
X49149000Y32740000D01*
X49149000Y32740000D02*
X49022000Y32867000D01*
X49022000Y32867000D02*
X49022000Y33909000D01*
X49022000Y33909000D02*
X49911000Y34798000D01*
X34074000Y11040000D02*
X34925000Y11891000D01*
X33274000Y11040000D02*
X34074000Y11040000D01*
X34925000Y11891000D02*
X34925000Y15875000D01*
X34925000Y15875000D02*
X34798000Y15875000D01*
X34798000Y15875000D02*
X34036000Y16637000D01*
X34036000Y16637000D02*
X34036000Y19812000D01*
X34036000Y19812000D02*
X33401000Y20447000D01*
X33401000Y20447000D02*
X30480000Y20447000D01*
X30276000Y20243000D02*
X30276000Y18723000D01*
X30480000Y20447000D02*
X30276000Y20243000D01*
G04 #@! TO.N,TRIG*
X17272000Y10889000D02*
X17272000Y9714000D01*
X17272000Y9714000D02*
X17263000Y9705000D01*
X19500000Y9144000D02*
X17263000Y9144000D01*
X19627000Y9017000D02*
X19500000Y9144000D01*
X20302000Y9017000D02*
X19627000Y9017000D01*
X17263000Y9705000D02*
X17263000Y9144000D01*
X36117999Y17961001D02*
X36117999Y8939999D01*
X36117999Y8939999D02*
X32004000Y4826000D01*
X32004000Y4826000D02*
X21581000Y4826000D01*
X35356000Y18723000D02*
X36117999Y17961001D01*
X21581000Y4826000D02*
X17263000Y9144000D01*
G04 #@! TO.N,ECHO+*
X28448000Y23114000D02*
X28448000Y26894000D01*
X28448000Y26894000D02*
X28476000Y26922000D01*
X22606000Y14859000D02*
X22606000Y17272000D01*
X22606000Y17272000D02*
X27824628Y22490628D01*
X24384000Y13081000D02*
X22606000Y14859000D01*
X27824628Y22490628D02*
X28448000Y23114000D01*
X24859000Y13081000D02*
X24384000Y13081000D01*
G04 #@! TO.N,ECHO-*
X30498000Y27795000D02*
X29591000Y28702000D01*
X29591000Y28702000D02*
X27456000Y28702000D01*
X30498000Y23114000D02*
X30498000Y27795000D01*
X25334000Y14351000D02*
X27289990Y16306990D01*
X27289990Y19905990D02*
X29874628Y22490628D01*
X24859000Y14351000D02*
X25334000Y14351000D01*
X27289990Y16306990D02*
X27289990Y19905990D01*
X29874628Y22490628D02*
X30498000Y23114000D01*
G04 #@! TO.N,TRIG-*
X20837000Y23114000D02*
X22356000Y24633000D01*
X22356000Y24633000D02*
X22356000Y26922000D01*
X20837000Y23114000D02*
X20837000Y22314000D01*
X20837000Y22314000D02*
X17272000Y18749000D01*
X17272000Y18749000D02*
X17272000Y16289000D01*
G04 #@! TO.N,TRIG+*
X18787000Y23114000D02*
X19410372Y23737372D01*
X19410372Y23737372D02*
X19410372Y27926372D01*
X19410372Y27926372D02*
X20186000Y28702000D01*
X20186000Y28702000D02*
X21336000Y28702000D01*
X18787000Y23114000D02*
X16002000Y20329000D01*
X16002000Y20329000D02*
X16002000Y16289000D01*
G04 #@! TO.N,VCC*
X12455000Y13716000D02*
X12455000Y15993000D01*
X12455000Y15993000D02*
X12446000Y16002000D01*
X14732000Y16289000D02*
X12733000Y16289000D01*
X12733000Y16289000D02*
X12446000Y16002000D01*
X38067000Y18552000D02*
X37896000Y18723000D01*
X40377000Y18669000D02*
X37950000Y18669000D01*
X37950000Y18669000D02*
X37896000Y18723000D01*
X37896000Y18723000D02*
X40763000Y21590000D01*
X40763000Y21590000D02*
X44222000Y21590000D01*
X44222000Y21590000D02*
X42824000Y22988000D01*
X42824000Y22988000D02*
X42824000Y26021000D01*
X39370000Y25137000D02*
X41940000Y25137000D01*
X41940000Y25137000D02*
X42824000Y26021000D01*
X14732000Y34036000D02*
X14732000Y16289000D01*
X18923000Y38227000D02*
X14732000Y34036000D01*
X44831000Y38227000D02*
X18923000Y38227000D01*
X45466000Y37592000D02*
X44831000Y38227000D01*
X44224000Y26021000D02*
X45974000Y27771000D01*
X42824000Y26021000D02*
X44224000Y26021000D01*
X45974000Y27771000D02*
X45890990Y27854010D01*
X45890990Y32087010D02*
X45466000Y32512000D01*
X45890990Y27854010D02*
X45890990Y32087010D01*
X45466000Y32512000D02*
X45466000Y37592000D01*
X30226000Y11778000D02*
X30259000Y11811000D01*
X28575000Y11811000D02*
X24859000Y11811000D01*
X30259000Y11811000D02*
X28575000Y11811000D01*
X28838000Y10390000D02*
X30259000Y11811000D01*
X28838000Y8890000D02*
X28838000Y10390000D01*
X31360000Y10710000D02*
X30259000Y11811000D01*
X31360000Y8890000D02*
X31360000Y10710000D01*
X37896000Y18723000D02*
X35521989Y21097011D01*
X35521989Y21097011D02*
X29479011Y21097011D01*
X28575000Y20193000D02*
X28575000Y11811000D01*
X29479011Y21097011D02*
X28575000Y20193000D01*
G04 #@! TO.N,+12V*
X23376000Y28702000D02*
X25416000Y28702000D01*
X38354000Y34798000D02*
X39370000Y33782000D01*
X39370000Y33782000D02*
X39370000Y31378000D01*
X26670000Y34798000D02*
X38354000Y34798000D01*
X25400000Y33528000D02*
X26670000Y34798000D01*
X25400000Y29778660D02*
X25400000Y33528000D01*
X25416000Y28702000D02*
X25416000Y29762660D01*
X25416000Y29762660D02*
X25400000Y29778660D01*
X42824000Y30621000D02*
X42824000Y33781000D01*
X42824000Y33781000D02*
X43841000Y34798000D01*
X39370000Y31378000D02*
X42067000Y31378000D01*
X42067000Y31378000D02*
X42824000Y30621000D01*
G04 #@! TD*
D23*
G04 #@! TO.N,GND*
G36*
X65838000Y710000D02*
X710000Y710000D01*
X710000Y3878569D01*
X940000Y3878569D01*
X940000Y2989431D01*
X1280259Y2167974D01*
X1908974Y1539259D01*
X2730431Y1199000D01*
X3619569Y1199000D01*
X4441026Y1539259D01*
X5069741Y2167974D01*
X5410000Y2989431D01*
X5410000Y3878569D01*
X60940000Y3878569D01*
X60940000Y2989431D01*
X61280259Y2167974D01*
X61908974Y1539259D01*
X62730431Y1199000D01*
X63619569Y1199000D01*
X64441026Y1539259D01*
X65069741Y2167974D01*
X65410000Y2989431D01*
X65410000Y3878569D01*
X65069741Y4700026D01*
X64441026Y5328741D01*
X63619569Y5669000D01*
X62730431Y5669000D01*
X61908974Y5328741D01*
X61280259Y4700026D01*
X60940000Y3878569D01*
X5410000Y3878569D01*
X5069741Y4700026D01*
X4441026Y5328741D01*
X3619569Y5669000D01*
X2730431Y5669000D01*
X1908974Y5328741D01*
X1280259Y4700026D01*
X940000Y3878569D01*
X710000Y3878569D01*
X710000Y13430250D01*
X9195000Y13430250D01*
X9195000Y12889690D01*
X9291673Y12656301D01*
X9470302Y12477673D01*
X9703691Y12381000D01*
X10119250Y12381000D01*
X10278000Y12539750D01*
X10278000Y13589000D01*
X9353750Y13589000D01*
X9195000Y13430250D01*
X710000Y13430250D01*
X710000Y15716250D01*
X9186000Y15716250D01*
X9186000Y15175690D01*
X9282673Y14942301D01*
X9370474Y14854500D01*
X9291673Y14775699D01*
X9195000Y14542310D01*
X9195000Y14001750D01*
X9353750Y13843000D01*
X10278000Y13843000D01*
X10278000Y14892250D01*
X10269000Y14901250D01*
X10269000Y15875000D01*
X9344750Y15875000D01*
X9186000Y15716250D01*
X710000Y15716250D01*
X710000Y16828310D01*
X9186000Y16828310D01*
X9186000Y16287750D01*
X9344750Y16129000D01*
X10269000Y16129000D01*
X10269000Y17178250D01*
X10523000Y17178250D01*
X10523000Y16129000D01*
X10543000Y16129000D01*
X10543000Y15875000D01*
X10523000Y15875000D01*
X10523000Y14825750D01*
X10532000Y14816750D01*
X10532000Y13843000D01*
X10552000Y13843000D01*
X10552000Y13589000D01*
X10532000Y13589000D01*
X10532000Y12539750D01*
X10690750Y12381000D01*
X11106309Y12381000D01*
X11339698Y12477673D01*
X11494623Y12632597D01*
X11495414Y12631414D01*
X11786564Y12436873D01*
X12129999Y12368560D01*
X12780001Y12368560D01*
X13123436Y12436873D01*
X13414586Y12631414D01*
X13609127Y12922564D01*
X13677440Y13265999D01*
X13677440Y14166001D01*
X13609127Y14509436D01*
X13414586Y14800586D01*
X13322664Y14862007D01*
X13405586Y14917414D01*
X13600127Y15208564D01*
X13648947Y15454000D01*
X13796495Y15454000D01*
X13833843Y15266235D01*
X13974191Y15056191D01*
X14184235Y14915843D01*
X14432000Y14866560D01*
X15032000Y14866560D01*
X15279765Y14915843D01*
X15367000Y14974132D01*
X15454235Y14915843D01*
X15702000Y14866560D01*
X16302000Y14866560D01*
X16549765Y14915843D01*
X16637000Y14974132D01*
X16724235Y14915843D01*
X16972000Y14866560D01*
X17572000Y14866560D01*
X17819765Y14915843D01*
X17898972Y14968768D01*
X18115690Y14879000D01*
X18256250Y14879000D01*
X18415000Y15037750D01*
X18415000Y16162000D01*
X18669000Y16162000D01*
X18669000Y15037750D01*
X18827750Y14879000D01*
X18968310Y14879000D01*
X19201699Y14975673D01*
X19380327Y15154302D01*
X19477000Y15387691D01*
X19477000Y16003250D01*
X19318250Y16162000D01*
X18669000Y16162000D01*
X18415000Y16162000D01*
X18395000Y16162000D01*
X18395000Y16416000D01*
X18415000Y16416000D01*
X18415000Y17540250D01*
X18669000Y17540250D01*
X18669000Y16416000D01*
X19318250Y16416000D01*
X19477000Y16574750D01*
X19477000Y17190309D01*
X19380327Y17423698D01*
X19201699Y17602327D01*
X18968310Y17699000D01*
X18827750Y17699000D01*
X18669000Y17540250D01*
X18415000Y17540250D01*
X18256250Y17699000D01*
X18115690Y17699000D01*
X18107000Y17695400D01*
X18107000Y18403133D01*
X21369286Y21665417D01*
X21439001Y21711999D01*
X21533739Y21853785D01*
X21796586Y22029414D01*
X21991127Y22320564D01*
X22059440Y22663999D01*
X22059440Y23155572D01*
X22888286Y23984417D01*
X22958001Y24030999D01*
X23055833Y24177414D01*
X23142552Y24307199D01*
X23159644Y24393127D01*
X23191000Y24550763D01*
X23191000Y24550766D01*
X23207357Y24632999D01*
X23191000Y24715232D01*
X23191000Y25798313D01*
X23343170Y25950483D01*
X23604088Y25950483D01*
X23672077Y25709540D01*
X24191171Y25524799D01*
X24741448Y25552770D01*
X25119923Y25709540D01*
X25187912Y25950483D01*
X25644088Y25950483D01*
X25712077Y25709540D01*
X26231171Y25524799D01*
X26781448Y25552770D01*
X27159923Y25709540D01*
X27227912Y25950483D01*
X26436000Y26742395D01*
X25644088Y25950483D01*
X25187912Y25950483D01*
X24396000Y26742395D01*
X23604088Y25950483D01*
X23343170Y25950483D01*
X23530147Y26137460D01*
X23599650Y26305255D01*
X24216395Y26922000D01*
X24202253Y26936142D01*
X24381858Y27115747D01*
X24396000Y27101605D01*
X24410143Y27115747D01*
X24589748Y26936142D01*
X24575605Y26922000D01*
X25169808Y26327797D01*
X25223540Y26198077D01*
X25329399Y26168206D01*
X25367517Y26130088D01*
X25416000Y26143769D01*
X25464483Y26130088D01*
X25502601Y26168206D01*
X25608460Y26198077D01*
X25650446Y26316051D01*
X26256395Y26922000D01*
X26242253Y26936142D01*
X26421858Y27115747D01*
X26436000Y27101605D01*
X26450143Y27115747D01*
X26629748Y26936142D01*
X26615605Y26922000D01*
X27232350Y26305255D01*
X27301853Y26137460D01*
X27613001Y25826312D01*
X27613000Y24281832D01*
X27488414Y24198586D01*
X27293873Y23907436D01*
X27225560Y23564001D01*
X27225560Y23072429D01*
X22073718Y17920585D01*
X22004000Y17874001D01*
X21957416Y17804283D01*
X21819448Y17597800D01*
X21754643Y17272000D01*
X21771001Y17189762D01*
X21771000Y14941233D01*
X21754643Y14859000D01*
X21771000Y14776767D01*
X21771000Y14776764D01*
X21819448Y14533200D01*
X22003999Y14256999D01*
X22073720Y14210413D01*
X23436560Y12847572D01*
X23436560Y12781000D01*
X23485843Y12533235D01*
X23544132Y12446000D01*
X23485843Y12358765D01*
X23436560Y12111000D01*
X23436560Y11511000D01*
X23485843Y11263235D01*
X23626191Y11053191D01*
X23836235Y10912843D01*
X24084000Y10863560D01*
X25634000Y10863560D01*
X25881765Y10912843D01*
X25976285Y10976000D01*
X28225308Y10976000D01*
X28189416Y10922283D01*
X28051448Y10715800D01*
X27986643Y10390000D01*
X28003001Y10307762D01*
X28003001Y10057833D01*
X27878414Y9974586D01*
X27877623Y9973403D01*
X27722698Y10128327D01*
X27489309Y10225000D01*
X27073750Y10225000D01*
X26915000Y10066250D01*
X26915000Y9017000D01*
X26935000Y9017000D01*
X26935000Y8763000D01*
X26915000Y8763000D01*
X26915000Y7713750D01*
X27073750Y7555000D01*
X27489309Y7555000D01*
X27722698Y7651673D01*
X27877623Y7806597D01*
X27878414Y7805414D01*
X28169564Y7610873D01*
X28512999Y7542560D01*
X29163001Y7542560D01*
X29506436Y7610873D01*
X29797586Y7805414D01*
X29992127Y8096564D01*
X30060440Y8439999D01*
X30060440Y9340001D01*
X29992127Y9683436D01*
X29797586Y9974586D01*
X29681212Y10052345D01*
X30259000Y10630132D01*
X30525001Y10364131D01*
X30525001Y10057832D01*
X30400414Y9974586D01*
X30205873Y9683436D01*
X30137560Y9340001D01*
X30137560Y8439999D01*
X30205873Y8096564D01*
X30400414Y7805414D01*
X30691564Y7610873D01*
X31034999Y7542560D01*
X31685001Y7542560D01*
X32028436Y7610873D01*
X32319586Y7805414D01*
X32320377Y7806597D01*
X32475302Y7651673D01*
X32708691Y7555000D01*
X33124250Y7555000D01*
X33283000Y7713750D01*
X33283000Y8763000D01*
X33263000Y8763000D01*
X33263000Y9017000D01*
X33283000Y9017000D01*
X33283000Y9037000D01*
X33537000Y9037000D01*
X33537000Y9017000D01*
X34461250Y9017000D01*
X34620000Y9175750D01*
X34620000Y9716310D01*
X34523327Y9949699D01*
X34440025Y10033000D01*
X34512327Y10105302D01*
X34609000Y10338691D01*
X34609000Y10754250D01*
X34450250Y10913000D01*
X33401000Y10913000D01*
X33401000Y10893000D01*
X33147000Y10893000D01*
X33147000Y10913000D01*
X33127000Y10913000D01*
X33127000Y11167000D01*
X33147000Y11167000D01*
X33147000Y11187000D01*
X33401000Y11187000D01*
X33401000Y11167000D01*
X34450250Y11167000D01*
X34609000Y11325750D01*
X34609000Y11741309D01*
X34512327Y11974698D01*
X34357403Y12129623D01*
X34358586Y12130414D01*
X34553127Y12421564D01*
X34621440Y12764999D01*
X34621440Y13415001D01*
X34553127Y13758436D01*
X34358586Y14049586D01*
X34067436Y14244127D01*
X33941344Y14269208D01*
X33876001Y14367001D01*
X33806280Y14413587D01*
X33651000Y14568867D01*
X33651000Y17582343D01*
X34000320Y17931663D01*
X34086000Y18138513D01*
X34171680Y17931663D01*
X34564663Y17538680D01*
X35078119Y17326000D01*
X35282999Y17326000D01*
X35283000Y9285868D01*
X34610691Y8613559D01*
X34461250Y8763000D01*
X33537000Y8763000D01*
X33537000Y7713750D01*
X33623941Y7626809D01*
X31658133Y5661000D01*
X21926868Y5661000D01*
X19903734Y7684133D01*
X19976999Y7669560D01*
X20627001Y7669560D01*
X20970436Y7737873D01*
X21261586Y7932414D01*
X21262377Y7933597D01*
X21417302Y7778673D01*
X21650691Y7682000D01*
X22066250Y7682000D01*
X22225000Y7840750D01*
X22225000Y8890000D01*
X22479000Y8890000D01*
X22479000Y7840750D01*
X22637750Y7682000D01*
X23053309Y7682000D01*
X23286698Y7778673D01*
X23465327Y7957301D01*
X23562000Y8190690D01*
X23562000Y8604250D01*
X25578000Y8604250D01*
X25578000Y8063690D01*
X25674673Y7830301D01*
X25853302Y7651673D01*
X26086691Y7555000D01*
X26502250Y7555000D01*
X26661000Y7713750D01*
X26661000Y8763000D01*
X25736750Y8763000D01*
X25578000Y8604250D01*
X23562000Y8604250D01*
X23562000Y8731250D01*
X23403250Y8890000D01*
X22479000Y8890000D01*
X22225000Y8890000D01*
X22205000Y8890000D01*
X22205000Y9144000D01*
X22225000Y9144000D01*
X22225000Y10193250D01*
X22479000Y10193250D01*
X22479000Y9144000D01*
X23403250Y9144000D01*
X23562000Y9302750D01*
X23562000Y9716310D01*
X25578000Y9716310D01*
X25578000Y9175750D01*
X25736750Y9017000D01*
X26661000Y9017000D01*
X26661000Y10066250D01*
X26502250Y10225000D01*
X26086691Y10225000D01*
X25853302Y10128327D01*
X25674673Y9949699D01*
X25578000Y9716310D01*
X23562000Y9716310D01*
X23562000Y9843310D01*
X23465327Y10076699D01*
X23286698Y10255327D01*
X23053309Y10352000D01*
X22637750Y10352000D01*
X22479000Y10193250D01*
X22225000Y10193250D01*
X22066250Y10352000D01*
X21650691Y10352000D01*
X21417302Y10255327D01*
X21262377Y10100403D01*
X21261586Y10101586D01*
X20970436Y10296127D01*
X20627001Y10364440D01*
X19976999Y10364440D01*
X19633564Y10296127D01*
X19477000Y10191514D01*
X19477000Y10603250D01*
X19318250Y10762000D01*
X18669000Y10762000D01*
X18669000Y10742000D01*
X18415000Y10742000D01*
X18415000Y10762000D01*
X18395000Y10762000D01*
X18395000Y11016000D01*
X18415000Y11016000D01*
X18415000Y12140250D01*
X18669000Y12140250D01*
X18669000Y11016000D01*
X19318250Y11016000D01*
X19477000Y11174750D01*
X19477000Y11790309D01*
X19380327Y12023698D01*
X19201699Y12202327D01*
X18968310Y12299000D01*
X18827750Y12299000D01*
X18669000Y12140250D01*
X18415000Y12140250D01*
X18256250Y12299000D01*
X18115690Y12299000D01*
X17898972Y12209232D01*
X17819765Y12262157D01*
X17572000Y12311440D01*
X16972000Y12311440D01*
X16724235Y12262157D01*
X16637000Y12203868D01*
X16549765Y12262157D01*
X16302000Y12311440D01*
X15702000Y12311440D01*
X15454235Y12262157D01*
X15367000Y12203868D01*
X15279765Y12262157D01*
X15032000Y12311440D01*
X14432000Y12311440D01*
X14184235Y12262157D01*
X13974191Y12121809D01*
X13833843Y11911765D01*
X13784560Y11664000D01*
X13784560Y10114000D01*
X13833843Y9866235D01*
X13974191Y9656191D01*
X14184235Y9515843D01*
X14432000Y9466560D01*
X15032000Y9466560D01*
X15279765Y9515843D01*
X15367000Y9574132D01*
X15454235Y9515843D01*
X15702000Y9466560D01*
X16302000Y9466560D01*
X16428000Y9491623D01*
X16428000Y9226237D01*
X16411642Y9144000D01*
X16476448Y8818199D01*
X16660999Y8541999D01*
X16730720Y8495413D01*
X20932415Y4293717D01*
X20978999Y4223999D01*
X21255199Y4039448D01*
X21498763Y3991000D01*
X21498766Y3991000D01*
X21580999Y3974643D01*
X21663232Y3991000D01*
X31921767Y3991000D01*
X32004000Y3974643D01*
X32086233Y3991000D01*
X32086237Y3991000D01*
X32329801Y4039448D01*
X32606001Y4223999D01*
X32652587Y4293720D01*
X36650282Y8291414D01*
X36720000Y8337998D01*
X36904551Y8614198D01*
X36952999Y8857762D01*
X36952999Y8857765D01*
X36969356Y8939998D01*
X36952999Y9022231D01*
X36952999Y17690344D01*
X37104663Y17538680D01*
X37618119Y17326000D01*
X38173881Y17326000D01*
X38687337Y17538680D01*
X38982657Y17834000D01*
X39250645Y17834000D01*
X39417414Y17584414D01*
X39708564Y17389873D01*
X40051999Y17321560D01*
X40702001Y17321560D01*
X41045436Y17389873D01*
X41336586Y17584414D01*
X41337377Y17585597D01*
X41492302Y17430673D01*
X41725691Y17334000D01*
X42141250Y17334000D01*
X42300000Y17492750D01*
X42300000Y18542000D01*
X42554000Y18542000D01*
X42554000Y17492750D01*
X42712750Y17334000D01*
X43128309Y17334000D01*
X43361698Y17430673D01*
X43540327Y17609301D01*
X43637000Y17842690D01*
X43637000Y18383250D01*
X43478250Y18542000D01*
X42554000Y18542000D01*
X42300000Y18542000D01*
X42280000Y18542000D01*
X42280000Y18796000D01*
X42300000Y18796000D01*
X42300000Y19845250D01*
X42141250Y20004000D01*
X41725691Y20004000D01*
X41492302Y19907327D01*
X41337377Y19752403D01*
X41336586Y19753586D01*
X41045436Y19948127D01*
X40702001Y20016440D01*
X40370308Y20016440D01*
X41108869Y20755000D01*
X42824560Y20755000D01*
X42824560Y20665000D01*
X42892874Y20321565D01*
X43087414Y20030414D01*
X43126946Y20004000D01*
X42712750Y20004000D01*
X42554000Y19845250D01*
X42554000Y18796000D01*
X43478250Y18796000D01*
X43637000Y18954750D01*
X43637000Y19495310D01*
X43540327Y19728699D01*
X43518145Y19750881D01*
X53745000Y19750881D01*
X53745000Y19195119D01*
X53957680Y18681663D01*
X54350663Y18288680D01*
X54864119Y18076000D01*
X55419881Y18076000D01*
X55933337Y18288680D01*
X56326320Y18681663D01*
X56539000Y19195119D01*
X56539000Y19750881D01*
X56326320Y20264337D01*
X55933337Y20657320D01*
X55419881Y20870000D01*
X54864119Y20870000D01*
X54350663Y20657320D01*
X53957680Y20264337D01*
X53745000Y19750881D01*
X43518145Y19750881D01*
X43446706Y19822320D01*
X43722000Y19767560D01*
X44722000Y19767560D01*
X45065435Y19835874D01*
X45356586Y20030414D01*
X45551126Y20321565D01*
X45619440Y20665000D01*
X45619440Y21304250D01*
X46087000Y21304250D01*
X46087000Y20288690D01*
X46183673Y20055301D01*
X46362302Y19876673D01*
X46595691Y19780000D01*
X47186250Y19780000D01*
X47345000Y19938750D01*
X47345000Y21463000D01*
X47599000Y21463000D01*
X47599000Y19938750D01*
X47757750Y19780000D01*
X48348309Y19780000D01*
X48581698Y19876673D01*
X48760327Y20055301D01*
X48857000Y20288690D01*
X48857000Y21304250D01*
X48698250Y21463000D01*
X47599000Y21463000D01*
X47345000Y21463000D01*
X46245750Y21463000D01*
X46087000Y21304250D01*
X45619440Y21304250D01*
X45619440Y22515000D01*
X45551126Y22858435D01*
X45529160Y22891310D01*
X46087000Y22891310D01*
X46087000Y21875750D01*
X46245750Y21717000D01*
X47345000Y21717000D01*
X47345000Y23241250D01*
X47599000Y23241250D01*
X47599000Y21717000D01*
X48698250Y21717000D01*
X48857000Y21875750D01*
X48857000Y22891310D01*
X48760327Y23124699D01*
X48581698Y23303327D01*
X48348309Y23400000D01*
X47757750Y23400000D01*
X47599000Y23241250D01*
X47345000Y23241250D01*
X47186250Y23400000D01*
X46595691Y23400000D01*
X46362302Y23303327D01*
X46183673Y23124699D01*
X46087000Y22891310D01*
X45529160Y22891310D01*
X45356586Y23149586D01*
X45065435Y23344126D01*
X44722000Y23412440D01*
X43722000Y23412440D01*
X43659000Y23399908D01*
X43659000Y24623560D01*
X43824000Y24623560D01*
X44071765Y24672843D01*
X44281809Y24813191D01*
X44422157Y25023235D01*
X44460642Y25216713D01*
X44549801Y25234448D01*
X44826001Y25418999D01*
X44872587Y25488720D01*
X46506284Y27122416D01*
X46576001Y27168999D01*
X46760552Y27445200D01*
X46825358Y27771000D01*
X46772796Y28035250D01*
X47489000Y28035250D01*
X47489000Y26294690D01*
X47585673Y26061301D01*
X47764302Y25882673D01*
X47997691Y25786000D01*
X48838250Y25786000D01*
X48997000Y25944750D01*
X48997000Y28194000D01*
X49251000Y28194000D01*
X49251000Y25944750D01*
X49409750Y25786000D01*
X50250309Y25786000D01*
X50483698Y25882673D01*
X50662327Y26061301D01*
X50759000Y26294690D01*
X50759000Y28035250D01*
X50600250Y28194000D01*
X49251000Y28194000D01*
X48997000Y28194000D01*
X47647750Y28194000D01*
X47489000Y28035250D01*
X46772796Y28035250D01*
X46760552Y28096800D01*
X46725990Y28148526D01*
X46725990Y30347310D01*
X47489000Y30347310D01*
X47489000Y28606750D01*
X47647750Y28448000D01*
X48997000Y28448000D01*
X48997000Y30697250D01*
X49251000Y30697250D01*
X49251000Y28448000D01*
X50600250Y28448000D01*
X50759000Y28606750D01*
X50759000Y30347310D01*
X50662327Y30580699D01*
X50483698Y30759327D01*
X50250309Y30856000D01*
X49409750Y30856000D01*
X49251000Y30697250D01*
X48997000Y30697250D01*
X48838250Y30856000D01*
X47997691Y30856000D01*
X47764302Y30759327D01*
X47585673Y30580699D01*
X47489000Y30347310D01*
X46725990Y30347310D01*
X46725990Y32004773D01*
X46742348Y32087010D01*
X46677542Y32412810D01*
X46677542Y32412811D01*
X46492991Y32689011D01*
X46423270Y32735597D01*
X46301000Y32857867D01*
X46301000Y32988000D01*
X46805250Y32988000D01*
X46964000Y33146750D01*
X46964000Y34671000D01*
X47218000Y34671000D01*
X47218000Y33146750D01*
X47376750Y32988000D01*
X47967309Y32988000D01*
X48200698Y33084673D01*
X48379327Y33263301D01*
X48476000Y33496690D01*
X48476000Y34512250D01*
X48317250Y34671000D01*
X47218000Y34671000D01*
X46964000Y34671000D01*
X46944000Y34671000D01*
X46944000Y34925000D01*
X46964000Y34925000D01*
X46964000Y36449250D01*
X47218000Y36449250D01*
X47218000Y34925000D01*
X48317250Y34925000D01*
X48476000Y35083750D01*
X48476000Y36099310D01*
X48379327Y36332699D01*
X48200698Y36511327D01*
X47967309Y36608000D01*
X47376750Y36608000D01*
X47218000Y36449250D01*
X46964000Y36449250D01*
X46805250Y36608000D01*
X46301000Y36608000D01*
X46301000Y36750881D01*
X53745000Y36750881D01*
X53745000Y36195119D01*
X53957680Y35681663D01*
X54350663Y35288680D01*
X54864119Y35076000D01*
X55419881Y35076000D01*
X55933337Y35288680D01*
X56326320Y35681663D01*
X56539000Y36195119D01*
X56539000Y36750881D01*
X56326320Y37264337D01*
X55933337Y37657320D01*
X55419881Y37870000D01*
X54864119Y37870000D01*
X54350663Y37657320D01*
X53957680Y37264337D01*
X53745000Y36750881D01*
X46301000Y36750881D01*
X46301000Y37509763D01*
X46317358Y37592000D01*
X46252552Y37917800D01*
X46252552Y37917801D01*
X46068001Y38194001D01*
X45998282Y38240586D01*
X45479587Y38759280D01*
X45433001Y38829001D01*
X45156801Y39013552D01*
X44913237Y39062000D01*
X44913233Y39062000D01*
X44831000Y39078357D01*
X44748767Y39062000D01*
X19005232Y39062000D01*
X18922999Y39078357D01*
X18840766Y39062000D01*
X18840763Y39062000D01*
X18597199Y39013552D01*
X18320999Y38829001D01*
X18274415Y38759283D01*
X14199720Y34684587D01*
X14129999Y34638001D01*
X13945448Y34361800D01*
X13897000Y34118236D01*
X13897000Y34118233D01*
X13880643Y34036000D01*
X13897000Y33953767D01*
X13897001Y20443656D01*
X13683337Y20657320D01*
X13169881Y20870000D01*
X12614119Y20870000D01*
X12100663Y20657320D01*
X11707680Y20264337D01*
X11495000Y19750881D01*
X11495000Y19195119D01*
X11707680Y18681663D01*
X12100663Y18288680D01*
X12614119Y18076000D01*
X13169881Y18076000D01*
X13683337Y18288680D01*
X13897001Y18502344D01*
X13897001Y17406287D01*
X13833843Y17311765D01*
X13796495Y17124000D01*
X13349592Y17124000D01*
X13114436Y17281127D01*
X12771001Y17349440D01*
X12120999Y17349440D01*
X11777564Y17281127D01*
X11486414Y17086586D01*
X11485623Y17085403D01*
X11330698Y17240327D01*
X11097309Y17337000D01*
X10681750Y17337000D01*
X10523000Y17178250D01*
X10269000Y17178250D01*
X10110250Y17337000D01*
X9694691Y17337000D01*
X9461302Y17240327D01*
X9282673Y17061699D01*
X9186000Y16828310D01*
X710000Y16828310D01*
X710000Y36750881D01*
X11495000Y36750881D01*
X11495000Y36195119D01*
X11707680Y35681663D01*
X12100663Y35288680D01*
X12614119Y35076000D01*
X13169881Y35076000D01*
X13683337Y35288680D01*
X14076320Y35681663D01*
X14289000Y36195119D01*
X14289000Y36750881D01*
X14076320Y37264337D01*
X13683337Y37657320D01*
X13169881Y37870000D01*
X12614119Y37870000D01*
X12100663Y37657320D01*
X11707680Y37264337D01*
X11495000Y36750881D01*
X710000Y36750881D01*
X710000Y43878569D01*
X940000Y43878569D01*
X940000Y42989431D01*
X1280259Y42167974D01*
X1908974Y41539259D01*
X2730431Y41199000D01*
X3619569Y41199000D01*
X4441026Y41539259D01*
X5069741Y42167974D01*
X5410000Y42989431D01*
X5410000Y43878569D01*
X60940000Y43878569D01*
X60940000Y42989431D01*
X61280259Y42167974D01*
X61908974Y41539259D01*
X62730431Y41199000D01*
X63619569Y41199000D01*
X64441026Y41539259D01*
X65069741Y42167974D01*
X65410000Y42989431D01*
X65410000Y43878569D01*
X65069741Y44700026D01*
X64441026Y45328741D01*
X63619569Y45669000D01*
X62730431Y45669000D01*
X61908974Y45328741D01*
X61280259Y44700026D01*
X60940000Y43878569D01*
X5410000Y43878569D01*
X5069741Y44700026D01*
X4441026Y45328741D01*
X3619569Y45669000D01*
X2730431Y45669000D01*
X1908974Y45328741D01*
X1280259Y44700026D01*
X940000Y43878569D01*
X710000Y43878569D01*
X710000Y46788000D01*
X65838001Y46788000D01*
X65838000Y710000D01*
X65838000Y710000D01*
G37*
X65838000Y710000D02*
X710000Y710000D01*
X710000Y3878569D01*
X940000Y3878569D01*
X940000Y2989431D01*
X1280259Y2167974D01*
X1908974Y1539259D01*
X2730431Y1199000D01*
X3619569Y1199000D01*
X4441026Y1539259D01*
X5069741Y2167974D01*
X5410000Y2989431D01*
X5410000Y3878569D01*
X60940000Y3878569D01*
X60940000Y2989431D01*
X61280259Y2167974D01*
X61908974Y1539259D01*
X62730431Y1199000D01*
X63619569Y1199000D01*
X64441026Y1539259D01*
X65069741Y2167974D01*
X65410000Y2989431D01*
X65410000Y3878569D01*
X65069741Y4700026D01*
X64441026Y5328741D01*
X63619569Y5669000D01*
X62730431Y5669000D01*
X61908974Y5328741D01*
X61280259Y4700026D01*
X60940000Y3878569D01*
X5410000Y3878569D01*
X5069741Y4700026D01*
X4441026Y5328741D01*
X3619569Y5669000D01*
X2730431Y5669000D01*
X1908974Y5328741D01*
X1280259Y4700026D01*
X940000Y3878569D01*
X710000Y3878569D01*
X710000Y13430250D01*
X9195000Y13430250D01*
X9195000Y12889690D01*
X9291673Y12656301D01*
X9470302Y12477673D01*
X9703691Y12381000D01*
X10119250Y12381000D01*
X10278000Y12539750D01*
X10278000Y13589000D01*
X9353750Y13589000D01*
X9195000Y13430250D01*
X710000Y13430250D01*
X710000Y15716250D01*
X9186000Y15716250D01*
X9186000Y15175690D01*
X9282673Y14942301D01*
X9370474Y14854500D01*
X9291673Y14775699D01*
X9195000Y14542310D01*
X9195000Y14001750D01*
X9353750Y13843000D01*
X10278000Y13843000D01*
X10278000Y14892250D01*
X10269000Y14901250D01*
X10269000Y15875000D01*
X9344750Y15875000D01*
X9186000Y15716250D01*
X710000Y15716250D01*
X710000Y16828310D01*
X9186000Y16828310D01*
X9186000Y16287750D01*
X9344750Y16129000D01*
X10269000Y16129000D01*
X10269000Y17178250D01*
X10523000Y17178250D01*
X10523000Y16129000D01*
X10543000Y16129000D01*
X10543000Y15875000D01*
X10523000Y15875000D01*
X10523000Y14825750D01*
X10532000Y14816750D01*
X10532000Y13843000D01*
X10552000Y13843000D01*
X10552000Y13589000D01*
X10532000Y13589000D01*
X10532000Y12539750D01*
X10690750Y12381000D01*
X11106309Y12381000D01*
X11339698Y12477673D01*
X11494623Y12632597D01*
X11495414Y12631414D01*
X11786564Y12436873D01*
X12129999Y12368560D01*
X12780001Y12368560D01*
X13123436Y12436873D01*
X13414586Y12631414D01*
X13609127Y12922564D01*
X13677440Y13265999D01*
X13677440Y14166001D01*
X13609127Y14509436D01*
X13414586Y14800586D01*
X13322664Y14862007D01*
X13405586Y14917414D01*
X13600127Y15208564D01*
X13648947Y15454000D01*
X13796495Y15454000D01*
X13833843Y15266235D01*
X13974191Y15056191D01*
X14184235Y14915843D01*
X14432000Y14866560D01*
X15032000Y14866560D01*
X15279765Y14915843D01*
X15367000Y14974132D01*
X15454235Y14915843D01*
X15702000Y14866560D01*
X16302000Y14866560D01*
X16549765Y14915843D01*
X16637000Y14974132D01*
X16724235Y14915843D01*
X16972000Y14866560D01*
X17572000Y14866560D01*
X17819765Y14915843D01*
X17898972Y14968768D01*
X18115690Y14879000D01*
X18256250Y14879000D01*
X18415000Y15037750D01*
X18415000Y16162000D01*
X18669000Y16162000D01*
X18669000Y15037750D01*
X18827750Y14879000D01*
X18968310Y14879000D01*
X19201699Y14975673D01*
X19380327Y15154302D01*
X19477000Y15387691D01*
X19477000Y16003250D01*
X19318250Y16162000D01*
X18669000Y16162000D01*
X18415000Y16162000D01*
X18395000Y16162000D01*
X18395000Y16416000D01*
X18415000Y16416000D01*
X18415000Y17540250D01*
X18669000Y17540250D01*
X18669000Y16416000D01*
X19318250Y16416000D01*
X19477000Y16574750D01*
X19477000Y17190309D01*
X19380327Y17423698D01*
X19201699Y17602327D01*
X18968310Y17699000D01*
X18827750Y17699000D01*
X18669000Y17540250D01*
X18415000Y17540250D01*
X18256250Y17699000D01*
X18115690Y17699000D01*
X18107000Y17695400D01*
X18107000Y18403133D01*
X21369286Y21665417D01*
X21439001Y21711999D01*
X21533739Y21853785D01*
X21796586Y22029414D01*
X21991127Y22320564D01*
X22059440Y22663999D01*
X22059440Y23155572D01*
X22888286Y23984417D01*
X22958001Y24030999D01*
X23055833Y24177414D01*
X23142552Y24307199D01*
X23159644Y24393127D01*
X23191000Y24550763D01*
X23191000Y24550766D01*
X23207357Y24632999D01*
X23191000Y24715232D01*
X23191000Y25798313D01*
X23343170Y25950483D01*
X23604088Y25950483D01*
X23672077Y25709540D01*
X24191171Y25524799D01*
X24741448Y25552770D01*
X25119923Y25709540D01*
X25187912Y25950483D01*
X25644088Y25950483D01*
X25712077Y25709540D01*
X26231171Y25524799D01*
X26781448Y25552770D01*
X27159923Y25709540D01*
X27227912Y25950483D01*
X26436000Y26742395D01*
X25644088Y25950483D01*
X25187912Y25950483D01*
X24396000Y26742395D01*
X23604088Y25950483D01*
X23343170Y25950483D01*
X23530147Y26137460D01*
X23599650Y26305255D01*
X24216395Y26922000D01*
X24202253Y26936142D01*
X24381858Y27115747D01*
X24396000Y27101605D01*
X24410143Y27115747D01*
X24589748Y26936142D01*
X24575605Y26922000D01*
X25169808Y26327797D01*
X25223540Y26198077D01*
X25329399Y26168206D01*
X25367517Y26130088D01*
X25416000Y26143769D01*
X25464483Y26130088D01*
X25502601Y26168206D01*
X25608460Y26198077D01*
X25650446Y26316051D01*
X26256395Y26922000D01*
X26242253Y26936142D01*
X26421858Y27115747D01*
X26436000Y27101605D01*
X26450143Y27115747D01*
X26629748Y26936142D01*
X26615605Y26922000D01*
X27232350Y26305255D01*
X27301853Y26137460D01*
X27613001Y25826312D01*
X27613000Y24281832D01*
X27488414Y24198586D01*
X27293873Y23907436D01*
X27225560Y23564001D01*
X27225560Y23072429D01*
X22073718Y17920585D01*
X22004000Y17874001D01*
X21957416Y17804283D01*
X21819448Y17597800D01*
X21754643Y17272000D01*
X21771001Y17189762D01*
X21771000Y14941233D01*
X21754643Y14859000D01*
X21771000Y14776767D01*
X21771000Y14776764D01*
X21819448Y14533200D01*
X22003999Y14256999D01*
X22073720Y14210413D01*
X23436560Y12847572D01*
X23436560Y12781000D01*
X23485843Y12533235D01*
X23544132Y12446000D01*
X23485843Y12358765D01*
X23436560Y12111000D01*
X23436560Y11511000D01*
X23485843Y11263235D01*
X23626191Y11053191D01*
X23836235Y10912843D01*
X24084000Y10863560D01*
X25634000Y10863560D01*
X25881765Y10912843D01*
X25976285Y10976000D01*
X28225308Y10976000D01*
X28189416Y10922283D01*
X28051448Y10715800D01*
X27986643Y10390000D01*
X28003001Y10307762D01*
X28003001Y10057833D01*
X27878414Y9974586D01*
X27877623Y9973403D01*
X27722698Y10128327D01*
X27489309Y10225000D01*
X27073750Y10225000D01*
X26915000Y10066250D01*
X26915000Y9017000D01*
X26935000Y9017000D01*
X26935000Y8763000D01*
X26915000Y8763000D01*
X26915000Y7713750D01*
X27073750Y7555000D01*
X27489309Y7555000D01*
X27722698Y7651673D01*
X27877623Y7806597D01*
X27878414Y7805414D01*
X28169564Y7610873D01*
X28512999Y7542560D01*
X29163001Y7542560D01*
X29506436Y7610873D01*
X29797586Y7805414D01*
X29992127Y8096564D01*
X30060440Y8439999D01*
X30060440Y9340001D01*
X29992127Y9683436D01*
X29797586Y9974586D01*
X29681212Y10052345D01*
X30259000Y10630132D01*
X30525001Y10364131D01*
X30525001Y10057832D01*
X30400414Y9974586D01*
X30205873Y9683436D01*
X30137560Y9340001D01*
X30137560Y8439999D01*
X30205873Y8096564D01*
X30400414Y7805414D01*
X30691564Y7610873D01*
X31034999Y7542560D01*
X31685001Y7542560D01*
X32028436Y7610873D01*
X32319586Y7805414D01*
X32320377Y7806597D01*
X32475302Y7651673D01*
X32708691Y7555000D01*
X33124250Y7555000D01*
X33283000Y7713750D01*
X33283000Y8763000D01*
X33263000Y8763000D01*
X33263000Y9017000D01*
X33283000Y9017000D01*
X33283000Y9037000D01*
X33537000Y9037000D01*
X33537000Y9017000D01*
X34461250Y9017000D01*
X34620000Y9175750D01*
X34620000Y9716310D01*
X34523327Y9949699D01*
X34440025Y10033000D01*
X34512327Y10105302D01*
X34609000Y10338691D01*
X34609000Y10754250D01*
X34450250Y10913000D01*
X33401000Y10913000D01*
X33401000Y10893000D01*
X33147000Y10893000D01*
X33147000Y10913000D01*
X33127000Y10913000D01*
X33127000Y11167000D01*
X33147000Y11167000D01*
X33147000Y11187000D01*
X33401000Y11187000D01*
X33401000Y11167000D01*
X34450250Y11167000D01*
X34609000Y11325750D01*
X34609000Y11741309D01*
X34512327Y11974698D01*
X34357403Y12129623D01*
X34358586Y12130414D01*
X34553127Y12421564D01*
X34621440Y12764999D01*
X34621440Y13415001D01*
X34553127Y13758436D01*
X34358586Y14049586D01*
X34067436Y14244127D01*
X33941344Y14269208D01*
X33876001Y14367001D01*
X33806280Y14413587D01*
X33651000Y14568867D01*
X33651000Y17582343D01*
X34000320Y17931663D01*
X34086000Y18138513D01*
X34171680Y17931663D01*
X34564663Y17538680D01*
X35078119Y17326000D01*
X35282999Y17326000D01*
X35283000Y9285868D01*
X34610691Y8613559D01*
X34461250Y8763000D01*
X33537000Y8763000D01*
X33537000Y7713750D01*
X33623941Y7626809D01*
X31658133Y5661000D01*
X21926868Y5661000D01*
X19903734Y7684133D01*
X19976999Y7669560D01*
X20627001Y7669560D01*
X20970436Y7737873D01*
X21261586Y7932414D01*
X21262377Y7933597D01*
X21417302Y7778673D01*
X21650691Y7682000D01*
X22066250Y7682000D01*
X22225000Y7840750D01*
X22225000Y8890000D01*
X22479000Y8890000D01*
X22479000Y7840750D01*
X22637750Y7682000D01*
X23053309Y7682000D01*
X23286698Y7778673D01*
X23465327Y7957301D01*
X23562000Y8190690D01*
X23562000Y8604250D01*
X25578000Y8604250D01*
X25578000Y8063690D01*
X25674673Y7830301D01*
X25853302Y7651673D01*
X26086691Y7555000D01*
X26502250Y7555000D01*
X26661000Y7713750D01*
X26661000Y8763000D01*
X25736750Y8763000D01*
X25578000Y8604250D01*
X23562000Y8604250D01*
X23562000Y8731250D01*
X23403250Y8890000D01*
X22479000Y8890000D01*
X22225000Y8890000D01*
X22205000Y8890000D01*
X22205000Y9144000D01*
X22225000Y9144000D01*
X22225000Y10193250D01*
X22479000Y10193250D01*
X22479000Y9144000D01*
X23403250Y9144000D01*
X23562000Y9302750D01*
X23562000Y9716310D01*
X25578000Y9716310D01*
X25578000Y9175750D01*
X25736750Y9017000D01*
X26661000Y9017000D01*
X26661000Y10066250D01*
X26502250Y10225000D01*
X26086691Y10225000D01*
X25853302Y10128327D01*
X25674673Y9949699D01*
X25578000Y9716310D01*
X23562000Y9716310D01*
X23562000Y9843310D01*
X23465327Y10076699D01*
X23286698Y10255327D01*
X23053309Y10352000D01*
X22637750Y10352000D01*
X22479000Y10193250D01*
X22225000Y10193250D01*
X22066250Y10352000D01*
X21650691Y10352000D01*
X21417302Y10255327D01*
X21262377Y10100403D01*
X21261586Y10101586D01*
X20970436Y10296127D01*
X20627001Y10364440D01*
X19976999Y10364440D01*
X19633564Y10296127D01*
X19477000Y10191514D01*
X19477000Y10603250D01*
X19318250Y10762000D01*
X18669000Y10762000D01*
X18669000Y10742000D01*
X18415000Y10742000D01*
X18415000Y10762000D01*
X18395000Y10762000D01*
X18395000Y11016000D01*
X18415000Y11016000D01*
X18415000Y12140250D01*
X18669000Y12140250D01*
X18669000Y11016000D01*
X19318250Y11016000D01*
X19477000Y11174750D01*
X19477000Y11790309D01*
X19380327Y12023698D01*
X19201699Y12202327D01*
X18968310Y12299000D01*
X18827750Y12299000D01*
X18669000Y12140250D01*
X18415000Y12140250D01*
X18256250Y12299000D01*
X18115690Y12299000D01*
X17898972Y12209232D01*
X17819765Y12262157D01*
X17572000Y12311440D01*
X16972000Y12311440D01*
X16724235Y12262157D01*
X16637000Y12203868D01*
X16549765Y12262157D01*
X16302000Y12311440D01*
X15702000Y12311440D01*
X15454235Y12262157D01*
X15367000Y12203868D01*
X15279765Y12262157D01*
X15032000Y12311440D01*
X14432000Y12311440D01*
X14184235Y12262157D01*
X13974191Y12121809D01*
X13833843Y11911765D01*
X13784560Y11664000D01*
X13784560Y10114000D01*
X13833843Y9866235D01*
X13974191Y9656191D01*
X14184235Y9515843D01*
X14432000Y9466560D01*
X15032000Y9466560D01*
X15279765Y9515843D01*
X15367000Y9574132D01*
X15454235Y9515843D01*
X15702000Y9466560D01*
X16302000Y9466560D01*
X16428000Y9491623D01*
X16428000Y9226237D01*
X16411642Y9144000D01*
X16476448Y8818199D01*
X16660999Y8541999D01*
X16730720Y8495413D01*
X20932415Y4293717D01*
X20978999Y4223999D01*
X21255199Y4039448D01*
X21498763Y3991000D01*
X21498766Y3991000D01*
X21580999Y3974643D01*
X21663232Y3991000D01*
X31921767Y3991000D01*
X32004000Y3974643D01*
X32086233Y3991000D01*
X32086237Y3991000D01*
X32329801Y4039448D01*
X32606001Y4223999D01*
X32652587Y4293720D01*
X36650282Y8291414D01*
X36720000Y8337998D01*
X36904551Y8614198D01*
X36952999Y8857762D01*
X36952999Y8857765D01*
X36969356Y8939998D01*
X36952999Y9022231D01*
X36952999Y17690344D01*
X37104663Y17538680D01*
X37618119Y17326000D01*
X38173881Y17326000D01*
X38687337Y17538680D01*
X38982657Y17834000D01*
X39250645Y17834000D01*
X39417414Y17584414D01*
X39708564Y17389873D01*
X40051999Y17321560D01*
X40702001Y17321560D01*
X41045436Y17389873D01*
X41336586Y17584414D01*
X41337377Y17585597D01*
X41492302Y17430673D01*
X41725691Y17334000D01*
X42141250Y17334000D01*
X42300000Y17492750D01*
X42300000Y18542000D01*
X42554000Y18542000D01*
X42554000Y17492750D01*
X42712750Y17334000D01*
X43128309Y17334000D01*
X43361698Y17430673D01*
X43540327Y17609301D01*
X43637000Y17842690D01*
X43637000Y18383250D01*
X43478250Y18542000D01*
X42554000Y18542000D01*
X42300000Y18542000D01*
X42280000Y18542000D01*
X42280000Y18796000D01*
X42300000Y18796000D01*
X42300000Y19845250D01*
X42141250Y20004000D01*
X41725691Y20004000D01*
X41492302Y19907327D01*
X41337377Y19752403D01*
X41336586Y19753586D01*
X41045436Y19948127D01*
X40702001Y20016440D01*
X40370308Y20016440D01*
X41108869Y20755000D01*
X42824560Y20755000D01*
X42824560Y20665000D01*
X42892874Y20321565D01*
X43087414Y20030414D01*
X43126946Y20004000D01*
X42712750Y20004000D01*
X42554000Y19845250D01*
X42554000Y18796000D01*
X43478250Y18796000D01*
X43637000Y18954750D01*
X43637000Y19495310D01*
X43540327Y19728699D01*
X43518145Y19750881D01*
X53745000Y19750881D01*
X53745000Y19195119D01*
X53957680Y18681663D01*
X54350663Y18288680D01*
X54864119Y18076000D01*
X55419881Y18076000D01*
X55933337Y18288680D01*
X56326320Y18681663D01*
X56539000Y19195119D01*
X56539000Y19750881D01*
X56326320Y20264337D01*
X55933337Y20657320D01*
X55419881Y20870000D01*
X54864119Y20870000D01*
X54350663Y20657320D01*
X53957680Y20264337D01*
X53745000Y19750881D01*
X43518145Y19750881D01*
X43446706Y19822320D01*
X43722000Y19767560D01*
X44722000Y19767560D01*
X45065435Y19835874D01*
X45356586Y20030414D01*
X45551126Y20321565D01*
X45619440Y20665000D01*
X45619440Y21304250D01*
X46087000Y21304250D01*
X46087000Y20288690D01*
X46183673Y20055301D01*
X46362302Y19876673D01*
X46595691Y19780000D01*
X47186250Y19780000D01*
X47345000Y19938750D01*
X47345000Y21463000D01*
X47599000Y21463000D01*
X47599000Y19938750D01*
X47757750Y19780000D01*
X48348309Y19780000D01*
X48581698Y19876673D01*
X48760327Y20055301D01*
X48857000Y20288690D01*
X48857000Y21304250D01*
X48698250Y21463000D01*
X47599000Y21463000D01*
X47345000Y21463000D01*
X46245750Y21463000D01*
X46087000Y21304250D01*
X45619440Y21304250D01*
X45619440Y22515000D01*
X45551126Y22858435D01*
X45529160Y22891310D01*
X46087000Y22891310D01*
X46087000Y21875750D01*
X46245750Y21717000D01*
X47345000Y21717000D01*
X47345000Y23241250D01*
X47599000Y23241250D01*
X47599000Y21717000D01*
X48698250Y21717000D01*
X48857000Y21875750D01*
X48857000Y22891310D01*
X48760327Y23124699D01*
X48581698Y23303327D01*
X48348309Y23400000D01*
X47757750Y23400000D01*
X47599000Y23241250D01*
X47345000Y23241250D01*
X47186250Y23400000D01*
X46595691Y23400000D01*
X46362302Y23303327D01*
X46183673Y23124699D01*
X46087000Y22891310D01*
X45529160Y22891310D01*
X45356586Y23149586D01*
X45065435Y23344126D01*
X44722000Y23412440D01*
X43722000Y23412440D01*
X43659000Y23399908D01*
X43659000Y24623560D01*
X43824000Y24623560D01*
X44071765Y24672843D01*
X44281809Y24813191D01*
X44422157Y25023235D01*
X44460642Y25216713D01*
X44549801Y25234448D01*
X44826001Y25418999D01*
X44872587Y25488720D01*
X46506284Y27122416D01*
X46576001Y27168999D01*
X46760552Y27445200D01*
X46825358Y27771000D01*
X46772796Y28035250D01*
X47489000Y28035250D01*
X47489000Y26294690D01*
X47585673Y26061301D01*
X47764302Y25882673D01*
X47997691Y25786000D01*
X48838250Y25786000D01*
X48997000Y25944750D01*
X48997000Y28194000D01*
X49251000Y28194000D01*
X49251000Y25944750D01*
X49409750Y25786000D01*
X50250309Y25786000D01*
X50483698Y25882673D01*
X50662327Y26061301D01*
X50759000Y26294690D01*
X50759000Y28035250D01*
X50600250Y28194000D01*
X49251000Y28194000D01*
X48997000Y28194000D01*
X47647750Y28194000D01*
X47489000Y28035250D01*
X46772796Y28035250D01*
X46760552Y28096800D01*
X46725990Y28148526D01*
X46725990Y30347310D01*
X47489000Y30347310D01*
X47489000Y28606750D01*
X47647750Y28448000D01*
X48997000Y28448000D01*
X48997000Y30697250D01*
X49251000Y30697250D01*
X49251000Y28448000D01*
X50600250Y28448000D01*
X50759000Y28606750D01*
X50759000Y30347310D01*
X50662327Y30580699D01*
X50483698Y30759327D01*
X50250309Y30856000D01*
X49409750Y30856000D01*
X49251000Y30697250D01*
X48997000Y30697250D01*
X48838250Y30856000D01*
X47997691Y30856000D01*
X47764302Y30759327D01*
X47585673Y30580699D01*
X47489000Y30347310D01*
X46725990Y30347310D01*
X46725990Y32004773D01*
X46742348Y32087010D01*
X46677542Y32412810D01*
X46677542Y32412811D01*
X46492991Y32689011D01*
X46423270Y32735597D01*
X46301000Y32857867D01*
X46301000Y32988000D01*
X46805250Y32988000D01*
X46964000Y33146750D01*
X46964000Y34671000D01*
X47218000Y34671000D01*
X47218000Y33146750D01*
X47376750Y32988000D01*
X47967309Y32988000D01*
X48200698Y33084673D01*
X48379327Y33263301D01*
X48476000Y33496690D01*
X48476000Y34512250D01*
X48317250Y34671000D01*
X47218000Y34671000D01*
X46964000Y34671000D01*
X46944000Y34671000D01*
X46944000Y34925000D01*
X46964000Y34925000D01*
X46964000Y36449250D01*
X47218000Y36449250D01*
X47218000Y34925000D01*
X48317250Y34925000D01*
X48476000Y35083750D01*
X48476000Y36099310D01*
X48379327Y36332699D01*
X48200698Y36511327D01*
X47967309Y36608000D01*
X47376750Y36608000D01*
X47218000Y36449250D01*
X46964000Y36449250D01*
X46805250Y36608000D01*
X46301000Y36608000D01*
X46301000Y36750881D01*
X53745000Y36750881D01*
X53745000Y36195119D01*
X53957680Y35681663D01*
X54350663Y35288680D01*
X54864119Y35076000D01*
X55419881Y35076000D01*
X55933337Y35288680D01*
X56326320Y35681663D01*
X56539000Y36195119D01*
X56539000Y36750881D01*
X56326320Y37264337D01*
X55933337Y37657320D01*
X55419881Y37870000D01*
X54864119Y37870000D01*
X54350663Y37657320D01*
X53957680Y37264337D01*
X53745000Y36750881D01*
X46301000Y36750881D01*
X46301000Y37509763D01*
X46317358Y37592000D01*
X46252552Y37917800D01*
X46252552Y37917801D01*
X46068001Y38194001D01*
X45998282Y38240586D01*
X45479587Y38759280D01*
X45433001Y38829001D01*
X45156801Y39013552D01*
X44913237Y39062000D01*
X44913233Y39062000D01*
X44831000Y39078357D01*
X44748767Y39062000D01*
X19005232Y39062000D01*
X18922999Y39078357D01*
X18840766Y39062000D01*
X18840763Y39062000D01*
X18597199Y39013552D01*
X18320999Y38829001D01*
X18274415Y38759283D01*
X14199720Y34684587D01*
X14129999Y34638001D01*
X13945448Y34361800D01*
X13897000Y34118236D01*
X13897000Y34118233D01*
X13880643Y34036000D01*
X13897000Y33953767D01*
X13897001Y20443656D01*
X13683337Y20657320D01*
X13169881Y20870000D01*
X12614119Y20870000D01*
X12100663Y20657320D01*
X11707680Y20264337D01*
X11495000Y19750881D01*
X11495000Y19195119D01*
X11707680Y18681663D01*
X12100663Y18288680D01*
X12614119Y18076000D01*
X13169881Y18076000D01*
X13683337Y18288680D01*
X13897001Y18502344D01*
X13897001Y17406287D01*
X13833843Y17311765D01*
X13796495Y17124000D01*
X13349592Y17124000D01*
X13114436Y17281127D01*
X12771001Y17349440D01*
X12120999Y17349440D01*
X11777564Y17281127D01*
X11486414Y17086586D01*
X11485623Y17085403D01*
X11330698Y17240327D01*
X11097309Y17337000D01*
X10681750Y17337000D01*
X10523000Y17178250D01*
X10269000Y17178250D01*
X10110250Y17337000D01*
X9694691Y17337000D01*
X9461302Y17240327D01*
X9282673Y17061699D01*
X9186000Y16828310D01*
X710000Y16828310D01*
X710000Y36750881D01*
X11495000Y36750881D01*
X11495000Y36195119D01*
X11707680Y35681663D01*
X12100663Y35288680D01*
X12614119Y35076000D01*
X13169881Y35076000D01*
X13683337Y35288680D01*
X14076320Y35681663D01*
X14289000Y36195119D01*
X14289000Y36750881D01*
X14076320Y37264337D01*
X13683337Y37657320D01*
X13169881Y37870000D01*
X12614119Y37870000D01*
X12100663Y37657320D01*
X11707680Y37264337D01*
X11495000Y36750881D01*
X710000Y36750881D01*
X710000Y43878569D01*
X940000Y43878569D01*
X940000Y42989431D01*
X1280259Y42167974D01*
X1908974Y41539259D01*
X2730431Y41199000D01*
X3619569Y41199000D01*
X4441026Y41539259D01*
X5069741Y42167974D01*
X5410000Y42989431D01*
X5410000Y43878569D01*
X60940000Y43878569D01*
X60940000Y42989431D01*
X61280259Y42167974D01*
X61908974Y41539259D01*
X62730431Y41199000D01*
X63619569Y41199000D01*
X64441026Y41539259D01*
X65069741Y42167974D01*
X65410000Y42989431D01*
X65410000Y43878569D01*
X65069741Y44700026D01*
X64441026Y45328741D01*
X63619569Y45669000D01*
X62730431Y45669000D01*
X61908974Y45328741D01*
X61280259Y44700026D01*
X60940000Y43878569D01*
X5410000Y43878569D01*
X5069741Y44700026D01*
X4441026Y45328741D01*
X3619569Y45669000D01*
X2730431Y45669000D01*
X1908974Y45328741D01*
X1280259Y44700026D01*
X940000Y43878569D01*
X710000Y43878569D01*
X710000Y46788000D01*
X65838001Y46788000D01*
X65838000Y710000D01*
G36*
X35318133Y20120000D02*
X35078119Y20120000D01*
X34564663Y19907320D01*
X34171680Y19514337D01*
X34086000Y19307487D01*
X34000320Y19514337D01*
X33607337Y19907320D01*
X33093881Y20120000D01*
X32538119Y20120000D01*
X32024663Y19907320D01*
X31631680Y19514337D01*
X31552572Y19323353D01*
X31498397Y19454143D01*
X31256213Y19523608D01*
X30455605Y18723000D01*
X31256213Y17922392D01*
X31498397Y17991857D01*
X31548535Y18132393D01*
X31631680Y17931663D01*
X31981001Y17582342D01*
X31981000Y14545237D01*
X31981000Y14305233D01*
X31964643Y14223000D01*
X31981000Y14140767D01*
X31981000Y14140764D01*
X32023918Y13925000D01*
X31656377Y13925000D01*
X31681440Y14051000D01*
X31681440Y14651000D01*
X31632157Y14898765D01*
X31579232Y14977972D01*
X31669000Y15194690D01*
X31669000Y15335250D01*
X31510250Y15494000D01*
X30386000Y15494000D01*
X30386000Y15474000D01*
X30132000Y15474000D01*
X30132000Y15494000D01*
X30112000Y15494000D01*
X30112000Y15748000D01*
X30132000Y15748000D01*
X30132000Y16397250D01*
X30386000Y16397250D01*
X30386000Y15748000D01*
X31510250Y15748000D01*
X31669000Y15906750D01*
X31669000Y16047310D01*
X31572327Y16280699D01*
X31393698Y16459327D01*
X31160309Y16556000D01*
X30544750Y16556000D01*
X30386000Y16397250D01*
X30132000Y16397250D01*
X29973250Y16556000D01*
X29410000Y16556000D01*
X29410000Y17677392D01*
X29475393Y17742785D01*
X29544857Y17500603D01*
X30068302Y17313856D01*
X30623368Y17341638D01*
X31007143Y17500603D01*
X31076608Y17742787D01*
X30276000Y18543395D01*
X30261858Y18529252D01*
X30082253Y18708857D01*
X30096395Y18723000D01*
X30082253Y18737142D01*
X30261858Y18916747D01*
X30276000Y18902605D01*
X31076608Y19703213D01*
X31007143Y19945397D01*
X30483698Y20132144D01*
X29928632Y20104362D01*
X29544857Y19945397D01*
X29475393Y19703215D01*
X29410000Y19768608D01*
X29410000Y19847133D01*
X29824879Y20262011D01*
X35176122Y20262011D01*
X35318133Y20120000D01*
X35318133Y20120000D01*
G37*
X35318133Y20120000D02*
X35078119Y20120000D01*
X34564663Y19907320D01*
X34171680Y19514337D01*
X34086000Y19307487D01*
X34000320Y19514337D01*
X33607337Y19907320D01*
X33093881Y20120000D01*
X32538119Y20120000D01*
X32024663Y19907320D01*
X31631680Y19514337D01*
X31552572Y19323353D01*
X31498397Y19454143D01*
X31256213Y19523608D01*
X30455605Y18723000D01*
X31256213Y17922392D01*
X31498397Y17991857D01*
X31548535Y18132393D01*
X31631680Y17931663D01*
X31981001Y17582342D01*
X31981000Y14545237D01*
X31981000Y14305233D01*
X31964643Y14223000D01*
X31981000Y14140767D01*
X31981000Y14140764D01*
X32023918Y13925000D01*
X31656377Y13925000D01*
X31681440Y14051000D01*
X31681440Y14651000D01*
X31632157Y14898765D01*
X31579232Y14977972D01*
X31669000Y15194690D01*
X31669000Y15335250D01*
X31510250Y15494000D01*
X30386000Y15494000D01*
X30386000Y15474000D01*
X30132000Y15474000D01*
X30132000Y15494000D01*
X30112000Y15494000D01*
X30112000Y15748000D01*
X30132000Y15748000D01*
X30132000Y16397250D01*
X30386000Y16397250D01*
X30386000Y15748000D01*
X31510250Y15748000D01*
X31669000Y15906750D01*
X31669000Y16047310D01*
X31572327Y16280699D01*
X31393698Y16459327D01*
X31160309Y16556000D01*
X30544750Y16556000D01*
X30386000Y16397250D01*
X30132000Y16397250D01*
X29973250Y16556000D01*
X29410000Y16556000D01*
X29410000Y17677392D01*
X29475393Y17742785D01*
X29544857Y17500603D01*
X30068302Y17313856D01*
X30623368Y17341638D01*
X31007143Y17500603D01*
X31076608Y17742787D01*
X30276000Y18543395D01*
X30261858Y18529252D01*
X30082253Y18708857D01*
X30096395Y18723000D01*
X30082253Y18737142D01*
X30261858Y18916747D01*
X30276000Y18902605D01*
X31076608Y19703213D01*
X31007143Y19945397D01*
X30483698Y20132144D01*
X29928632Y20104362D01*
X29544857Y19945397D01*
X29475393Y19703215D01*
X29410000Y19768608D01*
X29410000Y19847133D01*
X29824879Y20262011D01*
X35176122Y20262011D01*
X35318133Y20120000D01*
G36*
X38535000Y33436132D02*
X38535001Y32504355D01*
X38285414Y32337586D01*
X38090873Y32046436D01*
X38022560Y31703001D01*
X38022560Y31052999D01*
X38090873Y30709564D01*
X38285414Y30418414D01*
X38286597Y30417623D01*
X38131673Y30262698D01*
X38035000Y30029309D01*
X38035000Y29613750D01*
X38193750Y29455000D01*
X39243000Y29455000D01*
X39243000Y29475000D01*
X39497000Y29475000D01*
X39497000Y29455000D01*
X40546250Y29455000D01*
X40705000Y29613750D01*
X40705000Y30029309D01*
X40608327Y30262698D01*
X40453403Y30417623D01*
X40454586Y30418414D01*
X40537832Y30543000D01*
X41176560Y30543000D01*
X41176560Y29871000D01*
X41225843Y29623235D01*
X41326927Y29471953D01*
X41285673Y29430699D01*
X41189000Y29197310D01*
X41189000Y28606750D01*
X41347750Y28448000D01*
X42697000Y28448000D01*
X42697000Y28468000D01*
X42951000Y28468000D01*
X42951000Y28448000D01*
X44300250Y28448000D01*
X44459000Y28606750D01*
X44459000Y29197310D01*
X44362327Y29430699D01*
X44321073Y29471953D01*
X44422157Y29623235D01*
X44471440Y29871000D01*
X44471440Y31371000D01*
X44422157Y31618765D01*
X44281809Y31828809D01*
X44071765Y31969157D01*
X43824000Y32018440D01*
X43659000Y32018440D01*
X43659000Y32975560D01*
X44341000Y32975560D01*
X44631000Y33033245D01*
X44631000Y32594233D01*
X44614643Y32512000D01*
X44631000Y32429767D01*
X44631000Y32429764D01*
X44679448Y32186200D01*
X44863999Y31909999D01*
X44933720Y31863413D01*
X45055991Y31741142D01*
X45055990Y28033858D01*
X44453469Y27431336D01*
X44459000Y27444690D01*
X44459000Y28035250D01*
X44300250Y28194000D01*
X42951000Y28194000D01*
X42951000Y28174000D01*
X42697000Y28174000D01*
X42697000Y28194000D01*
X41347750Y28194000D01*
X41189000Y28035250D01*
X41189000Y27444690D01*
X41285673Y27211301D01*
X41326927Y27170047D01*
X41225843Y27018765D01*
X41176560Y26771000D01*
X41176560Y25972000D01*
X40537832Y25972000D01*
X40454586Y26096586D01*
X40453403Y26097377D01*
X40608327Y26252302D01*
X40705000Y26485691D01*
X40705000Y26901250D01*
X40546250Y27060000D01*
X39497000Y27060000D01*
X39497000Y27040000D01*
X39243000Y27040000D01*
X39243000Y27060000D01*
X38193750Y27060000D01*
X38035000Y26901250D01*
X38035000Y26485691D01*
X38131673Y26252302D01*
X38286597Y26097377D01*
X38285414Y26096586D01*
X38090873Y25805436D01*
X38022560Y25462001D01*
X38022560Y24811999D01*
X38090873Y24468564D01*
X38285414Y24177414D01*
X38576564Y23982873D01*
X38919999Y23914560D01*
X39820001Y23914560D01*
X40163436Y23982873D01*
X40454586Y24177414D01*
X40537832Y24302000D01*
X41857767Y24302000D01*
X41940000Y24285643D01*
X41989000Y24295390D01*
X41989000Y23070233D01*
X41972643Y22988000D01*
X41989000Y22905767D01*
X41989000Y22905764D01*
X42037448Y22662200D01*
X42195939Y22425000D01*
X40845232Y22425000D01*
X40762999Y22441357D01*
X40680766Y22425000D01*
X40680763Y22425000D01*
X40437199Y22376552D01*
X40266721Y22262642D01*
X40160999Y22192001D01*
X40114417Y22122285D01*
X38112132Y20120000D01*
X37679868Y20120000D01*
X36170576Y21629291D01*
X36123990Y21699012D01*
X35847790Y21883563D01*
X35604226Y21932011D01*
X35604222Y21932011D01*
X35521989Y21948368D01*
X35439756Y21932011D01*
X31311813Y21932011D01*
X31457586Y22029414D01*
X31652127Y22320564D01*
X31720440Y22663999D01*
X31720440Y23564001D01*
X31652127Y23907436D01*
X31457586Y24198586D01*
X31333000Y24281832D01*
X31333000Y26659468D01*
X32053073Y26659468D01*
X32151736Y26392613D01*
X32761461Y26166092D01*
X33411460Y26190144D01*
X33900264Y26392613D01*
X33998927Y26659468D01*
X33026000Y27632395D01*
X32053073Y26659468D01*
X31333000Y26659468D01*
X31333000Y27712763D01*
X31349358Y27795000D01*
X31293357Y28076539D01*
X31380092Y28076539D01*
X31404144Y27426540D01*
X31606613Y26937736D01*
X31873468Y26839073D01*
X32846395Y27812000D01*
X33205605Y27812000D01*
X34178532Y26839073D01*
X34445387Y26937736D01*
X34671908Y27547461D01*
X34647856Y28197460D01*
X34445387Y28686264D01*
X34178532Y28784927D01*
X33205605Y27812000D01*
X32846395Y27812000D01*
X31873468Y28784927D01*
X31606613Y28686264D01*
X31380092Y28076539D01*
X31293357Y28076539D01*
X31284552Y28120800D01*
X31284552Y28120801D01*
X31100001Y28397001D01*
X31030282Y28443586D01*
X30276488Y29197379D01*
X30796458Y28982000D01*
X31695542Y28982000D01*
X32125355Y29160035D01*
X32053073Y28964532D01*
X33026000Y27991605D01*
X33998927Y28964532D01*
X33970193Y29042250D01*
X38035000Y29042250D01*
X38035000Y28626691D01*
X38131673Y28393302D01*
X38267474Y28257500D01*
X38131673Y28121698D01*
X38035000Y27888309D01*
X38035000Y27472750D01*
X38193750Y27314000D01*
X39243000Y27314000D01*
X39243000Y28238250D01*
X39223750Y28257500D01*
X39243000Y28276750D01*
X39243000Y29201000D01*
X39497000Y29201000D01*
X39497000Y28276750D01*
X39516250Y28257500D01*
X39497000Y28238250D01*
X39497000Y27314000D01*
X40546250Y27314000D01*
X40705000Y27472750D01*
X40705000Y27888309D01*
X40608327Y28121698D01*
X40472526Y28257500D01*
X40608327Y28393302D01*
X40705000Y28626691D01*
X40705000Y29042250D01*
X40546250Y29201000D01*
X39497000Y29201000D01*
X39243000Y29201000D01*
X38193750Y29201000D01*
X38035000Y29042250D01*
X33970193Y29042250D01*
X33900264Y29231387D01*
X33290539Y29457908D01*
X32640540Y29433856D01*
X32629338Y29429216D01*
X33161935Y29961813D01*
X33506000Y30792458D01*
X33506000Y31691542D01*
X33161935Y32522187D01*
X32526187Y33157935D01*
X31695542Y33502000D01*
X30796458Y33502000D01*
X29965813Y33157935D01*
X29330065Y32522187D01*
X28986000Y31691542D01*
X28986000Y30792458D01*
X29330065Y29961813D01*
X29775150Y29516728D01*
X29673237Y29537000D01*
X29673233Y29537000D01*
X29591000Y29553357D01*
X29508767Y29537000D01*
X28579687Y29537000D01*
X28240540Y29876147D01*
X27731494Y30087000D01*
X27180506Y30087000D01*
X26671460Y29876147D01*
X26436000Y29640687D01*
X26255769Y29820918D01*
X26251000Y29844894D01*
X26251000Y29844897D01*
X26235000Y29925334D01*
X26235000Y33182133D01*
X27015868Y33963000D01*
X38008133Y33963000D01*
X38535000Y33436132D01*
X38535000Y33436132D01*
G37*
X38535000Y33436132D02*
X38535001Y32504355D01*
X38285414Y32337586D01*
X38090873Y32046436D01*
X38022560Y31703001D01*
X38022560Y31052999D01*
X38090873Y30709564D01*
X38285414Y30418414D01*
X38286597Y30417623D01*
X38131673Y30262698D01*
X38035000Y30029309D01*
X38035000Y29613750D01*
X38193750Y29455000D01*
X39243000Y29455000D01*
X39243000Y29475000D01*
X39497000Y29475000D01*
X39497000Y29455000D01*
X40546250Y29455000D01*
X40705000Y29613750D01*
X40705000Y30029309D01*
X40608327Y30262698D01*
X40453403Y30417623D01*
X40454586Y30418414D01*
X40537832Y30543000D01*
X41176560Y30543000D01*
X41176560Y29871000D01*
X41225843Y29623235D01*
X41326927Y29471953D01*
X41285673Y29430699D01*
X41189000Y29197310D01*
X41189000Y28606750D01*
X41347750Y28448000D01*
X42697000Y28448000D01*
X42697000Y28468000D01*
X42951000Y28468000D01*
X42951000Y28448000D01*
X44300250Y28448000D01*
X44459000Y28606750D01*
X44459000Y29197310D01*
X44362327Y29430699D01*
X44321073Y29471953D01*
X44422157Y29623235D01*
X44471440Y29871000D01*
X44471440Y31371000D01*
X44422157Y31618765D01*
X44281809Y31828809D01*
X44071765Y31969157D01*
X43824000Y32018440D01*
X43659000Y32018440D01*
X43659000Y32975560D01*
X44341000Y32975560D01*
X44631000Y33033245D01*
X44631000Y32594233D01*
X44614643Y32512000D01*
X44631000Y32429767D01*
X44631000Y32429764D01*
X44679448Y32186200D01*
X44863999Y31909999D01*
X44933720Y31863413D01*
X45055991Y31741142D01*
X45055990Y28033858D01*
X44453469Y27431336D01*
X44459000Y27444690D01*
X44459000Y28035250D01*
X44300250Y28194000D01*
X42951000Y28194000D01*
X42951000Y28174000D01*
X42697000Y28174000D01*
X42697000Y28194000D01*
X41347750Y28194000D01*
X41189000Y28035250D01*
X41189000Y27444690D01*
X41285673Y27211301D01*
X41326927Y27170047D01*
X41225843Y27018765D01*
X41176560Y26771000D01*
X41176560Y25972000D01*
X40537832Y25972000D01*
X40454586Y26096586D01*
X40453403Y26097377D01*
X40608327Y26252302D01*
X40705000Y26485691D01*
X40705000Y26901250D01*
X40546250Y27060000D01*
X39497000Y27060000D01*
X39497000Y27040000D01*
X39243000Y27040000D01*
X39243000Y27060000D01*
X38193750Y27060000D01*
X38035000Y26901250D01*
X38035000Y26485691D01*
X38131673Y26252302D01*
X38286597Y26097377D01*
X38285414Y26096586D01*
X38090873Y25805436D01*
X38022560Y25462001D01*
X38022560Y24811999D01*
X38090873Y24468564D01*
X38285414Y24177414D01*
X38576564Y23982873D01*
X38919999Y23914560D01*
X39820001Y23914560D01*
X40163436Y23982873D01*
X40454586Y24177414D01*
X40537832Y24302000D01*
X41857767Y24302000D01*
X41940000Y24285643D01*
X41989000Y24295390D01*
X41989000Y23070233D01*
X41972643Y22988000D01*
X41989000Y22905767D01*
X41989000Y22905764D01*
X42037448Y22662200D01*
X42195939Y22425000D01*
X40845232Y22425000D01*
X40762999Y22441357D01*
X40680766Y22425000D01*
X40680763Y22425000D01*
X40437199Y22376552D01*
X40266721Y22262642D01*
X40160999Y22192001D01*
X40114417Y22122285D01*
X38112132Y20120000D01*
X37679868Y20120000D01*
X36170576Y21629291D01*
X36123990Y21699012D01*
X35847790Y21883563D01*
X35604226Y21932011D01*
X35604222Y21932011D01*
X35521989Y21948368D01*
X35439756Y21932011D01*
X31311813Y21932011D01*
X31457586Y22029414D01*
X31652127Y22320564D01*
X31720440Y22663999D01*
X31720440Y23564001D01*
X31652127Y23907436D01*
X31457586Y24198586D01*
X31333000Y24281832D01*
X31333000Y26659468D01*
X32053073Y26659468D01*
X32151736Y26392613D01*
X32761461Y26166092D01*
X33411460Y26190144D01*
X33900264Y26392613D01*
X33998927Y26659468D01*
X33026000Y27632395D01*
X32053073Y26659468D01*
X31333000Y26659468D01*
X31333000Y27712763D01*
X31349358Y27795000D01*
X31293357Y28076539D01*
X31380092Y28076539D01*
X31404144Y27426540D01*
X31606613Y26937736D01*
X31873468Y26839073D01*
X32846395Y27812000D01*
X33205605Y27812000D01*
X34178532Y26839073D01*
X34445387Y26937736D01*
X34671908Y27547461D01*
X34647856Y28197460D01*
X34445387Y28686264D01*
X34178532Y28784927D01*
X33205605Y27812000D01*
X32846395Y27812000D01*
X31873468Y28784927D01*
X31606613Y28686264D01*
X31380092Y28076539D01*
X31293357Y28076539D01*
X31284552Y28120800D01*
X31284552Y28120801D01*
X31100001Y28397001D01*
X31030282Y28443586D01*
X30276488Y29197379D01*
X30796458Y28982000D01*
X31695542Y28982000D01*
X32125355Y29160035D01*
X32053073Y28964532D01*
X33026000Y27991605D01*
X33998927Y28964532D01*
X33970193Y29042250D01*
X38035000Y29042250D01*
X38035000Y28626691D01*
X38131673Y28393302D01*
X38267474Y28257500D01*
X38131673Y28121698D01*
X38035000Y27888309D01*
X38035000Y27472750D01*
X38193750Y27314000D01*
X39243000Y27314000D01*
X39243000Y28238250D01*
X39223750Y28257500D01*
X39243000Y28276750D01*
X39243000Y29201000D01*
X39497000Y29201000D01*
X39497000Y28276750D01*
X39516250Y28257500D01*
X39497000Y28238250D01*
X39497000Y27314000D01*
X40546250Y27314000D01*
X40705000Y27472750D01*
X40705000Y27888309D01*
X40608327Y28121698D01*
X40472526Y28257500D01*
X40608327Y28393302D01*
X40705000Y28626691D01*
X40705000Y29042250D01*
X40546250Y29201000D01*
X39497000Y29201000D01*
X39243000Y29201000D01*
X38193750Y29201000D01*
X38035000Y29042250D01*
X33970193Y29042250D01*
X33900264Y29231387D01*
X33290539Y29457908D01*
X32640540Y29433856D01*
X32629338Y29429216D01*
X33161935Y29961813D01*
X33506000Y30792458D01*
X33506000Y31691542D01*
X33161935Y32522187D01*
X32526187Y33157935D01*
X31695542Y33502000D01*
X30796458Y33502000D01*
X29965813Y33157935D01*
X29330065Y32522187D01*
X28986000Y31691542D01*
X28986000Y30792458D01*
X29330065Y29961813D01*
X29775150Y29516728D01*
X29673237Y29537000D01*
X29673233Y29537000D01*
X29591000Y29553357D01*
X29508767Y29537000D01*
X28579687Y29537000D01*
X28240540Y29876147D01*
X27731494Y30087000D01*
X27180506Y30087000D01*
X26671460Y29876147D01*
X26436000Y29640687D01*
X26255769Y29820918D01*
X26251000Y29844894D01*
X26251000Y29844897D01*
X26235000Y29925334D01*
X26235000Y33182133D01*
X27015868Y33963000D01*
X38008133Y33963000D01*
X38535000Y33436132D01*
G36*
X44631001Y37246131D02*
X44631001Y36562755D01*
X44341000Y36620440D01*
X43341000Y36620440D01*
X42997565Y36552126D01*
X42706414Y36357586D01*
X42511874Y36066435D01*
X42443560Y35723000D01*
X42443560Y34581427D01*
X42291718Y34429585D01*
X42222000Y34383001D01*
X42175416Y34313283D01*
X42037448Y34106800D01*
X41972643Y33781000D01*
X41989001Y33698762D01*
X41989001Y32213842D01*
X41984767Y32213000D01*
X40537832Y32213000D01*
X40454586Y32337586D01*
X40205000Y32504355D01*
X40205000Y33699767D01*
X40221357Y33782000D01*
X40205000Y33864233D01*
X40205000Y33864237D01*
X40156552Y34107801D01*
X39972001Y34384001D01*
X39902283Y34430585D01*
X39002587Y35330280D01*
X38956001Y35400001D01*
X38679801Y35584552D01*
X38436237Y35633000D01*
X38436233Y35633000D01*
X38354000Y35649357D01*
X38271767Y35633000D01*
X26752232Y35633000D01*
X26669999Y35649357D01*
X26587766Y35633000D01*
X26587763Y35633000D01*
X26344199Y35584552D01*
X26067999Y35400001D01*
X26021415Y35330282D01*
X24867718Y34176585D01*
X24798000Y34130001D01*
X24751416Y34060283D01*
X24613448Y33853800D01*
X24548643Y33528000D01*
X24565001Y33445762D01*
X24565000Y29860893D01*
X24552286Y29796973D01*
X24396000Y29640687D01*
X24160540Y29876147D01*
X23651494Y30087000D01*
X23100506Y30087000D01*
X22591460Y29876147D01*
X22576379Y29861066D01*
X22543809Y29909809D01*
X22333765Y30050157D01*
X22086000Y30099440D01*
X20586000Y30099440D01*
X20512921Y30084904D01*
X20806000Y30792458D01*
X20806000Y31691542D01*
X20461935Y32522187D01*
X19826187Y33157935D01*
X18995542Y33502000D01*
X18096458Y33502000D01*
X17265813Y33157935D01*
X16630065Y32522187D01*
X16286000Y31691542D01*
X16286000Y30792458D01*
X16630065Y29961813D01*
X17195111Y29396767D01*
X17030539Y29457908D01*
X16380540Y29433856D01*
X15891736Y29231387D01*
X15793073Y28964532D01*
X16766000Y27991605D01*
X17738927Y28964532D01*
X17666645Y29160035D01*
X18096458Y28982000D01*
X18995542Y28982000D01*
X19489904Y29186772D01*
X18878090Y28574957D01*
X18808372Y28528373D01*
X18731464Y28413272D01*
X18623820Y28252172D01*
X18559015Y27926372D01*
X18575373Y27844134D01*
X18575372Y24461440D01*
X18461999Y24461440D01*
X18118564Y24393127D01*
X17827414Y24198586D01*
X17632873Y23907436D01*
X17564560Y23564001D01*
X17564560Y23072428D01*
X15567000Y21074867D01*
X15567000Y26659468D01*
X15793073Y26659468D01*
X15891736Y26392613D01*
X16501461Y26166092D01*
X17151460Y26190144D01*
X17640264Y26392613D01*
X17738927Y26659468D01*
X16766000Y27632395D01*
X15793073Y26659468D01*
X15567000Y26659468D01*
X15567000Y26856253D01*
X15613468Y26839073D01*
X16586395Y27812000D01*
X16945605Y27812000D01*
X17918532Y26839073D01*
X18185387Y26937736D01*
X18411908Y27547461D01*
X18387856Y28197460D01*
X18185387Y28686264D01*
X17918532Y28784927D01*
X16945605Y27812000D01*
X16586395Y27812000D01*
X15613468Y28784927D01*
X15567000Y28767747D01*
X15567000Y33690133D01*
X19268868Y37392000D01*
X44485133Y37392000D01*
X44631001Y37246131D01*
X44631001Y37246131D01*
G37*
X44631001Y37246131D02*
X44631001Y36562755D01*
X44341000Y36620440D01*
X43341000Y36620440D01*
X42997565Y36552126D01*
X42706414Y36357586D01*
X42511874Y36066435D01*
X42443560Y35723000D01*
X42443560Y34581427D01*
X42291718Y34429585D01*
X42222000Y34383001D01*
X42175416Y34313283D01*
X42037448Y34106800D01*
X41972643Y33781000D01*
X41989001Y33698762D01*
X41989001Y32213842D01*
X41984767Y32213000D01*
X40537832Y32213000D01*
X40454586Y32337586D01*
X40205000Y32504355D01*
X40205000Y33699767D01*
X40221357Y33782000D01*
X40205000Y33864233D01*
X40205000Y33864237D01*
X40156552Y34107801D01*
X39972001Y34384001D01*
X39902283Y34430585D01*
X39002587Y35330280D01*
X38956001Y35400001D01*
X38679801Y35584552D01*
X38436237Y35633000D01*
X38436233Y35633000D01*
X38354000Y35649357D01*
X38271767Y35633000D01*
X26752232Y35633000D01*
X26669999Y35649357D01*
X26587766Y35633000D01*
X26587763Y35633000D01*
X26344199Y35584552D01*
X26067999Y35400001D01*
X26021415Y35330282D01*
X24867718Y34176585D01*
X24798000Y34130001D01*
X24751416Y34060283D01*
X24613448Y33853800D01*
X24548643Y33528000D01*
X24565001Y33445762D01*
X24565000Y29860893D01*
X24552286Y29796973D01*
X24396000Y29640687D01*
X24160540Y29876147D01*
X23651494Y30087000D01*
X23100506Y30087000D01*
X22591460Y29876147D01*
X22576379Y29861066D01*
X22543809Y29909809D01*
X22333765Y30050157D01*
X22086000Y30099440D01*
X20586000Y30099440D01*
X20512921Y30084904D01*
X20806000Y30792458D01*
X20806000Y31691542D01*
X20461935Y32522187D01*
X19826187Y33157935D01*
X18995542Y33502000D01*
X18096458Y33502000D01*
X17265813Y33157935D01*
X16630065Y32522187D01*
X16286000Y31691542D01*
X16286000Y30792458D01*
X16630065Y29961813D01*
X17195111Y29396767D01*
X17030539Y29457908D01*
X16380540Y29433856D01*
X15891736Y29231387D01*
X15793073Y28964532D01*
X16766000Y27991605D01*
X17738927Y28964532D01*
X17666645Y29160035D01*
X18096458Y28982000D01*
X18995542Y28982000D01*
X19489904Y29186772D01*
X18878090Y28574957D01*
X18808372Y28528373D01*
X18731464Y28413272D01*
X18623820Y28252172D01*
X18559015Y27926372D01*
X18575373Y27844134D01*
X18575372Y24461440D01*
X18461999Y24461440D01*
X18118564Y24393127D01*
X17827414Y24198586D01*
X17632873Y23907436D01*
X17564560Y23564001D01*
X17564560Y23072428D01*
X15567000Y21074867D01*
X15567000Y26659468D01*
X15793073Y26659468D01*
X15891736Y26392613D01*
X16501461Y26166092D01*
X17151460Y26190144D01*
X17640264Y26392613D01*
X17738927Y26659468D01*
X16766000Y27632395D01*
X15793073Y26659468D01*
X15567000Y26659468D01*
X15567000Y26856253D01*
X15613468Y26839073D01*
X16586395Y27812000D01*
X16945605Y27812000D01*
X17918532Y26839073D01*
X18185387Y26937736D01*
X18411908Y27547461D01*
X18387856Y28197460D01*
X18185387Y28686264D01*
X17918532Y28784927D01*
X16945605Y27812000D01*
X16586395Y27812000D01*
X15613468Y28784927D01*
X15567000Y28767747D01*
X15567000Y33690133D01*
X19268868Y37392000D01*
X44485133Y37392000D01*
X44631001Y37246131D01*
G04 #@! TD*
M02*
