G04 #@! TF.GenerationSoftware,KiCad,Pcbnew,(5.0.0)*
G04 #@! TF.CreationDate,2018-08-26T22:00:53+02:00*
G04 #@! TF.ProjectId,Sensor board,53656E736F7220626F6172642E6B6963,rev?*
G04 #@! TF.SameCoordinates,PX65faef0PY58e64d0*
G04 #@! TF.FileFunction,Copper,L1,Top,Signal*
G04 #@! TF.FilePolarity,Positive*
%FSLAX46Y46*%
G04 Gerber Fmt 4.6, Leading zero omitted, Abs format (unit mm)*
G04 Created by KiCad (PCBNEW (5.0.0)) date 08/26/18 22:00:53*
%MOMM*%
%LPD*%
G01*
G04 APERTURE LIST*
G04 #@! TA.AperFunction,Conductor*
%ADD10C,0.100000*%
G04 #@! TD*
G04 #@! TA.AperFunction,SMDPad,CuDef*
%ADD11C,2.250000*%
G04 #@! TD*
G04 #@! TA.AperFunction,ComponentPad*
%ADD12R,1.500000X1.500000*%
G04 #@! TD*
G04 #@! TA.AperFunction,ComponentPad*
%ADD13C,1.500000*%
G04 #@! TD*
G04 #@! TA.AperFunction,SMDPad,CuDef*
%ADD14C,1.150000*%
G04 #@! TD*
G04 #@! TA.AperFunction,SMDPad,CuDef*
%ADD15C,1.500000*%
G04 #@! TD*
G04 #@! TA.AperFunction,WasherPad*
%ADD16C,2.000000*%
G04 #@! TD*
G04 #@! TA.AperFunction,ComponentPad*
%ADD17C,1.524000*%
G04 #@! TD*
G04 #@! TA.AperFunction,SMDPad,CuDef*
%ADD18R,1.550000X0.600000*%
G04 #@! TD*
G04 #@! TA.AperFunction,SMDPad,CuDef*
%ADD19R,2.000000X3.800000*%
G04 #@! TD*
G04 #@! TA.AperFunction,SMDPad,CuDef*
%ADD20R,2.000000X1.500000*%
G04 #@! TD*
G04 #@! TA.AperFunction,Conductor*
%ADD21C,0.400000*%
G04 #@! TD*
G04 #@! TA.AperFunction,Conductor*
%ADD22C,0.254000*%
G04 #@! TD*
G04 APERTURE END LIST*
D10*
G04 #@! TO.N,+12V*
G04 #@! TO.C,C8*
G36*
X40025505Y44734796D02*
X40049773Y44731196D01*
X40073572Y44725235D01*
X40096671Y44716970D01*
X40118850Y44706480D01*
X40139893Y44693868D01*
X40159599Y44679253D01*
X40177777Y44662777D01*
X40194253Y44644599D01*
X40208868Y44624893D01*
X40221480Y44603850D01*
X40231970Y44581671D01*
X40240235Y44558572D01*
X40246196Y44534773D01*
X40249796Y44510505D01*
X40251000Y44486001D01*
X40251000Y42635999D01*
X40249796Y42611495D01*
X40246196Y42587227D01*
X40240235Y42563428D01*
X40231970Y42540329D01*
X40221480Y42518150D01*
X40208868Y42497107D01*
X40194253Y42477401D01*
X40177777Y42459223D01*
X40159599Y42442747D01*
X40139893Y42428132D01*
X40118850Y42415520D01*
X40096671Y42405030D01*
X40073572Y42396765D01*
X40049773Y42390804D01*
X40025505Y42387204D01*
X40001001Y42386000D01*
X38250999Y42386000D01*
X38226495Y42387204D01*
X38202227Y42390804D01*
X38178428Y42396765D01*
X38155329Y42405030D01*
X38133150Y42415520D01*
X38112107Y42428132D01*
X38092401Y42442747D01*
X38074223Y42459223D01*
X38057747Y42477401D01*
X38043132Y42497107D01*
X38030520Y42518150D01*
X38020030Y42540329D01*
X38011765Y42563428D01*
X38005804Y42587227D01*
X38002204Y42611495D01*
X38001000Y42635999D01*
X38001000Y44486001D01*
X38002204Y44510505D01*
X38005804Y44534773D01*
X38011765Y44558572D01*
X38020030Y44581671D01*
X38030520Y44603850D01*
X38043132Y44624893D01*
X38057747Y44644599D01*
X38074223Y44662777D01*
X38092401Y44679253D01*
X38112107Y44693868D01*
X38133150Y44706480D01*
X38155329Y44716970D01*
X38178428Y44725235D01*
X38202227Y44731196D01*
X38226495Y44734796D01*
X38250999Y44736000D01*
X40001001Y44736000D01*
X40025505Y44734796D01*
X40025505Y44734796D01*
G37*
D11*
G04 #@! TD*
G04 #@! TO.P,C8,1*
G04 #@! TO.N,+12V*
X39126000Y43561000D03*
D10*
G04 #@! TO.N,GND*
G04 #@! TO.C,C8*
G36*
X34925505Y44734796D02*
X34949773Y44731196D01*
X34973572Y44725235D01*
X34996671Y44716970D01*
X35018850Y44706480D01*
X35039893Y44693868D01*
X35059599Y44679253D01*
X35077777Y44662777D01*
X35094253Y44644599D01*
X35108868Y44624893D01*
X35121480Y44603850D01*
X35131970Y44581671D01*
X35140235Y44558572D01*
X35146196Y44534773D01*
X35149796Y44510505D01*
X35151000Y44486001D01*
X35151000Y42635999D01*
X35149796Y42611495D01*
X35146196Y42587227D01*
X35140235Y42563428D01*
X35131970Y42540329D01*
X35121480Y42518150D01*
X35108868Y42497107D01*
X35094253Y42477401D01*
X35077777Y42459223D01*
X35059599Y42442747D01*
X35039893Y42428132D01*
X35018850Y42415520D01*
X34996671Y42405030D01*
X34973572Y42396765D01*
X34949773Y42390804D01*
X34925505Y42387204D01*
X34901001Y42386000D01*
X33150999Y42386000D01*
X33126495Y42387204D01*
X33102227Y42390804D01*
X33078428Y42396765D01*
X33055329Y42405030D01*
X33033150Y42415520D01*
X33012107Y42428132D01*
X32992401Y42442747D01*
X32974223Y42459223D01*
X32957747Y42477401D01*
X32943132Y42497107D01*
X32930520Y42518150D01*
X32920030Y42540329D01*
X32911765Y42563428D01*
X32905804Y42587227D01*
X32902204Y42611495D01*
X32901000Y42635999D01*
X32901000Y44486001D01*
X32902204Y44510505D01*
X32905804Y44534773D01*
X32911765Y44558572D01*
X32920030Y44581671D01*
X32930520Y44603850D01*
X32943132Y44624893D01*
X32957747Y44644599D01*
X32974223Y44662777D01*
X32992401Y44679253D01*
X33012107Y44693868D01*
X33033150Y44706480D01*
X33055329Y44716970D01*
X33078428Y44725235D01*
X33102227Y44731196D01*
X33126495Y44734796D01*
X33150999Y44736000D01*
X34901001Y44736000D01*
X34925505Y44734796D01*
X34925505Y44734796D01*
G37*
D11*
G04 #@! TD*
G04 #@! TO.P,C8,2*
G04 #@! TO.N,GND*
X34026000Y43561000D03*
D12*
G04 #@! TO.P,J1,1*
G04 #@! TO.N,TRIG+*
X28194000Y31115000D03*
D13*
G04 #@! TO.P,J1,2*
G04 #@! TO.N,TRIG-*
X29464000Y28575000D03*
G04 #@! TO.P,J1,3*
G04 #@! TO.N,+12V*
X30734000Y31115000D03*
G04 #@! TO.P,J1,4*
G04 #@! TO.N,GND*
X32004000Y28575000D03*
G04 #@! TO.P,J1,5*
G04 #@! TO.N,+12V*
X33274000Y31115000D03*
G04 #@! TO.P,J1,6*
G04 #@! TO.N,GND*
X34544000Y28575000D03*
G04 #@! TO.P,J1,7*
G04 #@! TO.N,ECHO-*
X35814000Y31115000D03*
G04 #@! TO.P,J1,8*
G04 #@! TO.N,ECHO+*
X37084000Y28575000D03*
G04 #@! TD*
D10*
G04 #@! TO.N,VCC*
G04 #@! TO.C,C2*
G36*
X18725542Y34377442D02*
X18749810Y34373842D01*
X18773609Y34367881D01*
X18796708Y34359616D01*
X18818887Y34349126D01*
X18839930Y34336514D01*
X18859636Y34321899D01*
X18877814Y34305423D01*
X18894290Y34287245D01*
X18908905Y34267539D01*
X18921517Y34246496D01*
X18932007Y34224317D01*
X18940272Y34201218D01*
X18946233Y34177419D01*
X18949833Y34153151D01*
X18951037Y34128647D01*
X18951037Y33478645D01*
X18949833Y33454141D01*
X18946233Y33429873D01*
X18940272Y33406074D01*
X18932007Y33382975D01*
X18921517Y33360796D01*
X18908905Y33339753D01*
X18894290Y33320047D01*
X18877814Y33301869D01*
X18859636Y33285393D01*
X18839930Y33270778D01*
X18818887Y33258166D01*
X18796708Y33247676D01*
X18773609Y33239411D01*
X18749810Y33233450D01*
X18725542Y33229850D01*
X18701038Y33228646D01*
X17801036Y33228646D01*
X17776532Y33229850D01*
X17752264Y33233450D01*
X17728465Y33239411D01*
X17705366Y33247676D01*
X17683187Y33258166D01*
X17662144Y33270778D01*
X17642438Y33285393D01*
X17624260Y33301869D01*
X17607784Y33320047D01*
X17593169Y33339753D01*
X17580557Y33360796D01*
X17570067Y33382975D01*
X17561802Y33406074D01*
X17555841Y33429873D01*
X17552241Y33454141D01*
X17551037Y33478645D01*
X17551037Y34128647D01*
X17552241Y34153151D01*
X17555841Y34177419D01*
X17561802Y34201218D01*
X17570067Y34224317D01*
X17580557Y34246496D01*
X17593169Y34267539D01*
X17607784Y34287245D01*
X17624260Y34305423D01*
X17642438Y34321899D01*
X17662144Y34336514D01*
X17683187Y34349126D01*
X17705366Y34359616D01*
X17728465Y34367881D01*
X17752264Y34373842D01*
X17776532Y34377442D01*
X17801036Y34378646D01*
X18701038Y34378646D01*
X18725542Y34377442D01*
X18725542Y34377442D01*
G37*
D14*
G04 #@! TD*
G04 #@! TO.P,C2,1*
G04 #@! TO.N,VCC*
X18251037Y33803646D03*
D10*
G04 #@! TO.N,GND*
G04 #@! TO.C,C2*
G36*
X18725542Y36427442D02*
X18749810Y36423842D01*
X18773609Y36417881D01*
X18796708Y36409616D01*
X18818887Y36399126D01*
X18839930Y36386514D01*
X18859636Y36371899D01*
X18877814Y36355423D01*
X18894290Y36337245D01*
X18908905Y36317539D01*
X18921517Y36296496D01*
X18932007Y36274317D01*
X18940272Y36251218D01*
X18946233Y36227419D01*
X18949833Y36203151D01*
X18951037Y36178647D01*
X18951037Y35528645D01*
X18949833Y35504141D01*
X18946233Y35479873D01*
X18940272Y35456074D01*
X18932007Y35432975D01*
X18921517Y35410796D01*
X18908905Y35389753D01*
X18894290Y35370047D01*
X18877814Y35351869D01*
X18859636Y35335393D01*
X18839930Y35320778D01*
X18818887Y35308166D01*
X18796708Y35297676D01*
X18773609Y35289411D01*
X18749810Y35283450D01*
X18725542Y35279850D01*
X18701038Y35278646D01*
X17801036Y35278646D01*
X17776532Y35279850D01*
X17752264Y35283450D01*
X17728465Y35289411D01*
X17705366Y35297676D01*
X17683187Y35308166D01*
X17662144Y35320778D01*
X17642438Y35335393D01*
X17624260Y35351869D01*
X17607784Y35370047D01*
X17593169Y35389753D01*
X17580557Y35410796D01*
X17570067Y35432975D01*
X17561802Y35456074D01*
X17555841Y35479873D01*
X17552241Y35504141D01*
X17551037Y35528645D01*
X17551037Y36178647D01*
X17552241Y36203151D01*
X17555841Y36227419D01*
X17561802Y36251218D01*
X17570067Y36274317D01*
X17580557Y36296496D01*
X17593169Y36317539D01*
X17607784Y36337245D01*
X17624260Y36355423D01*
X17642438Y36371899D01*
X17662144Y36386514D01*
X17683187Y36399126D01*
X17705366Y36409616D01*
X17728465Y36417881D01*
X17752264Y36423842D01*
X17776532Y36427442D01*
X17801036Y36428646D01*
X18701038Y36428646D01*
X18725542Y36427442D01*
X18725542Y36427442D01*
G37*
D14*
G04 #@! TD*
G04 #@! TO.P,C2,2*
G04 #@! TO.N,GND*
X18251037Y35853646D03*
D10*
G04 #@! TO.N,GND*
G04 #@! TO.C,C3*
G36*
X46078505Y26352796D02*
X46102773Y26349196D01*
X46126572Y26343235D01*
X46149671Y26334970D01*
X46171850Y26324480D01*
X46192893Y26311868D01*
X46212599Y26297253D01*
X46230777Y26280777D01*
X46247253Y26262599D01*
X46261868Y26242893D01*
X46274480Y26221850D01*
X46284970Y26199671D01*
X46293235Y26176572D01*
X46299196Y26152773D01*
X46302796Y26128505D01*
X46304000Y26104001D01*
X46304000Y25203999D01*
X46302796Y25179495D01*
X46299196Y25155227D01*
X46293235Y25131428D01*
X46284970Y25108329D01*
X46274480Y25086150D01*
X46261868Y25065107D01*
X46247253Y25045401D01*
X46230777Y25027223D01*
X46212599Y25010747D01*
X46192893Y24996132D01*
X46171850Y24983520D01*
X46149671Y24973030D01*
X46126572Y24964765D01*
X46102773Y24958804D01*
X46078505Y24955204D01*
X46054001Y24954000D01*
X45403999Y24954000D01*
X45379495Y24955204D01*
X45355227Y24958804D01*
X45331428Y24964765D01*
X45308329Y24973030D01*
X45286150Y24983520D01*
X45265107Y24996132D01*
X45245401Y25010747D01*
X45227223Y25027223D01*
X45210747Y25045401D01*
X45196132Y25065107D01*
X45183520Y25086150D01*
X45173030Y25108329D01*
X45164765Y25131428D01*
X45158804Y25155227D01*
X45155204Y25179495D01*
X45154000Y25203999D01*
X45154000Y26104001D01*
X45155204Y26128505D01*
X45158804Y26152773D01*
X45164765Y26176572D01*
X45173030Y26199671D01*
X45183520Y26221850D01*
X45196132Y26242893D01*
X45210747Y26262599D01*
X45227223Y26280777D01*
X45245401Y26297253D01*
X45265107Y26311868D01*
X45286150Y26324480D01*
X45308329Y26334970D01*
X45331428Y26343235D01*
X45355227Y26349196D01*
X45379495Y26352796D01*
X45403999Y26354000D01*
X46054001Y26354000D01*
X46078505Y26352796D01*
X46078505Y26352796D01*
G37*
D14*
G04 #@! TD*
G04 #@! TO.P,C3,2*
G04 #@! TO.N,GND*
X45729000Y25654000D03*
D10*
G04 #@! TO.N,VCC*
G04 #@! TO.C,C3*
G36*
X44028505Y26352796D02*
X44052773Y26349196D01*
X44076572Y26343235D01*
X44099671Y26334970D01*
X44121850Y26324480D01*
X44142893Y26311868D01*
X44162599Y26297253D01*
X44180777Y26280777D01*
X44197253Y26262599D01*
X44211868Y26242893D01*
X44224480Y26221850D01*
X44234970Y26199671D01*
X44243235Y26176572D01*
X44249196Y26152773D01*
X44252796Y26128505D01*
X44254000Y26104001D01*
X44254000Y25203999D01*
X44252796Y25179495D01*
X44249196Y25155227D01*
X44243235Y25131428D01*
X44234970Y25108329D01*
X44224480Y25086150D01*
X44211868Y25065107D01*
X44197253Y25045401D01*
X44180777Y25027223D01*
X44162599Y25010747D01*
X44142893Y24996132D01*
X44121850Y24983520D01*
X44099671Y24973030D01*
X44076572Y24964765D01*
X44052773Y24958804D01*
X44028505Y24955204D01*
X44004001Y24954000D01*
X43353999Y24954000D01*
X43329495Y24955204D01*
X43305227Y24958804D01*
X43281428Y24964765D01*
X43258329Y24973030D01*
X43236150Y24983520D01*
X43215107Y24996132D01*
X43195401Y25010747D01*
X43177223Y25027223D01*
X43160747Y25045401D01*
X43146132Y25065107D01*
X43133520Y25086150D01*
X43123030Y25108329D01*
X43114765Y25131428D01*
X43108804Y25155227D01*
X43105204Y25179495D01*
X43104000Y25203999D01*
X43104000Y26104001D01*
X43105204Y26128505D01*
X43108804Y26152773D01*
X43114765Y26176572D01*
X43123030Y26199671D01*
X43133520Y26221850D01*
X43146132Y26242893D01*
X43160747Y26262599D01*
X43177223Y26280777D01*
X43195401Y26297253D01*
X43215107Y26311868D01*
X43236150Y26324480D01*
X43258329Y26334970D01*
X43281428Y26343235D01*
X43305227Y26349196D01*
X43329495Y26352796D01*
X43353999Y26354000D01*
X44004001Y26354000D01*
X44028505Y26352796D01*
X44028505Y26352796D01*
G37*
D14*
G04 #@! TD*
G04 #@! TO.P,C3,1*
G04 #@! TO.N,VCC*
X43679000Y25654000D03*
D10*
G04 #@! TO.N,VCC*
G04 #@! TO.C,C4*
G36*
X21011542Y34386442D02*
X21035810Y34382842D01*
X21059609Y34376881D01*
X21082708Y34368616D01*
X21104887Y34358126D01*
X21125930Y34345514D01*
X21145636Y34330899D01*
X21163814Y34314423D01*
X21180290Y34296245D01*
X21194905Y34276539D01*
X21207517Y34255496D01*
X21218007Y34233317D01*
X21226272Y34210218D01*
X21232233Y34186419D01*
X21235833Y34162151D01*
X21237037Y34137647D01*
X21237037Y33487645D01*
X21235833Y33463141D01*
X21232233Y33438873D01*
X21226272Y33415074D01*
X21218007Y33391975D01*
X21207517Y33369796D01*
X21194905Y33348753D01*
X21180290Y33329047D01*
X21163814Y33310869D01*
X21145636Y33294393D01*
X21125930Y33279778D01*
X21104887Y33267166D01*
X21082708Y33256676D01*
X21059609Y33248411D01*
X21035810Y33242450D01*
X21011542Y33238850D01*
X20987038Y33237646D01*
X20087036Y33237646D01*
X20062532Y33238850D01*
X20038264Y33242450D01*
X20014465Y33248411D01*
X19991366Y33256676D01*
X19969187Y33267166D01*
X19948144Y33279778D01*
X19928438Y33294393D01*
X19910260Y33310869D01*
X19893784Y33329047D01*
X19879169Y33348753D01*
X19866557Y33369796D01*
X19856067Y33391975D01*
X19847802Y33415074D01*
X19841841Y33438873D01*
X19838241Y33463141D01*
X19837037Y33487645D01*
X19837037Y34137647D01*
X19838241Y34162151D01*
X19841841Y34186419D01*
X19847802Y34210218D01*
X19856067Y34233317D01*
X19866557Y34255496D01*
X19879169Y34276539D01*
X19893784Y34296245D01*
X19910260Y34314423D01*
X19928438Y34330899D01*
X19948144Y34345514D01*
X19969187Y34358126D01*
X19991366Y34368616D01*
X20014465Y34376881D01*
X20038264Y34382842D01*
X20062532Y34386442D01*
X20087036Y34387646D01*
X20987038Y34387646D01*
X21011542Y34386442D01*
X21011542Y34386442D01*
G37*
D14*
G04 #@! TD*
G04 #@! TO.P,C4,1*
G04 #@! TO.N,VCC*
X20537037Y33812646D03*
D10*
G04 #@! TO.N,GND*
G04 #@! TO.C,C4*
G36*
X21011542Y36436442D02*
X21035810Y36432842D01*
X21059609Y36426881D01*
X21082708Y36418616D01*
X21104887Y36408126D01*
X21125930Y36395514D01*
X21145636Y36380899D01*
X21163814Y36364423D01*
X21180290Y36346245D01*
X21194905Y36326539D01*
X21207517Y36305496D01*
X21218007Y36283317D01*
X21226272Y36260218D01*
X21232233Y36236419D01*
X21235833Y36212151D01*
X21237037Y36187647D01*
X21237037Y35537645D01*
X21235833Y35513141D01*
X21232233Y35488873D01*
X21226272Y35465074D01*
X21218007Y35441975D01*
X21207517Y35419796D01*
X21194905Y35398753D01*
X21180290Y35379047D01*
X21163814Y35360869D01*
X21145636Y35344393D01*
X21125930Y35329778D01*
X21104887Y35317166D01*
X21082708Y35306676D01*
X21059609Y35298411D01*
X21035810Y35292450D01*
X21011542Y35288850D01*
X20987038Y35287646D01*
X20087036Y35287646D01*
X20062532Y35288850D01*
X20038264Y35292450D01*
X20014465Y35298411D01*
X19991366Y35306676D01*
X19969187Y35317166D01*
X19948144Y35329778D01*
X19928438Y35344393D01*
X19910260Y35360869D01*
X19893784Y35379047D01*
X19879169Y35398753D01*
X19866557Y35419796D01*
X19856067Y35441975D01*
X19847802Y35465074D01*
X19841841Y35488873D01*
X19838241Y35513141D01*
X19837037Y35537645D01*
X19837037Y36187647D01*
X19838241Y36212151D01*
X19841841Y36236419D01*
X19847802Y36260218D01*
X19856067Y36283317D01*
X19866557Y36305496D01*
X19879169Y36326539D01*
X19893784Y36346245D01*
X19910260Y36364423D01*
X19928438Y36380899D01*
X19948144Y36395514D01*
X19969187Y36408126D01*
X19991366Y36418616D01*
X20014465Y36426881D01*
X20038264Y36432842D01*
X20062532Y36436442D01*
X20087036Y36437646D01*
X20987038Y36437646D01*
X21011542Y36436442D01*
X21011542Y36436442D01*
G37*
D14*
G04 #@! TD*
G04 #@! TO.P,C4,2*
G04 #@! TO.N,GND*
X20537037Y35862646D03*
D10*
G04 #@! TO.N,GND*
G04 #@! TO.C,C5*
G36*
X46078505Y23939796D02*
X46102773Y23936196D01*
X46126572Y23930235D01*
X46149671Y23921970D01*
X46171850Y23911480D01*
X46192893Y23898868D01*
X46212599Y23884253D01*
X46230777Y23867777D01*
X46247253Y23849599D01*
X46261868Y23829893D01*
X46274480Y23808850D01*
X46284970Y23786671D01*
X46293235Y23763572D01*
X46299196Y23739773D01*
X46302796Y23715505D01*
X46304000Y23691001D01*
X46304000Y22790999D01*
X46302796Y22766495D01*
X46299196Y22742227D01*
X46293235Y22718428D01*
X46284970Y22695329D01*
X46274480Y22673150D01*
X46261868Y22652107D01*
X46247253Y22632401D01*
X46230777Y22614223D01*
X46212599Y22597747D01*
X46192893Y22583132D01*
X46171850Y22570520D01*
X46149671Y22560030D01*
X46126572Y22551765D01*
X46102773Y22545804D01*
X46078505Y22542204D01*
X46054001Y22541000D01*
X45403999Y22541000D01*
X45379495Y22542204D01*
X45355227Y22545804D01*
X45331428Y22551765D01*
X45308329Y22560030D01*
X45286150Y22570520D01*
X45265107Y22583132D01*
X45245401Y22597747D01*
X45227223Y22614223D01*
X45210747Y22632401D01*
X45196132Y22652107D01*
X45183520Y22673150D01*
X45173030Y22695329D01*
X45164765Y22718428D01*
X45158804Y22742227D01*
X45155204Y22766495D01*
X45154000Y22790999D01*
X45154000Y23691001D01*
X45155204Y23715505D01*
X45158804Y23739773D01*
X45164765Y23763572D01*
X45173030Y23786671D01*
X45183520Y23808850D01*
X45196132Y23829893D01*
X45210747Y23849599D01*
X45227223Y23867777D01*
X45245401Y23884253D01*
X45265107Y23898868D01*
X45286150Y23911480D01*
X45308329Y23921970D01*
X45331428Y23930235D01*
X45355227Y23936196D01*
X45379495Y23939796D01*
X45403999Y23941000D01*
X46054001Y23941000D01*
X46078505Y23939796D01*
X46078505Y23939796D01*
G37*
D14*
G04 #@! TD*
G04 #@! TO.P,C5,2*
G04 #@! TO.N,GND*
X45729000Y23241000D03*
D10*
G04 #@! TO.N,VCC*
G04 #@! TO.C,C5*
G36*
X44028505Y23939796D02*
X44052773Y23936196D01*
X44076572Y23930235D01*
X44099671Y23921970D01*
X44121850Y23911480D01*
X44142893Y23898868D01*
X44162599Y23884253D01*
X44180777Y23867777D01*
X44197253Y23849599D01*
X44211868Y23829893D01*
X44224480Y23808850D01*
X44234970Y23786671D01*
X44243235Y23763572D01*
X44249196Y23739773D01*
X44252796Y23715505D01*
X44254000Y23691001D01*
X44254000Y22790999D01*
X44252796Y22766495D01*
X44249196Y22742227D01*
X44243235Y22718428D01*
X44234970Y22695329D01*
X44224480Y22673150D01*
X44211868Y22652107D01*
X44197253Y22632401D01*
X44180777Y22614223D01*
X44162599Y22597747D01*
X44142893Y22583132D01*
X44121850Y22570520D01*
X44099671Y22560030D01*
X44076572Y22551765D01*
X44052773Y22545804D01*
X44028505Y22542204D01*
X44004001Y22541000D01*
X43353999Y22541000D01*
X43329495Y22542204D01*
X43305227Y22545804D01*
X43281428Y22551765D01*
X43258329Y22560030D01*
X43236150Y22570520D01*
X43215107Y22583132D01*
X43195401Y22597747D01*
X43177223Y22614223D01*
X43160747Y22632401D01*
X43146132Y22652107D01*
X43133520Y22673150D01*
X43123030Y22695329D01*
X43114765Y22718428D01*
X43108804Y22742227D01*
X43105204Y22766495D01*
X43104000Y22790999D01*
X43104000Y23691001D01*
X43105204Y23715505D01*
X43108804Y23739773D01*
X43114765Y23763572D01*
X43123030Y23786671D01*
X43133520Y23808850D01*
X43146132Y23829893D01*
X43160747Y23849599D01*
X43177223Y23867777D01*
X43195401Y23884253D01*
X43215107Y23898868D01*
X43236150Y23911480D01*
X43258329Y23921970D01*
X43281428Y23930235D01*
X43305227Y23936196D01*
X43329495Y23939796D01*
X43353999Y23941000D01*
X44004001Y23941000D01*
X44028505Y23939796D01*
X44028505Y23939796D01*
G37*
D14*
G04 #@! TD*
G04 #@! TO.P,C5,1*
G04 #@! TO.N,VCC*
X43679000Y23241000D03*
D10*
G04 #@! TO.N,+12V*
G04 #@! TO.C,C6*
G36*
X45486309Y43525541D02*
X45510577Y43521941D01*
X45534376Y43515980D01*
X45557475Y43507715D01*
X45579654Y43497225D01*
X45600697Y43484613D01*
X45620403Y43469998D01*
X45638581Y43453522D01*
X45655057Y43435344D01*
X45669672Y43415638D01*
X45682284Y43394595D01*
X45692774Y43372416D01*
X45701039Y43349317D01*
X45707000Y43325518D01*
X45710600Y43301250D01*
X45711804Y43276746D01*
X45711804Y42626744D01*
X45710600Y42602240D01*
X45707000Y42577972D01*
X45701039Y42554173D01*
X45692774Y42531074D01*
X45682284Y42508895D01*
X45669672Y42487852D01*
X45655057Y42468146D01*
X45638581Y42449968D01*
X45620403Y42433492D01*
X45600697Y42418877D01*
X45579654Y42406265D01*
X45557475Y42395775D01*
X45534376Y42387510D01*
X45510577Y42381549D01*
X45486309Y42377949D01*
X45461805Y42376745D01*
X44561803Y42376745D01*
X44537299Y42377949D01*
X44513031Y42381549D01*
X44489232Y42387510D01*
X44466133Y42395775D01*
X44443954Y42406265D01*
X44422911Y42418877D01*
X44403205Y42433492D01*
X44385027Y42449968D01*
X44368551Y42468146D01*
X44353936Y42487852D01*
X44341324Y42508895D01*
X44330834Y42531074D01*
X44322569Y42554173D01*
X44316608Y42577972D01*
X44313008Y42602240D01*
X44311804Y42626744D01*
X44311804Y43276746D01*
X44313008Y43301250D01*
X44316608Y43325518D01*
X44322569Y43349317D01*
X44330834Y43372416D01*
X44341324Y43394595D01*
X44353936Y43415638D01*
X44368551Y43435344D01*
X44385027Y43453522D01*
X44403205Y43469998D01*
X44422911Y43484613D01*
X44443954Y43497225D01*
X44466133Y43507715D01*
X44489232Y43515980D01*
X44513031Y43521941D01*
X44537299Y43525541D01*
X44561803Y43526745D01*
X45461805Y43526745D01*
X45486309Y43525541D01*
X45486309Y43525541D01*
G37*
D14*
G04 #@! TD*
G04 #@! TO.P,C6,1*
G04 #@! TO.N,+12V*
X45011804Y42951745D03*
D10*
G04 #@! TO.N,GND*
G04 #@! TO.C,C6*
G36*
X45486309Y41475541D02*
X45510577Y41471941D01*
X45534376Y41465980D01*
X45557475Y41457715D01*
X45579654Y41447225D01*
X45600697Y41434613D01*
X45620403Y41419998D01*
X45638581Y41403522D01*
X45655057Y41385344D01*
X45669672Y41365638D01*
X45682284Y41344595D01*
X45692774Y41322416D01*
X45701039Y41299317D01*
X45707000Y41275518D01*
X45710600Y41251250D01*
X45711804Y41226746D01*
X45711804Y40576744D01*
X45710600Y40552240D01*
X45707000Y40527972D01*
X45701039Y40504173D01*
X45692774Y40481074D01*
X45682284Y40458895D01*
X45669672Y40437852D01*
X45655057Y40418146D01*
X45638581Y40399968D01*
X45620403Y40383492D01*
X45600697Y40368877D01*
X45579654Y40356265D01*
X45557475Y40345775D01*
X45534376Y40337510D01*
X45510577Y40331549D01*
X45486309Y40327949D01*
X45461805Y40326745D01*
X44561803Y40326745D01*
X44537299Y40327949D01*
X44513031Y40331549D01*
X44489232Y40337510D01*
X44466133Y40345775D01*
X44443954Y40356265D01*
X44422911Y40368877D01*
X44403205Y40383492D01*
X44385027Y40399968D01*
X44368551Y40418146D01*
X44353936Y40437852D01*
X44341324Y40458895D01*
X44330834Y40481074D01*
X44322569Y40504173D01*
X44316608Y40527972D01*
X44313008Y40552240D01*
X44311804Y40576744D01*
X44311804Y41226746D01*
X44313008Y41251250D01*
X44316608Y41275518D01*
X44322569Y41299317D01*
X44330834Y41322416D01*
X44341324Y41344595D01*
X44353936Y41365638D01*
X44368551Y41385344D01*
X44385027Y41403522D01*
X44403205Y41419998D01*
X44422911Y41434613D01*
X44443954Y41447225D01*
X44466133Y41457715D01*
X44489232Y41465980D01*
X44513031Y41471941D01*
X44537299Y41475541D01*
X44561803Y41476745D01*
X45461805Y41476745D01*
X45486309Y41475541D01*
X45486309Y41475541D01*
G37*
D14*
G04 #@! TD*
G04 #@! TO.P,C6,2*
G04 #@! TO.N,GND*
X45011804Y40901745D03*
D10*
G04 #@! TO.N,GND*
G04 #@! TO.C,C7*
G36*
X45486309Y39334541D02*
X45510577Y39330941D01*
X45534376Y39324980D01*
X45557475Y39316715D01*
X45579654Y39306225D01*
X45600697Y39293613D01*
X45620403Y39278998D01*
X45638581Y39262522D01*
X45655057Y39244344D01*
X45669672Y39224638D01*
X45682284Y39203595D01*
X45692774Y39181416D01*
X45701039Y39158317D01*
X45707000Y39134518D01*
X45710600Y39110250D01*
X45711804Y39085746D01*
X45711804Y38435744D01*
X45710600Y38411240D01*
X45707000Y38386972D01*
X45701039Y38363173D01*
X45692774Y38340074D01*
X45682284Y38317895D01*
X45669672Y38296852D01*
X45655057Y38277146D01*
X45638581Y38258968D01*
X45620403Y38242492D01*
X45600697Y38227877D01*
X45579654Y38215265D01*
X45557475Y38204775D01*
X45534376Y38196510D01*
X45510577Y38190549D01*
X45486309Y38186949D01*
X45461805Y38185745D01*
X44561803Y38185745D01*
X44537299Y38186949D01*
X44513031Y38190549D01*
X44489232Y38196510D01*
X44466133Y38204775D01*
X44443954Y38215265D01*
X44422911Y38227877D01*
X44403205Y38242492D01*
X44385027Y38258968D01*
X44368551Y38277146D01*
X44353936Y38296852D01*
X44341324Y38317895D01*
X44330834Y38340074D01*
X44322569Y38363173D01*
X44316608Y38386972D01*
X44313008Y38411240D01*
X44311804Y38435744D01*
X44311804Y39085746D01*
X44313008Y39110250D01*
X44316608Y39134518D01*
X44322569Y39158317D01*
X44330834Y39181416D01*
X44341324Y39203595D01*
X44353936Y39224638D01*
X44368551Y39244344D01*
X44385027Y39262522D01*
X44403205Y39278998D01*
X44422911Y39293613D01*
X44443954Y39306225D01*
X44466133Y39316715D01*
X44489232Y39324980D01*
X44513031Y39330941D01*
X44537299Y39334541D01*
X44561803Y39335745D01*
X45461805Y39335745D01*
X45486309Y39334541D01*
X45486309Y39334541D01*
G37*
D14*
G04 #@! TD*
G04 #@! TO.P,C7,2*
G04 #@! TO.N,GND*
X45011804Y38760745D03*
D10*
G04 #@! TO.N,VCC*
G04 #@! TO.C,C7*
G36*
X45486309Y37284541D02*
X45510577Y37280941D01*
X45534376Y37274980D01*
X45557475Y37266715D01*
X45579654Y37256225D01*
X45600697Y37243613D01*
X45620403Y37228998D01*
X45638581Y37212522D01*
X45655057Y37194344D01*
X45669672Y37174638D01*
X45682284Y37153595D01*
X45692774Y37131416D01*
X45701039Y37108317D01*
X45707000Y37084518D01*
X45710600Y37060250D01*
X45711804Y37035746D01*
X45711804Y36385744D01*
X45710600Y36361240D01*
X45707000Y36336972D01*
X45701039Y36313173D01*
X45692774Y36290074D01*
X45682284Y36267895D01*
X45669672Y36246852D01*
X45655057Y36227146D01*
X45638581Y36208968D01*
X45620403Y36192492D01*
X45600697Y36177877D01*
X45579654Y36165265D01*
X45557475Y36154775D01*
X45534376Y36146510D01*
X45510577Y36140549D01*
X45486309Y36136949D01*
X45461805Y36135745D01*
X44561803Y36135745D01*
X44537299Y36136949D01*
X44513031Y36140549D01*
X44489232Y36146510D01*
X44466133Y36154775D01*
X44443954Y36165265D01*
X44422911Y36177877D01*
X44403205Y36192492D01*
X44385027Y36208968D01*
X44368551Y36227146D01*
X44353936Y36246852D01*
X44341324Y36267895D01*
X44330834Y36290074D01*
X44322569Y36313173D01*
X44316608Y36336972D01*
X44313008Y36361240D01*
X44311804Y36385744D01*
X44311804Y37035746D01*
X44313008Y37060250D01*
X44316608Y37084518D01*
X44322569Y37108317D01*
X44330834Y37131416D01*
X44341324Y37153595D01*
X44353936Y37174638D01*
X44368551Y37194344D01*
X44385027Y37212522D01*
X44403205Y37228998D01*
X44422911Y37243613D01*
X44443954Y37256225D01*
X44466133Y37266715D01*
X44489232Y37274980D01*
X44513031Y37280941D01*
X44537299Y37284541D01*
X44561803Y37285745D01*
X45461805Y37285745D01*
X45486309Y37284541D01*
X45486309Y37284541D01*
G37*
D14*
G04 #@! TD*
G04 #@! TO.P,C7,1*
G04 #@! TO.N,VCC*
X45011804Y36710745D03*
D10*
G04 #@! TO.N,VCC*
G04 #@! TO.C,C1*
G36*
X30185505Y15811796D02*
X30209773Y15808196D01*
X30233572Y15802235D01*
X30256671Y15793970D01*
X30278850Y15783480D01*
X30299893Y15770868D01*
X30319599Y15756253D01*
X30337777Y15739777D01*
X30354253Y15721599D01*
X30368868Y15701893D01*
X30381480Y15680850D01*
X30391970Y15658671D01*
X30400235Y15635572D01*
X30406196Y15611773D01*
X30409796Y15587505D01*
X30411000Y15563001D01*
X30411000Y14662999D01*
X30409796Y14638495D01*
X30406196Y14614227D01*
X30400235Y14590428D01*
X30391970Y14567329D01*
X30381480Y14545150D01*
X30368868Y14524107D01*
X30354253Y14504401D01*
X30337777Y14486223D01*
X30319599Y14469747D01*
X30299893Y14455132D01*
X30278850Y14442520D01*
X30256671Y14432030D01*
X30233572Y14423765D01*
X30209773Y14417804D01*
X30185505Y14414204D01*
X30161001Y14413000D01*
X29510999Y14413000D01*
X29486495Y14414204D01*
X29462227Y14417804D01*
X29438428Y14423765D01*
X29415329Y14432030D01*
X29393150Y14442520D01*
X29372107Y14455132D01*
X29352401Y14469747D01*
X29334223Y14486223D01*
X29317747Y14504401D01*
X29303132Y14524107D01*
X29290520Y14545150D01*
X29280030Y14567329D01*
X29271765Y14590428D01*
X29265804Y14614227D01*
X29262204Y14638495D01*
X29261000Y14662999D01*
X29261000Y15563001D01*
X29262204Y15587505D01*
X29265804Y15611773D01*
X29271765Y15635572D01*
X29280030Y15658671D01*
X29290520Y15680850D01*
X29303132Y15701893D01*
X29317747Y15721599D01*
X29334223Y15739777D01*
X29352401Y15756253D01*
X29372107Y15770868D01*
X29393150Y15783480D01*
X29415329Y15793970D01*
X29438428Y15802235D01*
X29462227Y15808196D01*
X29486495Y15811796D01*
X29510999Y15813000D01*
X30161001Y15813000D01*
X30185505Y15811796D01*
X30185505Y15811796D01*
G37*
D14*
G04 #@! TD*
G04 #@! TO.P,C1,1*
G04 #@! TO.N,VCC*
X29836000Y15113000D03*
D10*
G04 #@! TO.N,GND*
G04 #@! TO.C,C1*
G36*
X32235505Y15811796D02*
X32259773Y15808196D01*
X32283572Y15802235D01*
X32306671Y15793970D01*
X32328850Y15783480D01*
X32349893Y15770868D01*
X32369599Y15756253D01*
X32387777Y15739777D01*
X32404253Y15721599D01*
X32418868Y15701893D01*
X32431480Y15680850D01*
X32441970Y15658671D01*
X32450235Y15635572D01*
X32456196Y15611773D01*
X32459796Y15587505D01*
X32461000Y15563001D01*
X32461000Y14662999D01*
X32459796Y14638495D01*
X32456196Y14614227D01*
X32450235Y14590428D01*
X32441970Y14567329D01*
X32431480Y14545150D01*
X32418868Y14524107D01*
X32404253Y14504401D01*
X32387777Y14486223D01*
X32369599Y14469747D01*
X32349893Y14455132D01*
X32328850Y14442520D01*
X32306671Y14432030D01*
X32283572Y14423765D01*
X32259773Y14417804D01*
X32235505Y14414204D01*
X32211001Y14413000D01*
X31560999Y14413000D01*
X31536495Y14414204D01*
X31512227Y14417804D01*
X31488428Y14423765D01*
X31465329Y14432030D01*
X31443150Y14442520D01*
X31422107Y14455132D01*
X31402401Y14469747D01*
X31384223Y14486223D01*
X31367747Y14504401D01*
X31353132Y14524107D01*
X31340520Y14545150D01*
X31330030Y14567329D01*
X31321765Y14590428D01*
X31315804Y14614227D01*
X31312204Y14638495D01*
X31311000Y14662999D01*
X31311000Y15563001D01*
X31312204Y15587505D01*
X31315804Y15611773D01*
X31321765Y15635572D01*
X31330030Y15658671D01*
X31340520Y15680850D01*
X31353132Y15701893D01*
X31367747Y15721599D01*
X31384223Y15739777D01*
X31402401Y15756253D01*
X31422107Y15770868D01*
X31443150Y15783480D01*
X31465329Y15793970D01*
X31488428Y15802235D01*
X31512227Y15808196D01*
X31536495Y15811796D01*
X31560999Y15813000D01*
X32211001Y15813000D01*
X32235505Y15811796D01*
X32235505Y15811796D01*
G37*
D14*
G04 #@! TD*
G04 #@! TO.P,C1,2*
G04 #@! TO.N,GND*
X31886000Y15113000D03*
D10*
G04 #@! TO.N,VCC*
G04 #@! TO.C,C9*
G36*
X52620504Y35336796D02*
X52644773Y35333196D01*
X52668571Y35327235D01*
X52691671Y35318970D01*
X52713849Y35308480D01*
X52734893Y35295867D01*
X52754598Y35281253D01*
X52772777Y35264777D01*
X52789253Y35246598D01*
X52803867Y35226893D01*
X52816480Y35205849D01*
X52826970Y35183671D01*
X52835235Y35160571D01*
X52841196Y35136773D01*
X52844796Y35112504D01*
X52846000Y35088000D01*
X52846000Y33238000D01*
X52844796Y33213496D01*
X52841196Y33189227D01*
X52835235Y33165429D01*
X52826970Y33142329D01*
X52816480Y33120151D01*
X52803867Y33099107D01*
X52789253Y33079402D01*
X52772777Y33061223D01*
X52754598Y33044747D01*
X52734893Y33030133D01*
X52713849Y33017520D01*
X52691671Y33007030D01*
X52668571Y32998765D01*
X52644773Y32992804D01*
X52620504Y32989204D01*
X52596000Y32988000D01*
X51596000Y32988000D01*
X51571496Y32989204D01*
X51547227Y32992804D01*
X51523429Y32998765D01*
X51500329Y33007030D01*
X51478151Y33017520D01*
X51457107Y33030133D01*
X51437402Y33044747D01*
X51419223Y33061223D01*
X51402747Y33079402D01*
X51388133Y33099107D01*
X51375520Y33120151D01*
X51365030Y33142329D01*
X51356765Y33165429D01*
X51350804Y33189227D01*
X51347204Y33213496D01*
X51346000Y33238000D01*
X51346000Y35088000D01*
X51347204Y35112504D01*
X51350804Y35136773D01*
X51356765Y35160571D01*
X51365030Y35183671D01*
X51375520Y35205849D01*
X51388133Y35226893D01*
X51402747Y35246598D01*
X51419223Y35264777D01*
X51437402Y35281253D01*
X51457107Y35295867D01*
X51478151Y35308480D01*
X51500329Y35318970D01*
X51523429Y35327235D01*
X51547227Y35333196D01*
X51571496Y35336796D01*
X51596000Y35338000D01*
X52596000Y35338000D01*
X52620504Y35336796D01*
X52620504Y35336796D01*
G37*
D15*
G04 #@! TD*
G04 #@! TO.P,C9,1*
G04 #@! TO.N,VCC*
X52096000Y34163000D03*
D10*
G04 #@! TO.N,GND*
G04 #@! TO.C,C9*
G36*
X55870504Y35336796D02*
X55894773Y35333196D01*
X55918571Y35327235D01*
X55941671Y35318970D01*
X55963849Y35308480D01*
X55984893Y35295867D01*
X56004598Y35281253D01*
X56022777Y35264777D01*
X56039253Y35246598D01*
X56053867Y35226893D01*
X56066480Y35205849D01*
X56076970Y35183671D01*
X56085235Y35160571D01*
X56091196Y35136773D01*
X56094796Y35112504D01*
X56096000Y35088000D01*
X56096000Y33238000D01*
X56094796Y33213496D01*
X56091196Y33189227D01*
X56085235Y33165429D01*
X56076970Y33142329D01*
X56066480Y33120151D01*
X56053867Y33099107D01*
X56039253Y33079402D01*
X56022777Y33061223D01*
X56004598Y33044747D01*
X55984893Y33030133D01*
X55963849Y33017520D01*
X55941671Y33007030D01*
X55918571Y32998765D01*
X55894773Y32992804D01*
X55870504Y32989204D01*
X55846000Y32988000D01*
X54846000Y32988000D01*
X54821496Y32989204D01*
X54797227Y32992804D01*
X54773429Y32998765D01*
X54750329Y33007030D01*
X54728151Y33017520D01*
X54707107Y33030133D01*
X54687402Y33044747D01*
X54669223Y33061223D01*
X54652747Y33079402D01*
X54638133Y33099107D01*
X54625520Y33120151D01*
X54615030Y33142329D01*
X54606765Y33165429D01*
X54600804Y33189227D01*
X54597204Y33213496D01*
X54596000Y33238000D01*
X54596000Y35088000D01*
X54597204Y35112504D01*
X54600804Y35136773D01*
X54606765Y35160571D01*
X54615030Y35183671D01*
X54625520Y35205849D01*
X54638133Y35226893D01*
X54652747Y35246598D01*
X54669223Y35264777D01*
X54687402Y35281253D01*
X54707107Y35295867D01*
X54728151Y35308480D01*
X54750329Y35318970D01*
X54773429Y35327235D01*
X54797227Y35333196D01*
X54821496Y35336796D01*
X54846000Y35338000D01*
X55846000Y35338000D01*
X55870504Y35336796D01*
X55870504Y35336796D01*
G37*
D15*
G04 #@! TD*
G04 #@! TO.P,C9,2*
G04 #@! TO.N,GND*
X55346000Y34163000D03*
D16*
G04 #@! TO.P,U1,*
G04 #@! TO.N,*
X11533000Y29996000D03*
X53783000Y29996000D03*
X11533000Y12996000D03*
X53783000Y12996000D03*
D17*
G04 #@! TO.P,U1,1*
G04 #@! TO.N,VCC*
X28779000Y12246000D03*
G04 #@! TO.P,U1,2*
G04 #@! TO.N,TRIG*
X31319000Y12246000D03*
G04 #@! TO.P,U1,3*
G04 #@! TO.N,ECHO*
X33859000Y12246000D03*
G04 #@! TO.P,U1,4*
G04 #@! TO.N,GND*
X36399000Y12246000D03*
G04 #@! TD*
D18*
G04 #@! TO.P,U2,8*
G04 #@! TO.N,VCC*
X20824037Y31526646D03*
G04 #@! TO.P,U2,7*
G04 #@! TO.N,TRIG+*
X20824037Y30256646D03*
G04 #@! TO.P,U2,6*
G04 #@! TO.N,TRIG-*
X20824037Y28986646D03*
G04 #@! TO.P,U2,5*
G04 #@! TO.N,GND*
X20824037Y27716646D03*
G04 #@! TO.P,U2,4*
X15424037Y27716646D03*
G04 #@! TO.P,U2,3*
G04 #@! TO.N,TRIG*
X15424037Y28986646D03*
G04 #@! TO.P,U2,2*
G04 #@! TO.N,Net-(U2-Pad2)*
X15424037Y30256646D03*
G04 #@! TO.P,U2,1*
G04 #@! TO.N,Net-(U2-Pad1)*
X15424037Y31526646D03*
G04 #@! TD*
G04 #@! TO.P,U3,1*
G04 #@! TO.N,VCC*
X49055000Y27940000D03*
G04 #@! TO.P,U3,2*
G04 #@! TO.N,ECHO*
X49055000Y29210000D03*
G04 #@! TO.P,U3,3*
G04 #@! TO.N,Net-(U3-Pad3)*
X49055000Y30480000D03*
G04 #@! TO.P,U3,4*
G04 #@! TO.N,GND*
X49055000Y31750000D03*
G04 #@! TO.P,U3,5*
G04 #@! TO.N,Net-(U3-Pad5)*
X43655000Y31750000D03*
G04 #@! TO.P,U3,6*
G04 #@! TO.N,ECHO-*
X43655000Y30480000D03*
G04 #@! TO.P,U3,7*
G04 #@! TO.N,ECHO+*
X43655000Y29210000D03*
G04 #@! TO.P,U3,8*
G04 #@! TO.N,VCC*
X43655000Y27940000D03*
G04 #@! TD*
D19*
G04 #@! TO.P,U4,2*
G04 #@! TO.N,GND*
X54765804Y39894745D03*
D20*
X48465804Y39894745D03*
G04 #@! TO.P,U4,3*
G04 #@! TO.N,VCC*
X48465804Y37594745D03*
G04 #@! TO.P,U4,1*
G04 #@! TO.N,+12V*
X48465804Y42194745D03*
G04 #@! TD*
D10*
G04 #@! TO.N,TRIG-*
G04 #@! TO.C,R3*
G36*
X24731505Y29266796D02*
X24755773Y29263196D01*
X24779572Y29257235D01*
X24802671Y29248970D01*
X24824850Y29238480D01*
X24845893Y29225868D01*
X24865599Y29211253D01*
X24883777Y29194777D01*
X24900253Y29176599D01*
X24914868Y29156893D01*
X24927480Y29135850D01*
X24937970Y29113671D01*
X24946235Y29090572D01*
X24952196Y29066773D01*
X24955796Y29042505D01*
X24957000Y29018001D01*
X24957000Y28367999D01*
X24955796Y28343495D01*
X24952196Y28319227D01*
X24946235Y28295428D01*
X24937970Y28272329D01*
X24927480Y28250150D01*
X24914868Y28229107D01*
X24900253Y28209401D01*
X24883777Y28191223D01*
X24865599Y28174747D01*
X24845893Y28160132D01*
X24824850Y28147520D01*
X24802671Y28137030D01*
X24779572Y28128765D01*
X24755773Y28122804D01*
X24731505Y28119204D01*
X24707001Y28118000D01*
X23806999Y28118000D01*
X23782495Y28119204D01*
X23758227Y28122804D01*
X23734428Y28128765D01*
X23711329Y28137030D01*
X23689150Y28147520D01*
X23668107Y28160132D01*
X23648401Y28174747D01*
X23630223Y28191223D01*
X23613747Y28209401D01*
X23599132Y28229107D01*
X23586520Y28250150D01*
X23576030Y28272329D01*
X23567765Y28295428D01*
X23561804Y28319227D01*
X23558204Y28343495D01*
X23557000Y28367999D01*
X23557000Y29018001D01*
X23558204Y29042505D01*
X23561804Y29066773D01*
X23567765Y29090572D01*
X23576030Y29113671D01*
X23586520Y29135850D01*
X23599132Y29156893D01*
X23613747Y29176599D01*
X23630223Y29194777D01*
X23648401Y29211253D01*
X23668107Y29225868D01*
X23689150Y29238480D01*
X23711329Y29248970D01*
X23734428Y29257235D01*
X23758227Y29263196D01*
X23782495Y29266796D01*
X23806999Y29268000D01*
X24707001Y29268000D01*
X24731505Y29266796D01*
X24731505Y29266796D01*
G37*
D14*
G04 #@! TD*
G04 #@! TO.P,R3,2*
G04 #@! TO.N,TRIG-*
X24257000Y28693000D03*
D10*
G04 #@! TO.N,TRIG+*
G04 #@! TO.C,R3*
G36*
X24731505Y31316796D02*
X24755773Y31313196D01*
X24779572Y31307235D01*
X24802671Y31298970D01*
X24824850Y31288480D01*
X24845893Y31275868D01*
X24865599Y31261253D01*
X24883777Y31244777D01*
X24900253Y31226599D01*
X24914868Y31206893D01*
X24927480Y31185850D01*
X24937970Y31163671D01*
X24946235Y31140572D01*
X24952196Y31116773D01*
X24955796Y31092505D01*
X24957000Y31068001D01*
X24957000Y30417999D01*
X24955796Y30393495D01*
X24952196Y30369227D01*
X24946235Y30345428D01*
X24937970Y30322329D01*
X24927480Y30300150D01*
X24914868Y30279107D01*
X24900253Y30259401D01*
X24883777Y30241223D01*
X24865599Y30224747D01*
X24845893Y30210132D01*
X24824850Y30197520D01*
X24802671Y30187030D01*
X24779572Y30178765D01*
X24755773Y30172804D01*
X24731505Y30169204D01*
X24707001Y30168000D01*
X23806999Y30168000D01*
X23782495Y30169204D01*
X23758227Y30172804D01*
X23734428Y30178765D01*
X23711329Y30187030D01*
X23689150Y30197520D01*
X23668107Y30210132D01*
X23648401Y30224747D01*
X23630223Y30241223D01*
X23613747Y30259401D01*
X23599132Y30279107D01*
X23586520Y30300150D01*
X23576030Y30322329D01*
X23567765Y30345428D01*
X23561804Y30369227D01*
X23558204Y30393495D01*
X23557000Y30417999D01*
X23557000Y31068001D01*
X23558204Y31092505D01*
X23561804Y31116773D01*
X23567765Y31140572D01*
X23576030Y31163671D01*
X23586520Y31185850D01*
X23599132Y31206893D01*
X23613747Y31226599D01*
X23630223Y31244777D01*
X23648401Y31261253D01*
X23668107Y31275868D01*
X23689150Y31288480D01*
X23711329Y31298970D01*
X23734428Y31307235D01*
X23758227Y31313196D01*
X23782495Y31316796D01*
X23806999Y31318000D01*
X24707001Y31318000D01*
X24731505Y31316796D01*
X24731505Y31316796D01*
G37*
D14*
G04 #@! TD*
G04 #@! TO.P,R3,1*
G04 #@! TO.N,TRIG+*
X24257000Y30743000D03*
D10*
G04 #@! TO.N,ECHO+*
G04 #@! TO.C,R4*
G36*
X40987505Y29266796D02*
X41011773Y29263196D01*
X41035572Y29257235D01*
X41058671Y29248970D01*
X41080850Y29238480D01*
X41101893Y29225868D01*
X41121599Y29211253D01*
X41139777Y29194777D01*
X41156253Y29176599D01*
X41170868Y29156893D01*
X41183480Y29135850D01*
X41193970Y29113671D01*
X41202235Y29090572D01*
X41208196Y29066773D01*
X41211796Y29042505D01*
X41213000Y29018001D01*
X41213000Y28367999D01*
X41211796Y28343495D01*
X41208196Y28319227D01*
X41202235Y28295428D01*
X41193970Y28272329D01*
X41183480Y28250150D01*
X41170868Y28229107D01*
X41156253Y28209401D01*
X41139777Y28191223D01*
X41121599Y28174747D01*
X41101893Y28160132D01*
X41080850Y28147520D01*
X41058671Y28137030D01*
X41035572Y28128765D01*
X41011773Y28122804D01*
X40987505Y28119204D01*
X40963001Y28118000D01*
X40062999Y28118000D01*
X40038495Y28119204D01*
X40014227Y28122804D01*
X39990428Y28128765D01*
X39967329Y28137030D01*
X39945150Y28147520D01*
X39924107Y28160132D01*
X39904401Y28174747D01*
X39886223Y28191223D01*
X39869747Y28209401D01*
X39855132Y28229107D01*
X39842520Y28250150D01*
X39832030Y28272329D01*
X39823765Y28295428D01*
X39817804Y28319227D01*
X39814204Y28343495D01*
X39813000Y28367999D01*
X39813000Y29018001D01*
X39814204Y29042505D01*
X39817804Y29066773D01*
X39823765Y29090572D01*
X39832030Y29113671D01*
X39842520Y29135850D01*
X39855132Y29156893D01*
X39869747Y29176599D01*
X39886223Y29194777D01*
X39904401Y29211253D01*
X39924107Y29225868D01*
X39945150Y29238480D01*
X39967329Y29248970D01*
X39990428Y29257235D01*
X40014227Y29263196D01*
X40038495Y29266796D01*
X40062999Y29268000D01*
X40963001Y29268000D01*
X40987505Y29266796D01*
X40987505Y29266796D01*
G37*
D14*
G04 #@! TD*
G04 #@! TO.P,R4,1*
G04 #@! TO.N,ECHO+*
X40513000Y28693000D03*
D10*
G04 #@! TO.N,ECHO-*
G04 #@! TO.C,R4*
G36*
X40987505Y31316796D02*
X41011773Y31313196D01*
X41035572Y31307235D01*
X41058671Y31298970D01*
X41080850Y31288480D01*
X41101893Y31275868D01*
X41121599Y31261253D01*
X41139777Y31244777D01*
X41156253Y31226599D01*
X41170868Y31206893D01*
X41183480Y31185850D01*
X41193970Y31163671D01*
X41202235Y31140572D01*
X41208196Y31116773D01*
X41211796Y31092505D01*
X41213000Y31068001D01*
X41213000Y30417999D01*
X41211796Y30393495D01*
X41208196Y30369227D01*
X41202235Y30345428D01*
X41193970Y30322329D01*
X41183480Y30300150D01*
X41170868Y30279107D01*
X41156253Y30259401D01*
X41139777Y30241223D01*
X41121599Y30224747D01*
X41101893Y30210132D01*
X41080850Y30197520D01*
X41058671Y30187030D01*
X41035572Y30178765D01*
X41011773Y30172804D01*
X40987505Y30169204D01*
X40963001Y30168000D01*
X40062999Y30168000D01*
X40038495Y30169204D01*
X40014227Y30172804D01*
X39990428Y30178765D01*
X39967329Y30187030D01*
X39945150Y30197520D01*
X39924107Y30210132D01*
X39904401Y30224747D01*
X39886223Y30241223D01*
X39869747Y30259401D01*
X39855132Y30279107D01*
X39842520Y30300150D01*
X39832030Y30322329D01*
X39823765Y30345428D01*
X39817804Y30369227D01*
X39814204Y30393495D01*
X39813000Y30417999D01*
X39813000Y31068001D01*
X39814204Y31092505D01*
X39817804Y31116773D01*
X39823765Y31140572D01*
X39832030Y31163671D01*
X39842520Y31185850D01*
X39855132Y31206893D01*
X39869747Y31226599D01*
X39886223Y31244777D01*
X39904401Y31261253D01*
X39924107Y31275868D01*
X39945150Y31288480D01*
X39967329Y31298970D01*
X39990428Y31307235D01*
X40014227Y31313196D01*
X40038495Y31316796D01*
X40062999Y31318000D01*
X40963001Y31318000D01*
X40987505Y31316796D01*
X40987505Y31316796D01*
G37*
D14*
G04 #@! TD*
G04 #@! TO.P,R4,2*
G04 #@! TO.N,ECHO-*
X40513000Y30743000D03*
D10*
G04 #@! TO.N,GND*
G04 #@! TO.C,R1*
G36*
X14026542Y24480442D02*
X14050810Y24476842D01*
X14074609Y24470881D01*
X14097708Y24462616D01*
X14119887Y24452126D01*
X14140930Y24439514D01*
X14160636Y24424899D01*
X14178814Y24408423D01*
X14195290Y24390245D01*
X14209905Y24370539D01*
X14222517Y24349496D01*
X14233007Y24327317D01*
X14241272Y24304218D01*
X14247233Y24280419D01*
X14250833Y24256151D01*
X14252037Y24231647D01*
X14252037Y23581645D01*
X14250833Y23557141D01*
X14247233Y23532873D01*
X14241272Y23509074D01*
X14233007Y23485975D01*
X14222517Y23463796D01*
X14209905Y23442753D01*
X14195290Y23423047D01*
X14178814Y23404869D01*
X14160636Y23388393D01*
X14140930Y23373778D01*
X14119887Y23361166D01*
X14097708Y23350676D01*
X14074609Y23342411D01*
X14050810Y23336450D01*
X14026542Y23332850D01*
X14002038Y23331646D01*
X13102036Y23331646D01*
X13077532Y23332850D01*
X13053264Y23336450D01*
X13029465Y23342411D01*
X13006366Y23350676D01*
X12984187Y23361166D01*
X12963144Y23373778D01*
X12943438Y23388393D01*
X12925260Y23404869D01*
X12908784Y23423047D01*
X12894169Y23442753D01*
X12881557Y23463796D01*
X12871067Y23485975D01*
X12862802Y23509074D01*
X12856841Y23532873D01*
X12853241Y23557141D01*
X12852037Y23581645D01*
X12852037Y24231647D01*
X12853241Y24256151D01*
X12856841Y24280419D01*
X12862802Y24304218D01*
X12871067Y24327317D01*
X12881557Y24349496D01*
X12894169Y24370539D01*
X12908784Y24390245D01*
X12925260Y24408423D01*
X12943438Y24424899D01*
X12963144Y24439514D01*
X12984187Y24452126D01*
X13006366Y24462616D01*
X13029465Y24470881D01*
X13053264Y24476842D01*
X13077532Y24480442D01*
X13102036Y24481646D01*
X14002038Y24481646D01*
X14026542Y24480442D01*
X14026542Y24480442D01*
G37*
D14*
G04 #@! TD*
G04 #@! TO.P,R1,2*
G04 #@! TO.N,GND*
X13552037Y23906646D03*
D10*
G04 #@! TO.N,TRIG*
G04 #@! TO.C,R1*
G36*
X14026542Y26530442D02*
X14050810Y26526842D01*
X14074609Y26520881D01*
X14097708Y26512616D01*
X14119887Y26502126D01*
X14140930Y26489514D01*
X14160636Y26474899D01*
X14178814Y26458423D01*
X14195290Y26440245D01*
X14209905Y26420539D01*
X14222517Y26399496D01*
X14233007Y26377317D01*
X14241272Y26354218D01*
X14247233Y26330419D01*
X14250833Y26306151D01*
X14252037Y26281647D01*
X14252037Y25631645D01*
X14250833Y25607141D01*
X14247233Y25582873D01*
X14241272Y25559074D01*
X14233007Y25535975D01*
X14222517Y25513796D01*
X14209905Y25492753D01*
X14195290Y25473047D01*
X14178814Y25454869D01*
X14160636Y25438393D01*
X14140930Y25423778D01*
X14119887Y25411166D01*
X14097708Y25400676D01*
X14074609Y25392411D01*
X14050810Y25386450D01*
X14026542Y25382850D01*
X14002038Y25381646D01*
X13102036Y25381646D01*
X13077532Y25382850D01*
X13053264Y25386450D01*
X13029465Y25392411D01*
X13006366Y25400676D01*
X12984187Y25411166D01*
X12963144Y25423778D01*
X12943438Y25438393D01*
X12925260Y25454869D01*
X12908784Y25473047D01*
X12894169Y25492753D01*
X12881557Y25513796D01*
X12871067Y25535975D01*
X12862802Y25559074D01*
X12856841Y25582873D01*
X12853241Y25607141D01*
X12852037Y25631645D01*
X12852037Y26281647D01*
X12853241Y26306151D01*
X12856841Y26330419D01*
X12862802Y26354218D01*
X12871067Y26377317D01*
X12881557Y26399496D01*
X12894169Y26420539D01*
X12908784Y26440245D01*
X12925260Y26458423D01*
X12943438Y26474899D01*
X12963144Y26489514D01*
X12984187Y26502126D01*
X13006366Y26512616D01*
X13029465Y26520881D01*
X13053264Y26526842D01*
X13077532Y26530442D01*
X13102036Y26531646D01*
X14002038Y26531646D01*
X14026542Y26530442D01*
X14026542Y26530442D01*
G37*
D14*
G04 #@! TD*
G04 #@! TO.P,R1,1*
G04 #@! TO.N,TRIG*
X13552037Y25956646D03*
D10*
G04 #@! TO.N,ECHO*
G04 #@! TO.C,R2*
G36*
X51401505Y26236796D02*
X51425773Y26233196D01*
X51449572Y26227235D01*
X51472671Y26218970D01*
X51494850Y26208480D01*
X51515893Y26195868D01*
X51535599Y26181253D01*
X51553777Y26164777D01*
X51570253Y26146599D01*
X51584868Y26126893D01*
X51597480Y26105850D01*
X51607970Y26083671D01*
X51616235Y26060572D01*
X51622196Y26036773D01*
X51625796Y26012505D01*
X51627000Y25988001D01*
X51627000Y25337999D01*
X51625796Y25313495D01*
X51622196Y25289227D01*
X51616235Y25265428D01*
X51607970Y25242329D01*
X51597480Y25220150D01*
X51584868Y25199107D01*
X51570253Y25179401D01*
X51553777Y25161223D01*
X51535599Y25144747D01*
X51515893Y25130132D01*
X51494850Y25117520D01*
X51472671Y25107030D01*
X51449572Y25098765D01*
X51425773Y25092804D01*
X51401505Y25089204D01*
X51377001Y25088000D01*
X50476999Y25088000D01*
X50452495Y25089204D01*
X50428227Y25092804D01*
X50404428Y25098765D01*
X50381329Y25107030D01*
X50359150Y25117520D01*
X50338107Y25130132D01*
X50318401Y25144747D01*
X50300223Y25161223D01*
X50283747Y25179401D01*
X50269132Y25199107D01*
X50256520Y25220150D01*
X50246030Y25242329D01*
X50237765Y25265428D01*
X50231804Y25289227D01*
X50228204Y25313495D01*
X50227000Y25337999D01*
X50227000Y25988001D01*
X50228204Y26012505D01*
X50231804Y26036773D01*
X50237765Y26060572D01*
X50246030Y26083671D01*
X50256520Y26105850D01*
X50269132Y26126893D01*
X50283747Y26146599D01*
X50300223Y26164777D01*
X50318401Y26181253D01*
X50338107Y26195868D01*
X50359150Y26208480D01*
X50381329Y26218970D01*
X50404428Y26227235D01*
X50428227Y26233196D01*
X50452495Y26236796D01*
X50476999Y26238000D01*
X51377001Y26238000D01*
X51401505Y26236796D01*
X51401505Y26236796D01*
G37*
D14*
G04 #@! TD*
G04 #@! TO.P,R2,1*
G04 #@! TO.N,ECHO*
X50927000Y25663000D03*
D10*
G04 #@! TO.N,GND*
G04 #@! TO.C,R2*
G36*
X51401505Y24186796D02*
X51425773Y24183196D01*
X51449572Y24177235D01*
X51472671Y24168970D01*
X51494850Y24158480D01*
X51515893Y24145868D01*
X51535599Y24131253D01*
X51553777Y24114777D01*
X51570253Y24096599D01*
X51584868Y24076893D01*
X51597480Y24055850D01*
X51607970Y24033671D01*
X51616235Y24010572D01*
X51622196Y23986773D01*
X51625796Y23962505D01*
X51627000Y23938001D01*
X51627000Y23287999D01*
X51625796Y23263495D01*
X51622196Y23239227D01*
X51616235Y23215428D01*
X51607970Y23192329D01*
X51597480Y23170150D01*
X51584868Y23149107D01*
X51570253Y23129401D01*
X51553777Y23111223D01*
X51535599Y23094747D01*
X51515893Y23080132D01*
X51494850Y23067520D01*
X51472671Y23057030D01*
X51449572Y23048765D01*
X51425773Y23042804D01*
X51401505Y23039204D01*
X51377001Y23038000D01*
X50476999Y23038000D01*
X50452495Y23039204D01*
X50428227Y23042804D01*
X50404428Y23048765D01*
X50381329Y23057030D01*
X50359150Y23067520D01*
X50338107Y23080132D01*
X50318401Y23094747D01*
X50300223Y23111223D01*
X50283747Y23129401D01*
X50269132Y23149107D01*
X50256520Y23170150D01*
X50246030Y23192329D01*
X50237765Y23215428D01*
X50231804Y23239227D01*
X50228204Y23263495D01*
X50227000Y23287999D01*
X50227000Y23938001D01*
X50228204Y23962505D01*
X50231804Y23986773D01*
X50237765Y24010572D01*
X50246030Y24033671D01*
X50256520Y24055850D01*
X50269132Y24076893D01*
X50283747Y24096599D01*
X50300223Y24114777D01*
X50318401Y24131253D01*
X50338107Y24145868D01*
X50359150Y24158480D01*
X50381329Y24168970D01*
X50404428Y24177235D01*
X50428227Y24183196D01*
X50452495Y24186796D01*
X50476999Y24188000D01*
X51377001Y24188000D01*
X51401505Y24186796D01*
X51401505Y24186796D01*
G37*
D14*
G04 #@! TD*
G04 #@! TO.P,R2,2*
G04 #@! TO.N,GND*
X50927000Y23613000D03*
D21*
G04 #@! TO.N,ECHO*
X50546000Y29210000D02*
X49055000Y29210000D01*
X50927000Y25663000D02*
X50927000Y28829000D01*
X50927000Y28829000D02*
X50546000Y29210000D01*
X48641000Y22352000D02*
X48641000Y24892000D01*
X49412000Y25663000D02*
X50927000Y25663000D01*
X33782000Y14351000D02*
X39116000Y19685000D01*
X48641000Y24892000D02*
X49412000Y25663000D01*
X39116000Y19685000D02*
X45974000Y19685000D01*
X45974000Y19685000D02*
X48641000Y22352000D01*
X33859000Y14274000D02*
X33782000Y14351000D01*
X33859000Y12246000D02*
X33859000Y14274000D01*
G04 #@! TO.N,GND*
X34544000Y28575000D02*
X34544000Y31877000D01*
X34544000Y31877000D02*
X35814000Y33147000D01*
X29394001Y30678997D02*
X29394001Y32962999D01*
X30747999Y29324999D02*
X29394001Y30678997D01*
X32004000Y28575000D02*
X31254001Y29324999D01*
X31254001Y29324999D02*
X30747999Y29324999D01*
X34026000Y44836000D02*
X34529000Y45339000D01*
X34026000Y43561000D02*
X34026000Y44836000D01*
X34529000Y45339000D02*
X44577000Y45339000D01*
G04 #@! TO.N,TRIG*
X13552037Y25956646D02*
X13552037Y28478646D01*
X14060037Y28986646D02*
X15424037Y28986646D01*
X13552037Y28478646D02*
X14060037Y28986646D01*
X17622354Y20350646D02*
X28702000Y9271000D01*
X28702000Y9271000D02*
X30607000Y9271000D01*
X31319000Y9983000D02*
X31319000Y12246000D01*
X30607000Y9271000D02*
X31319000Y9983000D01*
X17083708Y28986646D02*
X17622354Y28448000D01*
X15424037Y28986646D02*
X17083708Y28986646D01*
X17622354Y28448000D02*
X17622354Y20350646D01*
G04 #@! TO.N,ECHO+*
X40395000Y28575000D02*
X40513000Y28693000D01*
X37084000Y28575000D02*
X40395000Y28575000D01*
X41021000Y28185000D02*
X40513000Y28693000D01*
X41030000Y29210000D02*
X40513000Y28693000D01*
X43655000Y29210000D02*
X41030000Y29210000D01*
G04 #@! TO.N,ECHO-*
X40141000Y31115000D02*
X40513000Y30743000D01*
X35814000Y31115000D02*
X40141000Y31115000D01*
X40776000Y30480000D02*
X40513000Y30743000D01*
X43655000Y30480000D02*
X40776000Y30480000D01*
G04 #@! TO.N,TRIG-*
X24375000Y28575000D02*
X24257000Y28693000D01*
X29464000Y28575000D02*
X24375000Y28575000D01*
X23749000Y28185000D02*
X24257000Y28693000D01*
X23963354Y28986646D02*
X24257000Y28693000D01*
X20824037Y28986646D02*
X23963354Y28986646D01*
G04 #@! TO.N,TRIG+*
X24629000Y31115000D02*
X24257000Y30743000D01*
X28194000Y31115000D02*
X24629000Y31115000D01*
X23770646Y30256646D02*
X24257000Y30743000D01*
X20824037Y30256646D02*
X23770646Y30256646D01*
G04 #@! TO.N,VCC*
X20824037Y33525646D02*
X20537037Y33812646D01*
X20824037Y31526646D02*
X20824037Y33525646D01*
X20528037Y33803646D02*
X20537037Y33812646D01*
X18251037Y33803646D02*
X20528037Y33803646D01*
X43679000Y25654000D02*
X43679000Y23241000D01*
X43655000Y25678000D02*
X43679000Y25654000D01*
X43655000Y27940000D02*
X43655000Y25678000D01*
X47581804Y36710745D02*
X48465804Y37594745D01*
X45011804Y36710745D02*
X47581804Y36710745D01*
X48768000Y37292549D02*
X48465804Y37594745D01*
X45720000Y28067000D02*
X45847000Y27940000D01*
X49055000Y27940000D02*
X45847000Y27940000D01*
X45847000Y27940000D02*
X43655000Y27940000D01*
X52096000Y36931000D02*
X52096000Y34163000D01*
X48465804Y37594745D02*
X51432255Y37594745D01*
X51432255Y37594745D02*
X52096000Y36931000D01*
X18251037Y33128646D02*
X18251037Y33803646D01*
X18272365Y33107318D02*
X18251037Y33128646D01*
X28779000Y12246000D02*
X28779000Y14782000D01*
X28779000Y14782000D02*
X18923000Y24638000D01*
X18923000Y31099365D02*
X18272365Y31750000D01*
X18923000Y24638000D02*
X18923000Y31099365D01*
X18272365Y31750000D02*
X18272365Y33107318D01*
X29110000Y15113000D02*
X28779000Y14782000D01*
X29836000Y15113000D02*
X29110000Y15113000D01*
X28779000Y14056000D02*
X29836000Y15113000D01*
X28779000Y12246000D02*
X28779000Y14056000D01*
X45011804Y34236196D02*
X45720000Y33528000D01*
X45011804Y36710745D02*
X45011804Y34236196D01*
X45720000Y33528000D02*
X45720000Y28067000D01*
X48465804Y37594745D02*
X48715804Y37594745D01*
X48715804Y37594745D02*
X51943000Y40821941D01*
X49641989Y45989011D02*
X20589011Y45989011D01*
X15621000Y36433683D02*
X17627665Y34427018D01*
X17627665Y34427018D02*
X18251037Y33803646D01*
X15621000Y41021000D02*
X15621000Y36433683D01*
X20589011Y45989011D02*
X15621000Y41021000D01*
X51943000Y43688000D02*
X49641989Y45989011D01*
X51943000Y40821941D02*
X51943000Y43688000D01*
G04 #@! TO.N,+12V*
X30734000Y31115000D02*
X33274000Y31115000D01*
X33274000Y31115000D02*
X33274000Y32175660D01*
X43332745Y42951745D02*
X45011804Y42951745D01*
X47708804Y42951745D02*
X48465804Y42194745D01*
X45011804Y42951745D02*
X47708804Y42951745D01*
X48557804Y42286745D02*
X48465804Y42194745D01*
X33274000Y31115000D02*
X33274000Y37592000D01*
X38633745Y42951745D02*
X45011804Y42951745D01*
X33274000Y37592000D02*
X38633745Y42951745D01*
G04 #@! TD*
D22*
G04 #@! TO.N,GND*
G36*
X20263210Y46775563D02*
X19987010Y46591012D01*
X19940426Y46521294D01*
X15088720Y41669587D01*
X15018999Y41623001D01*
X14834448Y41346800D01*
X14786000Y41103236D01*
X14786000Y41103233D01*
X14769643Y41021000D01*
X14786000Y40938767D01*
X14786001Y36515921D01*
X14769643Y36433683D01*
X14834448Y36107883D01*
X14864999Y36062161D01*
X15019000Y35831682D01*
X15088718Y35785098D01*
X16903597Y33970218D01*
X16903597Y33478645D01*
X16971910Y33135210D01*
X17166451Y32844060D01*
X17437366Y32663040D01*
X17437365Y31832234D01*
X17421008Y31750000D01*
X17437365Y31667767D01*
X17437365Y31667764D01*
X17485813Y31424200D01*
X17670364Y31147999D01*
X17740085Y31101413D01*
X18088001Y30753496D01*
X18088001Y29163222D01*
X17732295Y29518927D01*
X17685709Y29588647D01*
X17409509Y29773198D01*
X17165945Y29821646D01*
X17165941Y29821646D01*
X17083708Y29838003D01*
X17001475Y29821646D01*
X16819624Y29821646D01*
X16846477Y29956646D01*
X16846477Y30556646D01*
X16797194Y30804411D01*
X16738905Y30891646D01*
X16797194Y30978881D01*
X16846477Y31226646D01*
X16846477Y31826646D01*
X16797194Y32074411D01*
X16656846Y32284455D01*
X16446802Y32424803D01*
X16199037Y32474086D01*
X14649037Y32474086D01*
X14401272Y32424803D01*
X14191228Y32284455D01*
X14050880Y32074411D01*
X14001597Y31826646D01*
X14001597Y31226646D01*
X14050880Y30978881D01*
X14109169Y30891646D01*
X14050880Y30804411D01*
X14001597Y30556646D01*
X14001597Y29956646D01*
X14026522Y29831337D01*
X13977803Y29821646D01*
X13977800Y29821646D01*
X13734236Y29773198D01*
X13458036Y29588647D01*
X13411451Y29518928D01*
X13019755Y29127231D01*
X12950037Y29080647D01*
X12903453Y29010929D01*
X12765485Y28804446D01*
X12700680Y28478646D01*
X12717038Y28396408D01*
X12717037Y27083001D01*
X12467451Y26916232D01*
X12272910Y26625082D01*
X12204597Y26281647D01*
X12204597Y25631645D01*
X12272910Y25288210D01*
X12467451Y24997060D01*
X12468634Y24996269D01*
X12313710Y24841344D01*
X12217037Y24607955D01*
X12217037Y24192396D01*
X12375787Y24033646D01*
X13425037Y24033646D01*
X13425037Y24053646D01*
X13679037Y24053646D01*
X13679037Y24033646D01*
X14728287Y24033646D01*
X14887037Y24192396D01*
X14887037Y24607955D01*
X14790364Y24841344D01*
X14635440Y24996269D01*
X14636623Y24997060D01*
X14831164Y25288210D01*
X14899477Y25631645D01*
X14899477Y26281647D01*
X14831164Y26625082D01*
X14726551Y26781646D01*
X15138287Y26781646D01*
X15297037Y26940396D01*
X15297037Y27589646D01*
X15277037Y27589646D01*
X15277037Y27843646D01*
X15297037Y27843646D01*
X15297037Y27863646D01*
X15551037Y27863646D01*
X15551037Y27843646D01*
X15571037Y27843646D01*
X15571037Y27589646D01*
X15551037Y27589646D01*
X15551037Y26940396D01*
X15709787Y26781646D01*
X16325346Y26781646D01*
X16558735Y26878319D01*
X16737364Y27056947D01*
X16787354Y27177634D01*
X16787355Y20432884D01*
X16770997Y20350646D01*
X16835802Y20024846D01*
X16943446Y19863746D01*
X17020354Y19748645D01*
X17090072Y19702061D01*
X28053415Y8738717D01*
X28099999Y8668999D01*
X28376199Y8484448D01*
X28619763Y8436000D01*
X28702000Y8419642D01*
X28784237Y8436000D01*
X30524767Y8436000D01*
X30607000Y8419643D01*
X30689233Y8436000D01*
X30689237Y8436000D01*
X30932801Y8484448D01*
X31209001Y8668999D01*
X31255587Y8738720D01*
X31851283Y9334415D01*
X31921001Y9380999D01*
X32105552Y9657199D01*
X32154000Y9900763D01*
X32154000Y9900766D01*
X32170357Y9982999D01*
X32154000Y10065232D01*
X32154000Y11105343D01*
X32503320Y11454663D01*
X32589000Y11661513D01*
X32674680Y11454663D01*
X33067663Y11061680D01*
X33581119Y10849000D01*
X34136881Y10849000D01*
X34650337Y11061680D01*
X34854444Y11265787D01*
X35598392Y11265787D01*
X35667857Y11023603D01*
X36191302Y10836856D01*
X36746368Y10864638D01*
X37130143Y11023603D01*
X37199608Y11265787D01*
X36399000Y12066395D01*
X35598392Y11265787D01*
X34854444Y11265787D01*
X35043320Y11454663D01*
X35122428Y11645647D01*
X35176603Y11514857D01*
X35418787Y11445392D01*
X36219395Y12246000D01*
X36578605Y12246000D01*
X37379213Y11445392D01*
X37621397Y11514857D01*
X37808144Y12038302D01*
X37780362Y12593368D01*
X37621397Y12977143D01*
X37379213Y13046608D01*
X36578605Y12246000D01*
X36219395Y12246000D01*
X35418787Y13046608D01*
X35176603Y12977143D01*
X35126465Y12836607D01*
X35043320Y13037337D01*
X34854444Y13226213D01*
X35598392Y13226213D01*
X36399000Y12425605D01*
X37199608Y13226213D01*
X37172357Y13321222D01*
X52148000Y13321222D01*
X52148000Y12670778D01*
X52396914Y12069847D01*
X52856847Y11609914D01*
X53457778Y11361000D01*
X54108222Y11361000D01*
X54709153Y11609914D01*
X55169086Y12069847D01*
X55418000Y12670778D01*
X55418000Y13321222D01*
X55169086Y13922153D01*
X54709153Y14382086D01*
X54108222Y14631000D01*
X53457778Y14631000D01*
X52856847Y14382086D01*
X52396914Y13922153D01*
X52148000Y13321222D01*
X37172357Y13321222D01*
X37130143Y13468397D01*
X36606698Y13655144D01*
X36051632Y13627362D01*
X35667857Y13468397D01*
X35598392Y13226213D01*
X34854444Y13226213D01*
X34694000Y13386657D01*
X34694000Y14082133D01*
X39461868Y18850000D01*
X45891767Y18850000D01*
X45974000Y18833643D01*
X46056233Y18850000D01*
X46056237Y18850000D01*
X46299801Y18898448D01*
X46576001Y19082999D01*
X46622587Y19152720D01*
X49173283Y21703415D01*
X49243001Y21749999D01*
X49427552Y22026199D01*
X49476000Y22269763D01*
X49476000Y22269764D01*
X49492358Y22352000D01*
X49476000Y22434237D01*
X49476000Y23327250D01*
X49592000Y23327250D01*
X49592000Y22911691D01*
X49688673Y22678302D01*
X49867301Y22499673D01*
X50100690Y22403000D01*
X50641250Y22403000D01*
X50800000Y22561750D01*
X50800000Y23486000D01*
X51054000Y23486000D01*
X51054000Y22561750D01*
X51212750Y22403000D01*
X51753310Y22403000D01*
X51986699Y22499673D01*
X52165327Y22678302D01*
X52262000Y22911691D01*
X52262000Y23327250D01*
X52103250Y23486000D01*
X51054000Y23486000D01*
X50800000Y23486000D01*
X49750750Y23486000D01*
X49592000Y23327250D01*
X49476000Y23327250D01*
X49476000Y24546133D01*
X49757868Y24828000D01*
X49759168Y24828000D01*
X49842414Y24703414D01*
X49843597Y24702623D01*
X49688673Y24547698D01*
X49592000Y24314309D01*
X49592000Y23898750D01*
X49750750Y23740000D01*
X50800000Y23740000D01*
X50800000Y23760000D01*
X51054000Y23760000D01*
X51054000Y23740000D01*
X52103250Y23740000D01*
X52262000Y23898750D01*
X52262000Y24314309D01*
X52165327Y24547698D01*
X52010403Y24702623D01*
X52011586Y24703414D01*
X52206127Y24994564D01*
X52274440Y25337999D01*
X52274440Y25988001D01*
X52206127Y26331436D01*
X52011586Y26622586D01*
X51762000Y26789355D01*
X51762000Y28746768D01*
X51778357Y28829001D01*
X51762000Y28911234D01*
X51762000Y28911237D01*
X51713552Y29154801D01*
X51529001Y29431001D01*
X51459282Y29477586D01*
X51194587Y29742280D01*
X51148001Y29812001D01*
X50871801Y29996552D01*
X50628237Y30045000D01*
X50628233Y30045000D01*
X50546000Y30061357D01*
X50463767Y30045000D01*
X50450587Y30045000D01*
X50477440Y30180000D01*
X50477440Y30321222D01*
X52148000Y30321222D01*
X52148000Y29670778D01*
X52396914Y29069847D01*
X52856847Y28609914D01*
X53457778Y28361000D01*
X54108222Y28361000D01*
X54709153Y28609914D01*
X55169086Y29069847D01*
X55418000Y29670778D01*
X55418000Y30321222D01*
X55169086Y30922153D01*
X54709153Y31382086D01*
X54108222Y31631000D01*
X53457778Y31631000D01*
X52856847Y31382086D01*
X52396914Y30922153D01*
X52148000Y30321222D01*
X50477440Y30321222D01*
X50477440Y30780000D01*
X50428157Y31027765D01*
X50375232Y31106972D01*
X50465000Y31323690D01*
X50465000Y31464250D01*
X50306250Y31623000D01*
X49182000Y31623000D01*
X49182000Y31603000D01*
X48928000Y31603000D01*
X48928000Y31623000D01*
X47803750Y31623000D01*
X47645000Y31464250D01*
X47645000Y31323690D01*
X47734768Y31106972D01*
X47681843Y31027765D01*
X47632560Y30780000D01*
X47632560Y30180000D01*
X47681843Y29932235D01*
X47740132Y29845000D01*
X47681843Y29757765D01*
X47632560Y29510000D01*
X47632560Y28910000D01*
X47659413Y28775000D01*
X46555000Y28775000D01*
X46555000Y32176310D01*
X47645000Y32176310D01*
X47645000Y32035750D01*
X47803750Y31877000D01*
X48928000Y31877000D01*
X48928000Y32526250D01*
X49182000Y32526250D01*
X49182000Y31877000D01*
X50306250Y31877000D01*
X50465000Y32035750D01*
X50465000Y32176310D01*
X50368327Y32409699D01*
X50189698Y32588327D01*
X49956309Y32685000D01*
X49340750Y32685000D01*
X49182000Y32526250D01*
X48928000Y32526250D01*
X48769250Y32685000D01*
X48153691Y32685000D01*
X47920302Y32588327D01*
X47741673Y32409699D01*
X47645000Y32176310D01*
X46555000Y32176310D01*
X46555000Y33445768D01*
X46571357Y33528001D01*
X46555000Y33610236D01*
X46555000Y33610237D01*
X46506552Y33853801D01*
X46490884Y33877250D01*
X46368584Y34060285D01*
X46368583Y34060286D01*
X46322001Y34130001D01*
X46252285Y34176583D01*
X45846804Y34582064D01*
X45846804Y35584390D01*
X46096390Y35751159D01*
X46179636Y35875745D01*
X47499571Y35875745D01*
X47581804Y35859388D01*
X47664037Y35875745D01*
X47664041Y35875745D01*
X47907605Y35924193D01*
X48183805Y36108744D01*
X48230391Y36178465D01*
X48249231Y36197305D01*
X49465804Y36197305D01*
X49713569Y36246588D01*
X49923613Y36386936D01*
X50063961Y36596980D01*
X50096337Y36759745D01*
X51086388Y36759745D01*
X51261000Y36585132D01*
X51261000Y35918804D01*
X51252565Y35917126D01*
X50961414Y35722586D01*
X50766874Y35431435D01*
X50698560Y35088000D01*
X50698560Y33238000D01*
X50766874Y32894565D01*
X50961414Y32603414D01*
X51252565Y32408874D01*
X51596000Y32340560D01*
X52596000Y32340560D01*
X52939435Y32408874D01*
X53230586Y32603414D01*
X53425126Y32894565D01*
X53493440Y33238000D01*
X53493440Y33877250D01*
X53961000Y33877250D01*
X53961000Y32861690D01*
X54057673Y32628301D01*
X54236302Y32449673D01*
X54469691Y32353000D01*
X55060250Y32353000D01*
X55219000Y32511750D01*
X55219000Y34036000D01*
X55473000Y34036000D01*
X55473000Y32511750D01*
X55631750Y32353000D01*
X56222309Y32353000D01*
X56455698Y32449673D01*
X56634327Y32628301D01*
X56731000Y32861690D01*
X56731000Y33877250D01*
X56572250Y34036000D01*
X55473000Y34036000D01*
X55219000Y34036000D01*
X54119750Y34036000D01*
X53961000Y33877250D01*
X53493440Y33877250D01*
X53493440Y35088000D01*
X53425126Y35431435D01*
X53403160Y35464310D01*
X53961000Y35464310D01*
X53961000Y34448750D01*
X54119750Y34290000D01*
X55219000Y34290000D01*
X55219000Y35814250D01*
X55473000Y35814250D01*
X55473000Y34290000D01*
X56572250Y34290000D01*
X56731000Y34448750D01*
X56731000Y35464310D01*
X56634327Y35697699D01*
X56455698Y35876327D01*
X56222309Y35973000D01*
X55631750Y35973000D01*
X55473000Y35814250D01*
X55219000Y35814250D01*
X55060250Y35973000D01*
X54469691Y35973000D01*
X54236302Y35876327D01*
X54057673Y35697699D01*
X53961000Y35464310D01*
X53403160Y35464310D01*
X53230586Y35722586D01*
X52939435Y35917126D01*
X52931000Y35918804D01*
X52931000Y36848768D01*
X52947357Y36931001D01*
X52931000Y37013236D01*
X52931000Y37013237D01*
X52882552Y37256801D01*
X52698001Y37533001D01*
X52628283Y37579585D01*
X52080842Y38127025D01*
X52034256Y38196746D01*
X51758056Y38381297D01*
X51514492Y38429745D01*
X51514488Y38429745D01*
X51432255Y38446102D01*
X51350022Y38429745D01*
X50731672Y38429745D01*
X51910922Y39608995D01*
X53130804Y39608995D01*
X53130804Y37868435D01*
X53227477Y37635046D01*
X53406106Y37456418D01*
X53639495Y37359745D01*
X54480054Y37359745D01*
X54638804Y37518495D01*
X54638804Y39767745D01*
X54892804Y39767745D01*
X54892804Y37518495D01*
X55051554Y37359745D01*
X55892113Y37359745D01*
X56125502Y37456418D01*
X56304131Y37635046D01*
X56400804Y37868435D01*
X56400804Y39608995D01*
X56242054Y39767745D01*
X54892804Y39767745D01*
X54638804Y39767745D01*
X53289554Y39767745D01*
X53130804Y39608995D01*
X51910922Y39608995D01*
X52475286Y40173358D01*
X52545001Y40219940D01*
X52729552Y40496140D01*
X52778000Y40739704D01*
X52778000Y40739707D01*
X52794357Y40821940D01*
X52778000Y40904173D01*
X52778000Y41921055D01*
X53130804Y41921055D01*
X53130804Y40180495D01*
X53289554Y40021745D01*
X54638804Y40021745D01*
X54638804Y42270995D01*
X54892804Y42270995D01*
X54892804Y40021745D01*
X56242054Y40021745D01*
X56400804Y40180495D01*
X56400804Y41921055D01*
X56304131Y42154444D01*
X56125502Y42333072D01*
X55892113Y42429745D01*
X55051554Y42429745D01*
X54892804Y42270995D01*
X54638804Y42270995D01*
X54480054Y42429745D01*
X53639495Y42429745D01*
X53406106Y42333072D01*
X53227477Y42154444D01*
X53130804Y41921055D01*
X52778000Y41921055D01*
X52778000Y43605763D01*
X52794358Y43688000D01*
X52756452Y43878569D01*
X60940000Y43878569D01*
X60940000Y42989431D01*
X61280259Y42167974D01*
X61908974Y41539259D01*
X62730431Y41199000D01*
X63619569Y41199000D01*
X64441026Y41539259D01*
X65069741Y42167974D01*
X65410000Y42989431D01*
X65410000Y43878569D01*
X65069741Y44700026D01*
X64441026Y45328741D01*
X63619569Y45669000D01*
X62730431Y45669000D01*
X61908974Y45328741D01*
X61280259Y44700026D01*
X60940000Y43878569D01*
X52756452Y43878569D01*
X52729552Y44013801D01*
X52668032Y44105872D01*
X52545001Y44290001D01*
X52475283Y44336585D01*
X50290576Y46521291D01*
X50243990Y46591012D01*
X49967790Y46775563D01*
X49905265Y46788000D01*
X65834194Y46788000D01*
X65587787Y710000D01*
X710000Y710000D01*
X710000Y3878569D01*
X940000Y3878569D01*
X940000Y2989431D01*
X1280259Y2167974D01*
X1908974Y1539259D01*
X2730431Y1199000D01*
X3619569Y1199000D01*
X4441026Y1539259D01*
X5069741Y2167974D01*
X5410000Y2989431D01*
X5410000Y3878569D01*
X60940000Y3878569D01*
X60940000Y2989431D01*
X61280259Y2167974D01*
X61908974Y1539259D01*
X62730431Y1199000D01*
X63619569Y1199000D01*
X64441026Y1539259D01*
X65069741Y2167974D01*
X65410000Y2989431D01*
X65410000Y3878569D01*
X65069741Y4700026D01*
X64441026Y5328741D01*
X63619569Y5669000D01*
X62730431Y5669000D01*
X61908974Y5328741D01*
X61280259Y4700026D01*
X60940000Y3878569D01*
X5410000Y3878569D01*
X5069741Y4700026D01*
X4441026Y5328741D01*
X3619569Y5669000D01*
X2730431Y5669000D01*
X1908974Y5328741D01*
X1280259Y4700026D01*
X940000Y3878569D01*
X710000Y3878569D01*
X710000Y13321222D01*
X9898000Y13321222D01*
X9898000Y12670778D01*
X10146914Y12069847D01*
X10606847Y11609914D01*
X11207778Y11361000D01*
X11858222Y11361000D01*
X12459153Y11609914D01*
X12919086Y12069847D01*
X13168000Y12670778D01*
X13168000Y13321222D01*
X12919086Y13922153D01*
X12459153Y14382086D01*
X11858222Y14631000D01*
X11207778Y14631000D01*
X10606847Y14382086D01*
X10146914Y13922153D01*
X9898000Y13321222D01*
X710000Y13321222D01*
X710000Y23620896D01*
X12217037Y23620896D01*
X12217037Y23205337D01*
X12313710Y22971948D01*
X12492338Y22793319D01*
X12725727Y22696646D01*
X13266287Y22696646D01*
X13425037Y22855396D01*
X13425037Y23779646D01*
X13679037Y23779646D01*
X13679037Y22855396D01*
X13837787Y22696646D01*
X14378347Y22696646D01*
X14611736Y22793319D01*
X14790364Y22971948D01*
X14887037Y23205337D01*
X14887037Y23620896D01*
X14728287Y23779646D01*
X13679037Y23779646D01*
X13425037Y23779646D01*
X12375787Y23779646D01*
X12217037Y23620896D01*
X710000Y23620896D01*
X710000Y30321222D01*
X9898000Y30321222D01*
X9898000Y29670778D01*
X10146914Y29069847D01*
X10606847Y28609914D01*
X11207778Y28361000D01*
X11858222Y28361000D01*
X12459153Y28609914D01*
X12919086Y29069847D01*
X13168000Y29670778D01*
X13168000Y30321222D01*
X12919086Y30922153D01*
X12459153Y31382086D01*
X11858222Y31631000D01*
X11207778Y31631000D01*
X10606847Y31382086D01*
X10146914Y30922153D01*
X9898000Y30321222D01*
X710000Y30321222D01*
X710000Y43878569D01*
X940000Y43878569D01*
X940000Y42989431D01*
X1280259Y42167974D01*
X1908974Y41539259D01*
X2730431Y41199000D01*
X3619569Y41199000D01*
X4441026Y41539259D01*
X5069741Y42167974D01*
X5410000Y42989431D01*
X5410000Y43878569D01*
X5069741Y44700026D01*
X4441026Y45328741D01*
X3619569Y45669000D01*
X2730431Y45669000D01*
X1908974Y45328741D01*
X1280259Y44700026D01*
X940000Y43878569D01*
X710000Y43878569D01*
X710000Y46788000D01*
X20325735Y46788000D01*
X20263210Y46775563D01*
X20263210Y46775563D01*
G37*
X20263210Y46775563D02*
X19987010Y46591012D01*
X19940426Y46521294D01*
X15088720Y41669587D01*
X15018999Y41623001D01*
X14834448Y41346800D01*
X14786000Y41103236D01*
X14786000Y41103233D01*
X14769643Y41021000D01*
X14786000Y40938767D01*
X14786001Y36515921D01*
X14769643Y36433683D01*
X14834448Y36107883D01*
X14864999Y36062161D01*
X15019000Y35831682D01*
X15088718Y35785098D01*
X16903597Y33970218D01*
X16903597Y33478645D01*
X16971910Y33135210D01*
X17166451Y32844060D01*
X17437366Y32663040D01*
X17437365Y31832234D01*
X17421008Y31750000D01*
X17437365Y31667767D01*
X17437365Y31667764D01*
X17485813Y31424200D01*
X17670364Y31147999D01*
X17740085Y31101413D01*
X18088001Y30753496D01*
X18088001Y29163222D01*
X17732295Y29518927D01*
X17685709Y29588647D01*
X17409509Y29773198D01*
X17165945Y29821646D01*
X17165941Y29821646D01*
X17083708Y29838003D01*
X17001475Y29821646D01*
X16819624Y29821646D01*
X16846477Y29956646D01*
X16846477Y30556646D01*
X16797194Y30804411D01*
X16738905Y30891646D01*
X16797194Y30978881D01*
X16846477Y31226646D01*
X16846477Y31826646D01*
X16797194Y32074411D01*
X16656846Y32284455D01*
X16446802Y32424803D01*
X16199037Y32474086D01*
X14649037Y32474086D01*
X14401272Y32424803D01*
X14191228Y32284455D01*
X14050880Y32074411D01*
X14001597Y31826646D01*
X14001597Y31226646D01*
X14050880Y30978881D01*
X14109169Y30891646D01*
X14050880Y30804411D01*
X14001597Y30556646D01*
X14001597Y29956646D01*
X14026522Y29831337D01*
X13977803Y29821646D01*
X13977800Y29821646D01*
X13734236Y29773198D01*
X13458036Y29588647D01*
X13411451Y29518928D01*
X13019755Y29127231D01*
X12950037Y29080647D01*
X12903453Y29010929D01*
X12765485Y28804446D01*
X12700680Y28478646D01*
X12717038Y28396408D01*
X12717037Y27083001D01*
X12467451Y26916232D01*
X12272910Y26625082D01*
X12204597Y26281647D01*
X12204597Y25631645D01*
X12272910Y25288210D01*
X12467451Y24997060D01*
X12468634Y24996269D01*
X12313710Y24841344D01*
X12217037Y24607955D01*
X12217037Y24192396D01*
X12375787Y24033646D01*
X13425037Y24033646D01*
X13425037Y24053646D01*
X13679037Y24053646D01*
X13679037Y24033646D01*
X14728287Y24033646D01*
X14887037Y24192396D01*
X14887037Y24607955D01*
X14790364Y24841344D01*
X14635440Y24996269D01*
X14636623Y24997060D01*
X14831164Y25288210D01*
X14899477Y25631645D01*
X14899477Y26281647D01*
X14831164Y26625082D01*
X14726551Y26781646D01*
X15138287Y26781646D01*
X15297037Y26940396D01*
X15297037Y27589646D01*
X15277037Y27589646D01*
X15277037Y27843646D01*
X15297037Y27843646D01*
X15297037Y27863646D01*
X15551037Y27863646D01*
X15551037Y27843646D01*
X15571037Y27843646D01*
X15571037Y27589646D01*
X15551037Y27589646D01*
X15551037Y26940396D01*
X15709787Y26781646D01*
X16325346Y26781646D01*
X16558735Y26878319D01*
X16737364Y27056947D01*
X16787354Y27177634D01*
X16787355Y20432884D01*
X16770997Y20350646D01*
X16835802Y20024846D01*
X16943446Y19863746D01*
X17020354Y19748645D01*
X17090072Y19702061D01*
X28053415Y8738717D01*
X28099999Y8668999D01*
X28376199Y8484448D01*
X28619763Y8436000D01*
X28702000Y8419642D01*
X28784237Y8436000D01*
X30524767Y8436000D01*
X30607000Y8419643D01*
X30689233Y8436000D01*
X30689237Y8436000D01*
X30932801Y8484448D01*
X31209001Y8668999D01*
X31255587Y8738720D01*
X31851283Y9334415D01*
X31921001Y9380999D01*
X32105552Y9657199D01*
X32154000Y9900763D01*
X32154000Y9900766D01*
X32170357Y9982999D01*
X32154000Y10065232D01*
X32154000Y11105343D01*
X32503320Y11454663D01*
X32589000Y11661513D01*
X32674680Y11454663D01*
X33067663Y11061680D01*
X33581119Y10849000D01*
X34136881Y10849000D01*
X34650337Y11061680D01*
X34854444Y11265787D01*
X35598392Y11265787D01*
X35667857Y11023603D01*
X36191302Y10836856D01*
X36746368Y10864638D01*
X37130143Y11023603D01*
X37199608Y11265787D01*
X36399000Y12066395D01*
X35598392Y11265787D01*
X34854444Y11265787D01*
X35043320Y11454663D01*
X35122428Y11645647D01*
X35176603Y11514857D01*
X35418787Y11445392D01*
X36219395Y12246000D01*
X36578605Y12246000D01*
X37379213Y11445392D01*
X37621397Y11514857D01*
X37808144Y12038302D01*
X37780362Y12593368D01*
X37621397Y12977143D01*
X37379213Y13046608D01*
X36578605Y12246000D01*
X36219395Y12246000D01*
X35418787Y13046608D01*
X35176603Y12977143D01*
X35126465Y12836607D01*
X35043320Y13037337D01*
X34854444Y13226213D01*
X35598392Y13226213D01*
X36399000Y12425605D01*
X37199608Y13226213D01*
X37172357Y13321222D01*
X52148000Y13321222D01*
X52148000Y12670778D01*
X52396914Y12069847D01*
X52856847Y11609914D01*
X53457778Y11361000D01*
X54108222Y11361000D01*
X54709153Y11609914D01*
X55169086Y12069847D01*
X55418000Y12670778D01*
X55418000Y13321222D01*
X55169086Y13922153D01*
X54709153Y14382086D01*
X54108222Y14631000D01*
X53457778Y14631000D01*
X52856847Y14382086D01*
X52396914Y13922153D01*
X52148000Y13321222D01*
X37172357Y13321222D01*
X37130143Y13468397D01*
X36606698Y13655144D01*
X36051632Y13627362D01*
X35667857Y13468397D01*
X35598392Y13226213D01*
X34854444Y13226213D01*
X34694000Y13386657D01*
X34694000Y14082133D01*
X39461868Y18850000D01*
X45891767Y18850000D01*
X45974000Y18833643D01*
X46056233Y18850000D01*
X46056237Y18850000D01*
X46299801Y18898448D01*
X46576001Y19082999D01*
X46622587Y19152720D01*
X49173283Y21703415D01*
X49243001Y21749999D01*
X49427552Y22026199D01*
X49476000Y22269763D01*
X49476000Y22269764D01*
X49492358Y22352000D01*
X49476000Y22434237D01*
X49476000Y23327250D01*
X49592000Y23327250D01*
X49592000Y22911691D01*
X49688673Y22678302D01*
X49867301Y22499673D01*
X50100690Y22403000D01*
X50641250Y22403000D01*
X50800000Y22561750D01*
X50800000Y23486000D01*
X51054000Y23486000D01*
X51054000Y22561750D01*
X51212750Y22403000D01*
X51753310Y22403000D01*
X51986699Y22499673D01*
X52165327Y22678302D01*
X52262000Y22911691D01*
X52262000Y23327250D01*
X52103250Y23486000D01*
X51054000Y23486000D01*
X50800000Y23486000D01*
X49750750Y23486000D01*
X49592000Y23327250D01*
X49476000Y23327250D01*
X49476000Y24546133D01*
X49757868Y24828000D01*
X49759168Y24828000D01*
X49842414Y24703414D01*
X49843597Y24702623D01*
X49688673Y24547698D01*
X49592000Y24314309D01*
X49592000Y23898750D01*
X49750750Y23740000D01*
X50800000Y23740000D01*
X50800000Y23760000D01*
X51054000Y23760000D01*
X51054000Y23740000D01*
X52103250Y23740000D01*
X52262000Y23898750D01*
X52262000Y24314309D01*
X52165327Y24547698D01*
X52010403Y24702623D01*
X52011586Y24703414D01*
X52206127Y24994564D01*
X52274440Y25337999D01*
X52274440Y25988001D01*
X52206127Y26331436D01*
X52011586Y26622586D01*
X51762000Y26789355D01*
X51762000Y28746768D01*
X51778357Y28829001D01*
X51762000Y28911234D01*
X51762000Y28911237D01*
X51713552Y29154801D01*
X51529001Y29431001D01*
X51459282Y29477586D01*
X51194587Y29742280D01*
X51148001Y29812001D01*
X50871801Y29996552D01*
X50628237Y30045000D01*
X50628233Y30045000D01*
X50546000Y30061357D01*
X50463767Y30045000D01*
X50450587Y30045000D01*
X50477440Y30180000D01*
X50477440Y30321222D01*
X52148000Y30321222D01*
X52148000Y29670778D01*
X52396914Y29069847D01*
X52856847Y28609914D01*
X53457778Y28361000D01*
X54108222Y28361000D01*
X54709153Y28609914D01*
X55169086Y29069847D01*
X55418000Y29670778D01*
X55418000Y30321222D01*
X55169086Y30922153D01*
X54709153Y31382086D01*
X54108222Y31631000D01*
X53457778Y31631000D01*
X52856847Y31382086D01*
X52396914Y30922153D01*
X52148000Y30321222D01*
X50477440Y30321222D01*
X50477440Y30780000D01*
X50428157Y31027765D01*
X50375232Y31106972D01*
X50465000Y31323690D01*
X50465000Y31464250D01*
X50306250Y31623000D01*
X49182000Y31623000D01*
X49182000Y31603000D01*
X48928000Y31603000D01*
X48928000Y31623000D01*
X47803750Y31623000D01*
X47645000Y31464250D01*
X47645000Y31323690D01*
X47734768Y31106972D01*
X47681843Y31027765D01*
X47632560Y30780000D01*
X47632560Y30180000D01*
X47681843Y29932235D01*
X47740132Y29845000D01*
X47681843Y29757765D01*
X47632560Y29510000D01*
X47632560Y28910000D01*
X47659413Y28775000D01*
X46555000Y28775000D01*
X46555000Y32176310D01*
X47645000Y32176310D01*
X47645000Y32035750D01*
X47803750Y31877000D01*
X48928000Y31877000D01*
X48928000Y32526250D01*
X49182000Y32526250D01*
X49182000Y31877000D01*
X50306250Y31877000D01*
X50465000Y32035750D01*
X50465000Y32176310D01*
X50368327Y32409699D01*
X50189698Y32588327D01*
X49956309Y32685000D01*
X49340750Y32685000D01*
X49182000Y32526250D01*
X48928000Y32526250D01*
X48769250Y32685000D01*
X48153691Y32685000D01*
X47920302Y32588327D01*
X47741673Y32409699D01*
X47645000Y32176310D01*
X46555000Y32176310D01*
X46555000Y33445768D01*
X46571357Y33528001D01*
X46555000Y33610236D01*
X46555000Y33610237D01*
X46506552Y33853801D01*
X46490884Y33877250D01*
X46368584Y34060285D01*
X46368583Y34060286D01*
X46322001Y34130001D01*
X46252285Y34176583D01*
X45846804Y34582064D01*
X45846804Y35584390D01*
X46096390Y35751159D01*
X46179636Y35875745D01*
X47499571Y35875745D01*
X47581804Y35859388D01*
X47664037Y35875745D01*
X47664041Y35875745D01*
X47907605Y35924193D01*
X48183805Y36108744D01*
X48230391Y36178465D01*
X48249231Y36197305D01*
X49465804Y36197305D01*
X49713569Y36246588D01*
X49923613Y36386936D01*
X50063961Y36596980D01*
X50096337Y36759745D01*
X51086388Y36759745D01*
X51261000Y36585132D01*
X51261000Y35918804D01*
X51252565Y35917126D01*
X50961414Y35722586D01*
X50766874Y35431435D01*
X50698560Y35088000D01*
X50698560Y33238000D01*
X50766874Y32894565D01*
X50961414Y32603414D01*
X51252565Y32408874D01*
X51596000Y32340560D01*
X52596000Y32340560D01*
X52939435Y32408874D01*
X53230586Y32603414D01*
X53425126Y32894565D01*
X53493440Y33238000D01*
X53493440Y33877250D01*
X53961000Y33877250D01*
X53961000Y32861690D01*
X54057673Y32628301D01*
X54236302Y32449673D01*
X54469691Y32353000D01*
X55060250Y32353000D01*
X55219000Y32511750D01*
X55219000Y34036000D01*
X55473000Y34036000D01*
X55473000Y32511750D01*
X55631750Y32353000D01*
X56222309Y32353000D01*
X56455698Y32449673D01*
X56634327Y32628301D01*
X56731000Y32861690D01*
X56731000Y33877250D01*
X56572250Y34036000D01*
X55473000Y34036000D01*
X55219000Y34036000D01*
X54119750Y34036000D01*
X53961000Y33877250D01*
X53493440Y33877250D01*
X53493440Y35088000D01*
X53425126Y35431435D01*
X53403160Y35464310D01*
X53961000Y35464310D01*
X53961000Y34448750D01*
X54119750Y34290000D01*
X55219000Y34290000D01*
X55219000Y35814250D01*
X55473000Y35814250D01*
X55473000Y34290000D01*
X56572250Y34290000D01*
X56731000Y34448750D01*
X56731000Y35464310D01*
X56634327Y35697699D01*
X56455698Y35876327D01*
X56222309Y35973000D01*
X55631750Y35973000D01*
X55473000Y35814250D01*
X55219000Y35814250D01*
X55060250Y35973000D01*
X54469691Y35973000D01*
X54236302Y35876327D01*
X54057673Y35697699D01*
X53961000Y35464310D01*
X53403160Y35464310D01*
X53230586Y35722586D01*
X52939435Y35917126D01*
X52931000Y35918804D01*
X52931000Y36848768D01*
X52947357Y36931001D01*
X52931000Y37013236D01*
X52931000Y37013237D01*
X52882552Y37256801D01*
X52698001Y37533001D01*
X52628283Y37579585D01*
X52080842Y38127025D01*
X52034256Y38196746D01*
X51758056Y38381297D01*
X51514492Y38429745D01*
X51514488Y38429745D01*
X51432255Y38446102D01*
X51350022Y38429745D01*
X50731672Y38429745D01*
X51910922Y39608995D01*
X53130804Y39608995D01*
X53130804Y37868435D01*
X53227477Y37635046D01*
X53406106Y37456418D01*
X53639495Y37359745D01*
X54480054Y37359745D01*
X54638804Y37518495D01*
X54638804Y39767745D01*
X54892804Y39767745D01*
X54892804Y37518495D01*
X55051554Y37359745D01*
X55892113Y37359745D01*
X56125502Y37456418D01*
X56304131Y37635046D01*
X56400804Y37868435D01*
X56400804Y39608995D01*
X56242054Y39767745D01*
X54892804Y39767745D01*
X54638804Y39767745D01*
X53289554Y39767745D01*
X53130804Y39608995D01*
X51910922Y39608995D01*
X52475286Y40173358D01*
X52545001Y40219940D01*
X52729552Y40496140D01*
X52778000Y40739704D01*
X52778000Y40739707D01*
X52794357Y40821940D01*
X52778000Y40904173D01*
X52778000Y41921055D01*
X53130804Y41921055D01*
X53130804Y40180495D01*
X53289554Y40021745D01*
X54638804Y40021745D01*
X54638804Y42270995D01*
X54892804Y42270995D01*
X54892804Y40021745D01*
X56242054Y40021745D01*
X56400804Y40180495D01*
X56400804Y41921055D01*
X56304131Y42154444D01*
X56125502Y42333072D01*
X55892113Y42429745D01*
X55051554Y42429745D01*
X54892804Y42270995D01*
X54638804Y42270995D01*
X54480054Y42429745D01*
X53639495Y42429745D01*
X53406106Y42333072D01*
X53227477Y42154444D01*
X53130804Y41921055D01*
X52778000Y41921055D01*
X52778000Y43605763D01*
X52794358Y43688000D01*
X52756452Y43878569D01*
X60940000Y43878569D01*
X60940000Y42989431D01*
X61280259Y42167974D01*
X61908974Y41539259D01*
X62730431Y41199000D01*
X63619569Y41199000D01*
X64441026Y41539259D01*
X65069741Y42167974D01*
X65410000Y42989431D01*
X65410000Y43878569D01*
X65069741Y44700026D01*
X64441026Y45328741D01*
X63619569Y45669000D01*
X62730431Y45669000D01*
X61908974Y45328741D01*
X61280259Y44700026D01*
X60940000Y43878569D01*
X52756452Y43878569D01*
X52729552Y44013801D01*
X52668032Y44105872D01*
X52545001Y44290001D01*
X52475283Y44336585D01*
X50290576Y46521291D01*
X50243990Y46591012D01*
X49967790Y46775563D01*
X49905265Y46788000D01*
X65834194Y46788000D01*
X65587787Y710000D01*
X710000Y710000D01*
X710000Y3878569D01*
X940000Y3878569D01*
X940000Y2989431D01*
X1280259Y2167974D01*
X1908974Y1539259D01*
X2730431Y1199000D01*
X3619569Y1199000D01*
X4441026Y1539259D01*
X5069741Y2167974D01*
X5410000Y2989431D01*
X5410000Y3878569D01*
X60940000Y3878569D01*
X60940000Y2989431D01*
X61280259Y2167974D01*
X61908974Y1539259D01*
X62730431Y1199000D01*
X63619569Y1199000D01*
X64441026Y1539259D01*
X65069741Y2167974D01*
X65410000Y2989431D01*
X65410000Y3878569D01*
X65069741Y4700026D01*
X64441026Y5328741D01*
X63619569Y5669000D01*
X62730431Y5669000D01*
X61908974Y5328741D01*
X61280259Y4700026D01*
X60940000Y3878569D01*
X5410000Y3878569D01*
X5069741Y4700026D01*
X4441026Y5328741D01*
X3619569Y5669000D01*
X2730431Y5669000D01*
X1908974Y5328741D01*
X1280259Y4700026D01*
X940000Y3878569D01*
X710000Y3878569D01*
X710000Y13321222D01*
X9898000Y13321222D01*
X9898000Y12670778D01*
X10146914Y12069847D01*
X10606847Y11609914D01*
X11207778Y11361000D01*
X11858222Y11361000D01*
X12459153Y11609914D01*
X12919086Y12069847D01*
X13168000Y12670778D01*
X13168000Y13321222D01*
X12919086Y13922153D01*
X12459153Y14382086D01*
X11858222Y14631000D01*
X11207778Y14631000D01*
X10606847Y14382086D01*
X10146914Y13922153D01*
X9898000Y13321222D01*
X710000Y13321222D01*
X710000Y23620896D01*
X12217037Y23620896D01*
X12217037Y23205337D01*
X12313710Y22971948D01*
X12492338Y22793319D01*
X12725727Y22696646D01*
X13266287Y22696646D01*
X13425037Y22855396D01*
X13425037Y23779646D01*
X13679037Y23779646D01*
X13679037Y22855396D01*
X13837787Y22696646D01*
X14378347Y22696646D01*
X14611736Y22793319D01*
X14790364Y22971948D01*
X14887037Y23205337D01*
X14887037Y23620896D01*
X14728287Y23779646D01*
X13679037Y23779646D01*
X13425037Y23779646D01*
X12375787Y23779646D01*
X12217037Y23620896D01*
X710000Y23620896D01*
X710000Y30321222D01*
X9898000Y30321222D01*
X9898000Y29670778D01*
X10146914Y29069847D01*
X10606847Y28609914D01*
X11207778Y28361000D01*
X11858222Y28361000D01*
X12459153Y28609914D01*
X12919086Y29069847D01*
X13168000Y29670778D01*
X13168000Y30321222D01*
X12919086Y30922153D01*
X12459153Y31382086D01*
X11858222Y31631000D01*
X11207778Y31631000D01*
X10606847Y31382086D01*
X10146914Y30922153D01*
X9898000Y30321222D01*
X710000Y30321222D01*
X710000Y43878569D01*
X940000Y43878569D01*
X940000Y42989431D01*
X1280259Y42167974D01*
X1908974Y41539259D01*
X2730431Y41199000D01*
X3619569Y41199000D01*
X4441026Y41539259D01*
X5069741Y42167974D01*
X5410000Y42989431D01*
X5410000Y43878569D01*
X5069741Y44700026D01*
X4441026Y45328741D01*
X3619569Y45669000D01*
X2730431Y45669000D01*
X1908974Y45328741D01*
X1280259Y44700026D01*
X940000Y43878569D01*
X710000Y43878569D01*
X710000Y46788000D01*
X20325735Y46788000D01*
X20263210Y46775563D01*
G36*
X34639853Y30330460D02*
X35029460Y29940853D01*
X35538506Y29730000D01*
X36089494Y29730000D01*
X36598540Y29940853D01*
X36937687Y30280000D01*
X39193010Y30280000D01*
X39233873Y30074564D01*
X39428414Y29783414D01*
X39526313Y29718000D01*
X39428414Y29652586D01*
X39266323Y29410000D01*
X38207687Y29410000D01*
X37868540Y29749147D01*
X37359494Y29960000D01*
X36808506Y29960000D01*
X36299460Y29749147D01*
X35909853Y29359540D01*
X35820603Y29144070D01*
X35756460Y29298923D01*
X35515517Y29366912D01*
X34723605Y28575000D01*
X35515517Y27783088D01*
X35756460Y27851077D01*
X35815745Y28017658D01*
X35909853Y27790460D01*
X36299460Y27400853D01*
X36808506Y27190000D01*
X37359494Y27190000D01*
X37868540Y27400853D01*
X38207687Y27740000D01*
X39424013Y27740000D01*
X39428414Y27733414D01*
X39719564Y27538873D01*
X40062999Y27470560D01*
X40587276Y27470560D01*
X40695199Y27398448D01*
X41020999Y27333643D01*
X41346799Y27398448D01*
X41623000Y27583000D01*
X41807552Y27859201D01*
X41872357Y28185001D01*
X41848198Y28306456D01*
X41860440Y28367999D01*
X41860440Y28375000D01*
X42259413Y28375000D01*
X42232560Y28240000D01*
X42232560Y27640000D01*
X42281843Y27392235D01*
X42422191Y27182191D01*
X42632235Y27041843D01*
X42820000Y27004495D01*
X42820001Y26805796D01*
X42719414Y26738586D01*
X42524873Y26447436D01*
X42456560Y26104001D01*
X42456560Y25203999D01*
X42524873Y24860564D01*
X42719414Y24569414D01*
X42844000Y24486168D01*
X42844001Y24408832D01*
X42719414Y24325586D01*
X42524873Y24034436D01*
X42456560Y23691001D01*
X42456560Y22790999D01*
X42524873Y22447564D01*
X42719414Y22156414D01*
X43010564Y21961873D01*
X43353999Y21893560D01*
X44004001Y21893560D01*
X44347436Y21961873D01*
X44638586Y22156414D01*
X44639377Y22157597D01*
X44794302Y22002673D01*
X45027691Y21906000D01*
X45443250Y21906000D01*
X45602000Y22064750D01*
X45602000Y23114000D01*
X45856000Y23114000D01*
X45856000Y22064750D01*
X46014750Y21906000D01*
X46430309Y21906000D01*
X46663698Y22002673D01*
X46842327Y22181301D01*
X46939000Y22414690D01*
X46939000Y22955250D01*
X46780250Y23114000D01*
X45856000Y23114000D01*
X45602000Y23114000D01*
X45582000Y23114000D01*
X45582000Y23368000D01*
X45602000Y23368000D01*
X45602000Y24417250D01*
X45571750Y24447500D01*
X45602000Y24477750D01*
X45602000Y25527000D01*
X45856000Y25527000D01*
X45856000Y24477750D01*
X45886250Y24447500D01*
X45856000Y24417250D01*
X45856000Y23368000D01*
X46780250Y23368000D01*
X46939000Y23526750D01*
X46939000Y24067310D01*
X46842327Y24300699D01*
X46695525Y24447500D01*
X46842327Y24594301D01*
X46939000Y24827690D01*
X46939000Y25368250D01*
X46780250Y25527000D01*
X45856000Y25527000D01*
X45602000Y25527000D01*
X45582000Y25527000D01*
X45582000Y25781000D01*
X45602000Y25781000D01*
X45602000Y26830250D01*
X45856000Y26830250D01*
X45856000Y25781000D01*
X46780250Y25781000D01*
X46939000Y25939750D01*
X46939000Y26480310D01*
X46842327Y26713699D01*
X46663698Y26892327D01*
X46430309Y26989000D01*
X46014750Y26989000D01*
X45856000Y26830250D01*
X45602000Y26830250D01*
X45443250Y26989000D01*
X45027691Y26989000D01*
X44794302Y26892327D01*
X44639377Y26737403D01*
X44638586Y26738586D01*
X44490000Y26837868D01*
X44490000Y27004495D01*
X44677765Y27041843D01*
X44772285Y27105000D01*
X45764766Y27105000D01*
X45846999Y27088643D01*
X45929232Y27105000D01*
X47937715Y27105000D01*
X48032235Y27041843D01*
X48280000Y26992560D01*
X49830000Y26992560D01*
X50077765Y27041843D01*
X50092000Y27051355D01*
X50092000Y26789355D01*
X49842414Y26622586D01*
X49759168Y26498000D01*
X49494237Y26498000D01*
X49412000Y26514358D01*
X49329763Y26498000D01*
X49086199Y26449552D01*
X48809999Y26265001D01*
X48763414Y26195282D01*
X48108718Y25540585D01*
X48039000Y25494001D01*
X47992416Y25424283D01*
X47854448Y25217800D01*
X47789643Y24892000D01*
X47806001Y24809762D01*
X47806000Y22697868D01*
X45628133Y20520000D01*
X39198232Y20520000D01*
X39115999Y20536357D01*
X39033766Y20520000D01*
X39033763Y20520000D01*
X38790199Y20471552D01*
X38513999Y20287001D01*
X38467415Y20217283D01*
X33249720Y14999587D01*
X33179999Y14953001D01*
X33095985Y14827265D01*
X32937250Y14986000D01*
X32013000Y14986000D01*
X32013000Y13936750D01*
X32171750Y13778000D01*
X32587309Y13778000D01*
X32820698Y13874673D01*
X32991429Y14045403D01*
X32995448Y14025200D01*
X33024001Y13982468D01*
X33024001Y13386658D01*
X32674680Y13037337D01*
X32589000Y12830487D01*
X32503320Y13037337D01*
X32110337Y13430320D01*
X31596881Y13643000D01*
X31041119Y13643000D01*
X30527663Y13430320D01*
X30134680Y13037337D01*
X30049000Y12830487D01*
X29963320Y13037337D01*
X29614000Y13386657D01*
X29614000Y13710133D01*
X29669427Y13765560D01*
X30161001Y13765560D01*
X30504436Y13833873D01*
X30795586Y14028414D01*
X30796377Y14029597D01*
X30951302Y13874673D01*
X31184691Y13778000D01*
X31600250Y13778000D01*
X31759000Y13936750D01*
X31759000Y14986000D01*
X31739000Y14986000D01*
X31739000Y15240000D01*
X31759000Y15240000D01*
X31759000Y16289250D01*
X32013000Y16289250D01*
X32013000Y15240000D01*
X32937250Y15240000D01*
X33096000Y15398750D01*
X33096000Y15939310D01*
X32999327Y16172699D01*
X32820698Y16351327D01*
X32587309Y16448000D01*
X32171750Y16448000D01*
X32013000Y16289250D01*
X31759000Y16289250D01*
X31600250Y16448000D01*
X31184691Y16448000D01*
X30951302Y16351327D01*
X30796377Y16196403D01*
X30795586Y16197586D01*
X30504436Y16392127D01*
X30161001Y16460440D01*
X29510999Y16460440D01*
X29167564Y16392127D01*
X28876414Y16197586D01*
X28743380Y15998488D01*
X19758000Y24983867D01*
X19758000Y26849879D01*
X19922728Y26781646D01*
X20538287Y26781646D01*
X20697037Y26940396D01*
X20697037Y27589646D01*
X20951037Y27589646D01*
X20951037Y26940396D01*
X21109787Y26781646D01*
X21725346Y26781646D01*
X21958735Y26878319D01*
X22137364Y27056947D01*
X22234037Y27290336D01*
X22234037Y27430896D01*
X22075287Y27589646D01*
X20951037Y27589646D01*
X20697037Y27589646D01*
X20677037Y27589646D01*
X20677037Y27843646D01*
X20697037Y27843646D01*
X20697037Y27863646D01*
X20951037Y27863646D01*
X20951037Y27843646D01*
X22075287Y27843646D01*
X22234037Y28002396D01*
X22234037Y28142956D01*
X22230437Y28151646D01*
X22904277Y28151646D01*
X22962448Y27859200D01*
X23146999Y27582999D01*
X23423200Y27398448D01*
X23749000Y27333643D01*
X24074800Y27398448D01*
X24182723Y27470560D01*
X24707001Y27470560D01*
X25050436Y27538873D01*
X25341586Y27733414D01*
X25345987Y27740000D01*
X28340313Y27740000D01*
X28679460Y27400853D01*
X29188506Y27190000D01*
X29739494Y27190000D01*
X30248540Y27400853D01*
X30451170Y27603483D01*
X31212088Y27603483D01*
X31280077Y27362540D01*
X31799171Y27177799D01*
X32349448Y27205770D01*
X32727923Y27362540D01*
X32795912Y27603483D01*
X33752088Y27603483D01*
X33820077Y27362540D01*
X34339171Y27177799D01*
X34889448Y27205770D01*
X35267923Y27362540D01*
X35335912Y27603483D01*
X34544000Y28395395D01*
X33752088Y27603483D01*
X32795912Y27603483D01*
X32004000Y28395395D01*
X31212088Y27603483D01*
X30451170Y27603483D01*
X30638147Y27790460D01*
X30727397Y28005930D01*
X30791540Y27851077D01*
X31032483Y27783088D01*
X31824395Y28575000D01*
X32183605Y28575000D01*
X32975517Y27783088D01*
X33216460Y27851077D01*
X33269642Y28000511D01*
X33331540Y27851077D01*
X33572483Y27783088D01*
X34364395Y28575000D01*
X33572483Y29366912D01*
X33331540Y29298923D01*
X33278358Y29149489D01*
X33216460Y29298923D01*
X32975517Y29366912D01*
X32183605Y28575000D01*
X31824395Y28575000D01*
X31032483Y29366912D01*
X30791540Y29298923D01*
X30732255Y29132342D01*
X30638147Y29359540D01*
X30451170Y29546517D01*
X31212088Y29546517D01*
X32004000Y28754605D01*
X32795912Y29546517D01*
X33752088Y29546517D01*
X34544000Y28754605D01*
X35335912Y29546517D01*
X35267923Y29787460D01*
X34748829Y29972201D01*
X34198552Y29944230D01*
X33820077Y29787460D01*
X33752088Y29546517D01*
X32795912Y29546517D01*
X32727923Y29787460D01*
X32208829Y29972201D01*
X31658552Y29944230D01*
X31280077Y29787460D01*
X31212088Y29546517D01*
X30451170Y29546517D01*
X30248540Y29749147D01*
X29739494Y29960000D01*
X29437095Y29960000D01*
X29542157Y30117235D01*
X29580469Y30309844D01*
X29949460Y29940853D01*
X30458506Y29730000D01*
X31009494Y29730000D01*
X31518540Y29940853D01*
X31857687Y30280000D01*
X32150313Y30280000D01*
X32489460Y29940853D01*
X32998506Y29730000D01*
X33549494Y29730000D01*
X34058540Y29940853D01*
X34448147Y30330460D01*
X34544000Y30561870D01*
X34639853Y30330460D01*
X34639853Y30330460D01*
G37*
X34639853Y30330460D02*
X35029460Y29940853D01*
X35538506Y29730000D01*
X36089494Y29730000D01*
X36598540Y29940853D01*
X36937687Y30280000D01*
X39193010Y30280000D01*
X39233873Y30074564D01*
X39428414Y29783414D01*
X39526313Y29718000D01*
X39428414Y29652586D01*
X39266323Y29410000D01*
X38207687Y29410000D01*
X37868540Y29749147D01*
X37359494Y29960000D01*
X36808506Y29960000D01*
X36299460Y29749147D01*
X35909853Y29359540D01*
X35820603Y29144070D01*
X35756460Y29298923D01*
X35515517Y29366912D01*
X34723605Y28575000D01*
X35515517Y27783088D01*
X35756460Y27851077D01*
X35815745Y28017658D01*
X35909853Y27790460D01*
X36299460Y27400853D01*
X36808506Y27190000D01*
X37359494Y27190000D01*
X37868540Y27400853D01*
X38207687Y27740000D01*
X39424013Y27740000D01*
X39428414Y27733414D01*
X39719564Y27538873D01*
X40062999Y27470560D01*
X40587276Y27470560D01*
X40695199Y27398448D01*
X41020999Y27333643D01*
X41346799Y27398448D01*
X41623000Y27583000D01*
X41807552Y27859201D01*
X41872357Y28185001D01*
X41848198Y28306456D01*
X41860440Y28367999D01*
X41860440Y28375000D01*
X42259413Y28375000D01*
X42232560Y28240000D01*
X42232560Y27640000D01*
X42281843Y27392235D01*
X42422191Y27182191D01*
X42632235Y27041843D01*
X42820000Y27004495D01*
X42820001Y26805796D01*
X42719414Y26738586D01*
X42524873Y26447436D01*
X42456560Y26104001D01*
X42456560Y25203999D01*
X42524873Y24860564D01*
X42719414Y24569414D01*
X42844000Y24486168D01*
X42844001Y24408832D01*
X42719414Y24325586D01*
X42524873Y24034436D01*
X42456560Y23691001D01*
X42456560Y22790999D01*
X42524873Y22447564D01*
X42719414Y22156414D01*
X43010564Y21961873D01*
X43353999Y21893560D01*
X44004001Y21893560D01*
X44347436Y21961873D01*
X44638586Y22156414D01*
X44639377Y22157597D01*
X44794302Y22002673D01*
X45027691Y21906000D01*
X45443250Y21906000D01*
X45602000Y22064750D01*
X45602000Y23114000D01*
X45856000Y23114000D01*
X45856000Y22064750D01*
X46014750Y21906000D01*
X46430309Y21906000D01*
X46663698Y22002673D01*
X46842327Y22181301D01*
X46939000Y22414690D01*
X46939000Y22955250D01*
X46780250Y23114000D01*
X45856000Y23114000D01*
X45602000Y23114000D01*
X45582000Y23114000D01*
X45582000Y23368000D01*
X45602000Y23368000D01*
X45602000Y24417250D01*
X45571750Y24447500D01*
X45602000Y24477750D01*
X45602000Y25527000D01*
X45856000Y25527000D01*
X45856000Y24477750D01*
X45886250Y24447500D01*
X45856000Y24417250D01*
X45856000Y23368000D01*
X46780250Y23368000D01*
X46939000Y23526750D01*
X46939000Y24067310D01*
X46842327Y24300699D01*
X46695525Y24447500D01*
X46842327Y24594301D01*
X46939000Y24827690D01*
X46939000Y25368250D01*
X46780250Y25527000D01*
X45856000Y25527000D01*
X45602000Y25527000D01*
X45582000Y25527000D01*
X45582000Y25781000D01*
X45602000Y25781000D01*
X45602000Y26830250D01*
X45856000Y26830250D01*
X45856000Y25781000D01*
X46780250Y25781000D01*
X46939000Y25939750D01*
X46939000Y26480310D01*
X46842327Y26713699D01*
X46663698Y26892327D01*
X46430309Y26989000D01*
X46014750Y26989000D01*
X45856000Y26830250D01*
X45602000Y26830250D01*
X45443250Y26989000D01*
X45027691Y26989000D01*
X44794302Y26892327D01*
X44639377Y26737403D01*
X44638586Y26738586D01*
X44490000Y26837868D01*
X44490000Y27004495D01*
X44677765Y27041843D01*
X44772285Y27105000D01*
X45764766Y27105000D01*
X45846999Y27088643D01*
X45929232Y27105000D01*
X47937715Y27105000D01*
X48032235Y27041843D01*
X48280000Y26992560D01*
X49830000Y26992560D01*
X50077765Y27041843D01*
X50092000Y27051355D01*
X50092000Y26789355D01*
X49842414Y26622586D01*
X49759168Y26498000D01*
X49494237Y26498000D01*
X49412000Y26514358D01*
X49329763Y26498000D01*
X49086199Y26449552D01*
X48809999Y26265001D01*
X48763414Y26195282D01*
X48108718Y25540585D01*
X48039000Y25494001D01*
X47992416Y25424283D01*
X47854448Y25217800D01*
X47789643Y24892000D01*
X47806001Y24809762D01*
X47806000Y22697868D01*
X45628133Y20520000D01*
X39198232Y20520000D01*
X39115999Y20536357D01*
X39033766Y20520000D01*
X39033763Y20520000D01*
X38790199Y20471552D01*
X38513999Y20287001D01*
X38467415Y20217283D01*
X33249720Y14999587D01*
X33179999Y14953001D01*
X33095985Y14827265D01*
X32937250Y14986000D01*
X32013000Y14986000D01*
X32013000Y13936750D01*
X32171750Y13778000D01*
X32587309Y13778000D01*
X32820698Y13874673D01*
X32991429Y14045403D01*
X32995448Y14025200D01*
X33024001Y13982468D01*
X33024001Y13386658D01*
X32674680Y13037337D01*
X32589000Y12830487D01*
X32503320Y13037337D01*
X32110337Y13430320D01*
X31596881Y13643000D01*
X31041119Y13643000D01*
X30527663Y13430320D01*
X30134680Y13037337D01*
X30049000Y12830487D01*
X29963320Y13037337D01*
X29614000Y13386657D01*
X29614000Y13710133D01*
X29669427Y13765560D01*
X30161001Y13765560D01*
X30504436Y13833873D01*
X30795586Y14028414D01*
X30796377Y14029597D01*
X30951302Y13874673D01*
X31184691Y13778000D01*
X31600250Y13778000D01*
X31759000Y13936750D01*
X31759000Y14986000D01*
X31739000Y14986000D01*
X31739000Y15240000D01*
X31759000Y15240000D01*
X31759000Y16289250D01*
X32013000Y16289250D01*
X32013000Y15240000D01*
X32937250Y15240000D01*
X33096000Y15398750D01*
X33096000Y15939310D01*
X32999327Y16172699D01*
X32820698Y16351327D01*
X32587309Y16448000D01*
X32171750Y16448000D01*
X32013000Y16289250D01*
X31759000Y16289250D01*
X31600250Y16448000D01*
X31184691Y16448000D01*
X30951302Y16351327D01*
X30796377Y16196403D01*
X30795586Y16197586D01*
X30504436Y16392127D01*
X30161001Y16460440D01*
X29510999Y16460440D01*
X29167564Y16392127D01*
X28876414Y16197586D01*
X28743380Y15998488D01*
X19758000Y24983867D01*
X19758000Y26849879D01*
X19922728Y26781646D01*
X20538287Y26781646D01*
X20697037Y26940396D01*
X20697037Y27589646D01*
X20951037Y27589646D01*
X20951037Y26940396D01*
X21109787Y26781646D01*
X21725346Y26781646D01*
X21958735Y26878319D01*
X22137364Y27056947D01*
X22234037Y27290336D01*
X22234037Y27430896D01*
X22075287Y27589646D01*
X20951037Y27589646D01*
X20697037Y27589646D01*
X20677037Y27589646D01*
X20677037Y27843646D01*
X20697037Y27843646D01*
X20697037Y27863646D01*
X20951037Y27863646D01*
X20951037Y27843646D01*
X22075287Y27843646D01*
X22234037Y28002396D01*
X22234037Y28142956D01*
X22230437Y28151646D01*
X22904277Y28151646D01*
X22962448Y27859200D01*
X23146999Y27582999D01*
X23423200Y27398448D01*
X23749000Y27333643D01*
X24074800Y27398448D01*
X24182723Y27470560D01*
X24707001Y27470560D01*
X25050436Y27538873D01*
X25341586Y27733414D01*
X25345987Y27740000D01*
X28340313Y27740000D01*
X28679460Y27400853D01*
X29188506Y27190000D01*
X29739494Y27190000D01*
X30248540Y27400853D01*
X30451170Y27603483D01*
X31212088Y27603483D01*
X31280077Y27362540D01*
X31799171Y27177799D01*
X32349448Y27205770D01*
X32727923Y27362540D01*
X32795912Y27603483D01*
X33752088Y27603483D01*
X33820077Y27362540D01*
X34339171Y27177799D01*
X34889448Y27205770D01*
X35267923Y27362540D01*
X35335912Y27603483D01*
X34544000Y28395395D01*
X33752088Y27603483D01*
X32795912Y27603483D01*
X32004000Y28395395D01*
X31212088Y27603483D01*
X30451170Y27603483D01*
X30638147Y27790460D01*
X30727397Y28005930D01*
X30791540Y27851077D01*
X31032483Y27783088D01*
X31824395Y28575000D01*
X32183605Y28575000D01*
X32975517Y27783088D01*
X33216460Y27851077D01*
X33269642Y28000511D01*
X33331540Y27851077D01*
X33572483Y27783088D01*
X34364395Y28575000D01*
X33572483Y29366912D01*
X33331540Y29298923D01*
X33278358Y29149489D01*
X33216460Y29298923D01*
X32975517Y29366912D01*
X32183605Y28575000D01*
X31824395Y28575000D01*
X31032483Y29366912D01*
X30791540Y29298923D01*
X30732255Y29132342D01*
X30638147Y29359540D01*
X30451170Y29546517D01*
X31212088Y29546517D01*
X32004000Y28754605D01*
X32795912Y29546517D01*
X33752088Y29546517D01*
X34544000Y28754605D01*
X35335912Y29546517D01*
X35267923Y29787460D01*
X34748829Y29972201D01*
X34198552Y29944230D01*
X33820077Y29787460D01*
X33752088Y29546517D01*
X32795912Y29546517D01*
X32727923Y29787460D01*
X32208829Y29972201D01*
X31658552Y29944230D01*
X31280077Y29787460D01*
X31212088Y29546517D01*
X30451170Y29546517D01*
X30248540Y29749147D01*
X29739494Y29960000D01*
X29437095Y29960000D01*
X29542157Y30117235D01*
X29580469Y30309844D01*
X29949460Y29940853D01*
X30458506Y29730000D01*
X31009494Y29730000D01*
X31518540Y29940853D01*
X31857687Y30280000D01*
X32150313Y30280000D01*
X32489460Y29940853D01*
X32998506Y29730000D01*
X33549494Y29730000D01*
X34058540Y29940853D01*
X34448147Y30330460D01*
X34544000Y30561870D01*
X34639853Y30330460D01*
G36*
X32362673Y45095699D02*
X32266000Y44862310D01*
X32266000Y43846750D01*
X32424750Y43688000D01*
X33899000Y43688000D01*
X33899000Y43708000D01*
X34153000Y43708000D01*
X34153000Y43688000D01*
X35627250Y43688000D01*
X35786000Y43846750D01*
X35786000Y44862310D01*
X35689327Y45095699D01*
X35631015Y45154011D01*
X37666438Y45154011D01*
X37616414Y45120586D01*
X37421873Y44829436D01*
X37353560Y44486001D01*
X37353560Y42852428D01*
X32741718Y38240585D01*
X32672000Y38194001D01*
X32625416Y38124283D01*
X32487448Y37917800D01*
X32422643Y37592000D01*
X32439001Y37509762D01*
X32439000Y32238687D01*
X32150313Y31950000D01*
X31857687Y31950000D01*
X31518540Y32289147D01*
X31009494Y32500000D01*
X30458506Y32500000D01*
X29949460Y32289147D01*
X29580469Y31920156D01*
X29542157Y32112765D01*
X29401809Y32322809D01*
X29191765Y32463157D01*
X28944000Y32512440D01*
X27444000Y32512440D01*
X27196235Y32463157D01*
X26986191Y32322809D01*
X26845843Y32112765D01*
X26813467Y31950000D01*
X24784624Y31950000D01*
X24707001Y31965440D01*
X24633609Y31965440D01*
X24628999Y31966357D01*
X24624389Y31965440D01*
X23806999Y31965440D01*
X23463564Y31897127D01*
X23172414Y31702586D01*
X22977873Y31411436D01*
X22914263Y31091646D01*
X22219624Y31091646D01*
X22246477Y31226646D01*
X22246477Y31826646D01*
X22197194Y32074411D01*
X22056846Y32284455D01*
X21846802Y32424803D01*
X21659037Y32462151D01*
X21659037Y32909054D01*
X21816164Y33144210D01*
X21884477Y33487645D01*
X21884477Y34137647D01*
X21816164Y34481082D01*
X21621623Y34772232D01*
X21620440Y34773023D01*
X21775364Y34927948D01*
X21872037Y35161337D01*
X21872037Y35576896D01*
X21713287Y35735646D01*
X20664037Y35735646D01*
X20664037Y35715646D01*
X20410037Y35715646D01*
X20410037Y35735646D01*
X19360787Y35735646D01*
X19351787Y35726646D01*
X18378037Y35726646D01*
X18378037Y35706646D01*
X18124037Y35706646D01*
X18124037Y35726646D01*
X18104037Y35726646D01*
X18104037Y35980646D01*
X18124037Y35980646D01*
X18124037Y36904896D01*
X18378037Y36904896D01*
X18378037Y35980646D01*
X19427287Y35980646D01*
X19436287Y35989646D01*
X20410037Y35989646D01*
X20410037Y36913896D01*
X20664037Y36913896D01*
X20664037Y35989646D01*
X21713287Y35989646D01*
X21872037Y36148396D01*
X21872037Y36563955D01*
X21775364Y36797344D01*
X21596736Y36975973D01*
X21363347Y37072646D01*
X20822787Y37072646D01*
X20664037Y36913896D01*
X20410037Y36913896D01*
X20251287Y37072646D01*
X19710727Y37072646D01*
X19477338Y36975973D01*
X19389537Y36888172D01*
X19310736Y36966973D01*
X19077347Y37063646D01*
X18536787Y37063646D01*
X18378037Y36904896D01*
X18124037Y36904896D01*
X17965287Y37063646D01*
X17424727Y37063646D01*
X17191338Y36966973D01*
X17012710Y36788344D01*
X16916037Y36554955D01*
X16916037Y36319513D01*
X16456000Y36779550D01*
X16456000Y37909569D01*
X24689000Y37909569D01*
X24689000Y37020431D01*
X25029259Y36198974D01*
X25657974Y35570259D01*
X26479431Y35230000D01*
X27368569Y35230000D01*
X28190026Y35570259D01*
X28818741Y36198974D01*
X29159000Y37020431D01*
X29159000Y37909569D01*
X28818741Y38731026D01*
X28190026Y39359741D01*
X27368569Y39700000D01*
X26479431Y39700000D01*
X25657974Y39359741D01*
X25029259Y38731026D01*
X24689000Y37909569D01*
X16456000Y37909569D01*
X16456000Y40675133D01*
X19056117Y43275250D01*
X32266000Y43275250D01*
X32266000Y42259690D01*
X32362673Y42026301D01*
X32541302Y41847673D01*
X32774691Y41751000D01*
X33740250Y41751000D01*
X33899000Y41909750D01*
X33899000Y43434000D01*
X34153000Y43434000D01*
X34153000Y41909750D01*
X34311750Y41751000D01*
X35277309Y41751000D01*
X35510698Y41847673D01*
X35689327Y42026301D01*
X35786000Y42259690D01*
X35786000Y43275250D01*
X35627250Y43434000D01*
X34153000Y43434000D01*
X33899000Y43434000D01*
X32424750Y43434000D01*
X32266000Y43275250D01*
X19056117Y43275250D01*
X20934879Y45154011D01*
X32420985Y45154011D01*
X32362673Y45095699D01*
X32362673Y45095699D01*
G37*
X32362673Y45095699D02*
X32266000Y44862310D01*
X32266000Y43846750D01*
X32424750Y43688000D01*
X33899000Y43688000D01*
X33899000Y43708000D01*
X34153000Y43708000D01*
X34153000Y43688000D01*
X35627250Y43688000D01*
X35786000Y43846750D01*
X35786000Y44862310D01*
X35689327Y45095699D01*
X35631015Y45154011D01*
X37666438Y45154011D01*
X37616414Y45120586D01*
X37421873Y44829436D01*
X37353560Y44486001D01*
X37353560Y42852428D01*
X32741718Y38240585D01*
X32672000Y38194001D01*
X32625416Y38124283D01*
X32487448Y37917800D01*
X32422643Y37592000D01*
X32439001Y37509762D01*
X32439000Y32238687D01*
X32150313Y31950000D01*
X31857687Y31950000D01*
X31518540Y32289147D01*
X31009494Y32500000D01*
X30458506Y32500000D01*
X29949460Y32289147D01*
X29580469Y31920156D01*
X29542157Y32112765D01*
X29401809Y32322809D01*
X29191765Y32463157D01*
X28944000Y32512440D01*
X27444000Y32512440D01*
X27196235Y32463157D01*
X26986191Y32322809D01*
X26845843Y32112765D01*
X26813467Y31950000D01*
X24784624Y31950000D01*
X24707001Y31965440D01*
X24633609Y31965440D01*
X24628999Y31966357D01*
X24624389Y31965440D01*
X23806999Y31965440D01*
X23463564Y31897127D01*
X23172414Y31702586D01*
X22977873Y31411436D01*
X22914263Y31091646D01*
X22219624Y31091646D01*
X22246477Y31226646D01*
X22246477Y31826646D01*
X22197194Y32074411D01*
X22056846Y32284455D01*
X21846802Y32424803D01*
X21659037Y32462151D01*
X21659037Y32909054D01*
X21816164Y33144210D01*
X21884477Y33487645D01*
X21884477Y34137647D01*
X21816164Y34481082D01*
X21621623Y34772232D01*
X21620440Y34773023D01*
X21775364Y34927948D01*
X21872037Y35161337D01*
X21872037Y35576896D01*
X21713287Y35735646D01*
X20664037Y35735646D01*
X20664037Y35715646D01*
X20410037Y35715646D01*
X20410037Y35735646D01*
X19360787Y35735646D01*
X19351787Y35726646D01*
X18378037Y35726646D01*
X18378037Y35706646D01*
X18124037Y35706646D01*
X18124037Y35726646D01*
X18104037Y35726646D01*
X18104037Y35980646D01*
X18124037Y35980646D01*
X18124037Y36904896D01*
X18378037Y36904896D01*
X18378037Y35980646D01*
X19427287Y35980646D01*
X19436287Y35989646D01*
X20410037Y35989646D01*
X20410037Y36913896D01*
X20664037Y36913896D01*
X20664037Y35989646D01*
X21713287Y35989646D01*
X21872037Y36148396D01*
X21872037Y36563955D01*
X21775364Y36797344D01*
X21596736Y36975973D01*
X21363347Y37072646D01*
X20822787Y37072646D01*
X20664037Y36913896D01*
X20410037Y36913896D01*
X20251287Y37072646D01*
X19710727Y37072646D01*
X19477338Y36975973D01*
X19389537Y36888172D01*
X19310736Y36966973D01*
X19077347Y37063646D01*
X18536787Y37063646D01*
X18378037Y36904896D01*
X18124037Y36904896D01*
X17965287Y37063646D01*
X17424727Y37063646D01*
X17191338Y36966973D01*
X17012710Y36788344D01*
X16916037Y36554955D01*
X16916037Y36319513D01*
X16456000Y36779550D01*
X16456000Y37909569D01*
X24689000Y37909569D01*
X24689000Y37020431D01*
X25029259Y36198974D01*
X25657974Y35570259D01*
X26479431Y35230000D01*
X27368569Y35230000D01*
X28190026Y35570259D01*
X28818741Y36198974D01*
X29159000Y37020431D01*
X29159000Y37909569D01*
X28818741Y38731026D01*
X28190026Y39359741D01*
X27368569Y39700000D01*
X26479431Y39700000D01*
X25657974Y39359741D01*
X25029259Y38731026D01*
X24689000Y37909569D01*
X16456000Y37909569D01*
X16456000Y40675133D01*
X19056117Y43275250D01*
X32266000Y43275250D01*
X32266000Y42259690D01*
X32362673Y42026301D01*
X32541302Y41847673D01*
X32774691Y41751000D01*
X33740250Y41751000D01*
X33899000Y41909750D01*
X33899000Y43434000D01*
X34153000Y43434000D01*
X34153000Y41909750D01*
X34311750Y41751000D01*
X35277309Y41751000D01*
X35510698Y41847673D01*
X35689327Y42026301D01*
X35786000Y42259690D01*
X35786000Y43275250D01*
X35627250Y43434000D01*
X34153000Y43434000D01*
X33899000Y43434000D01*
X32424750Y43434000D01*
X32266000Y43275250D01*
X19056117Y43275250D01*
X20934879Y45154011D01*
X32420985Y45154011D01*
X32362673Y45095699D01*
G36*
X43927218Y41992159D02*
X43928401Y41991368D01*
X43773477Y41836443D01*
X43676804Y41603054D01*
X43676804Y41187495D01*
X43835554Y41028745D01*
X44884804Y41028745D01*
X44884804Y41048745D01*
X45138804Y41048745D01*
X45138804Y41028745D01*
X46188054Y41028745D01*
X46346804Y41187495D01*
X46346804Y41603054D01*
X46250131Y41836443D01*
X46095207Y41991368D01*
X46096390Y41992159D01*
X46179636Y42116745D01*
X46818364Y42116745D01*
X46818364Y41444745D01*
X46867647Y41196980D01*
X46968731Y41045698D01*
X46927477Y41004444D01*
X46830804Y40771055D01*
X46830804Y40180495D01*
X46989554Y40021745D01*
X48338804Y40021745D01*
X48338804Y40041745D01*
X48592804Y40041745D01*
X48592804Y40021745D01*
X48612804Y40021745D01*
X48612804Y39767745D01*
X48592804Y39767745D01*
X48592804Y39747745D01*
X48338804Y39747745D01*
X48338804Y39767745D01*
X46989554Y39767745D01*
X46830804Y39608995D01*
X46830804Y39018435D01*
X46927477Y38785046D01*
X46968731Y38743792D01*
X46867647Y38592510D01*
X46818364Y38344745D01*
X46818364Y37545745D01*
X46179636Y37545745D01*
X46096390Y37670331D01*
X46095207Y37671122D01*
X46250131Y37826047D01*
X46346804Y38059436D01*
X46346804Y38474995D01*
X46188054Y38633745D01*
X45138804Y38633745D01*
X45138804Y38613745D01*
X44884804Y38613745D01*
X44884804Y38633745D01*
X43835554Y38633745D01*
X43676804Y38474995D01*
X43676804Y38059436D01*
X43773477Y37826047D01*
X43928401Y37671122D01*
X43927218Y37670331D01*
X43732677Y37379181D01*
X43664364Y37035746D01*
X43664364Y36385744D01*
X43732677Y36042309D01*
X43927218Y35751159D01*
X44176804Y35584390D01*
X44176805Y34318434D01*
X44160447Y34236196D01*
X44225252Y33910396D01*
X44314231Y33777230D01*
X44409804Y33634195D01*
X44479521Y33587611D01*
X44885000Y33182132D01*
X44885000Y32509686D01*
X44677765Y32648157D01*
X44430000Y32697440D01*
X42880000Y32697440D01*
X42632235Y32648157D01*
X42422191Y32507809D01*
X42281843Y32297765D01*
X42232560Y32050000D01*
X42232560Y31450000D01*
X42259413Y31315000D01*
X41811309Y31315000D01*
X41792127Y31411436D01*
X41597586Y31702586D01*
X41306436Y31897127D01*
X40963001Y31965440D01*
X40145610Y31965440D01*
X40141000Y31966357D01*
X40136390Y31965440D01*
X40062999Y31965440D01*
X39985376Y31950000D01*
X36937687Y31950000D01*
X36598540Y32289147D01*
X36089494Y32500000D01*
X35538506Y32500000D01*
X35029460Y32289147D01*
X34639853Y31899540D01*
X34544000Y31668130D01*
X34448147Y31899540D01*
X34109000Y32238687D01*
X34109000Y37246133D01*
X34772436Y37909569D01*
X36119000Y37909569D01*
X36119000Y37020431D01*
X36459259Y36198974D01*
X37087974Y35570259D01*
X37909431Y35230000D01*
X38798569Y35230000D01*
X39620026Y35570259D01*
X40248741Y36198974D01*
X40589000Y37020431D01*
X40589000Y37909569D01*
X40248741Y38731026D01*
X39620026Y39359741D01*
X38798569Y39700000D01*
X37909431Y39700000D01*
X37087974Y39359741D01*
X36459259Y38731026D01*
X36119000Y37909569D01*
X34772436Y37909569D01*
X37478862Y40615995D01*
X43676804Y40615995D01*
X43676804Y40200436D01*
X43773477Y39967047D01*
X43909278Y39831245D01*
X43773477Y39695443D01*
X43676804Y39462054D01*
X43676804Y39046495D01*
X43835554Y38887745D01*
X44884804Y38887745D01*
X44884804Y39811995D01*
X44865554Y39831245D01*
X44884804Y39850495D01*
X44884804Y40774745D01*
X45138804Y40774745D01*
X45138804Y39850495D01*
X45158054Y39831245D01*
X45138804Y39811995D01*
X45138804Y38887745D01*
X46188054Y38887745D01*
X46346804Y39046495D01*
X46346804Y39462054D01*
X46250131Y39695443D01*
X46114330Y39831245D01*
X46250131Y39967047D01*
X46346804Y40200436D01*
X46346804Y40615995D01*
X46188054Y40774745D01*
X45138804Y40774745D01*
X44884804Y40774745D01*
X43835554Y40774745D01*
X43676804Y40615995D01*
X37478862Y40615995D01*
X38601428Y41738560D01*
X40001001Y41738560D01*
X40344436Y41806873D01*
X40635586Y42001414D01*
X40712648Y42116745D01*
X43843972Y42116745D01*
X43927218Y41992159D01*
X43927218Y41992159D01*
G37*
X43927218Y41992159D02*
X43928401Y41991368D01*
X43773477Y41836443D01*
X43676804Y41603054D01*
X43676804Y41187495D01*
X43835554Y41028745D01*
X44884804Y41028745D01*
X44884804Y41048745D01*
X45138804Y41048745D01*
X45138804Y41028745D01*
X46188054Y41028745D01*
X46346804Y41187495D01*
X46346804Y41603054D01*
X46250131Y41836443D01*
X46095207Y41991368D01*
X46096390Y41992159D01*
X46179636Y42116745D01*
X46818364Y42116745D01*
X46818364Y41444745D01*
X46867647Y41196980D01*
X46968731Y41045698D01*
X46927477Y41004444D01*
X46830804Y40771055D01*
X46830804Y40180495D01*
X46989554Y40021745D01*
X48338804Y40021745D01*
X48338804Y40041745D01*
X48592804Y40041745D01*
X48592804Y40021745D01*
X48612804Y40021745D01*
X48612804Y39767745D01*
X48592804Y39767745D01*
X48592804Y39747745D01*
X48338804Y39747745D01*
X48338804Y39767745D01*
X46989554Y39767745D01*
X46830804Y39608995D01*
X46830804Y39018435D01*
X46927477Y38785046D01*
X46968731Y38743792D01*
X46867647Y38592510D01*
X46818364Y38344745D01*
X46818364Y37545745D01*
X46179636Y37545745D01*
X46096390Y37670331D01*
X46095207Y37671122D01*
X46250131Y37826047D01*
X46346804Y38059436D01*
X46346804Y38474995D01*
X46188054Y38633745D01*
X45138804Y38633745D01*
X45138804Y38613745D01*
X44884804Y38613745D01*
X44884804Y38633745D01*
X43835554Y38633745D01*
X43676804Y38474995D01*
X43676804Y38059436D01*
X43773477Y37826047D01*
X43928401Y37671122D01*
X43927218Y37670331D01*
X43732677Y37379181D01*
X43664364Y37035746D01*
X43664364Y36385744D01*
X43732677Y36042309D01*
X43927218Y35751159D01*
X44176804Y35584390D01*
X44176805Y34318434D01*
X44160447Y34236196D01*
X44225252Y33910396D01*
X44314231Y33777230D01*
X44409804Y33634195D01*
X44479521Y33587611D01*
X44885000Y33182132D01*
X44885000Y32509686D01*
X44677765Y32648157D01*
X44430000Y32697440D01*
X42880000Y32697440D01*
X42632235Y32648157D01*
X42422191Y32507809D01*
X42281843Y32297765D01*
X42232560Y32050000D01*
X42232560Y31450000D01*
X42259413Y31315000D01*
X41811309Y31315000D01*
X41792127Y31411436D01*
X41597586Y31702586D01*
X41306436Y31897127D01*
X40963001Y31965440D01*
X40145610Y31965440D01*
X40141000Y31966357D01*
X40136390Y31965440D01*
X40062999Y31965440D01*
X39985376Y31950000D01*
X36937687Y31950000D01*
X36598540Y32289147D01*
X36089494Y32500000D01*
X35538506Y32500000D01*
X35029460Y32289147D01*
X34639853Y31899540D01*
X34544000Y31668130D01*
X34448147Y31899540D01*
X34109000Y32238687D01*
X34109000Y37246133D01*
X34772436Y37909569D01*
X36119000Y37909569D01*
X36119000Y37020431D01*
X36459259Y36198974D01*
X37087974Y35570259D01*
X37909431Y35230000D01*
X38798569Y35230000D01*
X39620026Y35570259D01*
X40248741Y36198974D01*
X40589000Y37020431D01*
X40589000Y37909569D01*
X40248741Y38731026D01*
X39620026Y39359741D01*
X38798569Y39700000D01*
X37909431Y39700000D01*
X37087974Y39359741D01*
X36459259Y38731026D01*
X36119000Y37909569D01*
X34772436Y37909569D01*
X37478862Y40615995D01*
X43676804Y40615995D01*
X43676804Y40200436D01*
X43773477Y39967047D01*
X43909278Y39831245D01*
X43773477Y39695443D01*
X43676804Y39462054D01*
X43676804Y39046495D01*
X43835554Y38887745D01*
X44884804Y38887745D01*
X44884804Y39811995D01*
X44865554Y39831245D01*
X44884804Y39850495D01*
X44884804Y40774745D01*
X45138804Y40774745D01*
X45138804Y39850495D01*
X45158054Y39831245D01*
X45138804Y39811995D01*
X45138804Y38887745D01*
X46188054Y38887745D01*
X46346804Y39046495D01*
X46346804Y39462054D01*
X46250131Y39695443D01*
X46114330Y39831245D01*
X46250131Y39967047D01*
X46346804Y40200436D01*
X46346804Y40615995D01*
X46188054Y40774745D01*
X45138804Y40774745D01*
X44884804Y40774745D01*
X43835554Y40774745D01*
X43676804Y40615995D01*
X37478862Y40615995D01*
X38601428Y41738560D01*
X40001001Y41738560D01*
X40344436Y41806873D01*
X40635586Y42001414D01*
X40712648Y42116745D01*
X43843972Y42116745D01*
X43927218Y41992159D01*
G36*
X51108001Y43342131D02*
X51108000Y41167810D01*
X49961938Y40021747D01*
X49942056Y40021747D01*
X50100804Y40180495D01*
X50100804Y40771055D01*
X50004131Y41004444D01*
X49962877Y41045698D01*
X50063961Y41196980D01*
X50113244Y41444745D01*
X50113244Y42944745D01*
X50063961Y43192510D01*
X49923613Y43402554D01*
X49713569Y43542902D01*
X49465804Y43592185D01*
X48253277Y43592185D01*
X48034605Y43738297D01*
X47791041Y43786745D01*
X47791037Y43786745D01*
X47708804Y43803102D01*
X47626571Y43786745D01*
X46179636Y43786745D01*
X46096390Y43911331D01*
X45805240Y44105872D01*
X45461805Y44174185D01*
X44561803Y44174185D01*
X44218368Y44105872D01*
X43927218Y43911331D01*
X43843972Y43786745D01*
X40898440Y43786745D01*
X40898440Y44486001D01*
X40830127Y44829436D01*
X40635586Y45120586D01*
X40585562Y45154011D01*
X49296122Y45154011D01*
X51108001Y43342131D01*
X51108001Y43342131D01*
G37*
X51108001Y43342131D02*
X51108000Y41167810D01*
X49961938Y40021747D01*
X49942056Y40021747D01*
X50100804Y40180495D01*
X50100804Y40771055D01*
X50004131Y41004444D01*
X49962877Y41045698D01*
X50063961Y41196980D01*
X50113244Y41444745D01*
X50113244Y42944745D01*
X50063961Y43192510D01*
X49923613Y43402554D01*
X49713569Y43542902D01*
X49465804Y43592185D01*
X48253277Y43592185D01*
X48034605Y43738297D01*
X47791041Y43786745D01*
X47791037Y43786745D01*
X47708804Y43803102D01*
X47626571Y43786745D01*
X46179636Y43786745D01*
X46096390Y43911331D01*
X45805240Y44105872D01*
X45461805Y44174185D01*
X44561803Y44174185D01*
X44218368Y44105872D01*
X43927218Y43911331D01*
X43843972Y43786745D01*
X40898440Y43786745D01*
X40898440Y44486001D01*
X40830127Y44829436D01*
X40635586Y45120586D01*
X40585562Y45154011D01*
X49296122Y45154011D01*
X51108001Y43342131D01*
G04 #@! TD*
M02*
