G04 #@! TF.GenerationSoftware,KiCad,Pcbnew,(5.0.0)*
G04 #@! TF.CreationDate,2018-08-24T22:16:56+02:00*
G04 #@! TF.ProjectId,PullupCounter-MainBoard,50756C6C7570436F756E7465722D4D61,rev?*
G04 #@! TF.SameCoordinates,PX58c74b8PY7ecf228*
G04 #@! TF.FileFunction,Copper,L2,Bot,Signal*
G04 #@! TF.FilePolarity,Positive*
%FSLAX46Y46*%
G04 Gerber Fmt 4.6, Leading zero omitted, Abs format (unit mm)*
G04 Created by KiCad (PCBNEW (5.0.0)) date 08/24/18 22:16:56*
%MOMM*%
%LPD*%
G01*
G04 APERTURE LIST*
G04 #@! TA.AperFunction,ComponentPad*
%ADD10R,1.700000X1.700000*%
G04 #@! TD*
G04 #@! TA.AperFunction,ComponentPad*
%ADD11O,1.700000X1.700000*%
G04 #@! TD*
G04 #@! TA.AperFunction,ComponentPad*
%ADD12C,1.524000*%
G04 #@! TD*
G04 #@! TA.AperFunction,ComponentPad*
%ADD13C,1.000000*%
G04 #@! TD*
G04 #@! TA.AperFunction,Conductor*
%ADD14C,0.100000*%
G04 #@! TD*
G04 #@! TA.AperFunction,SMDPad,CuDef*
%ADD15C,1.500000*%
G04 #@! TD*
G04 #@! TA.AperFunction,ComponentPad*
%ADD16R,3.500000X3.500000*%
G04 #@! TD*
G04 #@! TA.AperFunction,ComponentPad*
%ADD17C,3.000000*%
G04 #@! TD*
G04 #@! TA.AperFunction,ComponentPad*
%ADD18C,3.500000*%
G04 #@! TD*
G04 #@! TA.AperFunction,ComponentPad*
%ADD19R,1.500000X1.500000*%
G04 #@! TD*
G04 #@! TA.AperFunction,ComponentPad*
%ADD20C,1.500000*%
G04 #@! TD*
G04 #@! TA.AperFunction,ComponentPad*
%ADD21C,1.800000*%
G04 #@! TD*
G04 #@! TA.AperFunction,ViaPad*
%ADD22C,1.500000*%
G04 #@! TD*
G04 #@! TA.AperFunction,Conductor*
%ADD23C,0.350000*%
G04 #@! TD*
G04 #@! TA.AperFunction,Conductor*
%ADD24C,0.254000*%
G04 #@! TD*
G04 APERTURE END LIST*
D10*
G04 #@! TO.P,J4,1*
G04 #@! TO.N,MISO*
X14986000Y62357000D03*
D11*
G04 #@! TO.P,J4,2*
G04 #@! TO.N,VCC*
X12446000Y62357000D03*
G04 #@! TO.P,J4,3*
G04 #@! TO.N,SCK*
X14986000Y59817000D03*
G04 #@! TO.P,J4,4*
G04 #@! TO.N,MOSI*
X12446000Y59817000D03*
G04 #@! TO.P,J4,5*
G04 #@! TO.N,reset_in*
X14986000Y57277000D03*
G04 #@! TO.P,J4,6*
G04 #@! TO.N,GND*
X12446000Y57277000D03*
G04 #@! TD*
D12*
G04 #@! TO.P,U5,1*
G04 #@! TO.N,VCC*
X20094000Y35894000D03*
G04 #@! TO.P,U5,2*
G04 #@! TO.N,GND*
X20094000Y38434000D03*
G04 #@! TO.P,U5,3*
G04 #@! TO.N,MOSI*
X20094000Y40974000D03*
G04 #@! TO.P,U5,4*
G04 #@! TO.N,CS*
X20094000Y43514000D03*
G04 #@! TO.P,U5,5*
G04 #@! TO.N,SCK*
X20094000Y46054000D03*
G04 #@! TO.P,U5,10*
G04 #@! TO.N,Net-(U5-Pad10)*
X49594000Y35894000D03*
G04 #@! TO.P,U5,9*
G04 #@! TO.N,Net-(U5-Pad9)*
X49594000Y38434000D03*
G04 #@! TO.P,U5,6*
G04 #@! TO.N,Net-(U5-Pad6)*
X49594000Y46054000D03*
G04 #@! TO.P,U5,8*
G04 #@! TO.N,Net-(U5-Pad8)*
X49594000Y40974000D03*
G04 #@! TO.P,U5,7*
G04 #@! TO.N,Net-(U5-Pad7)*
X49594000Y43514000D03*
G04 #@! TD*
D13*
G04 #@! TO.P,Y1,1*
G04 #@! TO.N,Net-(U2-Pad1)*
X25908000Y44831000D03*
G04 #@! TO.P,Y1,2*
G04 #@! TO.N,Net-(U2-Pad2)*
X28448000Y44831000D03*
G04 #@! TD*
D14*
G04 #@! TO.N,VCC*
G04 #@! TO.C,C3*
G36*
X44186504Y66324796D02*
X44210773Y66321196D01*
X44234571Y66315235D01*
X44257671Y66306970D01*
X44279849Y66296480D01*
X44300893Y66283867D01*
X44320598Y66269253D01*
X44338777Y66252777D01*
X44355253Y66234598D01*
X44369867Y66214893D01*
X44382480Y66193849D01*
X44392970Y66171671D01*
X44401235Y66148571D01*
X44407196Y66124773D01*
X44410796Y66100504D01*
X44412000Y66076000D01*
X44412000Y64226000D01*
X44410796Y64201496D01*
X44407196Y64177227D01*
X44401235Y64153429D01*
X44392970Y64130329D01*
X44382480Y64108151D01*
X44369867Y64087107D01*
X44355253Y64067402D01*
X44338777Y64049223D01*
X44320598Y64032747D01*
X44300893Y64018133D01*
X44279849Y64005520D01*
X44257671Y63995030D01*
X44234571Y63986765D01*
X44210773Y63980804D01*
X44186504Y63977204D01*
X44162000Y63976000D01*
X43162000Y63976000D01*
X43137496Y63977204D01*
X43113227Y63980804D01*
X43089429Y63986765D01*
X43066329Y63995030D01*
X43044151Y64005520D01*
X43023107Y64018133D01*
X43003402Y64032747D01*
X42985223Y64049223D01*
X42968747Y64067402D01*
X42954133Y64087107D01*
X42941520Y64108151D01*
X42931030Y64130329D01*
X42922765Y64153429D01*
X42916804Y64177227D01*
X42913204Y64201496D01*
X42912000Y64226000D01*
X42912000Y66076000D01*
X42913204Y66100504D01*
X42916804Y66124773D01*
X42922765Y66148571D01*
X42931030Y66171671D01*
X42941520Y66193849D01*
X42954133Y66214893D01*
X42968747Y66234598D01*
X42985223Y66252777D01*
X43003402Y66269253D01*
X43023107Y66283867D01*
X43044151Y66296480D01*
X43066329Y66306970D01*
X43089429Y66315235D01*
X43113227Y66321196D01*
X43137496Y66324796D01*
X43162000Y66326000D01*
X44162000Y66326000D01*
X44186504Y66324796D01*
X44186504Y66324796D01*
G37*
D15*
G04 #@! TD*
G04 #@! TO.P,C3,1*
G04 #@! TO.N,VCC*
X43662000Y65151000D03*
D14*
G04 #@! TO.N,GND*
G04 #@! TO.C,C3*
G36*
X40936504Y66324796D02*
X40960773Y66321196D01*
X40984571Y66315235D01*
X41007671Y66306970D01*
X41029849Y66296480D01*
X41050893Y66283867D01*
X41070598Y66269253D01*
X41088777Y66252777D01*
X41105253Y66234598D01*
X41119867Y66214893D01*
X41132480Y66193849D01*
X41142970Y66171671D01*
X41151235Y66148571D01*
X41157196Y66124773D01*
X41160796Y66100504D01*
X41162000Y66076000D01*
X41162000Y64226000D01*
X41160796Y64201496D01*
X41157196Y64177227D01*
X41151235Y64153429D01*
X41142970Y64130329D01*
X41132480Y64108151D01*
X41119867Y64087107D01*
X41105253Y64067402D01*
X41088777Y64049223D01*
X41070598Y64032747D01*
X41050893Y64018133D01*
X41029849Y64005520D01*
X41007671Y63995030D01*
X40984571Y63986765D01*
X40960773Y63980804D01*
X40936504Y63977204D01*
X40912000Y63976000D01*
X39912000Y63976000D01*
X39887496Y63977204D01*
X39863227Y63980804D01*
X39839429Y63986765D01*
X39816329Y63995030D01*
X39794151Y64005520D01*
X39773107Y64018133D01*
X39753402Y64032747D01*
X39735223Y64049223D01*
X39718747Y64067402D01*
X39704133Y64087107D01*
X39691520Y64108151D01*
X39681030Y64130329D01*
X39672765Y64153429D01*
X39666804Y64177227D01*
X39663204Y64201496D01*
X39662000Y64226000D01*
X39662000Y66076000D01*
X39663204Y66100504D01*
X39666804Y66124773D01*
X39672765Y66148571D01*
X39681030Y66171671D01*
X39691520Y66193849D01*
X39704133Y66214893D01*
X39718747Y66234598D01*
X39735223Y66252777D01*
X39753402Y66269253D01*
X39773107Y66283867D01*
X39794151Y66296480D01*
X39816329Y66306970D01*
X39839429Y66315235D01*
X39863227Y66321196D01*
X39887496Y66324796D01*
X39912000Y66326000D01*
X40912000Y66326000D01*
X40936504Y66324796D01*
X40936504Y66324796D01*
G37*
D15*
G04 #@! TD*
G04 #@! TO.P,C3,2*
G04 #@! TO.N,GND*
X40412000Y65151000D03*
D16*
G04 #@! TO.P,J1,1*
G04 #@! TO.N,+12V*
X11811000Y36322000D03*
D14*
G04 #@! TD*
G04 #@! TO.N,GND*
G04 #@! TO.C,J1*
G36*
X12884513Y31818389D02*
X12957318Y31807589D01*
X13028714Y31789705D01*
X13098013Y31764910D01*
X13164548Y31733441D01*
X13227678Y31695602D01*
X13286795Y31651758D01*
X13341330Y31602330D01*
X13390758Y31547795D01*
X13434602Y31488678D01*
X13472441Y31425548D01*
X13503910Y31359013D01*
X13528705Y31289714D01*
X13546589Y31218318D01*
X13557389Y31145513D01*
X13561000Y31072000D01*
X13561000Y29572000D01*
X13557389Y29498487D01*
X13546589Y29425682D01*
X13528705Y29354286D01*
X13503910Y29284987D01*
X13472441Y29218452D01*
X13434602Y29155322D01*
X13390758Y29096205D01*
X13341330Y29041670D01*
X13286795Y28992242D01*
X13227678Y28948398D01*
X13164548Y28910559D01*
X13098013Y28879090D01*
X13028714Y28854295D01*
X12957318Y28836411D01*
X12884513Y28825611D01*
X12811000Y28822000D01*
X10811000Y28822000D01*
X10737487Y28825611D01*
X10664682Y28836411D01*
X10593286Y28854295D01*
X10523987Y28879090D01*
X10457452Y28910559D01*
X10394322Y28948398D01*
X10335205Y28992242D01*
X10280670Y29041670D01*
X10231242Y29096205D01*
X10187398Y29155322D01*
X10149559Y29218452D01*
X10118090Y29284987D01*
X10093295Y29354286D01*
X10075411Y29425682D01*
X10064611Y29498487D01*
X10061000Y29572000D01*
X10061000Y31072000D01*
X10064611Y31145513D01*
X10075411Y31218318D01*
X10093295Y31289714D01*
X10118090Y31359013D01*
X10149559Y31425548D01*
X10187398Y31488678D01*
X10231242Y31547795D01*
X10280670Y31602330D01*
X10335205Y31651758D01*
X10394322Y31695602D01*
X10457452Y31733441D01*
X10523987Y31764910D01*
X10593286Y31789705D01*
X10664682Y31807589D01*
X10737487Y31818389D01*
X10811000Y31822000D01*
X12811000Y31822000D01*
X12884513Y31818389D01*
X12884513Y31818389D01*
G37*
D17*
G04 #@! TO.P,J1,2*
G04 #@! TO.N,GND*
X11811000Y30322000D03*
D14*
G04 #@! TD*
G04 #@! TO.N,GND*
G04 #@! TO.C,J1*
G36*
X8071765Y35067787D02*
X8156704Y35055187D01*
X8239999Y35034323D01*
X8320848Y35005395D01*
X8398472Y34968681D01*
X8472124Y34924536D01*
X8541094Y34873384D01*
X8604718Y34815718D01*
X8662384Y34752094D01*
X8713536Y34683124D01*
X8757681Y34609472D01*
X8794395Y34531848D01*
X8823323Y34450999D01*
X8844187Y34367704D01*
X8856787Y34282765D01*
X8861000Y34197000D01*
X8861000Y32447000D01*
X8856787Y32361235D01*
X8844187Y32276296D01*
X8823323Y32193001D01*
X8794395Y32112152D01*
X8757681Y32034528D01*
X8713536Y31960876D01*
X8662384Y31891906D01*
X8604718Y31828282D01*
X8541094Y31770616D01*
X8472124Y31719464D01*
X8398472Y31675319D01*
X8320848Y31638605D01*
X8239999Y31609677D01*
X8156704Y31588813D01*
X8071765Y31576213D01*
X7986000Y31572000D01*
X6236000Y31572000D01*
X6150235Y31576213D01*
X6065296Y31588813D01*
X5982001Y31609677D01*
X5901152Y31638605D01*
X5823528Y31675319D01*
X5749876Y31719464D01*
X5680906Y31770616D01*
X5617282Y31828282D01*
X5559616Y31891906D01*
X5508464Y31960876D01*
X5464319Y32034528D01*
X5427605Y32112152D01*
X5398677Y32193001D01*
X5377813Y32276296D01*
X5365213Y32361235D01*
X5361000Y32447000D01*
X5361000Y34197000D01*
X5365213Y34282765D01*
X5377813Y34367704D01*
X5398677Y34450999D01*
X5427605Y34531848D01*
X5464319Y34609472D01*
X5508464Y34683124D01*
X5559616Y34752094D01*
X5617282Y34815718D01*
X5680906Y34873384D01*
X5749876Y34924536D01*
X5823528Y34968681D01*
X5901152Y35005395D01*
X5982001Y35034323D01*
X6065296Y35055187D01*
X6150235Y35067787D01*
X6236000Y35072000D01*
X7986000Y35072000D01*
X8071765Y35067787D01*
X8071765Y35067787D01*
G37*
D18*
G04 #@! TO.P,J1,3*
G04 #@! TO.N,GND*
X7111000Y33322000D03*
G04 #@! TD*
D19*
G04 #@! TO.P,J3,1*
G04 #@! TO.N,Trig+*
X82550000Y18288000D03*
D20*
G04 #@! TO.P,J3,2*
G04 #@! TO.N,Trig-*
X81280000Y20828000D03*
G04 #@! TO.P,J3,3*
G04 #@! TO.N,+12V*
X80010000Y18288000D03*
G04 #@! TO.P,J3,4*
G04 #@! TO.N,GND*
X78740000Y20828000D03*
G04 #@! TO.P,J3,5*
G04 #@! TO.N,+12V*
X77470000Y18288000D03*
G04 #@! TO.P,J3,6*
G04 #@! TO.N,GND*
X76200000Y20828000D03*
G04 #@! TO.P,J3,7*
G04 #@! TO.N,Echo-*
X74930000Y18288000D03*
G04 #@! TO.P,J3,8*
G04 #@! TO.N,Echo+*
X73660000Y20828000D03*
G04 #@! TD*
D12*
G04 #@! TO.P,U8,7*
G04 #@! TO.N,Net-(U8-Pad7)*
X81804000Y43545000D03*
G04 #@! TO.P,U8,8*
G04 #@! TO.N,Net-(U8-Pad8)*
X81804000Y41005000D03*
G04 #@! TO.P,U8,6*
G04 #@! TO.N,Net-(U8-Pad6)*
X81804000Y46085000D03*
G04 #@! TO.P,U8,9*
G04 #@! TO.N,GND*
X81804000Y38465000D03*
G04 #@! TO.P,U8,10*
G04 #@! TO.N,VCC*
X81804000Y35925000D03*
G04 #@! TO.P,U8,5*
G04 #@! TO.N,Net-(U5-Pad6)*
X52304000Y46085000D03*
G04 #@! TO.P,U8,4*
G04 #@! TO.N,Net-(U5-Pad7)*
X52304000Y43545000D03*
G04 #@! TO.P,U8,3*
G04 #@! TO.N,Net-(U5-Pad8)*
X52304000Y41005000D03*
G04 #@! TO.P,U8,2*
G04 #@! TO.N,Net-(U5-Pad9)*
X52304000Y38465000D03*
G04 #@! TO.P,U8,1*
G04 #@! TO.N,Net-(U5-Pad10)*
X52304000Y35925000D03*
G04 #@! TD*
D21*
G04 #@! TO.P,ROT1,4*
G04 #@! TO.N,Net-(R1-Pad2)*
X65039000Y12867000D03*
G04 #@! TO.P,ROT1,3*
G04 #@! TO.N,Net-(R4-Pad2)*
X50539000Y12867000D03*
G04 #@! TO.P,ROT1,2*
G04 #@! TO.N,GND*
X50539000Y15367000D03*
G04 #@! TO.P,ROT1,1*
G04 #@! TO.N,Net-(R3-Pad2)*
X50539000Y17867000D03*
G04 #@! TO.P,ROT1,5*
G04 #@! TO.N,GND*
X65039000Y17867000D03*
D17*
G04 #@! TO.P,ROT1,*
G04 #@! TO.N,*
X58039000Y20967000D03*
X58039000Y9767000D03*
G04 #@! TD*
D22*
G04 #@! TO.N,VCC*
X8382000Y64008000D03*
X43688000Y61849000D03*
X40132000Y51181000D03*
X47117000Y24638000D03*
G04 #@! TO.N,GND*
X76148084Y23412990D03*
G04 #@! TO.N,Echo*
X30226000Y65659000D03*
X63754000Y42926000D03*
G04 #@! TO.N,Net-(C12-Pad1)*
X52070000Y4445000D03*
X35433000Y23114000D03*
G04 #@! TO.N,Trig*
X32385000Y67310000D03*
X65659000Y45593000D03*
G04 #@! TO.N,reset_in*
X55515437Y59137010D03*
G04 #@! TO.N,+12V*
X68706998Y15621000D03*
G04 #@! TO.N,+BATT*
X31496000Y37973000D03*
X86360000Y29337000D03*
G04 #@! TO.N,encA*
X33791148Y49011139D03*
X40640000Y23114000D03*
G04 #@! TO.N,encB*
X32545067Y50310110D03*
X38227000Y23113998D03*
G04 #@! TO.N,encBTN*
X31369000Y25781000D03*
X31320057Y51685631D03*
G04 #@! TO.N,MOSI*
X8890000Y59690000D03*
G04 #@! TO.N,MISO*
X26797000Y59182000D03*
G04 #@! TO.N,SCK*
X26035000Y57150000D03*
G04 #@! TO.N,RXI*
X48260000Y54991000D03*
X66340433Y55941752D03*
G04 #@! TO.N,TX0*
X51054000Y56261000D03*
X67235228Y59142799D03*
G04 #@! TD*
D23*
G04 #@! TO.N,VCC*
X9442660Y64008000D02*
X10331660Y64897000D01*
X8382000Y64008000D02*
X9442660Y64008000D01*
X10331660Y64897000D02*
X23876000Y64897000D01*
X23876000Y64897000D02*
X30099000Y58674000D01*
X30099000Y58674000D02*
X40513000Y58674000D01*
X40513000Y58674000D02*
X43688000Y61849000D01*
X43662000Y61875000D02*
X43688000Y61849000D01*
X43662000Y65151000D02*
X43662000Y61875000D01*
X10033000Y62357000D02*
X8382000Y64008000D01*
X12446000Y62357000D02*
X10033000Y62357000D01*
X55499000Y61849000D02*
X43688000Y61849000D01*
X57404000Y59944000D02*
X55499000Y61849000D01*
X57404000Y58674000D02*
X57404000Y59944000D01*
X56642000Y57912000D02*
X57404000Y58674000D01*
X40132000Y51181000D02*
X46863000Y57912000D01*
X46863000Y57912000D02*
X56642000Y57912000D01*
X47117000Y24638000D02*
X43195011Y28559989D01*
X43195011Y28559989D02*
X43195011Y48117989D01*
X40881999Y50431001D02*
X40132000Y51181000D01*
X43195011Y48117989D02*
X40881999Y50431001D01*
G04 #@! TO.N,Echo*
X65786000Y42926000D02*
X63754000Y42926000D01*
X30226000Y65659000D02*
X29476001Y66408999D01*
X29476001Y66408999D02*
X29476001Y67322001D01*
X29476001Y67322001D02*
X30988000Y68834000D01*
X30988000Y68834000D02*
X65786000Y68834000D01*
X74168000Y51308000D02*
X65786000Y42926000D01*
X65786000Y68834000D02*
X74168000Y60452000D01*
X74168000Y60452000D02*
X74168000Y51308000D01*
G04 #@! TO.N,Net-(C12-Pad1)*
X52070000Y4445000D02*
X35433000Y21082000D01*
X35433000Y22053340D02*
X35433000Y23114000D01*
X35433000Y21082000D02*
X35433000Y22053340D01*
G04 #@! TO.N,Trig*
X32385000Y67310000D02*
X65405000Y67310000D01*
X65405000Y67310000D02*
X73279000Y59436000D01*
X73279000Y59436000D02*
X73279000Y53213000D01*
X66408999Y46342999D02*
X65659000Y45593000D01*
X73279000Y53213000D02*
X66408999Y46342999D01*
G04 #@! TO.N,reset_in*
X14986000Y57277000D02*
X18018990Y54244010D01*
X18018990Y54244010D02*
X40849540Y54244010D01*
X45742540Y59137010D02*
X54454777Y59137010D01*
X54454777Y59137010D02*
X55515437Y59137010D01*
X40849540Y54244010D02*
X45742540Y59137010D01*
G04 #@! TO.N,+12V*
X68706998Y15621000D02*
X68706998Y12953998D01*
X68706998Y12953998D02*
X61722000Y5969000D01*
X61722000Y5969000D02*
X52197000Y5969000D01*
X52197000Y5969000D02*
X36830000Y21336000D01*
X36830000Y21336000D02*
X36830000Y24384000D01*
X36830000Y24384000D02*
X35941000Y25273000D01*
X35941000Y25273000D02*
X33274000Y25273000D01*
X33274000Y25273000D02*
X32131000Y24130000D01*
X32131000Y24130000D02*
X21717000Y24130000D01*
X21717000Y24130000D02*
X16891000Y28956000D01*
X16891000Y33342000D02*
X16891000Y32004000D01*
X13911000Y36322000D02*
X16891000Y33342000D01*
X11811000Y36322000D02*
X13911000Y36322000D01*
X16891000Y28956000D02*
X16891000Y32004000D01*
G04 #@! TO.N,+BATT*
X83058000Y26035000D02*
X86360000Y29337000D01*
X54229000Y26035000D02*
X83058000Y26035000D01*
X50165000Y21971000D02*
X54229000Y26035000D01*
X45593000Y21971000D02*
X50165000Y21971000D01*
X32766000Y53340000D02*
X42545000Y43561000D01*
X42545000Y25019000D02*
X45593000Y21971000D01*
X42545000Y43561000D02*
X42545000Y25019000D01*
X31115000Y53340000D02*
X32766000Y53340000D01*
X31496000Y37973000D02*
X31496000Y39033660D01*
X31496000Y39033660D02*
X30226000Y40303660D01*
X30226000Y40303660D02*
X30226000Y50419000D01*
X30226000Y50419000D02*
X29972000Y50673000D01*
X29972000Y50673000D02*
X29972000Y52197000D01*
X29972000Y52197000D02*
X31115000Y53340000D01*
G04 #@! TO.N,encA*
X33528000Y48747991D02*
X33791148Y49011139D01*
X33528000Y48514000D02*
X33528000Y48747991D01*
X33791148Y49011139D02*
X40640000Y42162287D01*
X40640000Y42162287D02*
X40640000Y24174660D01*
X40640000Y24174660D02*
X40640000Y23114000D01*
G04 #@! TO.N,encB*
X32267184Y49500013D02*
X32258000Y49490829D01*
X32267184Y49500013D02*
X32267184Y50032227D01*
X32267184Y50032227D02*
X32545067Y50310110D01*
X32267184Y49500013D02*
X32267184Y47615816D01*
X32267184Y47615816D02*
X38227000Y41656000D01*
X38227000Y24174658D02*
X38227000Y23113998D01*
X38227000Y41656000D02*
X38227000Y24174658D01*
G04 #@! TO.N,encBTN*
X30852759Y51685631D02*
X31320057Y51685631D01*
X31369000Y26841660D02*
X36830000Y32302660D01*
X31369000Y25781000D02*
X31369000Y26841660D01*
X36830000Y32302660D02*
X36830000Y41021000D01*
X36830000Y41021000D02*
X31320057Y46530943D01*
X31320057Y46530943D02*
X31320057Y51685631D01*
G04 #@! TO.N,MOSI*
X12319000Y59690000D02*
X12446000Y59817000D01*
X8890000Y59690000D02*
X12319000Y59690000D01*
G04 #@! TO.N,MISO*
X14986000Y62357000D02*
X16186000Y62357000D01*
X16186000Y62357000D02*
X23622000Y62357000D01*
X23622000Y62357000D02*
X26797000Y59182000D01*
G04 #@! TO.N,SCK*
X24974340Y57150000D02*
X26035000Y57150000D01*
X14986000Y59817000D02*
X17653000Y57150000D01*
X17653000Y57150000D02*
X24974340Y57150000D01*
G04 #@! TO.N,RXI*
X48260000Y54991000D02*
X65389681Y54991000D01*
X65389681Y54991000D02*
X65590434Y55191753D01*
X65590434Y55191753D02*
X66340433Y55941752D01*
G04 #@! TO.N,TX0*
X66485229Y58392800D02*
X67235228Y59142799D01*
X51054000Y56261000D02*
X64009247Y56261000D01*
X64009247Y56261000D02*
X66141047Y58392800D01*
X66141047Y58392800D02*
X66485229Y58392800D01*
G04 #@! TD*
D24*
G04 #@! TO.N,GND*
G36*
X96315680Y710000D02*
X710000Y710000D01*
X710000Y4000569D01*
X1321000Y4000569D01*
X1321000Y3111431D01*
X1661259Y2289974D01*
X2289974Y1661259D01*
X3111431Y1321000D01*
X4000569Y1321000D01*
X4822026Y1661259D01*
X5450741Y2289974D01*
X5791000Y3111431D01*
X5791000Y4000569D01*
X5450741Y4822026D01*
X4822026Y5450741D01*
X4000569Y5791000D01*
X3111431Y5791000D01*
X2289974Y5450741D01*
X1661259Y4822026D01*
X1321000Y4000569D01*
X710000Y4000569D01*
X710000Y13271569D01*
X4242000Y13271569D01*
X4242000Y12382431D01*
X4582259Y11560974D01*
X5210974Y10932259D01*
X6032431Y10592000D01*
X6921569Y10592000D01*
X7743026Y10932259D01*
X8371741Y11560974D01*
X8712000Y12382431D01*
X8712000Y13017569D01*
X16688000Y13017569D01*
X16688000Y12128431D01*
X17028259Y11306974D01*
X17656974Y10678259D01*
X18478431Y10338000D01*
X19367569Y10338000D01*
X20189026Y10678259D01*
X20817741Y11306974D01*
X21158000Y12128431D01*
X21158000Y13017569D01*
X20817741Y13839026D01*
X20189026Y14467741D01*
X19367569Y14808000D01*
X18478431Y14808000D01*
X17656974Y14467741D01*
X17028259Y13839026D01*
X16688000Y13017569D01*
X8712000Y13017569D01*
X8712000Y13271569D01*
X8371741Y14093026D01*
X7743026Y14721741D01*
X6921569Y15062000D01*
X6032431Y15062000D01*
X5210974Y14721741D01*
X4582259Y14093026D01*
X4242000Y13271569D01*
X710000Y13271569D01*
X710000Y30036250D01*
X9426000Y30036250D01*
X9426000Y28695691D01*
X9522673Y28462302D01*
X9701301Y28283673D01*
X9934690Y28187000D01*
X11525250Y28187000D01*
X11684000Y28345750D01*
X11684000Y30195000D01*
X11938000Y30195000D01*
X11938000Y28345750D01*
X12096750Y28187000D01*
X13687310Y28187000D01*
X13920699Y28283673D01*
X14099327Y28462302D01*
X14196000Y28695691D01*
X14196000Y30036250D01*
X14037250Y30195000D01*
X11938000Y30195000D01*
X11684000Y30195000D01*
X9584750Y30195000D01*
X9426000Y30036250D01*
X710000Y30036250D01*
X710000Y33036250D01*
X4726000Y33036250D01*
X4726000Y31445691D01*
X4822673Y31212302D01*
X5001301Y31033673D01*
X5234690Y30937000D01*
X6825250Y30937000D01*
X6984000Y31095750D01*
X6984000Y33195000D01*
X7238000Y33195000D01*
X7238000Y31095750D01*
X7396750Y30937000D01*
X8987310Y30937000D01*
X9220699Y31033673D01*
X9399327Y31212302D01*
X9426000Y31276696D01*
X9426000Y30607750D01*
X9584750Y30449000D01*
X11684000Y30449000D01*
X11684000Y32298250D01*
X11938000Y32298250D01*
X11938000Y30449000D01*
X14037250Y30449000D01*
X14196000Y30607750D01*
X14196000Y31948309D01*
X14099327Y32181698D01*
X13920699Y32360327D01*
X13687310Y32457000D01*
X12096750Y32457000D01*
X11938000Y32298250D01*
X11684000Y32298250D01*
X11525250Y32457000D01*
X9934690Y32457000D01*
X9701301Y32360327D01*
X9522673Y32181698D01*
X9496000Y32117304D01*
X9496000Y33036250D01*
X9337250Y33195000D01*
X7238000Y33195000D01*
X6984000Y33195000D01*
X4884750Y33195000D01*
X4726000Y33036250D01*
X710000Y33036250D01*
X710000Y35198309D01*
X4726000Y35198309D01*
X4726000Y33607750D01*
X4884750Y33449000D01*
X6984000Y33449000D01*
X6984000Y35548250D01*
X6825250Y35707000D01*
X5234690Y35707000D01*
X5001301Y35610327D01*
X4822673Y35431698D01*
X4726000Y35198309D01*
X710000Y35198309D01*
X710000Y46331881D01*
X18697000Y46331881D01*
X18697000Y45776119D01*
X18909680Y45262663D01*
X19302663Y44869680D01*
X19509513Y44784000D01*
X19302663Y44698320D01*
X18909680Y44305337D01*
X18697000Y43791881D01*
X18697000Y43236119D01*
X18909680Y42722663D01*
X19302663Y42329680D01*
X19509513Y42244000D01*
X19302663Y42158320D01*
X18909680Y41765337D01*
X18697000Y41251881D01*
X18697000Y40696119D01*
X18909680Y40182663D01*
X19302663Y39789680D01*
X19493647Y39710572D01*
X19362857Y39656397D01*
X19293392Y39414213D01*
X20094000Y38613605D01*
X20894608Y39414213D01*
X20825143Y39656397D01*
X20684607Y39706535D01*
X20885337Y39789680D01*
X21278320Y40182663D01*
X21491000Y40696119D01*
X21491000Y41251881D01*
X21278320Y41765337D01*
X20885337Y42158320D01*
X20678487Y42244000D01*
X20885337Y42329680D01*
X21278320Y42722663D01*
X21491000Y43236119D01*
X21491000Y43791881D01*
X21278320Y44305337D01*
X20885337Y44698320D01*
X20678487Y44784000D01*
X20885337Y44869680D01*
X21072423Y45056766D01*
X24773000Y45056766D01*
X24773000Y44605234D01*
X24945793Y44188074D01*
X25265074Y43868793D01*
X25682234Y43696000D01*
X26133766Y43696000D01*
X26550926Y43868793D01*
X26870207Y44188074D01*
X27043000Y44605234D01*
X27043000Y45056766D01*
X26870207Y45473926D01*
X26550926Y45793207D01*
X26133766Y45966000D01*
X25682234Y45966000D01*
X25265074Y45793207D01*
X24945793Y45473926D01*
X24773000Y45056766D01*
X21072423Y45056766D01*
X21278320Y45262663D01*
X21491000Y45776119D01*
X21491000Y46331881D01*
X21278320Y46845337D01*
X20885337Y47238320D01*
X20371881Y47451000D01*
X19816119Y47451000D01*
X19302663Y47238320D01*
X18909680Y46845337D01*
X18697000Y46331881D01*
X710000Y46331881D01*
X710000Y51178569D01*
X19609000Y51178569D01*
X19609000Y50289431D01*
X19949259Y49467974D01*
X20577974Y48839259D01*
X21399431Y48499000D01*
X22288569Y48499000D01*
X23110026Y48839259D01*
X23738741Y49467974D01*
X24079000Y50289431D01*
X24079000Y51178569D01*
X23738741Y52000026D01*
X23110026Y52628741D01*
X22288569Y52969000D01*
X21399431Y52969000D01*
X20577974Y52628741D01*
X19949259Y52000026D01*
X19609000Y51178569D01*
X710000Y51178569D01*
X710000Y56920110D01*
X11004524Y56920110D01*
X11174355Y56510076D01*
X11564642Y56081817D01*
X12089108Y55835514D01*
X12319000Y55956181D01*
X12319000Y57150000D01*
X11125845Y57150000D01*
X11004524Y56920110D01*
X710000Y56920110D01*
X710000Y64283494D01*
X6997000Y64283494D01*
X6997000Y63732506D01*
X7207853Y63223460D01*
X7597460Y62833853D01*
X8106506Y62623000D01*
X8621488Y62623000D01*
X9403834Y61840653D01*
X9449023Y61773023D01*
X9516652Y61727835D01*
X9716953Y61593997D01*
X10033000Y61531132D01*
X10112774Y61547000D01*
X11201231Y61547000D01*
X11375375Y61286375D01*
X11673761Y61087000D01*
X11375375Y60887625D01*
X11116372Y60500000D01*
X10038687Y60500000D01*
X9674540Y60864147D01*
X9165494Y61075000D01*
X8614506Y61075000D01*
X8105460Y60864147D01*
X7715853Y60474540D01*
X7505000Y59965494D01*
X7505000Y59414506D01*
X7715853Y58905460D01*
X8105460Y58515853D01*
X8614506Y58305000D01*
X9165494Y58305000D01*
X9674540Y58515853D01*
X10038687Y58880000D01*
X11286090Y58880000D01*
X11375375Y58746375D01*
X11694478Y58533157D01*
X11564642Y58472183D01*
X11174355Y58043924D01*
X11004524Y57633890D01*
X11125845Y57404000D01*
X12319000Y57404000D01*
X12319000Y57424000D01*
X12573000Y57424000D01*
X12573000Y57404000D01*
X12593000Y57404000D01*
X12593000Y57150000D01*
X12573000Y57150000D01*
X12573000Y55956181D01*
X12802892Y55835514D01*
X13327358Y56081817D01*
X13714647Y56506786D01*
X13915375Y56206375D01*
X14406582Y55878161D01*
X14839744Y55792000D01*
X15132256Y55792000D01*
X15293429Y55824059D01*
X17389824Y53727663D01*
X17435013Y53660033D01*
X17502642Y53614845D01*
X17702943Y53481007D01*
X18018990Y53418142D01*
X18098764Y53434010D01*
X30063497Y53434010D01*
X29455654Y52826166D01*
X29388024Y52780977D01*
X29342835Y52713347D01*
X29208998Y52513046D01*
X29146132Y52197000D01*
X29162001Y52117222D01*
X29162000Y50752774D01*
X29146132Y50673000D01*
X29162000Y50593227D01*
X29208997Y50356955D01*
X29388023Y50089023D01*
X29416001Y50070329D01*
X29416001Y45459939D01*
X29410207Y45473926D01*
X29090926Y45793207D01*
X28673766Y45966000D01*
X28222234Y45966000D01*
X27805074Y45793207D01*
X27485793Y45473926D01*
X27313000Y45056766D01*
X27313000Y44605234D01*
X27485793Y44188074D01*
X27805074Y43868793D01*
X28222234Y43696000D01*
X28673766Y43696000D01*
X29090926Y43868793D01*
X29410207Y44188074D01*
X29416000Y44202061D01*
X29416000Y40383433D01*
X29400132Y40303660D01*
X29416000Y40223887D01*
X29462997Y39987615D01*
X29642023Y39719683D01*
X29709656Y39674492D01*
X30474230Y38909917D01*
X30321853Y38757540D01*
X30111000Y38248494D01*
X30111000Y37697506D01*
X30321853Y37188460D01*
X30711460Y36798853D01*
X31220506Y36588000D01*
X31771494Y36588000D01*
X32280540Y36798853D01*
X32670147Y37188460D01*
X32881000Y37697506D01*
X32881000Y38248494D01*
X32670147Y38757540D01*
X32303951Y39123736D01*
X32299294Y39147147D01*
X32259003Y39349706D01*
X32079977Y39617637D01*
X32012347Y39662826D01*
X31036000Y40639172D01*
X31036000Y45669488D01*
X36020001Y40685486D01*
X36020000Y32638173D01*
X30852654Y27470826D01*
X30785024Y27425637D01*
X30739835Y27358007D01*
X30605998Y27157706D01*
X30561049Y26931736D01*
X30194853Y26565540D01*
X29984000Y26056494D01*
X29984000Y25505506D01*
X30194853Y24996460D01*
X30251313Y24940000D01*
X22052513Y24940000D01*
X17701000Y29291512D01*
X17701000Y31178569D01*
X19609000Y31178569D01*
X19609000Y30289431D01*
X19949259Y29467974D01*
X20577974Y28839259D01*
X21399431Y28499000D01*
X22288569Y28499000D01*
X23110026Y28839259D01*
X23738741Y29467974D01*
X24079000Y30289431D01*
X24079000Y31178569D01*
X23738741Y32000026D01*
X23110026Y32628741D01*
X22288569Y32969000D01*
X21399431Y32969000D01*
X20577974Y32628741D01*
X19949259Y32000026D01*
X19609000Y31178569D01*
X17701000Y31178569D01*
X17701000Y33262231D01*
X17716867Y33342001D01*
X17701000Y33421770D01*
X17701000Y33421774D01*
X17654003Y33658046D01*
X17474977Y33925977D01*
X17407347Y33971166D01*
X15206632Y36171881D01*
X18697000Y36171881D01*
X18697000Y35616119D01*
X18909680Y35102663D01*
X19302663Y34709680D01*
X19816119Y34497000D01*
X20371881Y34497000D01*
X20885337Y34709680D01*
X21278320Y35102663D01*
X21491000Y35616119D01*
X21491000Y36171881D01*
X21278320Y36685337D01*
X20885337Y37078320D01*
X20694353Y37157428D01*
X20825143Y37211603D01*
X20894608Y37453787D01*
X20094000Y38254395D01*
X19293392Y37453787D01*
X19362857Y37211603D01*
X19503393Y37161465D01*
X19302663Y37078320D01*
X18909680Y36685337D01*
X18697000Y36171881D01*
X15206632Y36171881D01*
X14540168Y36838344D01*
X14494977Y36905977D01*
X14227046Y37085003D01*
X14208440Y37088704D01*
X14208440Y38072000D01*
X14159157Y38319765D01*
X14018809Y38529809D01*
X13851357Y38641698D01*
X18684856Y38641698D01*
X18712638Y38086632D01*
X18871603Y37702857D01*
X19113787Y37633392D01*
X19914395Y38434000D01*
X20273605Y38434000D01*
X21074213Y37633392D01*
X21316397Y37702857D01*
X21503144Y38226302D01*
X21475362Y38781368D01*
X21316397Y39165143D01*
X21074213Y39234608D01*
X20273605Y38434000D01*
X19914395Y38434000D01*
X19113787Y39234608D01*
X18871603Y39165143D01*
X18684856Y38641698D01*
X13851357Y38641698D01*
X13808765Y38670157D01*
X13561000Y38719440D01*
X10061000Y38719440D01*
X9813235Y38670157D01*
X9603191Y38529809D01*
X9462843Y38319765D01*
X9413560Y38072000D01*
X9413560Y35397337D01*
X9399327Y35431698D01*
X9220699Y35610327D01*
X8987310Y35707000D01*
X7396750Y35707000D01*
X7238000Y35548250D01*
X7238000Y33449000D01*
X9337250Y33449000D01*
X9496000Y33607750D01*
X9496000Y34274612D01*
X9603191Y34114191D01*
X9813235Y33973843D01*
X10061000Y33924560D01*
X13561000Y33924560D01*
X13808765Y33973843D01*
X14018809Y34114191D01*
X14159157Y34324235D01*
X14208440Y34572000D01*
X14208440Y34879048D01*
X16081000Y33006487D01*
X16081001Y32083774D01*
X16081000Y29035773D01*
X16065132Y28956000D01*
X16081000Y28876227D01*
X16127997Y28639955D01*
X16307023Y28372023D01*
X16374656Y28326832D01*
X21087834Y23613653D01*
X21133023Y23546023D01*
X21200652Y23500835D01*
X21400953Y23366997D01*
X21717000Y23304132D01*
X21796774Y23320000D01*
X32051227Y23320000D01*
X32131000Y23304132D01*
X32210773Y23320000D01*
X32210774Y23320000D01*
X32447046Y23366997D01*
X32714977Y23546023D01*
X32760168Y23613656D01*
X33609513Y24463000D01*
X35070594Y24463000D01*
X34648460Y24288147D01*
X34258853Y23898540D01*
X34048000Y23389494D01*
X34048000Y22838506D01*
X34258853Y22329460D01*
X34623001Y21965312D01*
X34623000Y21161774D01*
X34607132Y21082000D01*
X34623000Y21002227D01*
X34669997Y20765955D01*
X34849023Y20498023D01*
X34916656Y20452832D01*
X50685000Y4684487D01*
X50685000Y4169506D01*
X50895853Y3660460D01*
X51285460Y3270853D01*
X51794506Y3060000D01*
X52345494Y3060000D01*
X52854540Y3270853D01*
X53244147Y3660460D01*
X53385024Y4000569D01*
X91237000Y4000569D01*
X91237000Y3111431D01*
X91577259Y2289974D01*
X92205974Y1661259D01*
X93027431Y1321000D01*
X93916569Y1321000D01*
X94738026Y1661259D01*
X95366741Y2289974D01*
X95707000Y3111431D01*
X95707000Y4000569D01*
X95366741Y4822026D01*
X94738026Y5450741D01*
X93916569Y5791000D01*
X93027431Y5791000D01*
X92205974Y5450741D01*
X91577259Y4822026D01*
X91237000Y4000569D01*
X53385024Y4000569D01*
X53455000Y4169506D01*
X53455000Y4720494D01*
X53273366Y5159000D01*
X61642227Y5159000D01*
X61722000Y5143132D01*
X61801773Y5159000D01*
X61801774Y5159000D01*
X62038046Y5205997D01*
X62305977Y5385023D01*
X62351168Y5452656D01*
X69223345Y12324832D01*
X69290975Y12370021D01*
X69299359Y12382569D01*
X70155000Y12382569D01*
X70155000Y11493431D01*
X70495259Y10671974D01*
X71123974Y10043259D01*
X71945431Y9703000D01*
X72834569Y9703000D01*
X73656026Y10043259D01*
X74284741Y10671974D01*
X74625000Y11493431D01*
X74625000Y12382569D01*
X81585000Y12382569D01*
X81585000Y11493431D01*
X81925259Y10671974D01*
X82553974Y10043259D01*
X83375431Y9703000D01*
X84264569Y9703000D01*
X85086026Y10043259D01*
X85714741Y10671974D01*
X86055000Y11493431D01*
X86055000Y12382569D01*
X85714741Y13204026D01*
X85086026Y13832741D01*
X84264569Y14173000D01*
X83375431Y14173000D01*
X82553974Y13832741D01*
X81925259Y13204026D01*
X81585000Y12382569D01*
X74625000Y12382569D01*
X74284741Y13204026D01*
X73656026Y13832741D01*
X72834569Y14173000D01*
X71945431Y14173000D01*
X71123974Y13832741D01*
X70495259Y13204026D01*
X70155000Y12382569D01*
X69299359Y12382569D01*
X69470001Y12637952D01*
X69516998Y12874224D01*
X69516998Y12874225D01*
X69532866Y12953998D01*
X69516998Y13033771D01*
X69516998Y14472313D01*
X69881145Y14836460D01*
X70091998Y15345506D01*
X70091998Y15896494D01*
X69881145Y16405540D01*
X69491538Y16795147D01*
X68982492Y17006000D01*
X68431504Y17006000D01*
X67922458Y16795147D01*
X67532851Y16405540D01*
X67321998Y15896494D01*
X67321998Y15345506D01*
X67532851Y14836460D01*
X67896998Y14472313D01*
X67896999Y13289512D01*
X61386488Y6779000D01*
X52532513Y6779000D01*
X49119835Y10191678D01*
X55904000Y10191678D01*
X55904000Y9342322D01*
X56229034Y8557620D01*
X56829620Y7957034D01*
X57614322Y7632000D01*
X58463678Y7632000D01*
X59248380Y7957034D01*
X59848966Y8557620D01*
X60174000Y9342322D01*
X60174000Y10191678D01*
X59848966Y10976380D01*
X59248380Y11576966D01*
X58463678Y11902000D01*
X57614322Y11902000D01*
X56829620Y11576966D01*
X56229034Y10976380D01*
X55904000Y10191678D01*
X49119835Y10191678D01*
X46139183Y13172330D01*
X49004000Y13172330D01*
X49004000Y12561670D01*
X49237690Y11997493D01*
X49669493Y11565690D01*
X50233670Y11332000D01*
X50844330Y11332000D01*
X51408507Y11565690D01*
X51840310Y11997493D01*
X52074000Y12561670D01*
X52074000Y13172330D01*
X63504000Y13172330D01*
X63504000Y12561670D01*
X63737690Y11997493D01*
X64169493Y11565690D01*
X64733670Y11332000D01*
X65344330Y11332000D01*
X65908507Y11565690D01*
X66340310Y11997493D01*
X66574000Y12561670D01*
X66574000Y13172330D01*
X66340310Y13736507D01*
X65908507Y14168310D01*
X65344330Y14402000D01*
X64733670Y14402000D01*
X64169493Y14168310D01*
X63737690Y13736507D01*
X63504000Y13172330D01*
X52074000Y13172330D01*
X51840310Y13736507D01*
X51408507Y14168310D01*
X51400710Y14171539D01*
X51439554Y14286841D01*
X50539000Y15187395D01*
X49638446Y14286841D01*
X49677290Y14171539D01*
X49669493Y14168310D01*
X49237690Y13736507D01*
X49004000Y13172330D01*
X46139183Y13172330D01*
X43703849Y15607664D01*
X48992542Y15607664D01*
X49018161Y14997540D01*
X49202357Y14552852D01*
X49458841Y14466446D01*
X50359395Y15367000D01*
X50718605Y15367000D01*
X51619159Y14466446D01*
X51875643Y14552852D01*
X52085458Y15126336D01*
X52059839Y15736460D01*
X51875643Y16181148D01*
X51619159Y16267554D01*
X50718605Y15367000D01*
X50359395Y15367000D01*
X49458841Y16267554D01*
X49202357Y16181148D01*
X48992542Y15607664D01*
X43703849Y15607664D01*
X41139183Y18172330D01*
X49004000Y18172330D01*
X49004000Y17561670D01*
X49237690Y16997493D01*
X49669493Y16565690D01*
X49677290Y16562461D01*
X49638446Y16447159D01*
X50539000Y15546605D01*
X51439554Y16447159D01*
X51400710Y16562461D01*
X51408507Y16565690D01*
X51629658Y16786841D01*
X64138446Y16786841D01*
X64224852Y16530357D01*
X64798336Y16320542D01*
X65408460Y16346161D01*
X65853148Y16530357D01*
X65939554Y16786841D01*
X65039000Y17687395D01*
X64138446Y16786841D01*
X51629658Y16786841D01*
X51840310Y16997493D01*
X52074000Y17561670D01*
X52074000Y18107664D01*
X63492542Y18107664D01*
X63518161Y17497540D01*
X63702357Y17052852D01*
X63958841Y16966446D01*
X64859395Y17867000D01*
X65218605Y17867000D01*
X66119159Y16966446D01*
X66375643Y17052852D01*
X66585458Y17626336D01*
X66559839Y18236460D01*
X66424377Y18563494D01*
X73545000Y18563494D01*
X73545000Y18012506D01*
X73755853Y17503460D01*
X74145460Y17113853D01*
X74654506Y16903000D01*
X75205494Y16903000D01*
X75714540Y17113853D01*
X76104147Y17503460D01*
X76200000Y17734870D01*
X76295853Y17503460D01*
X76685460Y17113853D01*
X77194506Y16903000D01*
X77745494Y16903000D01*
X78254540Y17113853D01*
X78644147Y17503460D01*
X78740000Y17734870D01*
X78835853Y17503460D01*
X79225460Y17113853D01*
X79734506Y16903000D01*
X80285494Y16903000D01*
X80794540Y17113853D01*
X81163531Y17482844D01*
X81201843Y17290235D01*
X81342191Y17080191D01*
X81552235Y16939843D01*
X81800000Y16890560D01*
X83300000Y16890560D01*
X83547765Y16939843D01*
X83757809Y17080191D01*
X83898157Y17290235D01*
X83947440Y17538000D01*
X83947440Y19038000D01*
X83898157Y19285765D01*
X83757809Y19495809D01*
X83547765Y19636157D01*
X83300000Y19685440D01*
X82096127Y19685440D01*
X82454147Y20043460D01*
X82665000Y20552506D01*
X82665000Y21103494D01*
X82454147Y21612540D01*
X82064540Y22002147D01*
X81555494Y22213000D01*
X81004506Y22213000D01*
X80495460Y22002147D01*
X80105853Y21612540D01*
X80016603Y21397070D01*
X79952460Y21551923D01*
X79711517Y21619912D01*
X78919605Y20828000D01*
X79711517Y20036088D01*
X79952460Y20104077D01*
X80011745Y20270658D01*
X80105853Y20043460D01*
X80495460Y19653853D01*
X81004506Y19443000D01*
X81306905Y19443000D01*
X81201843Y19285765D01*
X81163531Y19093156D01*
X80794540Y19462147D01*
X80285494Y19673000D01*
X79734506Y19673000D01*
X79225460Y19462147D01*
X78835853Y19072540D01*
X78740000Y18841130D01*
X78644147Y19072540D01*
X78254540Y19462147D01*
X77745494Y19673000D01*
X77194506Y19673000D01*
X76685460Y19462147D01*
X76295853Y19072540D01*
X76200000Y18841130D01*
X76104147Y19072540D01*
X75714540Y19462147D01*
X75205494Y19673000D01*
X74654506Y19673000D01*
X74145460Y19462147D01*
X73755853Y19072540D01*
X73545000Y18563494D01*
X66424377Y18563494D01*
X66375643Y18681148D01*
X66119159Y18767554D01*
X65218605Y17867000D01*
X64859395Y17867000D01*
X63958841Y18767554D01*
X63702357Y18681148D01*
X63492542Y18107664D01*
X52074000Y18107664D01*
X52074000Y18172330D01*
X51840310Y18736507D01*
X51408507Y19168310D01*
X50844330Y19402000D01*
X50233670Y19402000D01*
X49669493Y19168310D01*
X49237690Y18736507D01*
X49004000Y18172330D01*
X41139183Y18172330D01*
X37640000Y21671512D01*
X37640000Y21858028D01*
X37951506Y21728998D01*
X38502494Y21728998D01*
X39011540Y21939851D01*
X39401147Y22329458D01*
X39433500Y22407566D01*
X39465853Y22329460D01*
X39855460Y21939853D01*
X40364506Y21729000D01*
X40915494Y21729000D01*
X41424540Y21939853D01*
X41814147Y22329460D01*
X42025000Y22838506D01*
X42025000Y23389494D01*
X41814147Y23898540D01*
X41450000Y24262687D01*
X41450000Y42082518D01*
X41465867Y42162288D01*
X41450000Y42242057D01*
X41450000Y42242061D01*
X41403003Y42478333D01*
X41223977Y42746264D01*
X41156348Y42791452D01*
X35176148Y48771651D01*
X35176148Y49286633D01*
X34965295Y49795679D01*
X34575688Y50185286D01*
X34066642Y50396139D01*
X33930067Y50396139D01*
X33930067Y50585604D01*
X33719214Y51094650D01*
X33329607Y51484257D01*
X32820561Y51695110D01*
X32705057Y51695110D01*
X32705057Y51961125D01*
X32496953Y52463535D01*
X41735000Y43225487D01*
X41735001Y25098778D01*
X41719132Y25019000D01*
X41740119Y24913494D01*
X41781998Y24702954D01*
X41961024Y24435023D01*
X42028654Y24389834D01*
X44963834Y21454653D01*
X45009023Y21387023D01*
X45276954Y21207997D01*
X45513226Y21161000D01*
X45513227Y21161000D01*
X45593000Y21145132D01*
X45672773Y21161000D01*
X50085227Y21161000D01*
X50165000Y21145132D01*
X50244773Y21161000D01*
X50244774Y21161000D01*
X50481046Y21207997D01*
X50748977Y21387023D01*
X50752087Y21391678D01*
X55904000Y21391678D01*
X55904000Y20542322D01*
X56229034Y19757620D01*
X56829620Y19157034D01*
X57614322Y18832000D01*
X58463678Y18832000D01*
X58741696Y18947159D01*
X64138446Y18947159D01*
X65039000Y18046605D01*
X65939554Y18947159D01*
X65853148Y19203643D01*
X65279664Y19413458D01*
X64669540Y19387839D01*
X64224852Y19203643D01*
X64138446Y18947159D01*
X58741696Y18947159D01*
X59248380Y19157034D01*
X59848966Y19757620D01*
X60174000Y20542322D01*
X60174000Y21103494D01*
X72275000Y21103494D01*
X72275000Y20552506D01*
X72485853Y20043460D01*
X72875460Y19653853D01*
X73384506Y19443000D01*
X73935494Y19443000D01*
X74444540Y19653853D01*
X74647170Y19856483D01*
X75408088Y19856483D01*
X75476077Y19615540D01*
X75995171Y19430799D01*
X76545448Y19458770D01*
X76923923Y19615540D01*
X76991912Y19856483D01*
X77948088Y19856483D01*
X78016077Y19615540D01*
X78535171Y19430799D01*
X79085448Y19458770D01*
X79463923Y19615540D01*
X79531912Y19856483D01*
X78740000Y20648395D01*
X77948088Y19856483D01*
X76991912Y19856483D01*
X76200000Y20648395D01*
X75408088Y19856483D01*
X74647170Y19856483D01*
X74834147Y20043460D01*
X74923397Y20258930D01*
X74987540Y20104077D01*
X75228483Y20036088D01*
X76020395Y20828000D01*
X76379605Y20828000D01*
X77171517Y20036088D01*
X77412460Y20104077D01*
X77465642Y20253511D01*
X77527540Y20104077D01*
X77768483Y20036088D01*
X78560395Y20828000D01*
X77768483Y21619912D01*
X77527540Y21551923D01*
X77474358Y21402489D01*
X77412460Y21551923D01*
X77171517Y21619912D01*
X76379605Y20828000D01*
X76020395Y20828000D01*
X75228483Y21619912D01*
X74987540Y21551923D01*
X74928255Y21385342D01*
X74834147Y21612540D01*
X74647170Y21799517D01*
X75408088Y21799517D01*
X76200000Y21007605D01*
X76991912Y21799517D01*
X77948088Y21799517D01*
X78740000Y21007605D01*
X79531912Y21799517D01*
X79463923Y22040460D01*
X78944829Y22225201D01*
X78394552Y22197230D01*
X78016077Y22040460D01*
X77948088Y21799517D01*
X76991912Y21799517D01*
X76923923Y22040460D01*
X76404829Y22225201D01*
X75854552Y22197230D01*
X75476077Y22040460D01*
X75408088Y21799517D01*
X74647170Y21799517D01*
X74444540Y22002147D01*
X73935494Y22213000D01*
X73384506Y22213000D01*
X72875460Y22002147D01*
X72485853Y21612540D01*
X72275000Y21103494D01*
X60174000Y21103494D01*
X60174000Y21391678D01*
X59848966Y22176380D01*
X59248380Y22776966D01*
X58463678Y23102000D01*
X57614322Y23102000D01*
X56829620Y22776966D01*
X56229034Y22176380D01*
X55904000Y21391678D01*
X50752087Y21391678D01*
X50794168Y21454656D01*
X54564513Y25225000D01*
X82978227Y25225000D01*
X83058000Y25209132D01*
X83137773Y25225000D01*
X83137774Y25225000D01*
X83374046Y25271997D01*
X83641977Y25451023D01*
X83687168Y25518656D01*
X86120513Y27952000D01*
X86635494Y27952000D01*
X87144540Y28162853D01*
X87534147Y28552460D01*
X87745000Y29061506D01*
X87745000Y29612494D01*
X87534147Y30121540D01*
X87144540Y30511147D01*
X86635494Y30722000D01*
X86084506Y30722000D01*
X85575460Y30511147D01*
X85185853Y30121540D01*
X84975000Y29612494D01*
X84975000Y29097513D01*
X82722488Y26845000D01*
X54308773Y26845000D01*
X54229000Y26860868D01*
X54149227Y26845000D01*
X54149226Y26845000D01*
X53912954Y26798003D01*
X53645023Y26618977D01*
X53599834Y26551347D01*
X49829488Y22781000D01*
X45928513Y22781000D01*
X43355000Y25354512D01*
X43355000Y27254488D01*
X45732000Y24877487D01*
X45732000Y24362506D01*
X45942853Y23853460D01*
X46332460Y23463853D01*
X46841506Y23253000D01*
X47392494Y23253000D01*
X47901540Y23463853D01*
X48291147Y23853460D01*
X48502000Y24362506D01*
X48502000Y24913494D01*
X48291147Y25422540D01*
X47901540Y25812147D01*
X47392494Y26023000D01*
X46877513Y26023000D01*
X44005011Y28895501D01*
X44005011Y31178569D01*
X45009000Y31178569D01*
X45009000Y30289431D01*
X45349259Y29467974D01*
X45977974Y28839259D01*
X46799431Y28499000D01*
X47688569Y28499000D01*
X48510026Y28839259D01*
X49138741Y29467974D01*
X49479000Y30289431D01*
X49479000Y31178569D01*
X49466160Y31209569D01*
X51819000Y31209569D01*
X51819000Y30320431D01*
X52159259Y29498974D01*
X52787974Y28870259D01*
X53609431Y28530000D01*
X54498569Y28530000D01*
X55320026Y28870259D01*
X55948741Y29498974D01*
X56289000Y30320431D01*
X56289000Y31209569D01*
X77219000Y31209569D01*
X77219000Y30320431D01*
X77559259Y29498974D01*
X78187974Y28870259D01*
X79009431Y28530000D01*
X79898569Y28530000D01*
X80720026Y28870259D01*
X81348741Y29498974D01*
X81689000Y30320431D01*
X81689000Y31209569D01*
X81348741Y32031026D01*
X80720026Y32659741D01*
X79898569Y33000000D01*
X79009431Y33000000D01*
X78187974Y32659741D01*
X77559259Y32031026D01*
X77219000Y31209569D01*
X56289000Y31209569D01*
X55948741Y32031026D01*
X55320026Y32659741D01*
X54498569Y33000000D01*
X53609431Y33000000D01*
X52787974Y32659741D01*
X52159259Y32031026D01*
X51819000Y31209569D01*
X49466160Y31209569D01*
X49138741Y32000026D01*
X48510026Y32628741D01*
X47688569Y32969000D01*
X46799431Y32969000D01*
X45977974Y32628741D01*
X45349259Y32000026D01*
X45009000Y31178569D01*
X44005011Y31178569D01*
X44005011Y46331881D01*
X48197000Y46331881D01*
X48197000Y45776119D01*
X48409680Y45262663D01*
X48802663Y44869680D01*
X49009513Y44784000D01*
X48802663Y44698320D01*
X48409680Y44305337D01*
X48197000Y43791881D01*
X48197000Y43236119D01*
X48409680Y42722663D01*
X48802663Y42329680D01*
X49009513Y42244000D01*
X48802663Y42158320D01*
X48409680Y41765337D01*
X48197000Y41251881D01*
X48197000Y40696119D01*
X48409680Y40182663D01*
X48802663Y39789680D01*
X49009513Y39704000D01*
X48802663Y39618320D01*
X48409680Y39225337D01*
X48197000Y38711881D01*
X48197000Y38156119D01*
X48409680Y37642663D01*
X48802663Y37249680D01*
X49009513Y37164000D01*
X48802663Y37078320D01*
X48409680Y36685337D01*
X48197000Y36171881D01*
X48197000Y35616119D01*
X48409680Y35102663D01*
X48802663Y34709680D01*
X49316119Y34497000D01*
X49871881Y34497000D01*
X50385337Y34709680D01*
X50778320Y35102663D01*
X50955420Y35530222D01*
X51119680Y35133663D01*
X51512663Y34740680D01*
X52026119Y34528000D01*
X52581881Y34528000D01*
X53095337Y34740680D01*
X53488320Y35133663D01*
X53701000Y35647119D01*
X53701000Y36202881D01*
X80407000Y36202881D01*
X80407000Y35647119D01*
X80619680Y35133663D01*
X81012663Y34740680D01*
X81526119Y34528000D01*
X82081881Y34528000D01*
X82595337Y34740680D01*
X82988320Y35133663D01*
X83201000Y35647119D01*
X83201000Y36202881D01*
X82988320Y36716337D01*
X82595337Y37109320D01*
X82404353Y37188428D01*
X82535143Y37242603D01*
X82604608Y37484787D01*
X81804000Y38285395D01*
X81003392Y37484787D01*
X81072857Y37242603D01*
X81213393Y37192465D01*
X81012663Y37109320D01*
X80619680Y36716337D01*
X80407000Y36202881D01*
X53701000Y36202881D01*
X53488320Y36716337D01*
X53095337Y37109320D01*
X52888487Y37195000D01*
X53095337Y37280680D01*
X53488320Y37673663D01*
X53701000Y38187119D01*
X53701000Y38672698D01*
X80394856Y38672698D01*
X80422638Y38117632D01*
X80581603Y37733857D01*
X80823787Y37664392D01*
X81624395Y38465000D01*
X81983605Y38465000D01*
X82784213Y37664392D01*
X83026397Y37733857D01*
X83213144Y38257302D01*
X83185362Y38812368D01*
X83026397Y39196143D01*
X82784213Y39265608D01*
X81983605Y38465000D01*
X81624395Y38465000D01*
X80823787Y39265608D01*
X80581603Y39196143D01*
X80394856Y38672698D01*
X53701000Y38672698D01*
X53701000Y38742881D01*
X53488320Y39256337D01*
X53095337Y39649320D01*
X52888487Y39735000D01*
X53095337Y39820680D01*
X53488320Y40213663D01*
X53701000Y40727119D01*
X53701000Y41282881D01*
X53488320Y41796337D01*
X53095337Y42189320D01*
X52888487Y42275000D01*
X53095337Y42360680D01*
X53488320Y42753663D01*
X53701000Y43267119D01*
X53701000Y43822881D01*
X53488320Y44336337D01*
X53095337Y44729320D01*
X52888487Y44815000D01*
X53095337Y44900680D01*
X53488320Y45293663D01*
X53701000Y45807119D01*
X53701000Y46362881D01*
X53488320Y46876337D01*
X53095337Y47269320D01*
X52581881Y47482000D01*
X52026119Y47482000D01*
X51512663Y47269320D01*
X51119680Y46876337D01*
X50942580Y46448778D01*
X50778320Y46845337D01*
X50385337Y47238320D01*
X49871881Y47451000D01*
X49316119Y47451000D01*
X48802663Y47238320D01*
X48409680Y46845337D01*
X48197000Y46331881D01*
X44005011Y46331881D01*
X44005011Y48038216D01*
X44020879Y48117989D01*
X43968997Y48378818D01*
X43958014Y48434035D01*
X43778988Y48701966D01*
X43711358Y48747155D01*
X41517000Y50941512D01*
X41517000Y51178569D01*
X45009000Y51178569D01*
X45009000Y50289431D01*
X45349259Y49467974D01*
X45977974Y48839259D01*
X46799431Y48499000D01*
X47688569Y48499000D01*
X48510026Y48839259D01*
X49138741Y49467974D01*
X49479000Y50289431D01*
X49479000Y51178569D01*
X49466160Y51209569D01*
X51819000Y51209569D01*
X51819000Y50320431D01*
X52159259Y49498974D01*
X52787974Y48870259D01*
X53609431Y48530000D01*
X54498569Y48530000D01*
X55320026Y48870259D01*
X55948741Y49498974D01*
X56289000Y50320431D01*
X56289000Y51209569D01*
X55948741Y52031026D01*
X55320026Y52659741D01*
X54498569Y53000000D01*
X53609431Y53000000D01*
X52787974Y52659741D01*
X52159259Y52031026D01*
X51819000Y51209569D01*
X49466160Y51209569D01*
X49138741Y52000026D01*
X48510026Y52628741D01*
X47688569Y52969000D01*
X46799431Y52969000D01*
X45977974Y52628741D01*
X45349259Y52000026D01*
X45009000Y51178569D01*
X41517000Y51178569D01*
X41517000Y51420488D01*
X47198513Y57102000D01*
X49936313Y57102000D01*
X49879853Y57045540D01*
X49669000Y56536494D01*
X49669000Y55985506D01*
X49745425Y55801000D01*
X49408687Y55801000D01*
X49044540Y56165147D01*
X48535494Y56376000D01*
X47984506Y56376000D01*
X47475460Y56165147D01*
X47085853Y55775540D01*
X46875000Y55266494D01*
X46875000Y54715506D01*
X47085853Y54206460D01*
X47475460Y53816853D01*
X47984506Y53606000D01*
X48535494Y53606000D01*
X49044540Y53816853D01*
X49408687Y54181000D01*
X65309908Y54181000D01*
X65389681Y54165132D01*
X65469454Y54181000D01*
X65469455Y54181000D01*
X65705727Y54227997D01*
X65973658Y54407023D01*
X66018849Y54474656D01*
X66100945Y54556752D01*
X66615927Y54556752D01*
X67124973Y54767605D01*
X67514580Y55157212D01*
X67725433Y55666258D01*
X67725433Y56217246D01*
X67514580Y56726292D01*
X67124973Y57115899D01*
X66615927Y57326752D01*
X66220512Y57326752D01*
X66464763Y57571003D01*
X66485229Y57566932D01*
X66565002Y57582800D01*
X66565003Y57582800D01*
X66801275Y57629797D01*
X66992843Y57757799D01*
X67510722Y57757799D01*
X68019768Y57968652D01*
X68409375Y58358259D01*
X68620228Y58867305D01*
X68620228Y59418293D01*
X68409375Y59927339D01*
X68019768Y60316946D01*
X67510722Y60527799D01*
X66959734Y60527799D01*
X66450688Y60316946D01*
X66061081Y59927339D01*
X65850228Y59418293D01*
X65850228Y59160821D01*
X65825001Y59155803D01*
X65557070Y58976777D01*
X65511881Y58909147D01*
X63673735Y57071000D01*
X52202687Y57071000D01*
X52171687Y57102000D01*
X56562227Y57102000D01*
X56642000Y57086132D01*
X56721773Y57102000D01*
X56721774Y57102000D01*
X56958046Y57148997D01*
X57225977Y57328023D01*
X57271168Y57395656D01*
X57920348Y58044835D01*
X57987977Y58090023D01*
X58075673Y58221270D01*
X58167003Y58357953D01*
X58229868Y58674000D01*
X58214000Y58753774D01*
X58214000Y59864227D01*
X58229868Y59944000D01*
X58214000Y60023774D01*
X58167003Y60260046D01*
X57987977Y60527977D01*
X57920347Y60573166D01*
X56128168Y62365344D01*
X56082977Y62432977D01*
X55815046Y62612003D01*
X55578774Y62659000D01*
X55578773Y62659000D01*
X55499000Y62674868D01*
X55419227Y62659000D01*
X44836687Y62659000D01*
X44472540Y63023147D01*
X44472000Y63023371D01*
X44472000Y63390223D01*
X44505435Y63396874D01*
X44796586Y63591414D01*
X44991126Y63882565D01*
X45059440Y64226000D01*
X45059440Y66076000D01*
X44991126Y66419435D01*
X44937294Y66500000D01*
X65069488Y66500000D01*
X72469000Y59100487D01*
X72469001Y53548514D01*
X65898488Y46978000D01*
X65383506Y46978000D01*
X64874460Y46767147D01*
X64484853Y46377540D01*
X64274000Y45868494D01*
X64274000Y45317506D01*
X64484853Y44808460D01*
X64874460Y44418853D01*
X65383506Y44208000D01*
X65922488Y44208000D01*
X65450488Y43736000D01*
X64902687Y43736000D01*
X64538540Y44100147D01*
X64029494Y44311000D01*
X63478506Y44311000D01*
X62969460Y44100147D01*
X62579853Y43710540D01*
X62369000Y43201494D01*
X62369000Y42650506D01*
X62579853Y42141460D01*
X62969460Y41751853D01*
X63478506Y41541000D01*
X64029494Y41541000D01*
X64538540Y41751853D01*
X64902687Y42116000D01*
X65706227Y42116000D01*
X65786000Y42100132D01*
X65865773Y42116000D01*
X65865774Y42116000D01*
X66102046Y42162997D01*
X66369977Y42342023D01*
X66415168Y42409656D01*
X70368393Y46362881D01*
X80407000Y46362881D01*
X80407000Y45807119D01*
X80619680Y45293663D01*
X81012663Y44900680D01*
X81219513Y44815000D01*
X81012663Y44729320D01*
X80619680Y44336337D01*
X80407000Y43822881D01*
X80407000Y43267119D01*
X80619680Y42753663D01*
X81012663Y42360680D01*
X81219513Y42275000D01*
X81012663Y42189320D01*
X80619680Y41796337D01*
X80407000Y41282881D01*
X80407000Y40727119D01*
X80619680Y40213663D01*
X81012663Y39820680D01*
X81203647Y39741572D01*
X81072857Y39687397D01*
X81003392Y39445213D01*
X81804000Y38644605D01*
X82604608Y39445213D01*
X82535143Y39687397D01*
X82394607Y39737535D01*
X82595337Y39820680D01*
X82988320Y40213663D01*
X83201000Y40727119D01*
X83201000Y41282881D01*
X82988320Y41796337D01*
X82595337Y42189320D01*
X82388487Y42275000D01*
X82595337Y42360680D01*
X82988320Y42753663D01*
X83201000Y43267119D01*
X83201000Y43822881D01*
X82988320Y44336337D01*
X82595337Y44729320D01*
X82388487Y44815000D01*
X82595337Y44900680D01*
X82988320Y45293663D01*
X83201000Y45807119D01*
X83201000Y46362881D01*
X82988320Y46876337D01*
X82595337Y47269320D01*
X82081881Y47482000D01*
X81526119Y47482000D01*
X81012663Y47269320D01*
X80619680Y46876337D01*
X80407000Y46362881D01*
X70368393Y46362881D01*
X74684347Y50678834D01*
X74751977Y50724023D01*
X74931003Y50991954D01*
X74974288Y51209569D01*
X77219000Y51209569D01*
X77219000Y50320431D01*
X77559259Y49498974D01*
X78187974Y48870259D01*
X79009431Y48530000D01*
X79898569Y48530000D01*
X80720026Y48870259D01*
X81348741Y49498974D01*
X81689000Y50320431D01*
X81689000Y51209569D01*
X81348741Y52031026D01*
X80720026Y52659741D01*
X79898569Y53000000D01*
X79009431Y53000000D01*
X78187974Y52659741D01*
X77559259Y52031026D01*
X77219000Y51209569D01*
X74974288Y51209569D01*
X74978000Y51228226D01*
X74993868Y51307999D01*
X74978000Y51387772D01*
X74978000Y60372228D01*
X74993868Y60452001D01*
X74943145Y60707003D01*
X74931003Y60768046D01*
X74751977Y61035977D01*
X74684348Y61081165D01*
X66415168Y69350344D01*
X66369977Y69417977D01*
X66102046Y69597003D01*
X65865774Y69644000D01*
X65865773Y69644000D01*
X65786000Y69659868D01*
X65706227Y69644000D01*
X31067768Y69644000D01*
X30987999Y69659867D01*
X30908230Y69644000D01*
X30908226Y69644000D01*
X30671954Y69597003D01*
X30404023Y69417977D01*
X30358834Y69350347D01*
X28959655Y67951167D01*
X28892025Y67905978D01*
X28846836Y67838348D01*
X28712999Y67638047D01*
X28650133Y67322001D01*
X28666002Y67242224D01*
X28666001Y66488773D01*
X28650133Y66408999D01*
X28666001Y66329226D01*
X28712998Y66092954D01*
X28841000Y65901385D01*
X28841000Y65383506D01*
X29051853Y64874460D01*
X29441460Y64484853D01*
X29950506Y64274000D01*
X30501494Y64274000D01*
X31010540Y64484853D01*
X31390937Y64865250D01*
X39027000Y64865250D01*
X39027000Y63849690D01*
X39123673Y63616301D01*
X39302302Y63437673D01*
X39535691Y63341000D01*
X40126250Y63341000D01*
X40285000Y63499750D01*
X40285000Y65024000D01*
X40539000Y65024000D01*
X40539000Y63499750D01*
X40697750Y63341000D01*
X41288309Y63341000D01*
X41521698Y63437673D01*
X41700327Y63616301D01*
X41797000Y63849690D01*
X41797000Y64865250D01*
X41638250Y65024000D01*
X40539000Y65024000D01*
X40285000Y65024000D01*
X39185750Y65024000D01*
X39027000Y64865250D01*
X31390937Y64865250D01*
X31400147Y64874460D01*
X31611000Y65383506D01*
X31611000Y65934494D01*
X31476071Y66260242D01*
X31600460Y66135853D01*
X32109506Y65925000D01*
X32660494Y65925000D01*
X33169540Y66135853D01*
X33533687Y66500000D01*
X39046754Y66500000D01*
X39027000Y66452310D01*
X39027000Y65436750D01*
X39185750Y65278000D01*
X40285000Y65278000D01*
X40285000Y65298000D01*
X40539000Y65298000D01*
X40539000Y65278000D01*
X41638250Y65278000D01*
X41797000Y65436750D01*
X41797000Y66452310D01*
X41777246Y66500000D01*
X42386706Y66500000D01*
X42332874Y66419435D01*
X42264560Y66076000D01*
X42264560Y64226000D01*
X42332874Y63882565D01*
X42527414Y63591414D01*
X42818565Y63396874D01*
X42852001Y63390223D01*
X42852001Y62971688D01*
X42513853Y62633540D01*
X42303000Y62124494D01*
X42303000Y61609513D01*
X40177488Y59484000D01*
X30434513Y59484000D01*
X24505168Y65413344D01*
X24459977Y65480977D01*
X24192046Y65660003D01*
X23955774Y65707000D01*
X23955773Y65707000D01*
X23876000Y65722868D01*
X23796227Y65707000D01*
X10411433Y65707000D01*
X10331660Y65722868D01*
X10251887Y65707000D01*
X10251886Y65707000D01*
X10015614Y65660003D01*
X9747683Y65480977D01*
X9702494Y65413347D01*
X9318917Y65029770D01*
X9166540Y65182147D01*
X8657494Y65393000D01*
X8106506Y65393000D01*
X7597460Y65182147D01*
X7207853Y64792540D01*
X6997000Y64283494D01*
X710000Y64283494D01*
X710000Y74739569D01*
X1321000Y74739569D01*
X1321000Y73850431D01*
X1661259Y73028974D01*
X2289974Y72400259D01*
X3111431Y72060000D01*
X4000569Y72060000D01*
X4822026Y72400259D01*
X5450741Y73028974D01*
X5791000Y73850431D01*
X5791000Y74739569D01*
X90983000Y74739569D01*
X90983000Y73850431D01*
X91323259Y73028974D01*
X91951974Y72400259D01*
X92773431Y72060000D01*
X93662569Y72060000D01*
X94484026Y72400259D01*
X95112741Y73028974D01*
X95453000Y73850431D01*
X95453000Y74739569D01*
X95112741Y75561026D01*
X94484026Y76189741D01*
X93662569Y76530000D01*
X92773431Y76530000D01*
X91951974Y76189741D01*
X91323259Y75561026D01*
X90983000Y74739569D01*
X5791000Y74739569D01*
X5450741Y75561026D01*
X4822026Y76189741D01*
X4000569Y76530000D01*
X3111431Y76530000D01*
X2289974Y76189741D01*
X1661259Y75561026D01*
X1321000Y74739569D01*
X710000Y74739569D01*
X710000Y77141000D01*
X96066313Y77141000D01*
X96315680Y710000D01*
X96315680Y710000D01*
G37*
X96315680Y710000D02*
X710000Y710000D01*
X710000Y4000569D01*
X1321000Y4000569D01*
X1321000Y3111431D01*
X1661259Y2289974D01*
X2289974Y1661259D01*
X3111431Y1321000D01*
X4000569Y1321000D01*
X4822026Y1661259D01*
X5450741Y2289974D01*
X5791000Y3111431D01*
X5791000Y4000569D01*
X5450741Y4822026D01*
X4822026Y5450741D01*
X4000569Y5791000D01*
X3111431Y5791000D01*
X2289974Y5450741D01*
X1661259Y4822026D01*
X1321000Y4000569D01*
X710000Y4000569D01*
X710000Y13271569D01*
X4242000Y13271569D01*
X4242000Y12382431D01*
X4582259Y11560974D01*
X5210974Y10932259D01*
X6032431Y10592000D01*
X6921569Y10592000D01*
X7743026Y10932259D01*
X8371741Y11560974D01*
X8712000Y12382431D01*
X8712000Y13017569D01*
X16688000Y13017569D01*
X16688000Y12128431D01*
X17028259Y11306974D01*
X17656974Y10678259D01*
X18478431Y10338000D01*
X19367569Y10338000D01*
X20189026Y10678259D01*
X20817741Y11306974D01*
X21158000Y12128431D01*
X21158000Y13017569D01*
X20817741Y13839026D01*
X20189026Y14467741D01*
X19367569Y14808000D01*
X18478431Y14808000D01*
X17656974Y14467741D01*
X17028259Y13839026D01*
X16688000Y13017569D01*
X8712000Y13017569D01*
X8712000Y13271569D01*
X8371741Y14093026D01*
X7743026Y14721741D01*
X6921569Y15062000D01*
X6032431Y15062000D01*
X5210974Y14721741D01*
X4582259Y14093026D01*
X4242000Y13271569D01*
X710000Y13271569D01*
X710000Y30036250D01*
X9426000Y30036250D01*
X9426000Y28695691D01*
X9522673Y28462302D01*
X9701301Y28283673D01*
X9934690Y28187000D01*
X11525250Y28187000D01*
X11684000Y28345750D01*
X11684000Y30195000D01*
X11938000Y30195000D01*
X11938000Y28345750D01*
X12096750Y28187000D01*
X13687310Y28187000D01*
X13920699Y28283673D01*
X14099327Y28462302D01*
X14196000Y28695691D01*
X14196000Y30036250D01*
X14037250Y30195000D01*
X11938000Y30195000D01*
X11684000Y30195000D01*
X9584750Y30195000D01*
X9426000Y30036250D01*
X710000Y30036250D01*
X710000Y33036250D01*
X4726000Y33036250D01*
X4726000Y31445691D01*
X4822673Y31212302D01*
X5001301Y31033673D01*
X5234690Y30937000D01*
X6825250Y30937000D01*
X6984000Y31095750D01*
X6984000Y33195000D01*
X7238000Y33195000D01*
X7238000Y31095750D01*
X7396750Y30937000D01*
X8987310Y30937000D01*
X9220699Y31033673D01*
X9399327Y31212302D01*
X9426000Y31276696D01*
X9426000Y30607750D01*
X9584750Y30449000D01*
X11684000Y30449000D01*
X11684000Y32298250D01*
X11938000Y32298250D01*
X11938000Y30449000D01*
X14037250Y30449000D01*
X14196000Y30607750D01*
X14196000Y31948309D01*
X14099327Y32181698D01*
X13920699Y32360327D01*
X13687310Y32457000D01*
X12096750Y32457000D01*
X11938000Y32298250D01*
X11684000Y32298250D01*
X11525250Y32457000D01*
X9934690Y32457000D01*
X9701301Y32360327D01*
X9522673Y32181698D01*
X9496000Y32117304D01*
X9496000Y33036250D01*
X9337250Y33195000D01*
X7238000Y33195000D01*
X6984000Y33195000D01*
X4884750Y33195000D01*
X4726000Y33036250D01*
X710000Y33036250D01*
X710000Y35198309D01*
X4726000Y35198309D01*
X4726000Y33607750D01*
X4884750Y33449000D01*
X6984000Y33449000D01*
X6984000Y35548250D01*
X6825250Y35707000D01*
X5234690Y35707000D01*
X5001301Y35610327D01*
X4822673Y35431698D01*
X4726000Y35198309D01*
X710000Y35198309D01*
X710000Y46331881D01*
X18697000Y46331881D01*
X18697000Y45776119D01*
X18909680Y45262663D01*
X19302663Y44869680D01*
X19509513Y44784000D01*
X19302663Y44698320D01*
X18909680Y44305337D01*
X18697000Y43791881D01*
X18697000Y43236119D01*
X18909680Y42722663D01*
X19302663Y42329680D01*
X19509513Y42244000D01*
X19302663Y42158320D01*
X18909680Y41765337D01*
X18697000Y41251881D01*
X18697000Y40696119D01*
X18909680Y40182663D01*
X19302663Y39789680D01*
X19493647Y39710572D01*
X19362857Y39656397D01*
X19293392Y39414213D01*
X20094000Y38613605D01*
X20894608Y39414213D01*
X20825143Y39656397D01*
X20684607Y39706535D01*
X20885337Y39789680D01*
X21278320Y40182663D01*
X21491000Y40696119D01*
X21491000Y41251881D01*
X21278320Y41765337D01*
X20885337Y42158320D01*
X20678487Y42244000D01*
X20885337Y42329680D01*
X21278320Y42722663D01*
X21491000Y43236119D01*
X21491000Y43791881D01*
X21278320Y44305337D01*
X20885337Y44698320D01*
X20678487Y44784000D01*
X20885337Y44869680D01*
X21072423Y45056766D01*
X24773000Y45056766D01*
X24773000Y44605234D01*
X24945793Y44188074D01*
X25265074Y43868793D01*
X25682234Y43696000D01*
X26133766Y43696000D01*
X26550926Y43868793D01*
X26870207Y44188074D01*
X27043000Y44605234D01*
X27043000Y45056766D01*
X26870207Y45473926D01*
X26550926Y45793207D01*
X26133766Y45966000D01*
X25682234Y45966000D01*
X25265074Y45793207D01*
X24945793Y45473926D01*
X24773000Y45056766D01*
X21072423Y45056766D01*
X21278320Y45262663D01*
X21491000Y45776119D01*
X21491000Y46331881D01*
X21278320Y46845337D01*
X20885337Y47238320D01*
X20371881Y47451000D01*
X19816119Y47451000D01*
X19302663Y47238320D01*
X18909680Y46845337D01*
X18697000Y46331881D01*
X710000Y46331881D01*
X710000Y51178569D01*
X19609000Y51178569D01*
X19609000Y50289431D01*
X19949259Y49467974D01*
X20577974Y48839259D01*
X21399431Y48499000D01*
X22288569Y48499000D01*
X23110026Y48839259D01*
X23738741Y49467974D01*
X24079000Y50289431D01*
X24079000Y51178569D01*
X23738741Y52000026D01*
X23110026Y52628741D01*
X22288569Y52969000D01*
X21399431Y52969000D01*
X20577974Y52628741D01*
X19949259Y52000026D01*
X19609000Y51178569D01*
X710000Y51178569D01*
X710000Y56920110D01*
X11004524Y56920110D01*
X11174355Y56510076D01*
X11564642Y56081817D01*
X12089108Y55835514D01*
X12319000Y55956181D01*
X12319000Y57150000D01*
X11125845Y57150000D01*
X11004524Y56920110D01*
X710000Y56920110D01*
X710000Y64283494D01*
X6997000Y64283494D01*
X6997000Y63732506D01*
X7207853Y63223460D01*
X7597460Y62833853D01*
X8106506Y62623000D01*
X8621488Y62623000D01*
X9403834Y61840653D01*
X9449023Y61773023D01*
X9516652Y61727835D01*
X9716953Y61593997D01*
X10033000Y61531132D01*
X10112774Y61547000D01*
X11201231Y61547000D01*
X11375375Y61286375D01*
X11673761Y61087000D01*
X11375375Y60887625D01*
X11116372Y60500000D01*
X10038687Y60500000D01*
X9674540Y60864147D01*
X9165494Y61075000D01*
X8614506Y61075000D01*
X8105460Y60864147D01*
X7715853Y60474540D01*
X7505000Y59965494D01*
X7505000Y59414506D01*
X7715853Y58905460D01*
X8105460Y58515853D01*
X8614506Y58305000D01*
X9165494Y58305000D01*
X9674540Y58515853D01*
X10038687Y58880000D01*
X11286090Y58880000D01*
X11375375Y58746375D01*
X11694478Y58533157D01*
X11564642Y58472183D01*
X11174355Y58043924D01*
X11004524Y57633890D01*
X11125845Y57404000D01*
X12319000Y57404000D01*
X12319000Y57424000D01*
X12573000Y57424000D01*
X12573000Y57404000D01*
X12593000Y57404000D01*
X12593000Y57150000D01*
X12573000Y57150000D01*
X12573000Y55956181D01*
X12802892Y55835514D01*
X13327358Y56081817D01*
X13714647Y56506786D01*
X13915375Y56206375D01*
X14406582Y55878161D01*
X14839744Y55792000D01*
X15132256Y55792000D01*
X15293429Y55824059D01*
X17389824Y53727663D01*
X17435013Y53660033D01*
X17502642Y53614845D01*
X17702943Y53481007D01*
X18018990Y53418142D01*
X18098764Y53434010D01*
X30063497Y53434010D01*
X29455654Y52826166D01*
X29388024Y52780977D01*
X29342835Y52713347D01*
X29208998Y52513046D01*
X29146132Y52197000D01*
X29162001Y52117222D01*
X29162000Y50752774D01*
X29146132Y50673000D01*
X29162000Y50593227D01*
X29208997Y50356955D01*
X29388023Y50089023D01*
X29416001Y50070329D01*
X29416001Y45459939D01*
X29410207Y45473926D01*
X29090926Y45793207D01*
X28673766Y45966000D01*
X28222234Y45966000D01*
X27805074Y45793207D01*
X27485793Y45473926D01*
X27313000Y45056766D01*
X27313000Y44605234D01*
X27485793Y44188074D01*
X27805074Y43868793D01*
X28222234Y43696000D01*
X28673766Y43696000D01*
X29090926Y43868793D01*
X29410207Y44188074D01*
X29416000Y44202061D01*
X29416000Y40383433D01*
X29400132Y40303660D01*
X29416000Y40223887D01*
X29462997Y39987615D01*
X29642023Y39719683D01*
X29709656Y39674492D01*
X30474230Y38909917D01*
X30321853Y38757540D01*
X30111000Y38248494D01*
X30111000Y37697506D01*
X30321853Y37188460D01*
X30711460Y36798853D01*
X31220506Y36588000D01*
X31771494Y36588000D01*
X32280540Y36798853D01*
X32670147Y37188460D01*
X32881000Y37697506D01*
X32881000Y38248494D01*
X32670147Y38757540D01*
X32303951Y39123736D01*
X32299294Y39147147D01*
X32259003Y39349706D01*
X32079977Y39617637D01*
X32012347Y39662826D01*
X31036000Y40639172D01*
X31036000Y45669488D01*
X36020001Y40685486D01*
X36020000Y32638173D01*
X30852654Y27470826D01*
X30785024Y27425637D01*
X30739835Y27358007D01*
X30605998Y27157706D01*
X30561049Y26931736D01*
X30194853Y26565540D01*
X29984000Y26056494D01*
X29984000Y25505506D01*
X30194853Y24996460D01*
X30251313Y24940000D01*
X22052513Y24940000D01*
X17701000Y29291512D01*
X17701000Y31178569D01*
X19609000Y31178569D01*
X19609000Y30289431D01*
X19949259Y29467974D01*
X20577974Y28839259D01*
X21399431Y28499000D01*
X22288569Y28499000D01*
X23110026Y28839259D01*
X23738741Y29467974D01*
X24079000Y30289431D01*
X24079000Y31178569D01*
X23738741Y32000026D01*
X23110026Y32628741D01*
X22288569Y32969000D01*
X21399431Y32969000D01*
X20577974Y32628741D01*
X19949259Y32000026D01*
X19609000Y31178569D01*
X17701000Y31178569D01*
X17701000Y33262231D01*
X17716867Y33342001D01*
X17701000Y33421770D01*
X17701000Y33421774D01*
X17654003Y33658046D01*
X17474977Y33925977D01*
X17407347Y33971166D01*
X15206632Y36171881D01*
X18697000Y36171881D01*
X18697000Y35616119D01*
X18909680Y35102663D01*
X19302663Y34709680D01*
X19816119Y34497000D01*
X20371881Y34497000D01*
X20885337Y34709680D01*
X21278320Y35102663D01*
X21491000Y35616119D01*
X21491000Y36171881D01*
X21278320Y36685337D01*
X20885337Y37078320D01*
X20694353Y37157428D01*
X20825143Y37211603D01*
X20894608Y37453787D01*
X20094000Y38254395D01*
X19293392Y37453787D01*
X19362857Y37211603D01*
X19503393Y37161465D01*
X19302663Y37078320D01*
X18909680Y36685337D01*
X18697000Y36171881D01*
X15206632Y36171881D01*
X14540168Y36838344D01*
X14494977Y36905977D01*
X14227046Y37085003D01*
X14208440Y37088704D01*
X14208440Y38072000D01*
X14159157Y38319765D01*
X14018809Y38529809D01*
X13851357Y38641698D01*
X18684856Y38641698D01*
X18712638Y38086632D01*
X18871603Y37702857D01*
X19113787Y37633392D01*
X19914395Y38434000D01*
X20273605Y38434000D01*
X21074213Y37633392D01*
X21316397Y37702857D01*
X21503144Y38226302D01*
X21475362Y38781368D01*
X21316397Y39165143D01*
X21074213Y39234608D01*
X20273605Y38434000D01*
X19914395Y38434000D01*
X19113787Y39234608D01*
X18871603Y39165143D01*
X18684856Y38641698D01*
X13851357Y38641698D01*
X13808765Y38670157D01*
X13561000Y38719440D01*
X10061000Y38719440D01*
X9813235Y38670157D01*
X9603191Y38529809D01*
X9462843Y38319765D01*
X9413560Y38072000D01*
X9413560Y35397337D01*
X9399327Y35431698D01*
X9220699Y35610327D01*
X8987310Y35707000D01*
X7396750Y35707000D01*
X7238000Y35548250D01*
X7238000Y33449000D01*
X9337250Y33449000D01*
X9496000Y33607750D01*
X9496000Y34274612D01*
X9603191Y34114191D01*
X9813235Y33973843D01*
X10061000Y33924560D01*
X13561000Y33924560D01*
X13808765Y33973843D01*
X14018809Y34114191D01*
X14159157Y34324235D01*
X14208440Y34572000D01*
X14208440Y34879048D01*
X16081000Y33006487D01*
X16081001Y32083774D01*
X16081000Y29035773D01*
X16065132Y28956000D01*
X16081000Y28876227D01*
X16127997Y28639955D01*
X16307023Y28372023D01*
X16374656Y28326832D01*
X21087834Y23613653D01*
X21133023Y23546023D01*
X21200652Y23500835D01*
X21400953Y23366997D01*
X21717000Y23304132D01*
X21796774Y23320000D01*
X32051227Y23320000D01*
X32131000Y23304132D01*
X32210773Y23320000D01*
X32210774Y23320000D01*
X32447046Y23366997D01*
X32714977Y23546023D01*
X32760168Y23613656D01*
X33609513Y24463000D01*
X35070594Y24463000D01*
X34648460Y24288147D01*
X34258853Y23898540D01*
X34048000Y23389494D01*
X34048000Y22838506D01*
X34258853Y22329460D01*
X34623001Y21965312D01*
X34623000Y21161774D01*
X34607132Y21082000D01*
X34623000Y21002227D01*
X34669997Y20765955D01*
X34849023Y20498023D01*
X34916656Y20452832D01*
X50685000Y4684487D01*
X50685000Y4169506D01*
X50895853Y3660460D01*
X51285460Y3270853D01*
X51794506Y3060000D01*
X52345494Y3060000D01*
X52854540Y3270853D01*
X53244147Y3660460D01*
X53385024Y4000569D01*
X91237000Y4000569D01*
X91237000Y3111431D01*
X91577259Y2289974D01*
X92205974Y1661259D01*
X93027431Y1321000D01*
X93916569Y1321000D01*
X94738026Y1661259D01*
X95366741Y2289974D01*
X95707000Y3111431D01*
X95707000Y4000569D01*
X95366741Y4822026D01*
X94738026Y5450741D01*
X93916569Y5791000D01*
X93027431Y5791000D01*
X92205974Y5450741D01*
X91577259Y4822026D01*
X91237000Y4000569D01*
X53385024Y4000569D01*
X53455000Y4169506D01*
X53455000Y4720494D01*
X53273366Y5159000D01*
X61642227Y5159000D01*
X61722000Y5143132D01*
X61801773Y5159000D01*
X61801774Y5159000D01*
X62038046Y5205997D01*
X62305977Y5385023D01*
X62351168Y5452656D01*
X69223345Y12324832D01*
X69290975Y12370021D01*
X69299359Y12382569D01*
X70155000Y12382569D01*
X70155000Y11493431D01*
X70495259Y10671974D01*
X71123974Y10043259D01*
X71945431Y9703000D01*
X72834569Y9703000D01*
X73656026Y10043259D01*
X74284741Y10671974D01*
X74625000Y11493431D01*
X74625000Y12382569D01*
X81585000Y12382569D01*
X81585000Y11493431D01*
X81925259Y10671974D01*
X82553974Y10043259D01*
X83375431Y9703000D01*
X84264569Y9703000D01*
X85086026Y10043259D01*
X85714741Y10671974D01*
X86055000Y11493431D01*
X86055000Y12382569D01*
X85714741Y13204026D01*
X85086026Y13832741D01*
X84264569Y14173000D01*
X83375431Y14173000D01*
X82553974Y13832741D01*
X81925259Y13204026D01*
X81585000Y12382569D01*
X74625000Y12382569D01*
X74284741Y13204026D01*
X73656026Y13832741D01*
X72834569Y14173000D01*
X71945431Y14173000D01*
X71123974Y13832741D01*
X70495259Y13204026D01*
X70155000Y12382569D01*
X69299359Y12382569D01*
X69470001Y12637952D01*
X69516998Y12874224D01*
X69516998Y12874225D01*
X69532866Y12953998D01*
X69516998Y13033771D01*
X69516998Y14472313D01*
X69881145Y14836460D01*
X70091998Y15345506D01*
X70091998Y15896494D01*
X69881145Y16405540D01*
X69491538Y16795147D01*
X68982492Y17006000D01*
X68431504Y17006000D01*
X67922458Y16795147D01*
X67532851Y16405540D01*
X67321998Y15896494D01*
X67321998Y15345506D01*
X67532851Y14836460D01*
X67896998Y14472313D01*
X67896999Y13289512D01*
X61386488Y6779000D01*
X52532513Y6779000D01*
X49119835Y10191678D01*
X55904000Y10191678D01*
X55904000Y9342322D01*
X56229034Y8557620D01*
X56829620Y7957034D01*
X57614322Y7632000D01*
X58463678Y7632000D01*
X59248380Y7957034D01*
X59848966Y8557620D01*
X60174000Y9342322D01*
X60174000Y10191678D01*
X59848966Y10976380D01*
X59248380Y11576966D01*
X58463678Y11902000D01*
X57614322Y11902000D01*
X56829620Y11576966D01*
X56229034Y10976380D01*
X55904000Y10191678D01*
X49119835Y10191678D01*
X46139183Y13172330D01*
X49004000Y13172330D01*
X49004000Y12561670D01*
X49237690Y11997493D01*
X49669493Y11565690D01*
X50233670Y11332000D01*
X50844330Y11332000D01*
X51408507Y11565690D01*
X51840310Y11997493D01*
X52074000Y12561670D01*
X52074000Y13172330D01*
X63504000Y13172330D01*
X63504000Y12561670D01*
X63737690Y11997493D01*
X64169493Y11565690D01*
X64733670Y11332000D01*
X65344330Y11332000D01*
X65908507Y11565690D01*
X66340310Y11997493D01*
X66574000Y12561670D01*
X66574000Y13172330D01*
X66340310Y13736507D01*
X65908507Y14168310D01*
X65344330Y14402000D01*
X64733670Y14402000D01*
X64169493Y14168310D01*
X63737690Y13736507D01*
X63504000Y13172330D01*
X52074000Y13172330D01*
X51840310Y13736507D01*
X51408507Y14168310D01*
X51400710Y14171539D01*
X51439554Y14286841D01*
X50539000Y15187395D01*
X49638446Y14286841D01*
X49677290Y14171539D01*
X49669493Y14168310D01*
X49237690Y13736507D01*
X49004000Y13172330D01*
X46139183Y13172330D01*
X43703849Y15607664D01*
X48992542Y15607664D01*
X49018161Y14997540D01*
X49202357Y14552852D01*
X49458841Y14466446D01*
X50359395Y15367000D01*
X50718605Y15367000D01*
X51619159Y14466446D01*
X51875643Y14552852D01*
X52085458Y15126336D01*
X52059839Y15736460D01*
X51875643Y16181148D01*
X51619159Y16267554D01*
X50718605Y15367000D01*
X50359395Y15367000D01*
X49458841Y16267554D01*
X49202357Y16181148D01*
X48992542Y15607664D01*
X43703849Y15607664D01*
X41139183Y18172330D01*
X49004000Y18172330D01*
X49004000Y17561670D01*
X49237690Y16997493D01*
X49669493Y16565690D01*
X49677290Y16562461D01*
X49638446Y16447159D01*
X50539000Y15546605D01*
X51439554Y16447159D01*
X51400710Y16562461D01*
X51408507Y16565690D01*
X51629658Y16786841D01*
X64138446Y16786841D01*
X64224852Y16530357D01*
X64798336Y16320542D01*
X65408460Y16346161D01*
X65853148Y16530357D01*
X65939554Y16786841D01*
X65039000Y17687395D01*
X64138446Y16786841D01*
X51629658Y16786841D01*
X51840310Y16997493D01*
X52074000Y17561670D01*
X52074000Y18107664D01*
X63492542Y18107664D01*
X63518161Y17497540D01*
X63702357Y17052852D01*
X63958841Y16966446D01*
X64859395Y17867000D01*
X65218605Y17867000D01*
X66119159Y16966446D01*
X66375643Y17052852D01*
X66585458Y17626336D01*
X66559839Y18236460D01*
X66424377Y18563494D01*
X73545000Y18563494D01*
X73545000Y18012506D01*
X73755853Y17503460D01*
X74145460Y17113853D01*
X74654506Y16903000D01*
X75205494Y16903000D01*
X75714540Y17113853D01*
X76104147Y17503460D01*
X76200000Y17734870D01*
X76295853Y17503460D01*
X76685460Y17113853D01*
X77194506Y16903000D01*
X77745494Y16903000D01*
X78254540Y17113853D01*
X78644147Y17503460D01*
X78740000Y17734870D01*
X78835853Y17503460D01*
X79225460Y17113853D01*
X79734506Y16903000D01*
X80285494Y16903000D01*
X80794540Y17113853D01*
X81163531Y17482844D01*
X81201843Y17290235D01*
X81342191Y17080191D01*
X81552235Y16939843D01*
X81800000Y16890560D01*
X83300000Y16890560D01*
X83547765Y16939843D01*
X83757809Y17080191D01*
X83898157Y17290235D01*
X83947440Y17538000D01*
X83947440Y19038000D01*
X83898157Y19285765D01*
X83757809Y19495809D01*
X83547765Y19636157D01*
X83300000Y19685440D01*
X82096127Y19685440D01*
X82454147Y20043460D01*
X82665000Y20552506D01*
X82665000Y21103494D01*
X82454147Y21612540D01*
X82064540Y22002147D01*
X81555494Y22213000D01*
X81004506Y22213000D01*
X80495460Y22002147D01*
X80105853Y21612540D01*
X80016603Y21397070D01*
X79952460Y21551923D01*
X79711517Y21619912D01*
X78919605Y20828000D01*
X79711517Y20036088D01*
X79952460Y20104077D01*
X80011745Y20270658D01*
X80105853Y20043460D01*
X80495460Y19653853D01*
X81004506Y19443000D01*
X81306905Y19443000D01*
X81201843Y19285765D01*
X81163531Y19093156D01*
X80794540Y19462147D01*
X80285494Y19673000D01*
X79734506Y19673000D01*
X79225460Y19462147D01*
X78835853Y19072540D01*
X78740000Y18841130D01*
X78644147Y19072540D01*
X78254540Y19462147D01*
X77745494Y19673000D01*
X77194506Y19673000D01*
X76685460Y19462147D01*
X76295853Y19072540D01*
X76200000Y18841130D01*
X76104147Y19072540D01*
X75714540Y19462147D01*
X75205494Y19673000D01*
X74654506Y19673000D01*
X74145460Y19462147D01*
X73755853Y19072540D01*
X73545000Y18563494D01*
X66424377Y18563494D01*
X66375643Y18681148D01*
X66119159Y18767554D01*
X65218605Y17867000D01*
X64859395Y17867000D01*
X63958841Y18767554D01*
X63702357Y18681148D01*
X63492542Y18107664D01*
X52074000Y18107664D01*
X52074000Y18172330D01*
X51840310Y18736507D01*
X51408507Y19168310D01*
X50844330Y19402000D01*
X50233670Y19402000D01*
X49669493Y19168310D01*
X49237690Y18736507D01*
X49004000Y18172330D01*
X41139183Y18172330D01*
X37640000Y21671512D01*
X37640000Y21858028D01*
X37951506Y21728998D01*
X38502494Y21728998D01*
X39011540Y21939851D01*
X39401147Y22329458D01*
X39433500Y22407566D01*
X39465853Y22329460D01*
X39855460Y21939853D01*
X40364506Y21729000D01*
X40915494Y21729000D01*
X41424540Y21939853D01*
X41814147Y22329460D01*
X42025000Y22838506D01*
X42025000Y23389494D01*
X41814147Y23898540D01*
X41450000Y24262687D01*
X41450000Y42082518D01*
X41465867Y42162288D01*
X41450000Y42242057D01*
X41450000Y42242061D01*
X41403003Y42478333D01*
X41223977Y42746264D01*
X41156348Y42791452D01*
X35176148Y48771651D01*
X35176148Y49286633D01*
X34965295Y49795679D01*
X34575688Y50185286D01*
X34066642Y50396139D01*
X33930067Y50396139D01*
X33930067Y50585604D01*
X33719214Y51094650D01*
X33329607Y51484257D01*
X32820561Y51695110D01*
X32705057Y51695110D01*
X32705057Y51961125D01*
X32496953Y52463535D01*
X41735000Y43225487D01*
X41735001Y25098778D01*
X41719132Y25019000D01*
X41740119Y24913494D01*
X41781998Y24702954D01*
X41961024Y24435023D01*
X42028654Y24389834D01*
X44963834Y21454653D01*
X45009023Y21387023D01*
X45276954Y21207997D01*
X45513226Y21161000D01*
X45513227Y21161000D01*
X45593000Y21145132D01*
X45672773Y21161000D01*
X50085227Y21161000D01*
X50165000Y21145132D01*
X50244773Y21161000D01*
X50244774Y21161000D01*
X50481046Y21207997D01*
X50748977Y21387023D01*
X50752087Y21391678D01*
X55904000Y21391678D01*
X55904000Y20542322D01*
X56229034Y19757620D01*
X56829620Y19157034D01*
X57614322Y18832000D01*
X58463678Y18832000D01*
X58741696Y18947159D01*
X64138446Y18947159D01*
X65039000Y18046605D01*
X65939554Y18947159D01*
X65853148Y19203643D01*
X65279664Y19413458D01*
X64669540Y19387839D01*
X64224852Y19203643D01*
X64138446Y18947159D01*
X58741696Y18947159D01*
X59248380Y19157034D01*
X59848966Y19757620D01*
X60174000Y20542322D01*
X60174000Y21103494D01*
X72275000Y21103494D01*
X72275000Y20552506D01*
X72485853Y20043460D01*
X72875460Y19653853D01*
X73384506Y19443000D01*
X73935494Y19443000D01*
X74444540Y19653853D01*
X74647170Y19856483D01*
X75408088Y19856483D01*
X75476077Y19615540D01*
X75995171Y19430799D01*
X76545448Y19458770D01*
X76923923Y19615540D01*
X76991912Y19856483D01*
X77948088Y19856483D01*
X78016077Y19615540D01*
X78535171Y19430799D01*
X79085448Y19458770D01*
X79463923Y19615540D01*
X79531912Y19856483D01*
X78740000Y20648395D01*
X77948088Y19856483D01*
X76991912Y19856483D01*
X76200000Y20648395D01*
X75408088Y19856483D01*
X74647170Y19856483D01*
X74834147Y20043460D01*
X74923397Y20258930D01*
X74987540Y20104077D01*
X75228483Y20036088D01*
X76020395Y20828000D01*
X76379605Y20828000D01*
X77171517Y20036088D01*
X77412460Y20104077D01*
X77465642Y20253511D01*
X77527540Y20104077D01*
X77768483Y20036088D01*
X78560395Y20828000D01*
X77768483Y21619912D01*
X77527540Y21551923D01*
X77474358Y21402489D01*
X77412460Y21551923D01*
X77171517Y21619912D01*
X76379605Y20828000D01*
X76020395Y20828000D01*
X75228483Y21619912D01*
X74987540Y21551923D01*
X74928255Y21385342D01*
X74834147Y21612540D01*
X74647170Y21799517D01*
X75408088Y21799517D01*
X76200000Y21007605D01*
X76991912Y21799517D01*
X77948088Y21799517D01*
X78740000Y21007605D01*
X79531912Y21799517D01*
X79463923Y22040460D01*
X78944829Y22225201D01*
X78394552Y22197230D01*
X78016077Y22040460D01*
X77948088Y21799517D01*
X76991912Y21799517D01*
X76923923Y22040460D01*
X76404829Y22225201D01*
X75854552Y22197230D01*
X75476077Y22040460D01*
X75408088Y21799517D01*
X74647170Y21799517D01*
X74444540Y22002147D01*
X73935494Y22213000D01*
X73384506Y22213000D01*
X72875460Y22002147D01*
X72485853Y21612540D01*
X72275000Y21103494D01*
X60174000Y21103494D01*
X60174000Y21391678D01*
X59848966Y22176380D01*
X59248380Y22776966D01*
X58463678Y23102000D01*
X57614322Y23102000D01*
X56829620Y22776966D01*
X56229034Y22176380D01*
X55904000Y21391678D01*
X50752087Y21391678D01*
X50794168Y21454656D01*
X54564513Y25225000D01*
X82978227Y25225000D01*
X83058000Y25209132D01*
X83137773Y25225000D01*
X83137774Y25225000D01*
X83374046Y25271997D01*
X83641977Y25451023D01*
X83687168Y25518656D01*
X86120513Y27952000D01*
X86635494Y27952000D01*
X87144540Y28162853D01*
X87534147Y28552460D01*
X87745000Y29061506D01*
X87745000Y29612494D01*
X87534147Y30121540D01*
X87144540Y30511147D01*
X86635494Y30722000D01*
X86084506Y30722000D01*
X85575460Y30511147D01*
X85185853Y30121540D01*
X84975000Y29612494D01*
X84975000Y29097513D01*
X82722488Y26845000D01*
X54308773Y26845000D01*
X54229000Y26860868D01*
X54149227Y26845000D01*
X54149226Y26845000D01*
X53912954Y26798003D01*
X53645023Y26618977D01*
X53599834Y26551347D01*
X49829488Y22781000D01*
X45928513Y22781000D01*
X43355000Y25354512D01*
X43355000Y27254488D01*
X45732000Y24877487D01*
X45732000Y24362506D01*
X45942853Y23853460D01*
X46332460Y23463853D01*
X46841506Y23253000D01*
X47392494Y23253000D01*
X47901540Y23463853D01*
X48291147Y23853460D01*
X48502000Y24362506D01*
X48502000Y24913494D01*
X48291147Y25422540D01*
X47901540Y25812147D01*
X47392494Y26023000D01*
X46877513Y26023000D01*
X44005011Y28895501D01*
X44005011Y31178569D01*
X45009000Y31178569D01*
X45009000Y30289431D01*
X45349259Y29467974D01*
X45977974Y28839259D01*
X46799431Y28499000D01*
X47688569Y28499000D01*
X48510026Y28839259D01*
X49138741Y29467974D01*
X49479000Y30289431D01*
X49479000Y31178569D01*
X49466160Y31209569D01*
X51819000Y31209569D01*
X51819000Y30320431D01*
X52159259Y29498974D01*
X52787974Y28870259D01*
X53609431Y28530000D01*
X54498569Y28530000D01*
X55320026Y28870259D01*
X55948741Y29498974D01*
X56289000Y30320431D01*
X56289000Y31209569D01*
X77219000Y31209569D01*
X77219000Y30320431D01*
X77559259Y29498974D01*
X78187974Y28870259D01*
X79009431Y28530000D01*
X79898569Y28530000D01*
X80720026Y28870259D01*
X81348741Y29498974D01*
X81689000Y30320431D01*
X81689000Y31209569D01*
X81348741Y32031026D01*
X80720026Y32659741D01*
X79898569Y33000000D01*
X79009431Y33000000D01*
X78187974Y32659741D01*
X77559259Y32031026D01*
X77219000Y31209569D01*
X56289000Y31209569D01*
X55948741Y32031026D01*
X55320026Y32659741D01*
X54498569Y33000000D01*
X53609431Y33000000D01*
X52787974Y32659741D01*
X52159259Y32031026D01*
X51819000Y31209569D01*
X49466160Y31209569D01*
X49138741Y32000026D01*
X48510026Y32628741D01*
X47688569Y32969000D01*
X46799431Y32969000D01*
X45977974Y32628741D01*
X45349259Y32000026D01*
X45009000Y31178569D01*
X44005011Y31178569D01*
X44005011Y46331881D01*
X48197000Y46331881D01*
X48197000Y45776119D01*
X48409680Y45262663D01*
X48802663Y44869680D01*
X49009513Y44784000D01*
X48802663Y44698320D01*
X48409680Y44305337D01*
X48197000Y43791881D01*
X48197000Y43236119D01*
X48409680Y42722663D01*
X48802663Y42329680D01*
X49009513Y42244000D01*
X48802663Y42158320D01*
X48409680Y41765337D01*
X48197000Y41251881D01*
X48197000Y40696119D01*
X48409680Y40182663D01*
X48802663Y39789680D01*
X49009513Y39704000D01*
X48802663Y39618320D01*
X48409680Y39225337D01*
X48197000Y38711881D01*
X48197000Y38156119D01*
X48409680Y37642663D01*
X48802663Y37249680D01*
X49009513Y37164000D01*
X48802663Y37078320D01*
X48409680Y36685337D01*
X48197000Y36171881D01*
X48197000Y35616119D01*
X48409680Y35102663D01*
X48802663Y34709680D01*
X49316119Y34497000D01*
X49871881Y34497000D01*
X50385337Y34709680D01*
X50778320Y35102663D01*
X50955420Y35530222D01*
X51119680Y35133663D01*
X51512663Y34740680D01*
X52026119Y34528000D01*
X52581881Y34528000D01*
X53095337Y34740680D01*
X53488320Y35133663D01*
X53701000Y35647119D01*
X53701000Y36202881D01*
X80407000Y36202881D01*
X80407000Y35647119D01*
X80619680Y35133663D01*
X81012663Y34740680D01*
X81526119Y34528000D01*
X82081881Y34528000D01*
X82595337Y34740680D01*
X82988320Y35133663D01*
X83201000Y35647119D01*
X83201000Y36202881D01*
X82988320Y36716337D01*
X82595337Y37109320D01*
X82404353Y37188428D01*
X82535143Y37242603D01*
X82604608Y37484787D01*
X81804000Y38285395D01*
X81003392Y37484787D01*
X81072857Y37242603D01*
X81213393Y37192465D01*
X81012663Y37109320D01*
X80619680Y36716337D01*
X80407000Y36202881D01*
X53701000Y36202881D01*
X53488320Y36716337D01*
X53095337Y37109320D01*
X52888487Y37195000D01*
X53095337Y37280680D01*
X53488320Y37673663D01*
X53701000Y38187119D01*
X53701000Y38672698D01*
X80394856Y38672698D01*
X80422638Y38117632D01*
X80581603Y37733857D01*
X80823787Y37664392D01*
X81624395Y38465000D01*
X81983605Y38465000D01*
X82784213Y37664392D01*
X83026397Y37733857D01*
X83213144Y38257302D01*
X83185362Y38812368D01*
X83026397Y39196143D01*
X82784213Y39265608D01*
X81983605Y38465000D01*
X81624395Y38465000D01*
X80823787Y39265608D01*
X80581603Y39196143D01*
X80394856Y38672698D01*
X53701000Y38672698D01*
X53701000Y38742881D01*
X53488320Y39256337D01*
X53095337Y39649320D01*
X52888487Y39735000D01*
X53095337Y39820680D01*
X53488320Y40213663D01*
X53701000Y40727119D01*
X53701000Y41282881D01*
X53488320Y41796337D01*
X53095337Y42189320D01*
X52888487Y42275000D01*
X53095337Y42360680D01*
X53488320Y42753663D01*
X53701000Y43267119D01*
X53701000Y43822881D01*
X53488320Y44336337D01*
X53095337Y44729320D01*
X52888487Y44815000D01*
X53095337Y44900680D01*
X53488320Y45293663D01*
X53701000Y45807119D01*
X53701000Y46362881D01*
X53488320Y46876337D01*
X53095337Y47269320D01*
X52581881Y47482000D01*
X52026119Y47482000D01*
X51512663Y47269320D01*
X51119680Y46876337D01*
X50942580Y46448778D01*
X50778320Y46845337D01*
X50385337Y47238320D01*
X49871881Y47451000D01*
X49316119Y47451000D01*
X48802663Y47238320D01*
X48409680Y46845337D01*
X48197000Y46331881D01*
X44005011Y46331881D01*
X44005011Y48038216D01*
X44020879Y48117989D01*
X43968997Y48378818D01*
X43958014Y48434035D01*
X43778988Y48701966D01*
X43711358Y48747155D01*
X41517000Y50941512D01*
X41517000Y51178569D01*
X45009000Y51178569D01*
X45009000Y50289431D01*
X45349259Y49467974D01*
X45977974Y48839259D01*
X46799431Y48499000D01*
X47688569Y48499000D01*
X48510026Y48839259D01*
X49138741Y49467974D01*
X49479000Y50289431D01*
X49479000Y51178569D01*
X49466160Y51209569D01*
X51819000Y51209569D01*
X51819000Y50320431D01*
X52159259Y49498974D01*
X52787974Y48870259D01*
X53609431Y48530000D01*
X54498569Y48530000D01*
X55320026Y48870259D01*
X55948741Y49498974D01*
X56289000Y50320431D01*
X56289000Y51209569D01*
X55948741Y52031026D01*
X55320026Y52659741D01*
X54498569Y53000000D01*
X53609431Y53000000D01*
X52787974Y52659741D01*
X52159259Y52031026D01*
X51819000Y51209569D01*
X49466160Y51209569D01*
X49138741Y52000026D01*
X48510026Y52628741D01*
X47688569Y52969000D01*
X46799431Y52969000D01*
X45977974Y52628741D01*
X45349259Y52000026D01*
X45009000Y51178569D01*
X41517000Y51178569D01*
X41517000Y51420488D01*
X47198513Y57102000D01*
X49936313Y57102000D01*
X49879853Y57045540D01*
X49669000Y56536494D01*
X49669000Y55985506D01*
X49745425Y55801000D01*
X49408687Y55801000D01*
X49044540Y56165147D01*
X48535494Y56376000D01*
X47984506Y56376000D01*
X47475460Y56165147D01*
X47085853Y55775540D01*
X46875000Y55266494D01*
X46875000Y54715506D01*
X47085853Y54206460D01*
X47475460Y53816853D01*
X47984506Y53606000D01*
X48535494Y53606000D01*
X49044540Y53816853D01*
X49408687Y54181000D01*
X65309908Y54181000D01*
X65389681Y54165132D01*
X65469454Y54181000D01*
X65469455Y54181000D01*
X65705727Y54227997D01*
X65973658Y54407023D01*
X66018849Y54474656D01*
X66100945Y54556752D01*
X66615927Y54556752D01*
X67124973Y54767605D01*
X67514580Y55157212D01*
X67725433Y55666258D01*
X67725433Y56217246D01*
X67514580Y56726292D01*
X67124973Y57115899D01*
X66615927Y57326752D01*
X66220512Y57326752D01*
X66464763Y57571003D01*
X66485229Y57566932D01*
X66565002Y57582800D01*
X66565003Y57582800D01*
X66801275Y57629797D01*
X66992843Y57757799D01*
X67510722Y57757799D01*
X68019768Y57968652D01*
X68409375Y58358259D01*
X68620228Y58867305D01*
X68620228Y59418293D01*
X68409375Y59927339D01*
X68019768Y60316946D01*
X67510722Y60527799D01*
X66959734Y60527799D01*
X66450688Y60316946D01*
X66061081Y59927339D01*
X65850228Y59418293D01*
X65850228Y59160821D01*
X65825001Y59155803D01*
X65557070Y58976777D01*
X65511881Y58909147D01*
X63673735Y57071000D01*
X52202687Y57071000D01*
X52171687Y57102000D01*
X56562227Y57102000D01*
X56642000Y57086132D01*
X56721773Y57102000D01*
X56721774Y57102000D01*
X56958046Y57148997D01*
X57225977Y57328023D01*
X57271168Y57395656D01*
X57920348Y58044835D01*
X57987977Y58090023D01*
X58075673Y58221270D01*
X58167003Y58357953D01*
X58229868Y58674000D01*
X58214000Y58753774D01*
X58214000Y59864227D01*
X58229868Y59944000D01*
X58214000Y60023774D01*
X58167003Y60260046D01*
X57987977Y60527977D01*
X57920347Y60573166D01*
X56128168Y62365344D01*
X56082977Y62432977D01*
X55815046Y62612003D01*
X55578774Y62659000D01*
X55578773Y62659000D01*
X55499000Y62674868D01*
X55419227Y62659000D01*
X44836687Y62659000D01*
X44472540Y63023147D01*
X44472000Y63023371D01*
X44472000Y63390223D01*
X44505435Y63396874D01*
X44796586Y63591414D01*
X44991126Y63882565D01*
X45059440Y64226000D01*
X45059440Y66076000D01*
X44991126Y66419435D01*
X44937294Y66500000D01*
X65069488Y66500000D01*
X72469000Y59100487D01*
X72469001Y53548514D01*
X65898488Y46978000D01*
X65383506Y46978000D01*
X64874460Y46767147D01*
X64484853Y46377540D01*
X64274000Y45868494D01*
X64274000Y45317506D01*
X64484853Y44808460D01*
X64874460Y44418853D01*
X65383506Y44208000D01*
X65922488Y44208000D01*
X65450488Y43736000D01*
X64902687Y43736000D01*
X64538540Y44100147D01*
X64029494Y44311000D01*
X63478506Y44311000D01*
X62969460Y44100147D01*
X62579853Y43710540D01*
X62369000Y43201494D01*
X62369000Y42650506D01*
X62579853Y42141460D01*
X62969460Y41751853D01*
X63478506Y41541000D01*
X64029494Y41541000D01*
X64538540Y41751853D01*
X64902687Y42116000D01*
X65706227Y42116000D01*
X65786000Y42100132D01*
X65865773Y42116000D01*
X65865774Y42116000D01*
X66102046Y42162997D01*
X66369977Y42342023D01*
X66415168Y42409656D01*
X70368393Y46362881D01*
X80407000Y46362881D01*
X80407000Y45807119D01*
X80619680Y45293663D01*
X81012663Y44900680D01*
X81219513Y44815000D01*
X81012663Y44729320D01*
X80619680Y44336337D01*
X80407000Y43822881D01*
X80407000Y43267119D01*
X80619680Y42753663D01*
X81012663Y42360680D01*
X81219513Y42275000D01*
X81012663Y42189320D01*
X80619680Y41796337D01*
X80407000Y41282881D01*
X80407000Y40727119D01*
X80619680Y40213663D01*
X81012663Y39820680D01*
X81203647Y39741572D01*
X81072857Y39687397D01*
X81003392Y39445213D01*
X81804000Y38644605D01*
X82604608Y39445213D01*
X82535143Y39687397D01*
X82394607Y39737535D01*
X82595337Y39820680D01*
X82988320Y40213663D01*
X83201000Y40727119D01*
X83201000Y41282881D01*
X82988320Y41796337D01*
X82595337Y42189320D01*
X82388487Y42275000D01*
X82595337Y42360680D01*
X82988320Y42753663D01*
X83201000Y43267119D01*
X83201000Y43822881D01*
X82988320Y44336337D01*
X82595337Y44729320D01*
X82388487Y44815000D01*
X82595337Y44900680D01*
X82988320Y45293663D01*
X83201000Y45807119D01*
X83201000Y46362881D01*
X82988320Y46876337D01*
X82595337Y47269320D01*
X82081881Y47482000D01*
X81526119Y47482000D01*
X81012663Y47269320D01*
X80619680Y46876337D01*
X80407000Y46362881D01*
X70368393Y46362881D01*
X74684347Y50678834D01*
X74751977Y50724023D01*
X74931003Y50991954D01*
X74974288Y51209569D01*
X77219000Y51209569D01*
X77219000Y50320431D01*
X77559259Y49498974D01*
X78187974Y48870259D01*
X79009431Y48530000D01*
X79898569Y48530000D01*
X80720026Y48870259D01*
X81348741Y49498974D01*
X81689000Y50320431D01*
X81689000Y51209569D01*
X81348741Y52031026D01*
X80720026Y52659741D01*
X79898569Y53000000D01*
X79009431Y53000000D01*
X78187974Y52659741D01*
X77559259Y52031026D01*
X77219000Y51209569D01*
X74974288Y51209569D01*
X74978000Y51228226D01*
X74993868Y51307999D01*
X74978000Y51387772D01*
X74978000Y60372228D01*
X74993868Y60452001D01*
X74943145Y60707003D01*
X74931003Y60768046D01*
X74751977Y61035977D01*
X74684348Y61081165D01*
X66415168Y69350344D01*
X66369977Y69417977D01*
X66102046Y69597003D01*
X65865774Y69644000D01*
X65865773Y69644000D01*
X65786000Y69659868D01*
X65706227Y69644000D01*
X31067768Y69644000D01*
X30987999Y69659867D01*
X30908230Y69644000D01*
X30908226Y69644000D01*
X30671954Y69597003D01*
X30404023Y69417977D01*
X30358834Y69350347D01*
X28959655Y67951167D01*
X28892025Y67905978D01*
X28846836Y67838348D01*
X28712999Y67638047D01*
X28650133Y67322001D01*
X28666002Y67242224D01*
X28666001Y66488773D01*
X28650133Y66408999D01*
X28666001Y66329226D01*
X28712998Y66092954D01*
X28841000Y65901385D01*
X28841000Y65383506D01*
X29051853Y64874460D01*
X29441460Y64484853D01*
X29950506Y64274000D01*
X30501494Y64274000D01*
X31010540Y64484853D01*
X31390937Y64865250D01*
X39027000Y64865250D01*
X39027000Y63849690D01*
X39123673Y63616301D01*
X39302302Y63437673D01*
X39535691Y63341000D01*
X40126250Y63341000D01*
X40285000Y63499750D01*
X40285000Y65024000D01*
X40539000Y65024000D01*
X40539000Y63499750D01*
X40697750Y63341000D01*
X41288309Y63341000D01*
X41521698Y63437673D01*
X41700327Y63616301D01*
X41797000Y63849690D01*
X41797000Y64865250D01*
X41638250Y65024000D01*
X40539000Y65024000D01*
X40285000Y65024000D01*
X39185750Y65024000D01*
X39027000Y64865250D01*
X31390937Y64865250D01*
X31400147Y64874460D01*
X31611000Y65383506D01*
X31611000Y65934494D01*
X31476071Y66260242D01*
X31600460Y66135853D01*
X32109506Y65925000D01*
X32660494Y65925000D01*
X33169540Y66135853D01*
X33533687Y66500000D01*
X39046754Y66500000D01*
X39027000Y66452310D01*
X39027000Y65436750D01*
X39185750Y65278000D01*
X40285000Y65278000D01*
X40285000Y65298000D01*
X40539000Y65298000D01*
X40539000Y65278000D01*
X41638250Y65278000D01*
X41797000Y65436750D01*
X41797000Y66452310D01*
X41777246Y66500000D01*
X42386706Y66500000D01*
X42332874Y66419435D01*
X42264560Y66076000D01*
X42264560Y64226000D01*
X42332874Y63882565D01*
X42527414Y63591414D01*
X42818565Y63396874D01*
X42852001Y63390223D01*
X42852001Y62971688D01*
X42513853Y62633540D01*
X42303000Y62124494D01*
X42303000Y61609513D01*
X40177488Y59484000D01*
X30434513Y59484000D01*
X24505168Y65413344D01*
X24459977Y65480977D01*
X24192046Y65660003D01*
X23955774Y65707000D01*
X23955773Y65707000D01*
X23876000Y65722868D01*
X23796227Y65707000D01*
X10411433Y65707000D01*
X10331660Y65722868D01*
X10251887Y65707000D01*
X10251886Y65707000D01*
X10015614Y65660003D01*
X9747683Y65480977D01*
X9702494Y65413347D01*
X9318917Y65029770D01*
X9166540Y65182147D01*
X8657494Y65393000D01*
X8106506Y65393000D01*
X7597460Y65182147D01*
X7207853Y64792540D01*
X6997000Y64283494D01*
X710000Y64283494D01*
X710000Y74739569D01*
X1321000Y74739569D01*
X1321000Y73850431D01*
X1661259Y73028974D01*
X2289974Y72400259D01*
X3111431Y72060000D01*
X4000569Y72060000D01*
X4822026Y72400259D01*
X5450741Y73028974D01*
X5791000Y73850431D01*
X5791000Y74739569D01*
X90983000Y74739569D01*
X90983000Y73850431D01*
X91323259Y73028974D01*
X91951974Y72400259D01*
X92773431Y72060000D01*
X93662569Y72060000D01*
X94484026Y72400259D01*
X95112741Y73028974D01*
X95453000Y73850431D01*
X95453000Y74739569D01*
X95112741Y75561026D01*
X94484026Y76189741D01*
X93662569Y76530000D01*
X92773431Y76530000D01*
X91951974Y76189741D01*
X91323259Y75561026D01*
X90983000Y74739569D01*
X5791000Y74739569D01*
X5450741Y75561026D01*
X4822026Y76189741D01*
X4000569Y76530000D01*
X3111431Y76530000D01*
X2289974Y76189741D01*
X1661259Y75561026D01*
X1321000Y74739569D01*
X710000Y74739569D01*
X710000Y77141000D01*
X96066313Y77141000D01*
X96315680Y710000D01*
G04 #@! TD*
M02*
