M48
;DRILL file {KiCad (5.0.0)} date 08/24/18 22:17:00
;FORMAT={-:-/ absolute / metric / decimal}
FMAT,2
METRIC,TZ
T1C0.500
T2C0.760
T3C0.762
T4C0.910
T5C1.000
T6C2.200
T7C3.200
%
G90
G05
M71
T1
X25.908Y44.831
X28.448Y44.831
T2
X73.66Y20.828
X74.93Y18.288
X76.2Y20.828
X77.47Y18.288
X78.74Y20.828
X80.01Y18.288
X81.28Y20.828
X82.55Y18.288
T3
X52.304Y46.085
X52.304Y43.545
X52.304Y41.005
X52.304Y38.465
X52.304Y35.925
X81.804Y46.085
X81.804Y43.545
X81.804Y41.005
X81.804Y38.465
X81.804Y35.925
X20.094Y46.054
X20.094Y43.514
X20.094Y40.974
X20.094Y38.434
X20.094Y35.894
X49.594Y46.054
X49.594Y43.514
X49.594Y40.974
X49.594Y38.434
X49.594Y35.894
T4
X8.382Y64.008
X8.89Y59.69
X26.035Y57.15
X26.797Y59.182
X30.226Y65.659
X31.32Y51.686
X31.369Y25.781
X31.496Y37.973
X32.385Y67.31
X32.545Y50.31
X33.791Y49.011
X35.433Y23.114
X38.227Y23.114
X40.132Y51.181
X40.64Y23.114
X43.688Y61.849
X47.117Y24.638
X48.26Y54.991
X51.054Y56.261
X52.07Y4.445
X55.515Y59.137
X63.754Y42.926
X65.659Y45.593
X66.34Y55.942
X67.235Y59.143
X68.707Y15.621
X76.148Y23.413
X86.36Y29.337
T5
X12.446Y62.357
X12.446Y59.817
X12.446Y57.277
X14.986Y62.357
X14.986Y59.817
X14.986Y57.277
X50.539Y17.867
X50.539Y15.367
X50.539Y12.867
X65.039Y17.867
X65.039Y12.867
T6
X58.039Y20.967
X58.039Y9.767
T7
X3.556Y3.556
X93.218Y74.295
X18.923Y12.573
X72.39Y11.938
X83.82Y11.938
X54.054Y50.765
X54.054Y30.765
X79.454Y50.765
X79.454Y30.765
X21.844Y50.734
X21.844Y30.734
X47.244Y50.734
X47.244Y30.734
X6.477Y12.827
X3.556Y74.295
X93.472Y3.556
T5
X7.111Y32.322G85X7.111Y34.322
G05
X10.811Y36.322G85X12.811Y36.322
G05
X10.811Y30.322G85X12.811Y30.322
G05
T0
M30
